<?xml version="1.0" encoding="utf-8"?>
<!-- Generator: Adobe Illustrator 13.0.0, SVG Export Plug-In . SVG Version: 6.00 Build 14948)  -->
<!DOCTYPE svg PUBLIC "-//W3C//DTD SVG 1.1//EN" "http://www.w3.org/Graphics/SVG/1.1/DTD/svg11.dtd">
<svg version="1.1" id="Layer_3" xmlns="http://www.w3.org/2000/svg" xmlns:xlink="http://www.w3.org/1999/xlink" x="0px" y="0px"
	 width="316px" height="88px" viewBox="0 0 316 88" enable-background="new 0 0 316 88" xml:space="preserve">
<path fill="#FFFFFF" d="M172.1,47c-0.1-0.8-0.7-1.3-1.5-1.3c-0.1,0-0.1,0-0.2,0c0-0.1,0-0.2,0-0.3c0-0.9-0.8-1.6-1.7-1.5l-6.9,0.1
	c-0.5,0-1,0.3-1.3,0.7l-0.5-0.1c0-0.2-0.1-0.5-0.3-0.6c-0.3-0.4-0.6-0.6-1.1-0.7l-1.6-0.3c-0.4-0.1-0.9,0-1.2,0.3
	c-0.2,0.1-0.4,0.3-0.5,0.5l-1.4-0.2c-0.1,0-0.2,0-0.2-0.1c-0.1,0-0.2,0-0.2-0.1c-0.9-0.2-1.7,0.2-2,1.1l0,0l-1-0.9
	c-0.4-0.4-1.1-0.5-1.6-0.3c-0.6,0.2-1,0.7-1.1,1.3l-0.5,2.8c-0.1,0.6,0.1,1.2,0.6,1.6l6.1,4.8c0.2,0.2,0.4,0.3,0.7,0.3
	c0.2,0.2,0.5,0.4,0.9,0.5l0,0.1l-0.3,0l-0.3-0.1c-0.1-0.1-0.3-0.1-0.5-0.1l-6.6-0.9c-0.9-0.1-1.7,0.5-1.8,1.3l-0.2,1.2
	c0,0.3,0,0.6,0.1,0.9c0,0.1,0.1,0.4,0.3,1.4c0.1,0.6,0.1,1.1,0.2,1.6l0.1,0.4c0,0.2,0.1,0.5,0.2,0.7c-1.7,1-2.2,2.8-2.4,3.7
	c-0.2,1-0.2,2.8,1.3,4.4c-0.3,0-0.6,0.2-0.8,0.4l-0.5,0.4c0,0,0,0-0.1,0.1c-0.2-2.2-0.7-3.8-1.8-5.5c-1.3-2-3.3-3.9-5.2-5.6
	c-1-1-2-1.9-2.9-2.8c-0.1-0.2-0.3-0.3-0.4-0.5c-0.9-0.9-1.4-1.6-1.4-2.2c0-0.9,0.2-1.3,0.3-1.4c0-0.1,0.1-0.1,0.5-0.1
	c0.1,0.2,0.2,0.6,0.3,1.5c0,0.6,0.3,1.6,1.7,1.9c0,0.1,0,0.1,0,0.1c0.1,0.9,0.8,1.5,1.6,1.5l5.1,0c0.4,0,0.8-0.2,1.2-0.5
	c0.3-0.3,0.5-0.7,0.5-1.2c0-2.7-0.2-5.6-1.2-7.6c-1.4-2.5-3.8-3.9-7.1-4.2c-0.4,0-0.9-0.1-1.4-0.1c-3.4,0-5.9,0.8-7.6,2.4l0-0.2
	c0-0.9-0.7-1.6-1.6-1.6l-16.7,0c-0.9,0-1.6,0.7-1.6,1.6l0,1.3c-1.6-1.6-3.8-2.6-6.9-2.8c-0.6,0-1.3-0.1-1.9-0.1l-7.8,0
	c-0.9,0-1.6,0.7-1.6,1.6l0,5.3c-0.8-4.9-5.8-7.6-10.3-7.6c-5,0-8.4,2.2-9.8,6.3c-0.9-3.3-3.4-5.3-7-5.6c-0.3,0-0.6,0-0.9,0l-8.7,0
	c-0.9,0-1.6,0.7-1.6,1.6l0,4.5c-0.2-0.9-0.4-1.7-0.8-2.4c-1.4-2.5-3.8-3.9-7.1-4.2c-0.4,0-0.9-0.1-1.4-0.1
	c-9.1,0-10.2,5.8-10.2,10.8c0,4.9,2.1,7.9,3.8,9.5c0.7,0.7,1.8,1.3,2.6,1.7c0.2,0.6,0.5,1.3,1.2,1.7c0.2,0.2,0.5,0.3,0.7,0.5
	c1.4,1,3.1,2.3,3.1,3.9c0,0.9-0.2,1.2-0.2,1.2c-0.1,0.2-0.5,0.2-0.7,0.2c0,0-0.1,0-0.1,0c-0.6,0-1-0.6-1.1-1.6
	c0-0.3-0.1-0.5-0.3-0.7C39.1,70.5,39,70,39,69.5c-0.1-0.8-0.8-1.5-1.6-1.4l-5.9,0c-0.4,0-0.8,0.2-1.2,0.5c-0.3,0.3-0.5,0.7-0.5,1.2
	c0,2.8,0,11.2,9.2,12c0.4,0,0.9,0.1,1.4,0.1c4.6,0,7.8-1.6,9.3-4.8l0,2.5c0,0.9,0.7,1.6,1.5,1.6c0,0,0.1,0,0.1,0l5.9,0
	c0.4,0,0.8-0.2,1.2-0.5c0.3-0.3,0.5-0.7,0.5-1.2l0-11.8c0.3,0,0.7,0,1-0.2c0.3-0.1,0.5-0.3,0.6-0.5c0.3,0.1,0.7,0.2,1.2,0.2
	c1.9,0.2,3.6-0.7,4.9-2.6c0.3-0.4,0.5-0.8,0.7-1.3l0,7.9c0,6.3,3.4,10.1,9.2,10.6c0.4,0,0.9,0.1,1.3,0c5.8,0,9.5-3,10.3-8.3
	c0,1,0.1,2,0.3,3.2c0.1,0.5,0.3,0.8,0.7,1.1c0,0,0,0.1,0,0.1c-0.1,0.3-0.1,0.6-0.2,1.1c0,0.3,0,0.6,0.2,0.8c0.3,0.7,0.8,1,1.2,1.1
	c0.2,0.1,0.4,0.1,0.6,0.2c0,0,0.1,0,0.1,0l5.1,0c0.9,0,1.6-0.7,1.6-1.6l0-12.3c0.5,0,0.8,0.2,0.8,2l0,7.9c0,0.7,0,2.7,1.6,3.7
	c0.3,0.2,0.6,0.3,0.9,0.3l6.1,0c0.6,0,1.2-0.4,1.5-0.9c0.3-0.6,0.2-1.2-0.2-1.7c-0.3-0.4-0.4-0.7-0.4-1.3l0-9.7c0-2-0.3-3.8-1.8-5
	c2.2-2.2,2.5-5.2,2.5-7.3c0-0.7,0-1.4-0.1-2l2.9,0l0.1,26.3c0,0.4,0.2,0.8,0.5,1.2c0.3,0.3,0.6,0.4,1,0.5c0,0,0.1,0,0.1,0l6.1,0
	c0.4,0,0.9-0.2,1.2-0.5c0.3-0.3,0.5-0.7,0.5-1.2l-0.1-20.3c0-0.3-0.1-0.6-0.3-0.9l0.3-5.1l1.2,0c0,0,0.1,0,0.1,0
	c0.5,0,1.1-0.2,1.5-0.5c0,0.5-0.1,1.1-0.1,1.7c0,4.9,2.1,7.9,3.8,9.5c0.7,0.7,1.8,1.3,2.6,1.7c0.2,0.6,0.5,1.3,1.2,1.7
	c0.2,0.2,0.5,0.3,0.7,0.5c1.4,1,3.1,2.3,3.1,3.9c0,1.4-0.4,1.4-0.9,1.4c0,0-0.1,0-0.1,0c-0.6,0-1-0.6-1.1-1.6c0-0.3-0.1-0.5-0.3-0.7
	c-0.1-0.3-0.2-0.8-0.2-1.2c-0.1-0.8-0.8-1.5-1.6-1.4l-5.9,0c-0.4,0-0.8,0.2-1.2,0.5c-0.3,0.3-0.5,0.7-0.5,1.2c0,2.8,0,11.2,9.2,12
	c0.4,0,0.9,0.1,1.4,0.1c4.6,0,7.8-1.6,9.3-4.8c0.7,1.5,2,2.5,4,2.8c0.4,0.1,0.9,0,1.2-0.3c0.4-0.3,0.6-0.6,0.7-1.1l0.3-1.7
	c1.1,1.1,1.8,1.9,2.9,3.2c0.3,0.3,0.6,0.5,1,0.6l1.5,0.3c0,0,0.1,0,0.1,0c0,0,0.1,0,0.1,0c0.3,0.2,0.6,0.4,1,0.4c0.1,0,0.1,0,0.2,0
	c5-0.2,5.2-0.2,5.5-0.2c0.1,0,0.2,0,0.4,0c0.8,0,1.5-0.6,1.6-1.4l1.1-6.4l2.2,0l1,6.5c0.1,0.8,0.8,1.4,1.6,1.4l6.7-0.1
	c0.5,0,0.9-0.2,1.2-0.6c0.3-0.4,0.4-0.9,0.3-1.3L172.1,47z M58.9,59.5l0-7.8c0,0,0.1,0,0.1,0c0,0,0.1,0.2,0.1,0.9c0,0.3,0,0.7,0,1
	c0,0.4,0,0.8,0,1.1c0,0.6,0.2,1.1,0.4,1.4c0,0,0,0,0,0.1l0,2.4C59.4,59,59.4,59.3,58.9,59.5 M48.9,64.5c-1.3-2-3.3-3.9-5.2-5.6
	c-1-1-2-1.9-2.9-2.8c-0.1-0.2-0.3-0.3-0.4-0.5c-0.9-0.9-1.4-1.6-1.4-2.2c0-0.9,0.2-1.3,0.3-1.4c0-0.1,0.1-0.1,0.5-0.1
	c0.1,0.2,0.2,0.6,0.3,1.5c0,0.6,0.3,1.6,1.7,1.9c0,0.1,0,0.1,0,0.2c0.1,0.9,0.8,1.5,1.6,1.5l5.1,0c0.4,0,0.8-0.2,1.2-0.5
	c0,0,0.1-0.1,0.1-0.1l0,9.5C49.5,65.5,49.2,65,48.9,64.5 M97.8,59.2l0-7.9c0.1,0,0.1,0,0.2,0c1.4,0.1,1.6,2.1,1.7,3.8
	C99.6,59.2,98.2,59.2,97.8,59.2 M77.7,73.5c0-0.2,0-0.6,0-0.8c0-0.5,0-1.1-0.2-1.7c0,0,0-0.1,0-0.1c-0.2-0.6-0.5-0.9-0.9-1.1
	l0.1-15.7c0-0.6,0-1.6,0.2-2.2c0.1-0.2,0.2-0.4,0.7-0.4c0.1,0,0.1,0,0.2,0c0.3,0,0.9,0.1,0.9,2.5l0,16.9
	C78.7,73.4,78.3,73.5,77.7,73.5 M87.9,67.1c0-1.9,0.1-3.8,0.1-5.8l0,7.3c0,0.6,0,1.2,0,1.7c-0.1-0.1-0.1-0.2-0.2-0.3
	C87.8,69,87.9,68,87.9,67.1 M152,71.6c-0.1-0.1-0.2-0.2-0.3-0.2c0,0,0.1,0,0.1,0c0.3,0,0.6,0,0.8,0l-0.1,0.7
	C152.5,72,152.3,71.8,152,71.6 M151.4,59.9l3.2,0.5l-0.1,0.3c-0.2-0.1-0.4-0.2-0.7-0.2c-0.1,0-0.3-0.1-0.4-0.1
	c-0.3-0.1-0.6-0.2-0.9-0.2c-0.4-0.1-0.8-0.1-1.1-0.1L151.4,59.9z M159,52.6l-0.2,0l0.4-2.2l0.2,0L159,52.6z"/>
<path fill="#FFFFFF" d="M207.6,44.3c-0.3-0.4-0.8-0.6-1.2-0.6l-5.9,0c-0.8,0-1.5,0.6-1.6,1.4l-1.8,12.3L194.9,45
	c-0.1-0.5-0.4-0.9-0.8-1.2c-0.4-0.2-1-0.2-1.4,0l-2.8,1.3c-0.2,0.1-0.4,0.3-0.6,0.4c-0.1,0.2-0.3,0.3-0.4,0.5
	c-0.1,0.2-0.3,0.3-0.4,0.5c-0.5,0.7-0.7,1.3-0.6,2c-0.1,0.1-0.2,0.1-0.3,0.2c-0.4,0.4-0.6,0.9-0.5,1.5l0.6,3.7l-1.1,4.8l-1.7-11.8
	c-0.1-0.8-0.7-1.3-1.5-1.4c-0.5,0-0.6-0.1-0.6-0.1c0,0-0.1-0.1-0.3-0.6c-0.2-0.7-0.8-1.1-1.6-1.1l-5.1,0c-0.5,0-0.9,0.2-1.3,0.6
	c-0.3,0.4-0.4,0.9-0.3,1.4l6.6,33.8c0.1,0.7,0.7,1.3,1.5,1.3c0,0,0.1,0,0.1,0l5.9,0c0.8,0,1.4-0.5,1.6-1.3l1.5-7.5l1.5,7.4
	c0.2,0.8,0.8,1.3,1.6,1.3l6.8,0c0.8,0,1.5-0.6,1.6-1.4l5.1-33.8C208.1,45.1,207.9,44.6,207.6,44.3"/>
<path fill="#FFFFFF" d="M286.3,71.1c0-3.1-0.5-5-1.9-7.1c-1.3-2-3.3-3.8-5.2-5.6c-1-1-2-1.9-2.9-2.8c-0.1-0.2-0.3-0.3-0.4-0.5
	c-0.9-0.9-1.4-1.6-1.4-2.2c0-1.5,0.4-1.5,0.7-1.5c0.1,0.2,0.2,0.6,0.3,1.5c0,0.6,0.3,1.6,1.7,1.9c0,0.1,0,0.1,0,0.2
	c0.1,0.9,0.8,1.5,1.6,1.5l5.1,0c0.9,0,1.6-0.7,1.6-1.6c0-2.7-0.2-5.6-1.2-7.6c-1.4-2.5-3.8-3.9-7.1-4.2c-0.4,0-0.9-0.1-1.4-0.1
	c-3.7,0-6.4,1-8,2.9c-0.9,1.1-1.5,2.5-1.9,4.3c-1.2-3.8-4.2-6.1-8.6-6.5c-0.4,0-0.8,0-1.2,0l-8.2,0c-0.4,0-0.9,0.2-1.2,0.5
	c-0.3,0.3-0.5,0.7-0.5,1.2l0.1,5.3c-1-4.3-4-6.5-9-6.9c-0.6,0-1.3-0.1-1.9-0.1l-7.8,0c-0.9,0-1.6,0.7-1.6,1.6l0,23
	c0,0.3,0,0.6,0,0.9l-4-22.3c-0.1-0.8-0.8-1.3-1.5-1.3c-0.1,0-0.1,0-0.2,0c0-0.1,0-0.2,0-0.3c0-0.9-0.8-1.6-1.7-1.5l-6.9,0.1
	c-0.8,0-1.5,0.6-1.6,1.4l-2.2,13.2c-3,18.4-3.2,19.1-3.5,20.4c-0.1,0.5,0,1,0.3,1.4c0.3,0.3,0.7,0.6,1.1,0.6c0.1,0,0.1,0,0.2,0
	c5-0.2,5.2-0.2,5.5-0.2c0.1,0,0.2,0,0.4,0c0.8,0,1.5-0.6,1.6-1.4l1.1-6.4l2.2-0.1l1,6.5c0.1,0.8,0.8,1.4,1.6,1.4l6.7-0.1
	c0.5,0,0.9-0.2,1.2-0.6c0,0,0.1-0.1,0.1-0.1c0.3,0.3,0.7,0.5,0.8,0.6c0.2,0.1,0.4,0.1,0.6,0.2c0,0,0.1,0,0.1,0l5.1,0
	c0.4,0,0.8-0.2,1.2-0.5c0.3-0.3,0.5-0.7,0.5-1.2l0-12.3c0.5,0,0.8,0.2,0.8,2l0,7.9c0,0.7,0,2.7,1.6,3.7c0.3,0.2,0.6,0.3,0.9,0.3
	l6.1,0c0.6,0,1.1-0.3,1.4-0.7c0.1,0.1,0.1,0.2,0.2,0.3c0.3,0.3,0.6,0.4,1,0.5c0,0,0.1,0,0.1,0l8.2,0c5,0,8.4-2.3,9.8-6.3
	c0.9,3.1,3.1,6.4,8.6,6.9c0.4,0,0.9,0.1,1.4,0.1c3.4,0,5.9-0.8,7.7-2.5C285.4,77,286.3,74.5,286.3,71.1 M256,52c0.2,0,0.3,0,0.5,0
	c0.5,0,0.6,0.1,0.6,0.1c0,0,0.2,0.3,0.2,1.6l0,7.2l-0.2,0.2c-0.3,0.3-0.5,0.7-0.5,1.2l0,7.6c0,1.9-0.2,2.4-0.6,2.5L256,52z
	 M237.1,57.9c-0.4,0.8-0.8,1-1.4,1l0-7.9c0.1,0,0.1,0,0.2,0c1.4,0.1,1.6,2.1,1.6,3.8C237.6,56.1,237.4,57.2,237.1,57.9 M246.1,67
	c0-2-0.3-3.8-1.8-5c1-1,1.6-2.1,1.9-3.3l0,19c-0.1-0.3-0.2-0.6-0.2-1L246.1,67z M266.6,67.7l0-8.6c0.8,2,1.9,3.4,2.9,4.4
	c0.7,0.7,1.8,1.3,2.6,1.7c0.2,0.6,0.5,1.3,1.2,1.7c0.2,0.2,0.5,0.3,0.7,0.5c1.4,1,3.1,2.3,3.1,3.9c0,0.9-0.2,1.2-0.2,1.2
	c-0.1,0.2-0.5,0.2-0.7,0.2c0,0-0.1,0-0.1,0c-0.6,0-1-0.6-1.1-1.6c0-0.3-0.1-0.5-0.3-0.7c-0.1-0.3-0.2-0.8-0.2-1.2
	c-0.1-0.8-0.8-1.4-1.6-1.4l-5.9,0C266.8,67.6,266.7,67.6,266.6,67.7"/>
<path fill="#BBBDBF" d="M40.9,80.4c-7.7,0-8.9-5.2-8.9-10.4l5.9,0c0,0,0.2,1.8,0.5,1.9c0.3,2.5,1.8,3.1,2.8,3.1c1.7,0,2.6-1,2.6-3
	c0-2.8-2.9-4.5-4.5-5.7c-0.6-0.4-0.7-1.5-0.7-1.5s-1.9-0.9-2.8-1.8c-1.8-1.7-3.3-4.5-3.3-8.3c0-6,1.9-9.2,8.6-9.2c3,0,5.6,0.8,7,3.4
	c0.8,1.6,1,4.2,1,6.8l-5.1,0c0,0-0.1-0.9-0.4-1.3C42.9,54,42,54.2,42,53.6c-0.1-2.8-1.1-3.1-1.9-3.1c-1.6,0-2.4,1.1-2.4,3.2
	c0,1.6,1.2,2.6,2.3,3.8c2.4,2.6,6,5.3,7.9,8.2c1.1,1.6,1.6,3.1,1.6,6.2C49.6,77.7,46.7,80.4,40.9,80.4"/>
<path fill="#BBBDBF" d="M57.6,79.7l-5.9,0L51.7,46l8.7,0c4.1,0,6.5,2.5,6.7,6.6c0.1,1.2,0.1,2.3,0.1,3.4c0,2.4-0.1,5.8-1.5,7.8
	c-3,4.3-5.7,0-6.1,2.5l-0.9-0.5l-1,0.5L57.6,79.7z M61.5,59c0-0.8,0-1.8,0-2.6c0-0.4-0.4-0.8-0.4-1.3c0-0.7,0.1-1.4,0-2.2
	c0-2.6-1.4-2.7-3.5-2.7l0,11.4C59.5,61.6,61.4,61.3,61.5,59"/>
<path fill="#BBBDBF" d="M87,71.3c0,5.7-3,9-8.8,9c-5.8,0-8.8-3.2-8.8-9l0-16.9c0-5.8,2.9-9.1,8.8-9.1c4.3,0,8.8,2.7,8.8,7.4
	c0,6.1-0.2,12.2-0.3,18.4L87,71.3z M76.4,71.7c0.4,1.3-0.4,3.7,1.7,3.7c2.4,0,2.7-2.1,2.7-4.1l0-16.9c0-1.9-0.3-4.1-2.7-4.1
	c-2.5,0-2.6,2.3-2.6,4.2l-0.1,16.3c0,0.1,0.2,0.5,0.2,0.6C75.8,71.4,76.3,71.4,76.4,71.7"/>
<path fill="#BBBDBF" d="M96.6,79.6l-5.1,0c-0.2-0.1-0.4-0.2-0.5-0.4c0.1-1.1,0.7-1.9-0.6-2.6c-0.5-3-0.3-4.8-0.3-7.7l0-23l7.8,0
	c6.6,0,9.7,2.4,9.7,9.4c0,2.5-0.5,4.9-2.5,6.5c-0.6,0.5-1.3,0.8-1.9,1.2c3.1,0.3,3.6,1.8,3.6,4.6l0,9.7c0,0.9,0.2,1.6,0.7,2.3
	l-6.1,0c-0.7-0.5-0.8-1.5-0.8-2.3l0-7.9c0-3-1.1-4-4.1-3.6L96.6,79.6z M98.2,61.2c3,0,3.5-3.5,3.5-5.8c0-2.3-0.5-5.4-3.5-5.4l-1.6,0
	l0,11.2L98.2,61.2z"/>
<path fill="#BBBDBF" d="M113.7,79.6l-0.1-27.9l-5.3,0l0-5.8l16.7,0l0,4c0,0-0.9-0.3-1.3,0.7c-0.2,1-1.3,1.1-1.3,1.1l-2.8,0l-0.4,7.3
	l0.3,0.3l0.1,20.3L113.7,79.6z"/>
<path fill="#BBBDBF" d="M134.4,80.2c-7.7,0-8.9-5.2-8.9-10.4l5.9,0c0,0,0.2,1.8,0.5,1.9c0.3,2.5,1.8,3.1,2.8,3.1c1.7,0,2.6-1,2.6-3
	c0-2.8-2.9-4.5-4.5-5.7c-0.6-0.4-0.7-1.5-0.7-1.5s-1.9-0.9-2.8-1.8c-1.8-1.7-3.3-4.5-3.3-8.3c0-6,1.9-9.2,8.6-9.2c3,0,5.6,0.8,7,3.4
	c0.8,1.6,1,4.2,1,6.8l-5.1,0c0,0-0.1-0.9-0.4-1.3c-0.4-0.4-1.3-0.2-1.3-0.7c-0.1-2.8-1.1-3.1-1.9-3.1c-1.6,0-2.4,1.1-2.4,3.2
	c0,1.6,1.2,2.6,2.3,3.8c2.4,2.6,6,5.3,7.9,8.2c1.1,1.6,1.6,3.1,1.6,6.2C143.1,77.5,140.2,80.2,134.4,80.2"/>
<path fill="#BBBDBF" d="M162.2,45.8l6.9-0.1c0,0,0.1,1,0.5,1.5c0.4,0.4,1.3,0.4,1.3,0.4l5.7,31.8l-6.7,0.1l-1.2-7.9l-4.9,0.1
	l-1.3,7.8c-0.9,0,0.3-0.1-5.9,0.2C157,78,157,77.5,162.2,45.8 M168.2,66.9l-1.9-13.7l-1.9,13.8L168.2,66.9z"/>
<path fill="#BBBDBF" d="M195,79.5l-3.1-15.3l-3.1,15.3l-5.9,0l-6.6-33.8l5.1,0c0.4,1.3,0.9,1.7,2.3,1.8l3,20.5l3.1-13.7l-0.7-4
	c0.5,0.2,1.3,0,1.3-0.7c0-0.7-0.9-0.8-0.2-1.7c0.3-0.3,0.6-0.7,0.8-1l2.8-1.3l4,22.2l3.2-22.2l5.9,0l-5.1,33.8L195,79.5z"/>
<path fill="#BBBDBF" d="M212.2,45.7l6.9-0.1c0,0,0.1,1,0.5,1.5c0.4,0.4,1.3,0.4,1.3,0.4l5.7,31.8l-6.7,0.1l-1.2-7.9l-4.9,0.1
	l-1.3,7.8c-0.9,0,0.3-0.1-5.9,0.2C206.9,77.9,206.9,77.4,212.2,45.7 M218.1,66.8l-1.9-13.7l-1.9,13.8L218.1,66.8z"/>
<path fill="#BBBDBF" d="M234.6,79.3l-5.1,0c-0.2-0.1-0.4-0.2-0.5-0.4c0.1-1.1,0.7-1.9-0.6-2.6c-0.5-3-0.3-4.8-0.3-7.7l0-23l7.8,0
	c6.6,0,9.7,2.4,9.7,9.4c0,2.5-0.5,4.9-2.5,6.5c-0.6,0.5-1.3,0.8-1.9,1.2c3.1,0.3,3.6,1.8,3.6,4.6l0,9.7c0,0.9,0.2,1.6,0.7,2.3
	l-6.1,0c-0.7-0.5-0.8-1.5-0.8-2.3l0-7.9c0-3-1.1-4-4.1-3.6L234.6,79.3z M236.2,60.9c3,0,3.5-3.5,3.5-5.8c0-2.3-0.5-5.4-3.5-5.4
	l-1.6,0l0,11.2L236.2,60.9z"/>
<path fill="#BBBDBF" d="M248.3,57.4c0-0.4,0.2-0.8,0.2-1.3l-0.2-10.5l8.2,0c5.8,0,8.8,3.4,8.8,9.2l0,15.4c0,5.8-3,9.1-8.8,9.1
	l-8.2,0L248.3,57.4z M256.1,74.3c2.5,0,2.6-2.2,2.6-4.2l0-7.6l0.7-0.7l0-7.9c0-3.6-1.4-3.4-4.6-3.4l0,23.7L256.1,74.3z"/>
<path fill="#BBBDBF" d="M276.4,79.9c-7.7,0-8.9-5.2-8.9-10.4l5.9,0c0,0,0.2,1.8,0.5,1.9c0.3,2.5,1.8,3.1,2.8,3.1c1.7,0,2.6-1,2.6-3
	c0-2.8-2.9-4.5-4.5-5.7c-0.6-0.4-0.7-1.5-0.7-1.5s-1.9-0.9-2.8-1.8c-1.8-1.7-3.3-4.5-3.3-8.3c0-6,1.9-9.2,8.6-9.2c3,0,5.6,0.8,7,3.4
	c0.8,1.6,1,4.2,1,6.8l-5.1,0c0,0-0.1-0.9-0.4-1.3c-0.4-0.4-1.3-0.2-1.3-0.7c-0.1-2.8-1.1-3.1-1.9-3.1c-1.6,0-2.4,1.1-2.4,3.2
	c0,1.6,1.2,2.6,2.3,3.8c2.4,2.6,6,5.3,7.9,8.2c1.1,1.6,1.6,3.1,1.6,6.2C285.1,77.2,282.2,79.9,276.4,79.9"/>
<path fill="#BBBDBF" d="M154.2,75.9l0.7-4.5l1.9,0.2l-1.3,7.6l-1.5-0.3c-1.2-1.4-2-2.4-3.4-3.7c-0.8-0.8-1.8-1.7-2.8-1.9
	c-0.6-0.1-0.9,0.3-1,0.8c-0.1,0.6,0.4,1.2,1.6,1.4l-0.4,2.7c-1.2-0.2-3.5-0.9-3-4.2c0.1-0.3,0.5-1.7,0.5-1.7l0.3-1l0.5-0.4
	c0.4,0,0.3,0,0.8-0.2c0,0,0.5-0.3,0.9-0.3c1,0.2,2.3,1.7,3.5,2.7C152.6,74.3,153.5,75.1,154.2,75.9"/>
<path fill="#BBBDBF" d="M154.5,62.7c2.1,0.5,3.5,1.7,3.1,4.4c-0.5,2.9-3.2,3.4-6.2,2.9c-2.6-0.4-5.5-1.6-5-4.8
	c0.6-3.5,3.9-3.5,6.3-3.1c0.5,0.1,0.9,0.3,1.3,0.3C154.2,62.5,154.4,62.5,154.5,62.7 M151.8,67.2c0.8,0.1,1.8,0.3,2.6,0.3
	c0.9,0,1.4-0.3,1.5-0.9c0.1-0.9-1.7-1.3-3.8-1.7c-1.7-0.3-3.8-0.3-4,0.7C147.9,66.3,150.1,66.9,151.8,67.2"/>
<path fill="#BBBDBF" d="M156.5,61.7l0.4-2.3l-6.9-1.1l0.3,2.4l-1.6-0.3c-0.1-0.5-0.1-1.3-0.2-2c-0.1-0.8-0.2-1.5-0.4-1.8l0.2-1.2
	l6.6,0.9l0.5,0.2l2.1,0.3l0.4-2.5l1.8,0.3l-1.2,7.5L156.5,61.7z"/>
<path fill="#BBBDBF" d="M160.9,46.5l-0.4,2.6l-2.2-0.4l-0.7,4.6l-1.1-0.2l-0.5-0.6l-0.3,0.2l-6.1-4.8l0.5-2.8l4.1,3.7
	c0.7,0.6,1.6,0.9,2.3,1.4l0.3-1.7l-3.3-1.4c0-0.4,0-1.1,0.1-1.5c0-0.1,0.1-0.3,0.1-0.4c0.2,0.1,0.4,0.1,0.6,0.2l2.9,0.5l0.2-1.1
	l1.6,0.3l-0.2,1.1L160.9,46.5z"/>
<path fill="#231F20" d="M39.8,79.8c-7.7,0-8.9-5.2-8.9-10.4l5.9,0c0,0,0.2,1.8,0.5,1.9c0.3,2.5,1.8,3.1,2.8,3.1c1.7,0,2.6-1,2.6-3
	c0-2.8-2.9-4.5-4.5-5.7c-0.6-0.4-0.7-1.5-0.7-1.5s-1.9-0.9-2.8-1.8c-1.8-1.7-3.3-4.5-3.3-8.3c0-6,1.9-9.2,8.6-9.2c3,0,5.6,0.8,7,3.4
	c0.8,1.6,1,4.2,1,6.8l-5.1,0c0,0-0.1-0.9-0.4-1.3C41.9,53.3,41,53.6,41,53c-0.1-2.8-1.1-3.1-1.9-3.1c-1.6,0-2.4,1.1-2.4,3.2
	c0,1.6,1.2,2.6,2.3,3.8c2.4,2.6,6,5.3,7.9,8.2c1.1,1.6,1.6,3.1,1.6,6.2C48.5,77.1,45.7,79.8,39.8,79.8"/>
<path fill="#231F20" d="M56.6,79.1l-5.9,0l-0.1-33.7l8.7,0c4.1,0,6.5,2.5,6.7,6.6c0.1,1.2,0.1,2.3,0.1,3.4c0,2.4-0.1,5.8-1.5,7.8
	c-3,4.3-5.7,0-6.1,2.5l-0.9-0.5l-1,0.5L56.6,79.1z M60.5,58.4c0-0.8,0-1.8,0-2.6c0-0.4-0.4-0.8-0.4-1.3c0-0.7,0.1-1.4,0-2.2
	c0-2.6-1.4-2.7-3.5-2.7l0,11.4C58.5,61,60.4,60.6,60.5,58.4"/>
<path fill="#231F20" d="M85.9,70.7c0,5.7-3,9-8.8,9s-8.8-3.2-8.8-9l0-16.9c0-5.8,2.9-9.1,8.8-9.1c4.3,0,8.8,2.7,8.8,7.4
	c0,6.1-0.2,12.2-0.3,18.4L85.9,70.7z M75.3,71.1c0.4,1.3-0.4,3.7,1.7,3.7c2.4,0,2.7-2.1,2.7-4.1l0-16.9c0-1.9-0.3-4.1-2.7-4.1
	c-2.5,0-2.6,2.3-2.6,4.2l-0.1,16.3c0,0.1,0.2,0.5,0.2,0.6C74.8,70.7,75.2,70.8,75.3,71.1"/>
<path fill="#231F20" d="M95.6,79l-5.1,0c-0.2-0.1-0.4-0.2-0.5-0.4c0.1-1.1,0.7-1.9-0.6-2.6c-0.5-3-0.3-4.8-0.3-7.7l0-23l7.8,0
	c6.6,0,9.7,2.4,9.7,9.4c0,2.5-0.5,4.9-2.5,6.5c-0.6,0.5-1.3,0.8-1.9,1.2c3.1,0.3,3.6,1.8,3.6,4.6l0,9.7c0,0.9,0.2,1.6,0.7,2.3
	l-6.1,0c-0.7-0.5-0.8-1.5-0.8-2.3l0-7.9c0-3-1.1-4-4.1-3.6L95.6,79z M97.2,60.6c3,0,3.5-3.5,3.5-5.8c0-2.3-0.5-5.4-3.5-5.4l-1.6,0
	l0,11.2L97.2,60.6z"/>
<path fill="#231F20" d="M112.7,79L112.6,51l-5.3,0l0-5.8l16.7,0l0,4c0,0-0.9-0.3-1.3,0.7c-0.2,1-1.3,1.1-1.3,1.1l-2.8,0l-0.4,7.3
	l0.3,0.3l0.1,20.3L112.7,79z"/>
<path fill="#231F20" d="M133.4,79.6c-7.7,0-8.9-5.2-8.9-10.4l5.9,0c0,0,0.2,1.8,0.5,1.9c0.3,2.5,1.8,3.1,2.8,3.1c1.7,0,2.6-1,2.6-3
	c0-2.8-2.9-4.5-4.5-5.7c-0.6-0.4-0.7-1.5-0.7-1.5s-1.9-0.9-2.8-1.8c-1.8-1.7-3.3-4.5-3.3-8.3c0-6,1.9-9.2,8.6-9.2c3,0,5.6,0.8,7,3.4
	c0.8,1.6,1,4.2,1,6.8l-5.1,0c0,0-0.1-0.9-0.4-1.3c-0.4-0.4-1.3-0.2-1.3-0.7c-0.1-2.8-1.1-3.1-1.9-3.1c-1.6,0-2.4,1.1-2.4,3.2
	c0,1.6,1.2,2.6,2.3,3.8c2.4,2.6,6,5.3,7.9,8.2c1.1,1.6,1.6,3.1,1.6,6.2C142.1,76.9,139.2,79.6,133.4,79.6"/>
<path fill="#231F20" d="M161.2,45.2l6.9-0.1c0,0,0.1,1,0.5,1.5c0.4,0.4,1.3,0.4,1.3,0.4l5.7,31.8l-6.7,0.1l-1.2-7.9l-4.9,0.1
	l-1.3,7.8c-0.9,0,0.3-0.1-5.9,0.2C155.9,77.3,156,76.9,161.2,45.2 M167.2,66.3l-1.9-13.7l-1.9,13.8L167.2,66.3z"/>
<path fill="#231F20" d="M193.9,78.8l-3.1-15.3l-3.1,15.3l-5.9,0l-6.6-33.8l5.1,0c0.4,1.3,0.9,1.7,2.3,1.8l3,20.5l3.1-13.7l-0.7-4
	c0.5,0.2,1.3,0,1.3-0.7c0-0.7-0.9-0.8-0.2-1.7c0.3-0.3,0.6-0.7,0.8-1l2.8-1.3l4,22.2l3.2-22.2l5.9,0l-5.1,33.8L193.9,78.8z"/>
<path fill="#231F20" d="M211.1,45.1l6.9-0.1c0,0,0.1,1.1,0.5,1.5c0.4,0.4,1.3,0.4,1.3,0.4l5.7,31.8l-6.7,0.1l-1.2-7.9l-4.9,0.1
	l-1.3,7.8c-0.9,0,0.3,0-5.9,0.2C205.8,77.2,205.9,76.8,211.1,45.1 M217.1,66.2l-1.9-13.7l-1.9,13.8L217.1,66.2z"/>
<path fill="#231F20" d="M233.6,78.7l-5.1,0c-0.2-0.1-0.4-0.2-0.5-0.4c0.1-1.1,0.7-1.9-0.6-2.6c-0.5-3-0.3-4.8-0.3-7.7l0-23l7.8,0
	c6.6,0,9.7,2.4,9.7,9.4c0,2.5-0.5,4.9-2.5,6.5c-0.6,0.5-1.3,0.8-1.9,1.2c3.1,0.3,3.6,1.8,3.6,4.6l0,9.7c0,0.9,0.2,1.6,0.7,2.3
	l-6.1,0c-0.7-0.5-0.8-1.5-0.8-2.3l0-7.9c0-3-1.1-4-4.1-3.6L233.6,78.7z M235.1,60.3c3,0,3.5-3.5,3.5-5.8c0-2.3-0.5-5.4-3.5-5.4
	l-1.6,0l0,11.2L235.1,60.3z"/>
<path fill="#231F20" d="M247.3,56.8c0-0.4,0.2-0.8,0.2-1.3L247.3,45l8.2,0c5.8,0,8.8,3.4,8.8,9.2l0,15.4c0,5.8-3,9.1-8.8,9.1l-8.2,0
	L247.3,56.8z M255.1,73.7c2.5,0,2.6-2.2,2.6-4.2l0-7.6l0.7-0.7l0-7.9c0-3.6-1.4-3.4-4.6-3.3l0,23.7L255.1,73.7z"/>
<path fill="#231F20" d="M275.3,79.3c-7.7,0-8.9-5.2-8.9-10.4l5.9,0c0,0,0.2,1.8,0.5,1.9c0.3,2.5,1.8,3.1,2.8,3.1c1.7,0,2.6-1,2.6-3
	c0-2.8-2.9-4.5-4.5-5.7c-0.6-0.4-0.7-1.5-0.7-1.5s-1.9-0.9-2.8-1.8c-1.8-1.7-3.3-4.5-3.3-8.3c0-6,1.9-9.2,8.6-9.2c3,0,5.6,0.8,7,3.4
	c0.8,1.6,1,4.2,1,6.8l-5.1,0c0,0-0.1-0.9-0.4-1.3c-0.4-0.4-1.3-0.2-1.3-0.7c-0.1-2.8-1.1-3.1-1.9-3.1c-1.6,0-2.4,1.1-2.4,3.2
	c0,1.6,1.2,2.6,2.3,3.8c2.4,2.6,6,5.3,7.9,8.2c1.1,1.6,1.6,3.1,1.6,6.2C284,76.6,281.2,79.3,275.3,79.3"/>
<path fill="#BE1E2D" d="M153.2,75.2l0.7-4.5l1.9,0.2l-1.3,7.6l-1.5-0.2c-1.2-1.4-2-2.4-3.4-3.7c-0.8-0.8-1.8-1.7-2.8-1.9
	c-0.6-0.1-0.9,0.3-1,0.8c-0.1,0.6,0.4,1.2,1.6,1.4l-0.4,2.7c-1.2-0.2-3.5-0.9-3-4.2c0.1-0.3,0.5-1.7,0.5-1.7l0.3-1l0.5-0.4
	c0.4,0,0.3,0,0.8-0.2c0,0,0.5-0.3,0.9-0.3c1,0.2,2.3,1.7,3.5,2.7C151.6,73.6,152.4,74.5,153.2,75.2"/>
<path fill="#BE1E2D" d="M153.5,62.1c2.1,0.5,3.5,1.7,3.1,4.4c-0.5,2.9-3.2,3.4-6.2,2.9c-2.6-0.4-5.5-1.6-5-4.8
	c0.6-3.5,3.9-3.5,6.3-3.1c0.5,0.1,0.9,0.3,1.3,0.3C153.2,61.9,153.4,61.9,153.5,62.1 M150.8,66.6c0.8,0.1,1.8,0.3,2.6,0.3
	c0.9-0.1,1.4-0.3,1.5-0.9c0.1-0.9-1.7-1.3-3.8-1.7c-1.7-0.3-3.8-0.3-4,0.7C146.9,65.7,149,66.3,150.8,66.6"/>
<path fill="#BE1E2D" d="M155.5,61.1l0.4-2.4l-6.9-1.1l0.3,2.4l-1.6-0.3c-0.1-0.5-0.1-1.3-0.2-2c-0.1-0.8-0.2-1.5-0.4-1.8l0.2-1.2
	l6.6,0.9l0.5,0.2l2.1,0.3l0.4-2.5l1.8,0.3l-1.2,7.5L155.5,61.1z"/>
<path fill="#BE1E2D" d="M159.8,45.9l-0.4,2.6l-2.2-0.4l-0.7,4.6l-1.1-0.2l-0.5-0.6l-0.3,0.2l-6.1-4.8l0.5-2.8l4.1,3.7
	c0.7,0.6,1.6,0.9,2.3,1.4l0.3-1.7l-3.3-1.4c0-0.4,0-1.1,0.1-1.5c0-0.1,0.1-0.3,0.1-0.4c0.2,0.1,0.4,0.1,0.6,0.2l2.9,0.5l0.2-1.1
	l1.6,0.3l-0.2,1.1L159.8,45.9z"/>
<path fill="#FFFFFF" d="M80.6,32.7c0,6.3,3.4,10.1,9.2,10.6c0.4,0,0.9,0.1,1.3,0c3.2,0,9.7,0,10.5-7.2c1.1,4.2,4.1,6.7,8.8,7.1
	c0.4,0,0.9,0.1,1.3,0.1c3.3,0,5.9-1,7.8-2.9c1.8-1.9,2.7-4.5,2.7-7.8c0-0.4-0.1-0.7-0.3-1c0-1,0-1.9,0.1-2.9
	c0.1-4.5,0.2-9.2,0.2-13.8l4.5,20.1c0.1,0.4,0.3,0.7,0.5,0.9l1,5.4c0.1,0.7,0.7,1.3,1.5,1.3c0,0,0.1,0,0.1,0l5.6,0
	c0.8,0,1.5-0.6,1.6-1.4l3.8-22.4l0,2.4c0,0,0,0,0,0.1l0.8,19.6c0,0.8,0.7,1.5,1.5,1.6c0,0,0.1,0,0.1,0l14.4,0c0.5,0,0.9-0.2,1.2-0.5
	c0.3,0.3,0.6,0.5,1,0.5c0,0,0.1,0,0.1,0l6.1,0c0.4,0,0.8-0.2,1.2-0.5c0.3-0.3,0.5-0.7,0.5-1.2l0-9.5l4.2,10.2c0.3,0.6,0.9,1,1.6,1
	l4.5-0.1c0.9,0,1.6-0.7,1.6-1.6l-0.1-26.3l3.2,0l0.1,26.3c0,0.4,0.2,0.8,0.5,1.2c0.3,0.3,0.6,0.4,1,0.5c0,0,0.1,0,0.1,0l6.1,0
	c0.4,0,0.9-0.2,1.2-0.5c0.3-0.3,0.5-0.7,0.5-1.2l-0.1-20.3c0-0.3-0.1-0.6-0.3-0.9l0.3-5.1l1.2,0c0,0,0.1,0,0.1,0
	c0.7,0,1.5-0.4,2.1-1l0,16.6c0,0.7,0,1.4,0,2c0,1.9-0.1,3.5,0.3,5.9c0.1,0.5,0.3,0.9,0.7,1.1c0,0,0,0.1,0,0.1
	c-0.1,0.3-0.1,0.6-0.2,1.1c0,0.3,0,0.6,0.2,0.8c0.3,0.7,0.8,1,1.2,1.1c0.2,0.1,0.4,0.1,0.6,0.2c0,0,0.1,0,0.1,0l5.1,0
	c0.4,0,0.8-0.2,1.2-0.5c0.3-0.3,0.5-0.7,0.5-1.2l0-12.3c0.5,0,0.8,0.2,0.8,2l0,7.9c0,0.7,0,2.7,1.6,3.7c0.3,0.2,0.6,0.3,0.9,0.3
	l6.1,0c0.6,0,1.2-0.4,1.5-0.9c0.3-0.6,0.2-1.2-0.2-1.7c-0.3-0.4-0.4-0.7-0.4-1.3l0-9.7c0-2-0.3-3.8-1.8-5c2.2-2.2,2.5-5.1,2.5-7.2
	l3.2,11.4l0,12.9c0,0.4,0.2,0.8,0.5,1.2c0.3,0.3,0.6,0.4,1,0.5c0,0,0.1,0,0.1,0l6.6,0c0.9,0,1.6-0.7,1.6-1.6l0-10.3c0,0,0-0.1,0-0.1
	l-0.2-4.6c0.3-0.2,0.5-0.5,0.6-0.8l5.6-17.3c0.2-0.5,0.1-1-0.2-1.5c-0.3-0.4-0.8-0.7-1.3-0.7l-5.4,0c-0.7,0-1.3,0.4-1.5,1.1
	l-1.9,5.6L223,6.5c-0.2-0.7-0.9-1.1-1.6-1.1l-6.2,0c-0.5,0-1,0.2-1.3,0.6c-0.3,0.4-0.4,0.9-0.3,1.4l0.4,1.3c-1.5-1.9-4-3-7.3-3.3
	c-0.6,0-1.3-0.1-1.9-0.1l-7.8,0c-0.2,0-0.4,0-0.6,0.1c-0.2-0.1-0.4-0.1-0.6-0.1l-16.7,0c-0.2,0-0.4,0-0.6,0.1
	c-0.2-0.1-0.4-0.1-0.6-0.1l-5.9,0c-0.4,0-0.9,0.2-1.2,0.5c-0.3,0.3-0.5,0.7-0.5,1.2l0.1,5.1l-1.6-5.6c-0.2-0.7-0.8-1.2-1.6-1.2
	l-4.9,0c-1.1,0-2.9,0.6-3.2,2.2c0,0,0,0,0,0.1c-0.1,0.4,0,0.8,0.1,1.1C159.1,9,159,9,158.9,9.1l0-2c0-0.9-0.7-1.6-1.6-1.6l-14.9,0
	c-0.2,0-0.4,0-0.6,0.1c-0.4-0.2-0.8-0.2-1.2,0c-1.1,0.4-2.3,0.7-2.7,0.8c-0.2-0.1-0.7-0.3-1-0.5c-0.5-0.3-1-0.3-1.5-0.1
	c-0.5,0.2-0.8,0.7-0.9,1.2l-2.1,12.1l-1.6-7.8c-0.1-0.5-0.4-0.9-0.8-1.1c0.1-0.2,0.1-0.5,0.1-0.9c0-0.2,0-0.5,0-0.8
	c0-0.2,0-0.5,0-0.8c0-0.7-0.4-1.3-1.1-1.5C128.1,6,127,6,126.2,6.2c-0.3-0.4-0.8-0.6-1.3-0.6l-3.4,0c-0.5,0-1,0.2-1.3,0.6
	c-0.3,0.4-0.4,0.9-0.3,1.4l0.3,1.3c-2-2.5-5.4-3.9-8.7-3.9c-5.6,0-9.2,2.8-10.2,7.8c-0.6-4.7-3.5-7.3-8.7-7.7C92.2,5,91.6,5,91,5
	c-3.3,0-5.9,0.9-7.7,2.7c-1.8,1.8-2.7,4.4-2.7,7.7L80.6,32.7z M111.5,13.2c0.1,0,0.1,0,0.2,0c0.3,0,0.9,0.1,0.9,2.5l0,16.9
	c0,2.4-0.4,2.5-1,2.5c0-0.2,0-0.6,0-0.8c0-0.5,0-1.1-0.2-1.7c0,0,0,0,0-0.1c-0.2-0.6-0.5-0.9-0.9-1.1l0.1-15.7
	C110.6,13.2,110.9,13.2,111.5,13.2 M205,12.8c0.1,0,0.1,0,0.2,0c1.4,0.1,1.6,2.1,1.7,3.8c0,1.3-0.2,2.4-0.5,3.1
	c-0.4,0.8-0.8,1-1.4,1L205,12.8z M158.3,14.7l0,18.8c-0.2-0.1-0.5-0.2-0.7-0.2l-6.4,0l0-4.5l3.8,0c0.9,0,1.6-0.7,1.6-1.6l0.3-6.1
	c0-0.4-0.1-0.9-0.5-1.2c-0.3-0.3-0.7-0.5-1.2-0.5l-4.1,0l0-4.3l6.1,0C157.6,15.1,158,15,158.3,14.7 M101,19.5c0,0,0.1-0.1,0.1-0.1
	l0,9.7c-0.3-0.3-0.7-0.5-1.1-0.5c-0.2,0-0.5,0-0.8,0c-3.6,0-5.7,0.1-6.8,0.7c-0.5,0.3-0.8,0.8-0.8,1.4c0,0.2,0,0.5,0,0.8
	c0.1,2,0,3.2-0.3,3.6c-0.4,0-0.7,0-0.7-2.5l0-15.7c0-0.1,0-0.3,0-0.4c0-2.2,0.2-3,0.4-3.3c0,0,0.1,0,0.1,0c0.3,0,0.6,0,0.6,1.9
	c0,0.5,0.3,1,0.7,1.3c-0.7,1.6-0.5,2.7,0.7,3.4c0.3,0.1,0.5,0.2,0.8,0.2l5.9,0C100.3,20,100.7,19.8,101,19.5"/>
<path fill="#BBBDBF" d="M94.4,18.7c-0.9-0.5,0.5-1.7,0.3-2.8l-0.9-0.5c-0.1-1.7-0.3-3.5-2.4-3.5c-2.3,0-2,3.9-2,5.4l0,15.7
	c0,1.8,0,4.1,2.4,4.1c2.4,0,1.8-4.6,1.8-6c1.1-0.6,5.3-0.5,6.8-0.5l0,4.4c0,6.1-3.6,7.1-8.9,7.1c-5.8,0-8.8-3.2-8.8-9l0-17.2
	c0-5.8,3-8.8,8.8-8.8c5.6,0,8.8,2.1,8.8,8l0,3.7L94.4,18.7z"/>
<path fill="#BBBDBF" d="M120.9,32.9c0,5.7-3,9-8.8,9c-5.8,0-8.8-3.2-8.8-9l0-16.9c0-5.8,2.9-9.1,8.8-9.1c4.3,0,8.8,2.7,8.8,7.4
	c0,6.1-0.2,12.2-0.3,18.4L120.9,32.9z M110.2,33.3c0.4,1.3-0.4,3.7,1.7,3.7c2.4,0,2.7-2.1,2.7-4.1l0-16.9c0-1.9-0.3-4.1-2.7-4.1
	c-2.5,0-2.6,2.3-2.6,4.2l-0.1,16.3c0,0.1,0.2,0.5,0.2,0.6C109.7,33,110.1,33,110.2,33.3"/>
<path fill="#BBBDBF" d="M138.2,8.4c0.9,0,3.4-0.9,3.4-0.9l-5.8,33.8l-5.6,0l-1.2-6.2l-0.4-0.2l-5-22.3l0-1.1l-0.8-0.6l-0.8-3.4
	l3.4,0l0.4,0.8c0,0,1.9-0.5,2.9-0.2c0,0.6,0.1,1.1,0.1,1.6c0,0.5-0.3,0.9-0.3,1.6c0,0.4,1.1,0.7,1.1,0.7l3.3,16.2l3.6-20.6
	C136.4,7.7,137.6,8.4,138.2,8.4"/>
<polygon fill="#BBBDBF" points="143.6,41.2 142.8,21.6 142.8,7.5 157.6,7.5 157.7,13.8 149.9,13.8 149.9,21.4 155.6,21.4 
	155.3,27.5 149.9,27.5 149.9,35.3 158,35.3 158,41.1 "/>
<path fill="#BBBDBF" d="M172.3,7.4l5.9,0l0.1,33.7l-4.5,0.1l-7.3-18l0,17.9l-6.1,0l-0.1-30.4c0.6-0.2,1.5-0.3,1.5-1.1
	c-0.2-0.3-0.8-0.9-0.7-1.3c0.1-0.6,1.1-0.9,1.6-0.9l4.9,0l5.1,17.9L172.3,7.4z"/>
<path fill="#BBBDBF" d="M184.7,41.1l-0.1-27.9l-5.3,0l0-5.8l16.7,0l0,4c0,0-0.9-0.3-1.3,0.7c-0.2,1-1.3,1.1-1.3,1.1l-2.8,0l-0.4,7.3
	l0.3,0.3l0.1,20.3L184.7,41.1z"/>
<path fill="#BBBDBF" d="M203.9,41.1l-5.1,0c-0.2-0.1-0.4-0.2-0.5-0.4c0.1-1.1,0.7-1.9-0.6-2.6c-0.5-3-0.3-4.8-0.3-7.7l0-23l7.8,0
	c6.6,0,9.7,2.4,9.7,9.4c0,2.5-0.5,4.9-2.5,6.5c-0.6,0.5-1.3,0.8-1.9,1.2c3.1,0.3,3.6,1.8,3.6,4.6l0,9.7c0,0.9,0.2,1.6,0.7,2.3
	l-6.1,0c-0.7-0.5-0.8-1.5-0.8-2.3l0-7.9c0-3-1.1-4-4.1-3.6L203.9,41.1z M205.5,22.6c3,0,3.5-3.5,3.5-5.8c0-2.3-0.5-5.4-3.5-5.4
	l-1.6,0l0,11.2L205.5,22.6z"/>
<polygon fill="#BBBDBF" points="234,7.3 228.4,24.6 227.7,25 228,30.7 228,41 221.4,41 221.3,27.9 215.6,7.3 221.9,7.3 225.2,17.5 
	228.7,7.3 "/>
<path fill="#BE1E2D" d="M93.3,18c-0.9-0.5,0.5-1.7,0.3-2.8l-0.9-0.5c-0.1-1.7-0.3-3.5-2.4-3.5c-2.3,0-2,3.9-2,5.4l0,15.7
	c0,1.8,0,4.1,2.4,4.1c2.4,0,1.8-4.6,1.8-6c1.1-0.6,5.3-0.5,6.8-0.5l0,4.4c0,6.1-3.6,7.1-8.9,7.1c-5.8,0-8.8-3.2-8.8-9l0-17.2
	c0-5.8,3-8.8,8.8-8.8c5.6,0,8.8,2.1,8.8,8l0,3.7L93.3,18z"/>
<path fill="#BE1E2D" d="M119.8,32.3c0,5.7-3,9-8.8,9c-5.8,0-8.8-3.2-8.8-9l0-16.9c0-5.8,2.9-9.1,8.8-9.1c4.3,0,8.8,2.7,8.8,7.4
	c0,6.1-0.2,12.2-0.3,18.4L119.8,32.3z M109.2,32.7c0.4,1.3-0.4,3.7,1.7,3.7c2.4,0,2.7-2.1,2.7-4.1l0-16.9c0-1.9-0.3-4.1-2.7-4.1
	c-2.5,0-2.6,2.3-2.6,4.2l-0.1,16.3c0,0.1,0.2,0.5,0.2,0.6C108.6,32.3,109.1,32.4,109.2,32.7"/>
<path fill="#BE1E2D" d="M137.1,7.8c0.9,0,3.4-0.9,3.4-0.9l-5.8,33.8l-5.6,0l-1.2-6.2l-0.4-0.2l-5-22.3l0.1-1.1l-0.8-0.6l-0.8-3.4
	l3.4,0l0.4,0.8c0,0,1.9-0.5,2.9-0.2c0,0.6,0.1,1.1,0.1,1.6c0,0.5-0.3,0.9-0.3,1.6c0,0.4,1.1,0.7,1.1,0.7l3.3,16.2L135.4,7
	C135.4,7,136.6,7.8,137.1,7.8"/>
<polygon fill="#BE1E2D" points="142.6,40.6 141.8,21 141.8,6.9 156.6,6.8 156.6,13.2 148.9,13.2 148.9,20.8 154.6,20.8 154.3,26.9 
	148.9,26.9 148.9,34.7 157,34.6 157,40.5 "/>
<path fill="#BE1E2D" d="M171.3,6.8l5.9,0l0.1,33.7l-4.5,0.1l-7.3-18l0,17.9l-6.1,0l-0.1-30.4c0.6-0.2,1.5-0.3,1.5-1.1
	c-0.2-0.3-0.8-0.9-0.7-1.3c0.1-0.6,1.1-0.9,1.6-0.9l4.9,0l5.1,17.9L171.3,6.8z"/>
<path fill="#BE1E2D" d="M183.7,40.5l-0.1-27.9l-5.3,0l0-5.8l16.7,0l0,4c0,0-0.9-0.3-1.3,0.7c-0.2,1-1.3,1.1-1.3,1.1l-2.8,0l-0.4,7.3
	l0.3,0.3l0.1,20.3L183.7,40.5z"/>
<path fill="#BE1E2D" d="M202.9,40.4l-5.1,0c-0.2-0.1-0.4-0.2-0.5-0.4c0.1-1.1,0.7-1.9-0.6-2.6c-0.5-3-0.3-4.8-0.3-7.7l0-23l7.8,0
	c6.6,0,9.7,2.4,9.7,9.4c0,2.5-0.5,4.9-2.5,6.5c-0.6,0.5-1.3,0.8-1.9,1.2c3.1,0.3,3.6,1.8,3.6,4.6l0,9.7c0,0.9,0.2,1.6,0.7,2.3
	l-6.1,0c-0.7-0.5-0.8-1.5-0.8-2.3l0-7.9c0-3-1.1-4-4.1-3.6L202.9,40.4z M204.5,22c3,0,3.5-3.5,3.5-5.8c0-2.3-0.5-5.4-3.5-5.4l-1.6,0
	l0,11.2L204.5,22z"/>
<polygon fill="#BE1E2D" points="233,6.7 227.4,24 226.7,24.4 226.9,30 227,40.4 220.3,40.4 220.3,27.3 214.6,6.7 220.8,6.7 
	224.2,16.9 227.7,6.7 "/>
</svg>
