<?xml version="1.0" encoding="utf-8"?>
<!-- Generator: Adobe Illustrator 18.1.1, SVG Export Plug-In . SVG Version: 6.00 Build 0)  -->
<svg version="1.1" id="Layer_1" xmlns="http://www.w3.org/2000/svg" xmlns:xlink="http://www.w3.org/1999/xlink" x="0px" y="0px"
	 viewBox="0 0 242 88" enable-background="new 0 0 242 88" xml:space="preserve">
<g>
	<path fill="#FFFFFF" d="M30.2,44c-6,0-10.9-1.1-14.9-5.2l6.2-6.2c2,2,5.6,2.8,8.8,2.8c3.8,0,5.6-1.3,5.6-3.5c0-0.9-0.2-1.7-0.8-2.3
		c-0.5-0.5-1.3-0.9-2.6-1.1l-4.8-0.7c-3.5-0.5-6.1-1.7-7.9-3.5c-1.8-1.9-2.7-4.5-2.7-7.9C17.2,9.3,22.6,4,31.5,4
		c5.6,0,9.9,1.3,13.3,4.7l-6.1,6.1c-2.5-2.5-5.7-2.3-7.5-2.3c-3.4,0-4.8,1.9-4.8,3.6c0,0.5,0.2,1.2,0.8,1.8c0.5,0.5,1.3,1,2.7,1.2
		l4.8,0.7c3.5,0.5,6.1,1.6,7.7,3.3c2.1,2,2.9,5,2.9,8.6C45.4,39.7,38.5,44,30.2,44z"/>
	<path fill="#FFFFFF" d="M69.2,29.7h-5.9v14h-9.7V4.3h15.6c8.7,0,13.4,6.2,13.4,12.7C82.7,23.5,78,29.7,69.2,29.7z M68.8,13h-5.5v8
		h5.5c2.7,0,4.2-1.9,4.2-4C73,14.9,71.5,13,68.8,13z"/>
	<path fill="#FFFFFF" d="M114.9,39.6c-2.9,2.9-6.2,4.4-11,4.4c-4.8,0-8.1-1.5-11-4.4c-4.1-4.1-4-9.7-4-15.6s-0.2-11.4,4-15.6
		c2.9-2.9,6.2-4.4,11-4.4c4.8,0,8.1,1.5,11,4.4c4.1,4.1,4,9.7,4,15.6S119.1,35.5,114.9,39.6z M107.8,14.3c-0.7-0.9-2.1-1.7-3.9-1.7
		c-1.8,0-3.2,0.8-3.9,1.7c-0.9,1.2-1.4,2.5-1.4,9.7s0.6,8.5,1.4,9.6c0.7,0.9,2.1,1.8,3.9,1.8c1.8,0,3.2-0.8,3.9-1.8
		c0.9-1.2,1.4-2.4,1.4-9.6S108.7,15.5,107.8,14.3z"/>
	<path fill="#FFFFFF" d="M147.4,43.7l-7-14.7h-3.3v14.7h-9.7V4.3h15.6c8.7,0,13.4,6.2,13.4,12.7c0,5.4-3.3,8.7-6.4,10.3l8.5,16.4
		H147.4z M142.6,13h-5.5v8h5.5c2.7,0,4.2-1.9,4.2-4C146.8,14.9,145.3,13,142.6,13z"/>
	<path fill="#FFFFFF" d="M182.4,13v30.7h-9.7V13h-9.7V4.3h29V13H182.4z"/>
	<path fill="#FFFFFF" d="M210.8,44c-6,0-10.9-1.1-14.9-5.2l6.2-6.2c2,2,5.6,2.8,8.8,2.8c3.8,0,5.6-1.3,5.6-3.5
		c0-0.9-0.2-1.7-0.8-2.3c-0.5-0.5-1.3-0.9-2.6-1.1l-4.8-0.7c-3.5-0.5-6.1-1.7-7.9-3.5c-1.8-1.9-2.7-4.5-2.7-7.9
		c0-7.2,5.4-12.4,14.4-12.4c5.6,0,9.9,1.3,13.3,4.7l-6.1,6.1c-2.5-2.5-5.7-2.3-7.5-2.3c-3.4,0-4.8,1.9-4.8,3.6
		c0,0.5,0.2,1.2,0.8,1.8c0.5,0.5,1.3,1,2.7,1.2l4.8,0.7c3.5,0.5,6.1,1.6,7.7,3.3c2.1,2,2.9,5,2.9,8.6C226,39.7,219.1,44,210.8,44z"
		/>
	<path fill="#FFFFFF" d="M38.8,83.7l-1.7-5.4H26l-1.8,5.4H15l13.1-36h6.8l13.1,36H38.8z M31.7,61.3l-3.2,9.6h6.3L31.7,61.3z"/>
	<path fill="#FFFFFF" d="M83.6,83.7h-7.2l-5.8-17.8l-5.8,17.8h-7.2l-9.9-36h9.3l4.7,19l5.8-19h6.3l5.8,19l4.7-19h9.3L83.6,83.7z"/>
	<path fill="#FFFFFF" d="M117.6,83.7l-1.7-5.4h-11.1l-1.8,5.4h-9.3l13.1-36h6.8l13.1,36H117.6z M110.6,61.3l-3.2,9.6h6.3L110.6,61.3
		z"/>
	<path fill="#FFFFFF" d="M150.1,83.7l-6.4-13.4h-3v13.4h-8.9v-36h14.3c8,0,12.3,5.7,12.3,11.6c0,4.9-3,8-5.9,9.4l7.8,15H150.1z
		 M145.7,55.6h-5v7.3h5c2.4,0,3.8-1.8,3.8-3.6C149.6,57.4,148.1,55.6,145.7,55.6z"/>
	<path fill="#FFFFFF" d="M189.3,80.2c-2.5,2.5-6,3.5-9.7,3.5h-13.4v-36h13.4c3.7,0,7.2,1.1,9.7,3.5c4.2,4.2,3.7,8.8,3.7,14.5
		S193.5,76,189.3,80.2z M183.2,57.6c-0.8-1.2-2-2-4.2-2h-3.9v20.2h3.9c2.2,0,3.4-0.8,4.2-2c0.7-1,1-2,1-8.1
		C184.2,59.6,183.9,58.6,183.2,57.6z"/>
	<path fill="#FFFFFF" d="M210.8,84c-5.5,0-10-1-13.7-4.8l5.7-5.7c1.9,1.9,5.2,2.5,8,2.5c3.5,0,5.2-1.2,5.2-3.2
		c0-0.9-0.2-1.6-0.7-2.1c-0.5-0.5-1.2-0.8-2.4-1l-4.4-0.6c-3.2-0.5-5.6-1.5-7.2-3.2c-1.7-1.7-2.5-4.1-2.5-7.2
		c0-6.6,5-11.4,13.2-11.4c5.2,0,9.1,1.2,12.1,4.3l-5.6,5.6c-2.3-2.3-5.3-2.1-6.8-2.1c-3.1,0-4.4,1.8-4.4,3.3c0,0.5,0.2,1.1,0.7,1.7
		c0.5,0.5,1.2,0.9,2.5,1.1l4.4,0.6c3.2,0.5,5.6,1.5,7.1,3c1.9,1.9,2.7,4.6,2.7,7.9C224.7,80,218.4,84,210.8,84z"/>
</g>
<g>
</g>
<g>
</g>
<g>
</g>
<g>
</g>
<g>
</g>
<g>
</g>
<g>
</g>
<g>
</g>
<g>
</g>
<g>
</g>
<g>
</g>
<g>
</g>
<g>
</g>
<g>
</g>
<g>
</g>
</svg>
