<?xml version="1.0" encoding="utf-8"?>
<!-- Generator: Adobe Illustrator 18.1.1, SVG Export Plug-In . SVG Version: 6.00 Build 0)  -->
<svg version="1.1" id="Layer_21" xmlns="http://www.w3.org/2000/svg" xmlns:xlink="http://www.w3.org/1999/xlink" x="0px" y="0px"
	 viewBox="0 0 390 292.5" enable-background="new 0 0 390 292.5" xml:space="preserve">
<g>
	<g>
		<rect id="SVGID_1_" x="12.5" y="43.8" fill="#D1232A" width="365.5" height="204.7"/>
	</g>
	<g>
		<defs>
			<rect id="SVGID_2_" x="12.5" y="43.8" width="365.5" height="204.7"/>
		</defs>
		<clipPath id="SVGID_3_">
			<use xlink:href="#SVGID_2_"  overflow="visible"/>
		</clipPath>
		<polygon clip-path="url(#SVGID_3_)" fill="#740304" points="12.5,248.5 378,248.5 378,209.5 12.5,209.5 		"/>
	</g>
</g>
<path fill="#FFFFFF" d="M53.2,104.3c0-14.9,0-17.7-0.3-20.9c-0.3-3.4-1.8-5-5.2-5.5c-1.6-0.3-3.7-0.3-5.5-0.3c-1.5,0-2.4-0.2-2.4-1
	c0-0.6,1.3-0.8,3.7-0.8c5.8,0,15.4,0.3,19.9,0.3c3.9,0,12.8-0.3,18.6-0.3c1.9,0,3.2,0.2,3.2,0.8c0,0.8-1,1-2.4,1s-2.8,0.2-4.5,0.3
	c-4.1,0.5-5.3,2.1-5.7,5.7c-0.3,3.1-0.3,5.8-0.3,20.9v17.3c0,9.6,0,17.3,0.6,21.6c0.5,2.6,1.5,4.4,6.2,4.9c2.1,0.2,5.5,0.3,7.8,0.3
	c1.6,0,2.4,0.3,2.4,0.8c0,0.6-1.3,1-2.9,1c-10.1,0-19.8-0.3-23.8-0.3c-3.6,0-13.1,0.3-19.3,0.3c-1.9,0-3.1-0.3-3.1-1
	c0-0.5,0.6-0.8,2.4-0.8c2.3,0,4.1-0.2,5.5-0.3c3.1-0.3,4.1-2.1,4.4-4.9c0.8-4.1,0.8-11.8,0.8-21.4v-17.7"/>
<path fill="#FFFFFF" d="M187.7,109.2c4.9,4.9,29.7,31.4,33.4,34.7c2.6,2.1,4.9,3.4,8.9,4.2c2.6,0.5,4.4,0.6,5.8,0.6
	c1.1,0,1.9,0.2,1.9,0.8s-1.3,1-2.9,1h-4.5c-3.7,0-15.7,0-27.6-0.2c-4.1-0.2-5.2-0.3-5.2-1c0-0.6,0.8-0.8,2.1-1.1
	c0.8-0.2,1.3-1,0.3-2.3c-8.4-9.6-17.2-19.5-24.2-26.7l-22.5,23.5c-1.5,1.6-2.3,3.1-2.1,4.1c0.2,0.8,1.5,1.5,2.9,1.6
	c1,0.2,2.3,0.2,3.6,0.2c1,0,1.8,0.3,1.8,0.8c0,0.6-1.1,0.8-3.1,0.8h-2.9c-1,0-10.5-0.3-14.4-0.3c-2.9,0-10.4,0.3-12.8,0.3h-2.6
	c-1.5,0-2.3-0.3-2.3-0.8c0-0.6,1-0.8,2.1-0.8s3.4-0.2,5.7-0.5c4.4-0.8,7.3-2.6,12.5-7.5l29.2-26.9l-26.3-28
	c-3.7-3.9-7.3-6.3-12.6-7.5c-2.4-0.5-4.9-0.6-6.5-0.6c-1,0-1.5-0.3-1.5-1c0-0.6,1.1-0.8,3.1-0.8c3.7,0,16,0.3,23.2,0.3
	c2.1,0,10.7-0.3,16.4-0.3c2.1,0,3.1,0.2,3.1,0.8c0,0.6-1,0.8-2.3,0.8c-1,0-2.9,0.2-4.1,0.3c-1.3,0.3-1.8,1-1.8,1.6s0.6,1.8,1.5,2.9
	c6.6,7.9,13.5,15.1,19.5,21.7c4.4-4.4,18.5-18,20.7-20.7c1.3-1.5,1.6-2.9,1.6-3.7c0-0.6-1.1-1.5-2.6-1.8c-1.5-0.3-3.7-0.3-4.9-0.3
	c-1,0-1.8-0.2-1.8-0.8c0-0.6,1.1-0.8,3.2-0.8c6,0,12.3,0.3,15.2,0.3c3.1,0,9.2-0.3,14.9-0.3c1.6,0,2.8,0.3,2.8,0.8
	c0,0.6-1,0.8-2.4,0.8s-3.4,0.2-5.5,0.6c-3.6,0.6-6.6,3.4-11.2,7.6L187.7,109.2"/>
<path fill="#FFFFFF" d="M305.1,121.6c0,12.6,0,19.5,3.2,21.2c2.6,1.5,6.6,2.1,18.5,2.1c8.1,0,14.1-0.2,17.8-2.8
	c1.8-1.3,3.7-4.1,4.1-5.8c0.2-0.8,0.5-1.5,1.6-1.5c1.1,0,1.3,0.5,1.3,1.6s-1.1,8.4-2.3,11.3c-1,2.1-1.6,2.6-9.6,2.6
	c-11,0-19-0.2-25.8-0.3c-6.8-0.2-12.3-0.3-18.6-0.3c-1.6,0-5,0-8.8,0.2c-3.6,0-7.5,0.2-10.5,0.2c-1.9,0-3.1-0.3-3.1-1
	c0-0.5,0.6-0.8,2.4-0.8c2.3,0,4.1-0.2,5.5-0.3c3.1-0.3,3.9-2.6,4.4-5.3c0.8-4.1,0.8-11.8,0.8-20.9v-17.5c0-14.9,0-17.7-0.3-20.9
	c-0.3-3.4-1.5-4.9-6.6-5.7c-1.3-0.2-3.1-0.3-5-0.3c-1.6,0-2.6-0.2-2.6-0.8s1.1-0.8,3.4-0.8c7.1,0,16.9,0.3,20.9,0.3
	c3.7,0,14.8-0.3,20.7-0.3c2.1,0,3.2,0.2,3.2,0.8c0,0.6-1,0.8-2.8,0.8c-1.6,0-4.1,0.2-6,0.3c-4.1,0.5-5.3,2.1-5.7,5.7
	c-0.3,3.1-0.3,5.8-0.3,20.9L305.1,121.6"/>
<path fill="#FFFFFF" d="M70.2,60.5c0,4.2-3.4,7.8-7.8,7.8s-7.8-3.4-7.8-7.8c0-4.2,3.4-7.8,7.8-7.8S70.2,56.2,70.2,60.5"/>
<polyline fill="#FFFFFF" points="56.3,164.1 52.4,176.3 39.7,176.3 49.9,183.7 46.1,195.9 56.3,188.4 66.5,195.9 62.6,183.7 
	72.8,176.3 60.2,176.3 56.3,164.1 "/>
<polyline fill="#FFFFFF" points="126,164.1 122.1,176.3 109.4,176.3 119.7,183.7 115.8,195.9 126,188.4 136.2,195.9 132.3,183.7 
	142.5,176.3 129.9,176.3 126,164.1 "/>
<polyline fill="#FFFFFF" points="195.7,164.1 191.8,176.3 179.1,176.3 189.4,183.7 185.5,195.9 195.7,188.4 205.9,195.9 202,183.7 
	212.2,176.3 199.6,176.3 195.7,164.1 "/>
<polyline fill="#FFFFFF" points="265.4,164.1 261.5,176.3 248.8,176.3 259.1,183.7 255.2,195.9 265.4,188.4 275.6,195.9 
	271.7,183.7 281.9,176.3 269.3,176.3 265.4,164.1 "/>
<polyline fill="#FFFFFF" points="335.1,164.1 331.2,176.3 318.6,176.3 328.8,183.7 324.9,195.9 335.1,188.4 345.3,195.9 
	341.4,183.7 351.6,176.3 339,176.3 335.1,164.1 "/>
<path fill="#FFFFFF" d="M43.6,227.2c0-3.2,0-3.9,0-4.5c0-0.6-0.2-1.1-1-1.1c-0.2,0-0.5,0-0.6,0s-0.2,0-0.2-0.2
	c0-0.2,0.2-0.2,0.3-0.2c1,0,2.3,0,2.4,0s4.4,0,4.9,0c0.3,0,0.8,0,1-0.2c0.2,0,0.2-0.2,0.3-0.2l0.2,0.2c0,0.2-0.2,0.3-0.2,1
	c0,0.2,0,1.1-0.2,1.5c0,0.2,0,0.2-0.2,0.2s-0.2-0.2-0.2-0.3c0-0.2,0-0.5-0.2-0.8s-0.3-0.6-1.5-0.6c-0.3,0-2.6,0-2.9,0
	c-0.2,0-0.2,0-0.2,0.2v5.8c0,0.2,0,0.2,0.2,0.2c0.3,0,2.9,0,3.4,0c0.5,0,0.8-0.2,1-0.3c0.2-0.2,0.2-0.3,0.3-0.3c0,0,0.2,0,0.2,0.2
	c0,0.2-0.2,0.5-0.2,1.1c0,0.5-0.2,1.1-0.2,1.3c0,0.2,0,0.3-0.2,0.3s-0.2-0.2-0.2-0.2c0-0.2,0-0.5-0.2-0.6c-0.2-0.3-0.3-0.6-1.1-0.8
	c-0.5,0-2.6-0.2-3.1-0.2c-0.2,0-0.2,0-0.2,0.2v1.8c0,0.6,0,3.2,0,3.6c0,1.5,0.3,1.8,2.4,1.8c0.5,0,1.5,0,1.9-0.2
	c0.5-0.2,0.8-0.6,1-1.5c0-0.2,0.2-0.3,0.2-0.3c0.2,0,0.2,0.2,0.2,0.3c0,0.2-0.2,1.6-0.3,2.1c-0.2,0.5-0.3,0.5-1.1,0.5
	c-3.2,0-4.5-0.2-5.2-0.2c-0.2,0-1.5,0-2.1,0c-0.2,0-0.3,0-0.3-0.2c0,0,0-0.2,0.2-0.2c0.2,0,0.5,0,0.6-0.2c0.5-0.2,0.5-0.5,0.6-1.1
	c0.2-0.8,0.2-2.6,0.2-4.5V227.2"/>
<path fill="#FFFFFF" d="M70.5,234.3c1.3-2.8,4.1-10.2,4.5-11.7c0.2-0.3,0.2-0.6,0.2-0.8c0-0.2,0-0.3-0.3-0.5s-0.6-0.2-0.8-0.2
	s-0.2,0-0.2-0.2c0-0.2,0.2-0.2,0.5-0.2c0.8,0,1.8,0,2.1,0c0.2,0,1,0,1.6,0c0.2,0,0.3,0,0.3,0.2c0,0.2-0.2,0.2-0.3,0.2s-0.6,0-1,0.3
	c-0.3,0.2-0.6,0.5-1.1,1.9c-0.2,0.6-1.3,3.1-2.4,5.7c-1.3,3.1-2.3,5.3-2.8,6.3c-0.6,1.3-0.6,1.6-0.8,1.6c-0.3,0-0.3-0.3-0.8-1.3
	l-5.2-13c-0.5-1.1-0.8-1.5-1.5-1.6c-0.3-0.2-0.6-0.2-0.8-0.2s-0.2,0-0.2-0.2c0-0.2,0.2-0.2,0.5-0.2c1,0,2.3,0,2.4,0s1.1,0,1.9,0
	c0.3,0,0.6,0,0.6,0.2c0,0.2,0,0.2-0.2,0.2s-0.6,0-0.8,0.2c-0.2,0.2-0.3,0.3-0.3,0.5c0,0.3,0.3,1,0.6,1.8L70.5,234.3"/>
<path fill="#FFFFFF" d="M90.6,227.2c0-3.2,0-3.9,0-4.5c0-0.6-0.2-1.1-1-1.1c-0.2,0-0.5,0-0.6,0c-0.2,0-0.2,0-0.2-0.2
	c0-0.2,0.2-0.2,0.3-0.2c1,0,2.3,0,2.4,0c0.2,0,4.4,0,4.9,0c0.3,0,0.8,0,1-0.2c0.2,0,0.2-0.2,0.3-0.2l0.2,0.2c0,0.2-0.2,0.3-0.2,1
	c0,0.2,0,1.1-0.2,1.5c0,0.2,0,0.2-0.2,0.2c-0.2,0-0.2-0.2-0.2-0.3c0-0.2,0-0.5-0.2-0.8c-0.2-0.3-0.3-0.6-1.5-0.6c-0.3,0-2.6,0-2.9,0
	c-0.2,0-0.2,0-0.2,0.2v5.8c0,0.2,0,0.2,0.2,0.2c0.3,0,2.9,0,3.4,0c0.5,0,0.8-0.2,1-0.3c0.2-0.2,0.2-0.3,0.3-0.3c0,0,0.2,0,0.2,0.2
	c0,0.2-0.2,0.5-0.2,1.1c0,0.5-0.2,1.1-0.2,1.3c0,0.2,0,0.3-0.2,0.3c-0.2,0-0.2-0.2-0.2-0.2c0-0.2,0-0.5-0.2-0.6
	c-0.2-0.3-0.3-0.6-1.1-0.8c-0.6,0-2.6-0.2-3.1-0.2c-0.2,0-0.2,0-0.2,0.2v1.8c0,0.6,0,3.2,0,3.6c0,1.5,0.3,1.8,2.4,1.8
	c0.5,0,1.5,0,1.9-0.2c0.5-0.2,0.8-0.6,1-1.5c0-0.2,0.2-0.3,0.2-0.3c0.2,0,0.2,0.2,0.2,0.3c0,0.2-0.2,1.6-0.3,2.1
	c-0.2,0.5-0.3,0.5-1.1,0.5c-3.2,0-4.5-0.2-5.2-0.2c-0.2,0-1.5,0-2.1,0c-0.2,0-0.3,0-0.3-0.2c0,0,0-0.2,0.2-0.2c0.2,0,0.5,0,0.6-0.2
	c0.5-0.2,0.5-0.5,0.6-1.1c0.2-0.8,0.2-2.6,0.2-4.5L90.6,227.2"/>
<path fill="#FFFFFF" d="M113,234c0,1.8,0.3,2.3,0.8,2.4c0.3,0.2,0.8,0.2,1,0.2c0.2,0,0.2,0,0.2,0.2s-0.2,0.2-0.3,0.2
	c-1.1,0-2.1,0-2.3,0c-0.2,0-1.1,0-1.9,0c-0.2,0-0.3,0-0.3-0.2s0-0.2,0.2-0.2c0.2,0,0.5,0,0.8-0.2c0.5-0.2,0.6-0.8,0.6-2.8v-12.2
	c0-0.8,0-1.1,0.2-1.1c0.2,0,0.5,0.5,0.8,0.6c0.3,0.3,3.4,3.7,6.6,7.3c2.1,2.3,4.4,4.9,5,5.5l-0.2-10.7c0-1.3-0.2-1.8-0.8-1.9
	c-0.3-0.2-0.8-0.2-1-0.2c-0.2,0-0.2,0-0.2-0.2c0-0.2,0.2-0.2,0.5-0.2c1,0,1.9,0,2.3,0c0.2,0,1,0,1.8,0c0.2,0,0.3,0,0.3,0.2
	c0,0.2-0.2,0.2-0.2,0.2c-0.2,0-0.3,0-0.5,0c-0.6,0.2-0.8,0.6-0.8,1.9v12.3c0,1.5,0,1.5-0.2,1.5c-0.2,0-0.5-0.2-1.6-1.3
	c-0.2-0.2-3.2-3.2-5.5-5.7c-2.4-2.6-4.9-5.3-5.5-6L113,234"/>
<path fill="#FFFFFF" d="M145.9,230.7c0,1.9,0,3.7,0.2,4.5c0,0.6,0.2,1.1,0.8,1.1c0.3,0,0.8,0.2,1,0.2c0.2,0,0.2,0,0.2,0.2
	s-0.2,0.2-0.3,0.2c-1.1,0-2.4,0-2.6,0c-0.2,0-1.5,0-2.1,0c-0.2,0-0.3,0-0.3-0.2c0,0,0-0.2,0.2-0.2s0.5,0,0.6-0.2
	c0.5-0.2,0.5-0.5,0.6-1.1c0.2-0.8,0.2-2.6,0.2-4.5v-8.9h-3.1c-1.3,0-1.8,0.2-2.1,0.6c-0.2,0.3-0.3,0.5-0.3,0.6
	c0,0.2-0.2,0.2-0.2,0.2s-0.2,0-0.2-0.2c0-0.2,0.5-1.9,0.5-2.3c0-0.2,0.2-0.3,0.2-0.3c0.2,0,0.3,0.2,1,0.3c0.6,0,1.5,0.2,1.6,0.2h7.9
	c1.3,0,1.9-0.2,2.1-0.2s0.2,0.2,0.2,0.3c0,0.6,0,2.1,0,2.3c0,0.2,0,0.3-0.2,0.3s-0.2,0-0.2-0.3v-0.2c-0.2-0.6-0.6-1.1-2.6-1.1h-2.6
	v8.6"/>
<path fill="#FFFFFF" d="M163.3,236.6c-0.3-0.2-0.3-0.2-0.3-0.8c0-1.1,0.2-1.9,0.2-2.3c0-0.2,0-0.3,0.2-0.3c0.2,0,0.2,0,0.2,0.2
	s0,0.5,0,0.8c0.3,1.6,1.8,2.1,3.1,2.1c1.9,0,3.1-1.5,3.1-2.8c0-1.5-0.6-2.3-2.4-3.7l-1-0.8c-2.3-1.8-2.8-3.1-2.8-4.5
	c0-2.3,1.6-3.7,4.4-3.7c0.8,0,1.5,0.2,1.9,0.2c0.3,0.2,0.6,0.2,0.8,0.2s0.2,0,0.2,0.2c0,0.2-0.2,0.8-0.2,2.3c0,0.3,0,0.5-0.2,0.5
	s-0.2-0.2-0.2-0.3c0-0.3-0.2-0.8-0.3-1c-0.2-0.2-0.6-1.1-2.6-1.1c-1.5,0-2.6,1-2.6,2.4c0,1.1,0.6,1.9,2.6,3.6l0.6,0.5
	c2.4,1.9,3.1,3.2,3.1,5c0,0.8-0.3,2.4-1.8,3.6c-1,0.6-2.1,0.8-3.2,0.8C165.2,237.2,164.2,237.1,163.3,236.6"/>
<path fill="#FFFFFF" d="M203.3,230.9c0,3.1,0.2,4.4,0.5,4.9c0.3,0.3,0.8,0.5,2.6,0.5c1.1,0,2.1,0,2.6-0.6c0.3-0.3,0.5-0.8,0.5-1.3
	c0-0.2,0-0.3,0.2-0.3c0.2,0,0.2,0.2,0.2,0.3c0,0.2-0.2,1.5-0.3,2.1c-0.2,0.5-0.2,0.6-1.3,0.6c-3.1,0-4.4-0.2-5.7-0.2
	c-0.2,0-1.5,0-2.1,0c-0.2,0-0.3,0-0.3-0.2c0,0,0-0.2,0.2-0.2s0.5,0,0.6-0.2c0.5-0.2,0.5-0.5,0.6-1.1c0.2-0.8,0.2-2.6,0.2-4.5v-3.6
	c0-3.2,0-3.9,0-4.5c0-0.6-0.2-1.1-1-1.1c-0.2,0-0.5,0-0.6,0c-0.2,0-0.2,0-0.2-0.2c0-0.2,0.2-0.2,0.3-0.2c1,0,2.3,0,2.4,0
	c0.2,0,1.6,0,2.3,0c0.2,0,0.3,0,0.3,0.2c0,0.2-0.2,0.2-0.2,0.2c-0.2,0-0.5,0-0.6,0c-0.6,0.2-0.8,0.5-0.8,1.1s0,1.3,0,4.5v3.7"/>
<path fill="#FFFFFF" d="M224.7,230.7c0,1.9,0,3.7,0.2,4.5c0,0.6,0.2,1.1,0.8,1.1c0.3,0,0.8,0.2,1,0.2s0.2,0,0.2,0.2
	s-0.2,0.2-0.3,0.2c-1.1,0-2.4,0-2.6,0s-1.5,0-2.1,0c-0.2,0-0.3,0-0.3-0.2c0,0,0-0.2,0.2-0.2s0.5,0,0.6-0.2c0.5-0.2,0.5-0.5,0.6-1.1
	c0.2-0.8,0.2-2.6,0.2-4.5v-3.6c0-3.2,0-3.9,0-4.5c0-0.6-0.3-1.1-0.6-1.1c-0.2,0-0.5-0.2-0.6-0.2c-0.2,0-0.2,0-0.2-0.2
	c0-0.2,0.2-0.2,0.3-0.2c0.6,0,1.9,0,2.1,0s1.5,0,2.1,0c0.2,0,0.3,0,0.3,0.2c0,0.2-0.2,0.2-0.2,0.2c-0.2,0-0.3,0-0.5,0
	c-0.6,0.2-0.8,0.5-0.8,1.1c0,0.6,0,1.3,0,4.5v3.7"/>
<path fill="#FFFFFF" d="M256.8,234.1c0.2,0.8,0.2,1.9,1.1,2.3c0.6,0.2,1.1,0.2,1.3,0.2s0.2,0,0.2,0.2s-0.2,0.2-0.5,0.2
	c-0.5,0-2.8,0-3.6-0.2c-0.5,0-0.6-0.2-0.6-0.2c0-0.2,0-0.2,0.2-0.2c0.2,0,0.2-0.3,0.2-0.8l-1-10.9l0,0l-5.2,11
	c-0.5,1-0.5,1.1-0.6,1.1c-0.2,0-0.3-0.2-0.6-1c-0.5-1-2.4-4.7-2.4-4.9c-0.2-0.3-2.6-5.5-2.8-6h-0.2l-0.8,9.7c0,0.3,0,0.6,0,1.1
	c0,0.3,0.2,0.6,0.5,0.6c0.3,0.2,0.6,0.2,0.8,0.2c0.2,0,0.2,0,0.2,0.2c0,0.2-0.2,0.2-0.3,0.2c-0.8,0-1.8,0-1.9,0c-0.2,0-1.1,0-1.8,0
	c-0.2,0-0.3,0-0.3-0.2l0.2-0.2c0.2,0,0.3,0,0.6,0c0.6-0.2,0.8-1,0.8-1.8l1.5-13.8c0-0.2,0.2-0.3,0.2-0.3c0.2,0,0.2,0.2,0.3,0.3
	l6.5,13.3l6.2-13.3c0.2-0.2,0.2-0.3,0.3-0.3c0.2,0,0.2,0.2,0.3,0.6L256.8,234.1"/>
<path fill="#FFFFFF" d="M274,230.7c0,1.9,0,3.7,0.2,4.5c0,0.6,0.2,1.1,0.8,1.1c0.3,0,0.8,0.2,1,0.2s0.2,0,0.2,0.2s-0.2,0.2-0.3,0.2
	c-1.1,0-2.4,0-2.6,0s-1.5,0-2.1,0c-0.2,0-0.3,0-0.3-0.2c0,0,0-0.2,0.2-0.2s0.5,0,0.6-0.2c0.5-0.2,0.5-0.5,0.6-1.1
	c0.2-0.8,0.2-2.6,0.2-4.5v-3.6c0-3.2,0-3.9,0-4.5c0-0.6-0.3-1.1-0.6-1.1c-0.2,0-0.5-0.2-0.6-0.2s-0.2,0-0.2-0.2
	c0-0.2,0.2-0.2,0.3-0.2c0.6,0,1.9,0,2.1,0s1.5,0,2.1,0c0.2,0,0.3,0,0.3,0.2c0,0.2-0.2,0.2-0.2,0.2c-0.2,0-0.3,0-0.5,0
	c-0.6,0.2-0.8,0.5-0.8,1.1c0,0.6,0,1.3,0,4.5v3.7"/>
<path fill="#FFFFFF" d="M295,230.7c0,1.9,0,3.7,0.2,4.5c0,0.6,0.2,1.1,0.8,1.1c0.3,0,0.8,0.2,1,0.2c0.2,0,0.2,0,0.2,0.2
	s-0.2,0.2-0.3,0.2c-1.1,0-2.4,0-2.6,0s-1.5,0-2.1,0c-0.2,0-0.3,0-0.3-0.2c0,0,0-0.2,0.2-0.2s0.5,0,0.6-0.2c0.5-0.2,0.5-0.5,0.6-1.1
	c0.2-0.8,0.2-2.6,0.2-4.5v-8.9h-3.1c-1.3,0-1.8,0.2-2.1,0.6c-0.2,0.3-0.3,0.5-0.3,0.6c0,0.2-0.2,0.2-0.2,0.2s-0.2,0-0.2-0.2
	c0-0.2,0.5-1.9,0.5-2.3c0-0.2,0.2-0.3,0.2-0.3c0.2,0,0.3,0.2,1,0.3c0.6,0,1.5,0.2,1.6,0.2h7.9c1.3,0,1.9-0.2,2.1-0.2
	c0.2,0,0.2,0.2,0.2,0.3c0,0.6,0,2.1,0,2.3c0,0.2,0,0.3-0.2,0.3s-0.2,0-0.2-0.3v-0.2c-0.2-0.6-0.6-1.1-2.6-1.1h-2.6v8.6"/>
<path fill="#FFFFFF" d="M314,227.2c0-3.2,0-3.9,0-4.5c0-0.6-0.2-1.1-1-1.1c-0.2,0-0.5,0-0.6,0s-0.2,0-0.2-0.2c0-0.2,0.2-0.2,0.3-0.2
	c1,0,2.3,0,2.4,0s4.4,0,4.9,0c0.3,0,0.8,0,1-0.2c0.2,0,0.2-0.2,0.3-0.2l0.2,0.2c0,0.2-0.2,0.3-0.2,1c0,0.2,0,1.1-0.2,1.5
	c0,0.2,0,0.2-0.2,0.2s-0.2-0.2-0.2-0.3c0-0.2,0-0.5-0.2-0.8s-0.3-0.6-1.5-0.6c-0.3,0-2.6,0-2.9,0c-0.2,0-0.2,0-0.2,0.2v5.8
	c0,0.2,0,0.2,0.2,0.2c0.3,0,2.9,0,3.4,0c0.5,0,0.8-0.2,1-0.3c0.2-0.2,0.2-0.3,0.3-0.3c0,0,0.2,0,0.2,0.2c0,0.2-0.2,0.5-0.2,1.1
	c0,0.5-0.2,1.1-0.2,1.3c0,0.2,0,0.3-0.2,0.3c-0.2,0-0.2-0.2-0.2-0.2c0-0.2,0-0.5-0.2-0.6c-0.2-0.3-0.3-0.6-1.1-0.8
	c-0.6,0-2.6-0.2-3.1-0.2c-0.2,0-0.2,0-0.2,0.2v1.8c0,0.6,0,3.2,0,3.6c0,1.5,0.3,1.8,2.4,1.8c0.5,0,1.5,0,1.9-0.2
	c0.5-0.2,0.8-0.6,1-1.5c0-0.2,0.2-0.3,0.2-0.3c0.2,0,0.2,0.2,0.2,0.3c0,0.2-0.2,1.6-0.3,2.1c-0.2,0.5-0.3,0.5-1.1,0.5
	c-3.2,0-4.5-0.2-5.2-0.2c-0.2,0-1.5,0-2.1,0c-0.2,0-0.3,0-0.3-0.2c0,0,0-0.2,0.2-0.2s0.5,0,0.6-0.2c0.5-0.2,0.5-0.5,0.6-1.1
	c0.2-0.8,0.2-2.6,0.2-4.5V227.2"/>
<path fill="#FFFFFF" d="M335.9,227.2c0-3.2,0-3.9,0-4.5c0-0.6-0.2-1.1-1-1.1c-0.2,0-0.5,0-0.6,0s-0.2,0-0.2-0.2
	c0-0.2,0.2-0.2,0.3-0.2c1,0,2.3,0,2.4,0c0.3,0,1.6,0,2.9,0c2.1,0,6-0.2,8.4,2.4c1.1,1.1,2.1,2.9,2.1,5.3c0,2.6-1.1,4.7-2.3,6
	c-1,1-2.8,2.4-6.3,2.4c-1.8,0-4.5-0.3-4.7-0.3c-0.2,0-1.5,0-2.1,0c-0.2,0-0.3,0-0.3-0.2c0,0,0-0.2,0.2-0.2c0.2,0,0.5,0,0.6-0.2
	c0.5-0.2,0.5-0.5,0.6-1.1c0.2-0.8,0.2-2.6,0.2-4.5v-3.7 M337.7,229.4c0,2.3,0,4.2,0,4.5c0,0.5,0,1.3,0.2,1.6
	c0.3,0.3,1.1,0.8,3.6,0.8c1.9,0,3.7-0.6,5-1.9c1.1-1.1,1.6-3.1,1.6-5c0-2.8-1.1-4.4-1.9-5.3c-1.9-2.1-4.4-2.4-7-2.4
	c-0.5,0-1.1,0-1.3,0.2c-0.2,0.2-0.3,0.2-0.3,0.5c0,0.6,0,2.9,0,4.5v2.6H337.7z"/>
<g>
</g>
<g>
</g>
<g>
</g>
<g>
</g>
<g>
</g>
<g>
</g>
<g>
</g>
<g>
</g>
<g>
</g>
<g>
</g>
</svg>
