<?xml version="1.0" encoding="utf-8"?>
<!-- Generator: Adobe Illustrator 18.1.1, SVG Export Plug-In . SVG Version: 6.00 Build 0)  -->
<svg version="1.1" id="Layer_20" xmlns="http://www.w3.org/2000/svg" xmlns:xlink="http://www.w3.org/1999/xlink" x="0px" y="0px"
	 viewBox="0 0 390 292.5" enable-background="new 0 0 390 292.5" xml:space="preserve">
<g>
	<path fill="#101416" d="M131.1,95c0,0.6,0,0.9,0.4,0.9s1.7-0.6,2.8-1.7v1.7c-2.1,1.5-3,1.9-3.6,1.9c-0.9,0-1.3-0.4-1.3-2.4
		c-2.1,1.7-3.9,2.4-5.8,2.4c-2.8,0-4.9-2.1-4.9-4.7c0-4.1,3.9-6.4,11-6.9v-2.4c0-2.6-1.3-3.6-4.1-3.6c-1.9,0-3.2,0.4-5.6,2.1v-1.9
		c2.1-1.5,4.1-1.9,6-1.9c1.9,0,3.6,0.6,4.7,1.7c0.9,0.9,1.1,1.7,1.1,4.3V95 M129,87.8c-1.9,0-2.4,0-3.9,0.4c-3,0.6-5.1,2.6-5.1,4.9
		c0,1.7,1.5,3,3.6,3c1.7,0,3.2-0.6,5.1-2.4v-6h0.3V87.8z"/>
	<path fill="#101416" d="M141.8,81.4c2.6-2.4,4.3-3,6.6-3c4.9,0,8.3,3.6,8.3,9.1c0,6.2-4.1,10.4-10.6,10.4c-2.1,0-4.1-0.4-6.6-1.3
		V69.1h1.9v12.3 M141.8,95c1.7,0.6,3,0.9,4.5,0.9c4.7,0,8.3-3.4,8.3-8.1c0-4.3-2.8-7.5-6.4-7.5c-2.4,0-4.3,1.1-6.4,3.6L141.8,95
		L141.8,95z"/>
	<path fill="#101416" d="M163.2,94.1c2.4,1.3,4.1,1.7,5.8,1.7c2.4,0,3.9-1.3,3.9-3s-1.1-2.8-3.9-3.6c-0.9-0.4-1.5-0.6-1.9-0.6
		c-0.9-0.2-1.5-0.6-2.1-1.3c-1.1-0.9-1.7-2.1-1.7-3.6c0-2.8,2.6-5.1,6-5.1c1.7,0,3,0.4,4.9,1.7v2.1c-2.1-1.5-3.4-1.9-5.1-1.9
		c-2.4,0-4.1,1.3-4.1,3.2c0,1.7,1.3,2.6,4.5,3.6c3,1.1,4.1,1.9,4.9,3.6c0.2,0.6,0.4,1.3,0.4,1.7c0,3-2.6,5.1-6,5.1
		c-1.9,0-3.6-0.4-5.6-1.7L163.2,94.1"/>
	<path fill="#101416" d="M190.1,97.8c-5.4,0-9.5-4.1-9.5-9.7c0-5.6,3.9-9.7,9.5-9.7s9.5,4.1,9.5,9.7
		C199.8,93.7,195.7,97.8,190.1,97.8 M190.1,80.3c-4.3,0-7.3,3.2-7.3,7.7s3,7.7,7.3,7.7c4.3,0,7.5-3.2,7.5-7.9
		C197.7,83.5,194.4,80.3,190.1,80.3z"/>
	<rect x="207.3" y="69.1" fill="#101416" width="1.9" height="28.5"/>
	<path fill="#101416" d="M230.8,94.3c-1.3,1.5-1.7,1.9-3,2.6c-1.1,0.6-2.1,0.9-3.4,0.9c-2.4,0-4.5-1.1-5.6-2.8
		c-0.9-1.5-1.1-2.8-1.1-5.6V78.8h1.9v10.6c0,2.4,0.2,3.4,0.6,4.5c0.9,1.5,2.4,2.4,4.3,2.4c2.4,0,4.5-1.3,5.6-3
		c0.2-0.2,0.4-0.6,0.6-1.1V79h1.9v18.7h-1.8V94.3"/>
	<path fill="#101416" d="M244.5,72.5v6.2h5.1v1.5h-5.1v11.4c0,3.2,0.6,3.9,2.8,3.9c1.1,0,1.7-0.2,3.4-0.9v1.9
		c-1.5,0.6-2.6,0.9-3.9,0.9c-1.7,0-3.2-0.9-3.9-2.1c-0.2-0.6-0.4-1.3-0.4-1.9V80.3h-4.9v-1.7h4.9v-4.5l1.3-1.7h0.6"/>
	<path fill="#101416" d="M271.9,95.2c-2.1,1.7-4.5,2.4-7.1,2.4c-5.4,0-9.3-4.1-9.3-9.9c0-5.4,3.6-9.5,8.6-9.5c3.9,0,7.1,2.6,7.9,6.4
		c0.2,0.6,0.2,1.3,0.2,2.6h-14.7c0,0.2,0,0.4,0,0.6c0,4.5,3,7.7,7.3,7.7c2.1,0,4.1-0.6,6-1.9c0.2-0.2,0.6-0.4,1.1-0.9v2.4 M270,85.7
		c-0.6-3.6-2.8-5.6-5.8-5.6s-5.6,2.1-6.2,5.6H270z"/>
	<path fill="#101416" d="M113.7,208.2c2.4,1.3,4.1,1.7,5.8,1.7c2.4,0,3.9-1.3,3.9-3c0-1.7-1.1-2.8-3.9-3.6c-0.9-0.4-1.5-0.6-1.9-0.6
		c-0.9-0.2-1.5-0.6-2.1-1.3c-1.1-0.9-1.7-2.1-1.7-3.6c0-2.8,2.6-5.1,6-5.1c1.7,0,3,0.4,4.9,1.7v2.1c-2.1-1.5-3.4-1.9-5.1-1.9
		c-2.4,0-4.1,1.3-4.1,3.2c0,1.7,1.3,2.6,4.5,3.6c3,1.1,4.1,1.9,4.9,3.6c0.2,0.6,0.4,1.3,0.4,1.7c0,2.8-2.6,5.1-6,5.1
		c-1.9,0-3.6-0.4-5.6-1.7L113.7,208.2"/>
	<path fill="#101416" d="M140.8,211.8c-5.4,0-9.5-4.1-9.5-9.7s3.9-9.7,9.5-9.7c5.6,0,9.5,4.1,9.5,9.7S146.2,211.8,140.8,211.8
		 M140.8,194.4c-4.3,0-7.3,3.2-7.3,7.7s3,7.7,7.3,7.7s7.5-3.2,7.5-7.9C148.1,197.7,144.9,194.4,140.8,194.4z"/>
	<rect x="157.8" y="183.3" fill="#101416" width="1.9" height="28.5"/>
	<path fill="#101416" d="M181.3,208.4c-1.3,1.5-1.7,1.9-2.8,2.6c-1.1,0.4-2.1,0.9-3.4,0.9c-2.4,0-4.5-1.1-5.6-2.8
		c-0.9-1.5-1.1-2.8-1.1-5.6v-10.6h1.9v10.6c0,2.4,0.2,3.4,0.6,4.5c0.9,1.5,2.4,2.4,4.3,2.4c2.4,0,4.5-1.3,5.6-3
		c0.2-0.2,0.4-0.6,0.4-1.1v-13.2h1.9v18.7h-1.9v-3.4"/>
	<path fill="#101416" d="M195.3,186.7v6.2h5.1v1.7h-5.1V206c0,3.2,0.6,3.9,2.8,3.9c1.1,0,1.7-0.2,3.4-0.9v1.9
		c-1.5,0.6-2.6,0.9-3.9,0.9c-1.7,0-3.2-0.9-3.9-2.1c-0.2-0.6-0.4-1.3-0.4-1.9v-13.2h-4.9v-1.7h4.9v-4.5l1.3-1.7L195.3,186.7"/>
	<path fill="#101416" d="M207.3,183.3h1.9v3.4h-1.9V183.3z M207.3,192.9h1.9v18.7h-1.9V192.9z"/>
	<path fill="#101416" d="M226.2,211.8c-5.4,0-9.5-4.1-9.5-9.7s3.9-9.7,9.5-9.7c5.6,0,9.5,4.1,9.5,9.7
		C236,207.8,231.9,211.8,226.2,211.8 M226.2,194.4c-4.3,0-7.3,3.2-7.3,7.7s3,7.7,7.3,7.7s7.5-3.2,7.5-7.9
		C233.8,197.7,230.6,194.4,226.2,194.4z"/>
	<path fill="#101416" d="M245,211.6h-1.9v-18.7h1.9v3.2c1.7-2.6,3.4-3.6,6.2-3.6c2.1,0,4.3,1.1,5.6,2.6c1.1,1.5,1.5,3.2,1.5,6.2
		v10.2h-1.9v-9.9c0-2.6-0.4-3.9-1.1-5.1c-0.9-1.3-2.6-2.1-4.1-2.1c-2.4,0-4.5,1.5-5.8,4.1v13.4"/>
	<path fill="#101416" d="M265.5,208.2c2.4,1.3,4.1,1.7,5.8,1.7c2.4,0,3.9-1.3,3.9-3c0-1.7-1.1-2.8-3.9-3.6c-0.9-0.4-1.5-0.6-1.9-0.6
		c-0.9-0.2-1.5-0.6-2.1-1.3c-1.1-0.9-1.7-2.1-1.7-3.6c0-2.8,2.6-5.1,6-5.1c1.7,0,3,0.4,4.9,1.7v2.1c-2.1-1.5-3.4-1.9-5.1-1.9
		c-2.4,0-4.1,1.3-4.1,3.2c0,1.7,1.3,2.6,4.5,3.6c3,1.1,4.1,1.9,4.9,3.6c0.2,0.6,0.4,1.3,0.4,1.7c0,2.8-2.6,5.1-6,5.1
		c-1.9,0-3.6-0.4-5.6-1.7L265.5,208.2"/>
	<g>
		<g>
			<g>
				<defs>
					<rect id="SVGID_1_" x="12" y="40.5" width="366" height="213.6"/>
				</defs>
				<clipPath id="SVGID_2_">
					<use xlink:href="#SVGID_1_"  overflow="visible"/>
				</clipPath>
				<path clip-path="url(#SVGID_2_)" fill="#101416" d="M221.5,167.3c0,0-1.9,0.2-5.8,0.4c-3.9,0.2-9.3,0.6-16.4,1.1
					c-7.1,0.4-15.7,0.6-25.4,0.9c-9.9,0.2-20.9,0.2-33.2,0c-12.1-0.2-25.1-0.6-39.2-1.7c-13.8-1.1-28.5-3-43.4-6.2
					c-7.5-1.7-15.1-3.9-22.4-6.9c-3.6-1.5-7.3-3.2-10.8-5.6c-3.4-2.1-6.6-4.9-9.3-8.6c-2.6-3.6-4.1-7.9-3.9-12.7c0-1.1,0-1.9,0.2-3
					l0.2-1.7l0.4-1.5c0.4-2.1,1.3-4.1,2.1-6c3.6-7.7,9.5-14,15.7-19.4c6.2-5.4,13.2-9.9,20-14c7.1-4.1,14.2-7.7,21.5-11
					c14.7-6.4,29.5-11.7,44.2-15.7c29.3-8.1,57.5-12.5,81.6-14.2c24.3-1.7,44.6-0.6,58.5,1.1c7.1,0.9,12.5,1.7,16.2,2.6
					c3.6,0.9,5.6,1.3,5.6,1.3v0.4c0,0-1.9-0.4-5.6-1.1c-3.6-0.6-9.3-1.3-16.2-1.9c-7.1-0.6-15.5-1.1-25.4-1.1
					c-9.7,0-20.9,0.4-33,1.5c-23.9,2.1-51.9,6.9-80.8,15.3c-14.4,4.3-29.1,9.3-43.4,15.7c-7.1,3.2-14.2,6.9-21.1,10.8
					c-6.9,4.1-13.4,8.3-19.4,13.6c-5.8,5.1-11.2,11-14.4,17.9c-0.6,1.7-1.5,3.4-1.9,5.1l-0.2,1.3l-0.2,1.3c-0.2,0.9-0.2,1.9-0.2,2.8
					c0,3.4,1.1,6.9,3,9.7c2.1,3,4.9,5.4,7.9,7.5s6.4,3.9,9.9,5.1c6.9,3,14.2,4.9,21.5,6.6c14.7,3.4,29.1,5.1,42.8,6.4
					c13.8,1.3,26.7,2.1,38.7,2.6c12.1,0.4,23,0.6,33,0.6c9.9,0,18.3,0,25.4,0c7.1-0.2,12.5-0.2,16.4-0.4c3.9-0.2,5.8-0.2,5.8-0.2
					L221.5,167.3"/>
			</g>
		</g>
		<g>
			<g>
				<defs>
					<rect id="SVGID_3_" x="12" y="40.5" width="366" height="213.6"/>
				</defs>
				<clipPath id="SVGID_4_">
					<use xlink:href="#SVGID_3_"  overflow="visible"/>
				</clipPath>
				<path clip-path="url(#SVGID_4_)" fill="#BA283B" d="M194.4,135.6c16.2-0.2,32.5,0,48.7,0.6c16.2,0.6,32.3,1.9,48.5,3.9
					c16.2,1.9,32.3,4.5,48,8.9c7.9,2.4,15.7,4.9,23,9.3c3.6,2.1,7.3,4.7,10.2,8.1c1.5,1.7,2.8,3.6,3.6,5.8c0.9,2.1,1.3,4.5,1.5,6.9
					V179c0,0.6,0,1.1,0,1.5s-0.2,0.9-0.2,1.3c-0.2,0.9-0.4,1.5-0.6,2.4c-0.2,0.6-0.4,1.5-0.9,2.1l-1.1,1.9c-1.3,2.6-3,4.9-4.9,7.1
					l-1.3,1.7l-1.5,1.5l-3,3c-2.1,1.7-4.3,3.6-6.4,5.1c-2.1,1.5-4.5,3.2-6.6,4.7l-7.1,4.1c-2.4,1.5-4.7,2.6-7.1,3.9
					s-4.7,2.6-7.3,3.4l-7.3,3.2c-2.4,1.1-4.9,1.9-7.5,3l-7.5,2.8c-2.6,1.1-5.1,1.7-7.5,2.6l-11.4,3.6l-19.4,5.4l0,0h-0.6l-10.2,1.9
					c-3.6,0.6-7.1,1.3-10.8,1.9s-7.1,1.1-10.8,1.7c-3.6,0.4-7.1,1.1-10.8,1.5c-3.6,0.4-7.1,0.9-10.8,1.3l-10.8,1.1l-10.8,0.6
					c-3.6,0.2-7.3,0.2-10.8,0.4l-5.4,0.2h-5.4c-3.6,0-7.3,0.2-10.8,0l-10.8-0.2c-3.6,0-7.3-0.2-10.8-0.4c-3.6-0.2-7.3-0.2-10.8-0.6
					l-10.8-0.9c-3.6-0.2-7.1-0.6-10.8-1.1l-10.8-1.3l10.8,1.1c3.6,0.4,7.1,0.6,10.8,0.9l10.8,0.6c3.6,0.2,7.3,0.2,10.8,0.2
					c3.6,0,7.3,0.2,10.8,0l10.8-0.2c3.6,0,7.1-0.2,10.8-0.4l5.4-0.2l5.4-0.4c3.6-0.2,7.1-0.4,10.8-0.9l10.8-1.1l10.8-1.3
					c3.6-0.4,7.1-1.1,10.8-1.5c3.6-0.4,7.1-1.1,10.6-1.7c3.4-0.6,7.1-1.3,10.6-1.9s7.1-1.5,10.6-2.1l5.1-1.3l2.6-0.6l1.3-0.2
					c0.6-0.2,1.3-0.2,1.9-0.2h-0.6l0,0l19.2-5.6l3.6-1.3l7.5-2.6c2.6-0.9,4.9-1.5,7.5-2.6l7.3-2.8c2.4-0.9,4.9-1.7,7.3-3l7.3-3.2
					c2.4-1.1,4.7-2.1,7.1-3.4c2.4-1.3,4.7-2.4,6.9-3.6l6.6-3.9c2.1-1.5,4.3-3,6.4-4.3c2.1-1.5,4.1-3.2,6-4.7l2.8-2.6l1.3-1.3
					l1.3-1.5c1.7-1.9,3-3.9,4.3-6l0.9-1.5c0.2-0.4,0.4-1.1,0.6-1.5c0.2-0.4,0.4-1.1,0.4-1.5c0-0.2,0.2-0.4,0.2-0.6
					c0-0.2,0-0.4,0-0.4V180c0-1.7-0.4-3.2-0.9-4.7c-0.6-1.5-1.5-3-2.6-4.5c-2.4-2.8-5.4-4.9-8.6-7.1c-6.6-3.9-14.2-6.6-21.7-9.1
					c-15.3-4.5-31.2-7.3-47.2-9.5c-15.9-2.1-32.1-3.6-48.3-4.5c-16.2-1.1-32.3-1.7-48.5-1.9L194.4,135.6"/>
			</g>
		</g>
	</g>
	<polyline fill="#BA283B" points="161.1,115.8 161.1,159.3 168.1,159.3 168.1,138.4 190.1,138.4 190.1,159.3 197.2,159.3 
		197.2,115.8 189.9,115.8 189.9,135.6 167.9,135.6 167.9,115.8 161.1,115.8 	"/>
	<path fill="#BA283B" d="M221.5,138.6c0,0,9.9-3,9.9-11.7c0-1.9-0.6-11.4-13.4-11.4c-12.9,0-17,0-17,0V159h7.1v-20.4h5.4l14.7,20.4
		h8.6L221.5,138.6 M217.7,135.6h-9.5v-17.2c0,0,2.6,0,5.8,0c9.1,0,10.2,7.5,10.2,8.6C224.1,133.7,217.7,135.6,217.7,135.6z"/>
</g>
<g>
</g>
<g>
</g>
<g>
</g>
<g>
</g>
<g>
</g>
<g>
</g>
<g>
</g>
<g>
</g>
<g>
</g>
<g>
</g>
</svg>
