<?xml version="1.0" encoding="utf-8"?>
<!-- Generator: Adobe Illustrator 18.1.1, SVG Export Plug-In . SVG Version: 6.00 Build 0)  -->
<svg version="1.1" id="Layer_7" xmlns="http://www.w3.org/2000/svg" xmlns:xlink="http://www.w3.org/1999/xlink" x="0px" y="0px"
	 viewBox="0 0 390 150" enable-background="new 0 0 390 150" xml:space="preserve">
<polyline fill="#A1A4A6" points="100.2,108.3 110.2,131.4 120.2,108.3 125.8,137.4 122.7,137.4 119.1,118.8 119,118.8 110.2,138.5 
	101.3,118.8 101.3,118.8 97.7,137.4 94.6,137.4 100.2,108.3 "/>
<polyline fill="#A1A4A6" points="153,109.9 167.3,109.9 167.3,112.7 156.1,112.7 156.1,120.9 167,120.9 167,123.7 156.1,123.7 
	156.1,134.5 167.3,134.5 167.3,137.4 153,137.4 153,109.9 "/>
<path fill="#A1A4A6" d="M196.3,109.9h5.2c4.1,0,7.5,0.5,10.7,3.3c3.1,2.7,4.6,6.4,4.6,10.5c0,4-1.5,7.5-4.5,10.2
	c-3.3,2.9-6.6,3.5-10.9,3.5h-5.1V109.9 M201.6,134.5c3.4,0,6.2-0.5,8.7-2.8c2.3-2.1,3.4-5,3.4-8.1c0-3.1-1.2-6.2-3.6-8.2
	c-2.5-2.2-5.3-2.7-8.5-2.7h-2.2v21.8H201.6z"/>
<rect x="244.8" y="109.9" fill="#A1A4A6" width="3.1" height="27.5"/>
<path fill="#A1A4A6" d="M281.3,129.6l-3.3,7.8h-3.4l12.7-28.8l12.4,28.8h-3.4l-3.2-7.8H281.3 M287.3,115.7l-4.7,11h9.3L287.3,115.7z
	"/>
<path fill="#281E69" d="M153.4,88.5c0,4.5-3.6,8.2-8.1,8.2H86c-4.5,0-8.1-3.7-8.1-8.2V21.7c0-4.5,3.6-8.2,8.1-8.2h59.3
	c4.5,0,8.1,3.7,8.1,8.2V88.5"/>
<path fill="#FFFFFF" d="M130.5,42.9c-3.4-4-8.4-6.5-14.4-6.5c-4.5,0-8.7,1.7-11.9,4.6V13.4h-9.1v64.8h9.1v-3.4
	c3.2,2.9,7.5,4.4,12,4.4c0,0,0,0,0,0c6,0,10.9-2.6,14.3-6.5c3.4-4,5.2-9.3,5.2-14.9C135.7,52.2,133.9,46.8,130.5,42.9z M114.9,45.1
	c3.7,0,6.5,1.4,8.4,3.6c2,2.2,3.1,5.3,3.1,8.9c0,3.6-1,6.9-2.9,9.3c-1.9,2.3-4.6,3.8-8.5,3.8c-3.7,0-6.3-1.5-8.2-3.9
	c-1.9-2.4-2.9-5.8-2.9-9.2c0-3.3,1.1-6.4,3.1-8.7C108.9,46.5,111.6,45.1,114.9,45.1z"/>
<path fill="#DB0814" d="M232.6,88.5c0,4.5-3.6,8.2-8.1,8.2h-59.3c-4.5,0-8.1-3.7-8.1-8.2V21.7c0-4.5,3.6-8.2,8.1-8.2h59.3
	c4.5,0,8.1,3.7,8.1,8.2V88.5"/>
<path fill="#FFFFFF" d="M209.7,43c-3.4-4-8.3-6.6-14.3-6.6c-4.5,0-8.7,1.6-12,4.5v-3.5h-9.1v59.2l9.1,0.1v-22
	c3.2,2.9,7.4,4.5,11.9,4.5c6.1,0,11.1-2.5,14.4-6.4c3.4-3.9,5.2-9.2,5.2-14.9C214.9,52.3,213.1,47,209.7,43z M205.6,57.5
	c0,3.6-1,6.9-2.9,9.3c-1.9,2.3-4.6,3.8-8.5,3.8c-3.7,0-6.3-1.5-8.2-3.9c-1.9-2.4-2.9-5.8-2.9-9.2c0-3.3,1.1-6.4,3.1-8.7
	c1.9-2.3,4.6-3.7,8-3.7c3.7,0,6.5,1.4,8.4,3.6C204.5,50.8,205.6,54,205.6,57.5z"/>
<path fill="#F4CF00" d="M311.9,88.5c0,4.5-3.6,8.2-8.1,8.2h-59.3c-4.5,0-8.1-3.7-8.1-8.2V21.7c0-4.5,3.6-8.2,8.1-8.2h59.3
	c4.5,0,8.1,3.7,8.1,8.2V88.5"/>
<path fill="#FFFFFF" d="M297.6,42c-2-3.4-5.6-5.6-10.9-5.6c-4.3,0-8.6,1.7-11.4,5.2c-2.5-3.3-6.4-5.2-10.6-5.2c-3.1,0-5.9,1.2-8,3.1
	v-2h-9.1v40.7h9.1v-21c0-2.8,0.2-6,1.2-8.3c0.5-1.2,1.2-2.1,2.1-2.7c0.9-0.6,2.1-1,3.8-1c1.3,0,2.2,0.3,2.9,0.9
	c1,0.8,1.7,2.2,2.1,3.9c0.4,1.7,0.5,3.7,0.5,5.4v23h9.1V56.7c0-2.8,0.2-5.9,1.2-8.1c0.5-1.1,1.1-2,2-2.6c0.9-0.6,2-1,3.7-1
	c1.5,0,2.4,0.3,3.2,0.8c1.1,0.7,1.7,1.9,2.1,3.5c0.4,1.6,0.4,3.5,0.4,5.4v23.4h9.1V53.7C300.2,49.6,299.6,45.3,297.6,42z"/>
<g>
</g>
<g>
</g>
<g>
</g>
<g>
</g>
<g>
</g>
<g>
</g>
<g>
</g>
<g>
</g>
<g>
</g>
<g>
</g>
</svg>
