<?xml version="1.0" encoding="utf-8"?>
<!-- Generator: Adobe Illustrator 18.1.1, SVG Export Plug-In . SVG Version: 6.00 Build 0)  -->
<svg version="1.1" id="Layer_11" xmlns="http://www.w3.org/2000/svg" xmlns:xlink="http://www.w3.org/1999/xlink" x="0px" y="0px"
	 viewBox="0 0 390 150" enable-background="new 0 0 390 150" xml:space="preserve">
<g>
	<path fill="#101416" d="M157.8,44.6c0,0.4,0,0.5,0.3,0.5s1-0.4,1.7-1v1c-1.3,0.9-1.8,1.1-2.2,1.1c-0.5,0-0.8-0.3-0.8-1.4
		c-1.3,1-2.3,1.4-3.4,1.4c-1.7,0-2.9-1.3-2.9-2.8c0-2.4,2.3-3.8,6.5-4.1V38c0-1.5-0.8-2.2-2.4-2.2c-1.1,0-1.9,0.3-3.3,1.3V36
		c1.3-0.9,2.4-1.1,3.6-1.1s2.2,0.4,2.8,1c0.5,0.5,0.6,1,0.6,2.5v6.2 M156.5,40.4c-1.1,0-1.4,0-2.3,0.3c-1.8,0.4-3,1.5-3,2.9
		c0,1,0.9,1.8,2.2,1.8c1,0,1.9-0.4,3-1.4v-3.6H156.5z"/>
	<path fill="#101416" d="M164.1,36.6c1.5-1.4,2.5-1.8,3.9-1.8c2.9,0,5,2.2,5,5.3c0,3.7-2.4,6.1-6.2,6.1c-1.3,0-2.4-0.3-3.9-0.8V29.4
		h1.1v7.2 M164.1,44.6c1,0.4,1.8,0.5,2.7,0.5c2.8,0,5-2,5-4.8c0-2.5-1.7-4.4-3.8-4.4c-1.4,0-2.5,0.6-3.8,2.2V44.6z"/>
	<path fill="#101416" d="M176.7,44.1c1.4,0.8,2.4,1,3.4,1c1.4,0,2.3-0.8,2.3-1.8c0-1-0.6-1.7-2.3-2.2c-0.5-0.3-0.9-0.4-1.1-0.4
		c-0.5-0.1-0.9-0.4-1.3-0.8c-0.6-0.5-1-1.3-1-2.2c0-1.7,1.5-3,3.6-3c1,0,1.8,0.3,2.9,1v1.3c-1.3-0.9-2-1.1-3-1.1
		c-1.4,0-2.4,0.8-2.4,1.9c0,1,0.8,1.5,2.7,2.2c1.8,0.6,2.4,1.1,2.9,2.2c0.1,0.4,0.3,0.8,0.3,1c0,1.8-1.5,3-3.6,3
		c-1.1,0-2.2-0.3-3.3-1L176.7,44.1"/>
	<path fill="#101416" d="M192.6,46.3c-3.2,0-5.6-2.4-5.6-5.7s2.3-5.7,5.6-5.7s5.6,2.4,5.6,5.7C198.3,43.9,195.9,46.3,192.6,46.3
		 M192.6,36c-2.5,0-4.3,1.9-4.3,4.6c0,2.7,1.8,4.6,4.3,4.6s4.4-1.9,4.4-4.7C197,37.9,195.1,36,192.6,36z"/>
	<rect x="202.7" y="29.4" fill="#101416" width="1.1" height="16.8"/>
	<path fill="#101416" d="M216.6,44.3c-0.8,0.9-1,1.1-1.8,1.5c-0.6,0.4-1.3,0.5-2,0.5c-1.4,0-2.7-0.6-3.3-1.7
		c-0.5-0.9-0.6-1.7-0.6-3.3v-6.2h1.1v6.2c0,1.4,0.1,2,0.4,2.7c0.5,0.9,1.4,1.4,2.5,1.4c1.4,0,2.7-0.8,3.3-1.8
		c0.1-0.1,0.3-0.4,0.4-0.6v-7.7h1.1v11.1h-1.1L216.6,44.3"/>
	<path fill="#101416" d="M224.7,31.4v3.7h3V36h-3v6.7c0,1.9,0.4,2.3,1.7,2.3c0.6,0,1-0.1,2-0.5v1.1c-0.9,0.4-1.5,0.5-2.3,0.5
		c-1,0-1.9-0.5-2.3-1.3c-0.1-0.4-0.3-0.8-0.3-1.1V36h-2.9v-1h2.9v-2.7l0.8-1h0.4"/>
	<path fill="#101416" d="M240.8,44.8c-1.3,1-2.7,1.4-4.2,1.4c-3.2,0-5.5-2.4-5.5-5.8c0-3.2,2.2-5.6,5.1-5.6c2.3,0,4.2,1.5,4.7,3.8
		c0.1,0.4,0.1,0.8,0.1,1.5h-8.6c0,0.1,0,0.3,0,0.4c0,2.7,1.8,4.6,4.3,4.6c1.3,0,2.4-0.4,3.6-1.1c0.1-0.1,0.4-0.3,0.6-0.5v1.4
		 M239.7,39.2c-0.4-2.2-1.7-3.3-3.4-3.3c-1.8,0-3.3,1.3-3.7,3.3H239.7z"/>
	<path fill="#101416" d="M147.5,111.4c1.4,0.8,2.4,1,3.4,1c1.4,0,2.3-0.8,2.3-1.8c0-1-0.6-1.7-2.3-2.2c-0.5-0.3-0.9-0.4-1.1-0.4
		c-0.5-0.1-0.9-0.4-1.3-0.8c-0.6-0.5-1-1.3-1-2.2c0-1.7,1.5-3,3.6-3c1,0,1.8,0.3,2.9,1v1.3c-1.3-0.9-2-1.1-3-1.1
		c-1.4,0-2.4,0.8-2.4,1.9c0,1,0.8,1.5,2.7,2.2c1.8,0.6,2.4,1.1,2.9,2.2c0.1,0.4,0.3,0.8,0.3,1c0,1.7-1.5,3-3.6,3
		c-1.1,0-2.2-0.3-3.3-1V111.4"/>
	<path fill="#101416" d="M163.5,113.6c-3.2,0-5.6-2.4-5.6-5.7c0-3.3,2.3-5.7,5.6-5.7c3.3,0,5.6,2.4,5.6,5.7
		C169.1,111.2,166.7,113.6,163.5,113.6 M163.5,103.3c-2.5,0-4.3,1.9-4.3,4.6s1.8,4.6,4.3,4.6c2.5,0,4.4-1.9,4.4-4.7
		C167.8,105.2,165.9,103.3,163.5,103.3z"/>
	<rect x="173.5" y="96.7" fill="#101416" width="1.1" height="16.8"/>
	<path fill="#101416" d="M187.4,111.6c-0.8,0.9-1,1.1-1.7,1.5c-0.6,0.3-1.3,0.5-2,0.5c-1.4,0-2.7-0.6-3.3-1.7
		c-0.5-0.9-0.6-1.7-0.6-3.3v-6.2h1.1v6.2c0,1.4,0.1,2,0.4,2.7c0.5,0.9,1.4,1.4,2.5,1.4c1.4,0,2.7-0.8,3.3-1.8
		c0.1-0.1,0.3-0.4,0.3-0.6v-7.7h1.1v11.1h-1.1V111.6"/>
	<path fill="#101416" d="M195.6,98.7v3.7h3v1h-3v6.7c0,1.9,0.4,2.3,1.7,2.3c0.6,0,1-0.1,2-0.5v1.1c-0.9,0.4-1.5,0.5-2.3,0.5
		c-1,0-1.9-0.5-2.3-1.3c-0.1-0.4-0.3-0.8-0.3-1.1v-7.7h-2.9v-1h2.9v-2.7l0.8-1L195.6,98.7"/>
	<path fill="#101416" d="M202.7,96.7h1.1v2h-1.1V96.7z M202.7,102.4h1.1v11.1h-1.1V102.4z"/>
	<path fill="#101416" d="M213.9,113.6c-3.2,0-5.6-2.4-5.6-5.7c0-3.3,2.3-5.7,5.6-5.7c3.3,0,5.6,2.4,5.6,5.7
		C219.6,111.2,217.2,113.6,213.9,113.6 M213.9,103.3c-2.5,0-4.3,1.9-4.3,4.6s1.8,4.6,4.3,4.6c2.5,0,4.4-1.9,4.4-4.7
		C218.4,105.2,216.5,103.3,213.9,103.3z"/>
	<path fill="#101416" d="M225,113.5h-1.1v-11.1h1.1v1.9c1-1.5,2-2.2,3.7-2.2c1.3,0,2.5,0.6,3.3,1.5c0.6,0.9,0.9,1.9,0.9,3.7v6h-1.1
		v-5.8c0-1.5-0.3-2.3-0.6-3c-0.5-0.8-1.5-1.3-2.4-1.3c-1.4,0-2.7,0.9-3.4,2.4v7.9"/>
	<path fill="#101416" d="M237,111.4c1.4,0.8,2.4,1,3.4,1c1.4,0,2.3-0.8,2.3-1.8c0-1-0.6-1.7-2.3-2.2c-0.5-0.3-0.9-0.4-1.1-0.4
		c-0.5-0.1-0.9-0.4-1.3-0.8c-0.6-0.5-1-1.3-1-2.2c0-1.7,1.5-3,3.6-3c1,0,1.8,0.3,2.9,1v1.3c-1.3-0.9-2-1.1-3-1.1
		c-1.4,0-2.4,0.8-2.4,1.9c0,1,0.8,1.5,2.7,2.2c1.8,0.6,2.4,1.1,2.9,2.2c0.1,0.4,0.3,0.8,0.3,1c0,1.7-1.5,3-3.6,3
		c-1.1,0-2.2-0.3-3.3-1L237,111.4"/>
	<g>
		<g>
			<defs>
				<rect id="SVGID_1_" x="87.5" y="12.5" width="215.9" height="126"/>
			</defs>
			<clipPath id="SVGID_2_">
				<use xlink:href="#SVGID_1_"  overflow="visible"/>
			</clipPath>
			<path clip-path="url(#SVGID_2_)" fill="#101416" d="M211.1,87.3c0,0-1.1,0.1-3.4,0.3c-2.3,0.1-5.5,0.4-9.7,0.6
				c-4.2,0.3-9.3,0.4-15,0.5c-5.8,0.1-12.3,0.1-19.6,0c-7.1-0.1-14.9-0.4-23.1-1c-8.1-0.6-16.8-1.8-25.7-3.7
				c-4.4-1-8.9-2.3-13.2-4.1c-2.2-0.9-4.3-1.9-6.4-3.3c-2-1.3-3.9-2.9-5.5-5.1s-2.4-4.7-2.3-7.5c0-0.6,0-1.1,0.1-1.8l0.1-1l0.3-0.9
				c0.3-1.3,0.8-2.4,1.3-3.6c2.2-4.6,5.6-8.3,9.3-11.4s7.7-5.8,11.8-8.3c4.2-2.4,8.4-4.6,12.7-6.5c8.6-3.8,17.4-6.9,26-9.3
				c17.3-4.8,33.9-7.4,48.1-8.4c14.4-1,26.3-0.4,34.5,0.6c4.2,0.5,7.4,1,9.5,1.5c2.2,0.5,3.3,0.8,3.3,0.8v0.3c0,0-1.1-0.3-3.3-0.6
				c-2.2-0.4-5.5-0.8-9.5-1.1c-4.2-0.4-9.1-0.6-15-0.6c-5.7,0-12.3,0.3-19.4,0.9c-14.1,1.3-30.6,4.1-47.6,9
				c-8.5,2.5-17.1,5.5-25.7,9.3c-4.2,1.9-8.4,4.1-12.4,6.4c-4.1,2.4-7.9,5-11.4,8c-3.4,3-6.6,6.5-8.5,10.5c-0.4,1-0.9,2-1.1,3
				l-0.1,0.8l-0.1,0.8c-0.1,0.5-0.1,1.1-0.1,1.7c0,2,0.6,4.1,1.8,5.7c1.3,1.8,2.9,3.2,4.7,4.4c1.8,1.3,3.8,2.3,5.8,3
				c4.1,1.8,8.4,2.9,12.7,3.9c8.6,2,17.1,3,25.3,3.8c8.1,0.8,15.8,1.3,22.9,1.5s13.6,0.4,19.4,0.4c5.8,0,10.8,0,15,0
				c4.2-0.1,7.4-0.1,9.7-0.3s3.4-0.1,3.4-0.1L211.1,87.3"/>
		</g>
		<g>
			<defs>
				<rect id="SVGID_3_" x="87.5" y="12.5" width="215.9" height="126"/>
			</defs>
			<clipPath id="SVGID_4_">
				<use xlink:href="#SVGID_3_"  overflow="visible"/>
			</clipPath>
			<path clip-path="url(#SVGID_4_)" fill="#BA283B" d="M195.1,68.6c9.5-0.1,19.2,0,28.7,0.4c9.5,0.4,19.1,1.1,28.6,2.3
				c9.5,1.1,19.1,2.7,28.3,5.2c4.7,1.4,9.3,2.9,13.6,5.5c2.2,1.3,4.3,2.8,6,4.8c0.9,1,1.7,2.2,2.2,3.4s0.8,2.7,0.9,4.1v-0.1
				c0,0.4,0,0.6,0,0.9s-0.1,0.5-0.1,0.8c-0.1,0.5-0.3,0.9-0.4,1.4c-0.1,0.4-0.3,0.9-0.5,1.3l-0.6,1.1c-0.8,1.5-1.8,2.9-2.9,4.2
				l-0.8,1l-0.9,0.9l-1.8,1.8c-1.3,1-2.5,2.2-3.8,3s-2.7,1.9-3.9,2.8l-4.2,2.4c-1.4,0.9-2.8,1.5-4.2,2.3c-1.4,0.8-2.8,1.5-4.3,2
				l-4.3,1.9c-1.4,0.6-2.9,1.1-4.4,1.8l-4.4,1.7c-1.5,0.6-3,1-4.4,1.5l-6.7,2.2l-11.4,3.2l0,0h-0.4l-6,1.1c-2.2,0.4-4.2,0.8-6.4,1.1
				c-2.2,0.4-4.2,0.6-6.4,1c-2.2,0.3-4.2,0.6-6.4,0.9s-4.2,0.5-6.4,0.8l-6.4,0.6l-6.4,0.4c-2.2,0.1-4.3,0.1-6.4,0.3l-3.2,0.1h-3.2
				c-2.2,0-4.3,0.1-6.4,0l-6.4-0.1c-2.2,0-4.3-0.1-6.4-0.3c-2.2-0.1-4.3-0.1-6.4-0.4l-6.4-0.5c-2.2-0.1-4.2-0.4-6.4-0.6l-6.4-0.8
				l6.4,0.6c2.2,0.3,4.2,0.4,6.4,0.5l6.4,0.4c2.2,0.1,4.3,0.1,6.4,0.1c2.2,0,4.3,0.1,6.4,0l6.4-0.1c2.2,0,4.2-0.1,6.4-0.3l3.2-0.1
				l3.2-0.3c2.2-0.1,4.2-0.3,6.4-0.5l6.4-0.6l6.4-0.8c2.2-0.3,4.2-0.6,6.4-0.9s4.2-0.6,6.2-1s4.2-0.8,6.2-1.1c2-0.4,4.2-0.9,6.2-1.3
				l3-0.8l1.5-0.4l0.8-0.1c0.4-0.1,0.8-0.1,1.1-0.1h-0.4l0,0l11.3-3.3l2.2-0.8l4.4-1.5c1.5-0.5,2.9-0.9,4.4-1.5l4.3-1.7
				c1.4-0.5,2.9-1,4.3-1.8l4.3-1.9c1.4-0.6,2.8-1.3,4.2-2s2.8-1.4,4.1-2.2l3.9-2.3c1.3-0.9,2.5-1.8,3.8-2.5c1.3-0.9,2.4-1.9,3.6-2.8
				l1.7-1.5l0.8-0.8l0.8-0.9c1-1.1,1.8-2.3,2.5-3.6l0.5-0.9c0.1-0.3,0.3-0.6,0.4-0.9s0.3-0.6,0.3-0.9c0-0.1,0.1-0.3,0.1-0.4
				c0-0.1,0-0.3,0-0.3v-0.1c0-1-0.3-1.9-0.5-2.8c-0.4-0.9-0.9-1.8-1.5-2.7c-1.4-1.7-3.2-2.9-5.1-4.2c-3.9-2.3-8.4-3.9-12.8-5.3
				c-9-2.7-18.4-4.3-27.8-5.6c-9.4-1.3-18.9-2.2-28.5-2.7c-9.5-0.6-19.1-1-28.6-1.1L195.1,68.6"/>
		</g>
	</g>
	<polyline fill="#BA283B" points="175.4,57 175.4,82.6 179.6,82.6 179.6,70.3 192.6,70.3 192.6,82.6 196.8,82.6 196.8,57 192.5,57 
		192.5,68.6 179.5,68.6 179.5,57 175.4,57 	"/>
	<path fill="#BA283B" d="M211.1,70.4c0,0,5.8-1.8,5.8-6.9c0-1.1-0.4-6.7-7.9-6.7c-7.6,0-10,0-10,0v25.7h4.2V70.4h3.2l8.6,12.1h5.1
		L211.1,70.4 M208.8,68.6h-5.6V58.5c0,0,1.5,0,3.4,0c5.3,0,6,4.4,6,5.1C212.6,67.5,208.8,68.6,208.8,68.6z"/>
</g>
<g>
</g>
<g>
</g>
<g>
</g>
<g>
</g>
<g>
</g>
<g>
</g>
<g>
</g>
<g>
</g>
<g>
</g>
<g>
</g>
</svg>
