<?xml version="1.0" encoding="utf-8"?>
<!-- Generator: Adobe Illustrator 13.0.0, SVG Export Plug-In . SVG Version: 6.00 Build 14948)  -->
<!DOCTYPE svg PUBLIC "-//W3C//DTD SVG 1.1//EN" "http://www.w3.org/Graphics/SVG/1.1/DTD/svg11.dtd">
<svg version="1.1" id="sponsor-logo_johnsons-jewellers"
	 xmlns="http://www.w3.org/2000/svg" xmlns:xlink="http://www.w3.org/1999/xlink" x="0px" y="0px" width="390px" height="150px"
	 viewBox="0 0 390 150" enable-background="new 0 0 390 150" xml:space="preserve">
<g>
	<g>
		<path fill="#231F20" d="M19.3,67.2c0,4.8,0,6.7-0.9,8.8c-0.6,1.5-1.9,2.9-4.3,4.6c-0.4,0.3-0.9,0.6-1.2,0.7
			c-0.1,0-0.1,0.1-0.2,0.1s-0.2-0.1-0.2-0.2c0-0.2,0.1-0.3,0.4-0.4c0.4-0.2,0.8-0.6,1-0.8c1.9-2,2.9-3.5,2.9-11.2V60
			c0-4.6,0-5.5-0.1-6.4c-0.1-1-0.3-1.5-1.3-1.7c-0.2-0.1-0.7-0.1-1-0.1c-0.1,0-0.2-0.1-0.2-0.2c0-0.2,0.1-0.2,0.5-0.2
			c1.3,0,3.2,0.1,3.4,0.1c0.1,0,2-0.1,2.9-0.1c0.3,0,0.5,0.1,0.5,0.2c0,0.1-0.1,0.2-0.2,0.2c-0.2,0-0.4,0-0.7,0.1
			c-0.8,0.1-1,0.7-1.1,1.7c-0.1,0.9-0.1,1.8-0.1,6.4V67.2z"/>
		<path fill="#231F20" d="M37.2,51c6.7,0,11.7,4.2,11.7,11.2c0,6.7-4.7,12.2-11.9,12.2c-8.2,0-11.5-6.3-11.5-11.7
			C25.4,57.8,29,51,37.2,51 M37.8,73.2c2.7,0,8.2-1.5,8.2-10.2c0-7.1-4.3-11-9-11c-5,0-8.7,3.3-8.7,9.8
			C28.3,68.7,32.4,73.2,37.8,73.2"/>
		<path fill="#231F20" d="M73.1,65.3c0,2.9,0,5.2,0.1,6.5c0.1,0.9,0.3,1.5,1.2,1.6c0.4,0.1,1.1,0.1,1.3,0.1c0.2,0,0.2,0.1,0.2,0.2
			c0,0.1-0.1,0.2-0.5,0.2c-1.6,0-3.5-0.1-3.7-0.1c-0.1,0-2,0.1-2.9,0.1c-0.3,0-0.5-0.1-0.5-0.2c0-0.1,0.1-0.2,0.2-0.2
			c0.3,0,0.6-0.1,0.9-0.1c0.6-0.1,0.7-0.8,0.9-1.6c0.1-1.2,0.1-3.6,0.1-6.5v-3.1c0-0.1-0.1-0.2-0.2-0.2H57.8c-0.1,0-0.2,0-0.2,0.2
			v3.1c0,2.9,0,5.2,0.1,6.5c0.1,0.9,0.3,1.5,1.2,1.6c0.4,0.1,1.1,0.1,1.3,0.1c0.2,0,0.2,0.1,0.2,0.2c0,0.1-0.1,0.2-0.5,0.2
			c-1.6,0-3.5-0.1-3.7-0.1c-0.1,0-2,0.1-2.9,0.1c-0.3,0-0.5-0.1-0.5-0.2c0-0.1,0.1-0.2,0.2-0.2c0.3,0,0.6-0.1,0.9-0.1
			c0.6-0.1,0.7-0.8,0.9-1.6c0.1-1.2,0.1-3.6,0.1-6.5V60c0-4.6,0-5.5-0.1-6.4c-0.1-1-0.3-1.5-1.3-1.7c-0.2-0.1-0.7-0.1-1-0.1
			c-0.1,0-0.2-0.1-0.2-0.2c0-0.2,0.1-0.2,0.5-0.2c1.3,0,3.2,0.1,3.4,0.1c0.1,0,2-0.1,2.9-0.1c0.3,0,0.5,0.1,0.5,0.2
			c0,0.1-0.1,0.2-0.2,0.2c-0.2,0-0.4,0-0.7,0.1c-0.8,0.1-1,0.7-1.1,1.7c-0.1,0.9-0.1,1.8-0.1,6.4v0.6c0,0.1,0.1,0.2,0.2,0.2h12.6
			c0.1,0,0.2,0,0.2-0.2V60c0-4.6,0-5.5-0.1-6.4c-0.1-1-0.3-1.5-1.3-1.7c-0.2-0.1-0.7-0.1-1-0.1c-0.1,0-0.2-0.1-0.2-0.2
			c0-0.2,0.1-0.2,0.5-0.2c1.3,0,3.2,0.1,3.4,0.1c0.1,0,2-0.1,2.9-0.1c0.3,0,0.5,0.1,0.5,0.2c0,0.1-0.1,0.2-0.2,0.2
			c-0.2,0-0.4,0-0.7,0.1c-0.8,0.1-1,0.7-1.1,1.7c-0.1,0.9-0.1,1.8-0.1,6.4V65.3z"/>
		<path fill="#231F20" d="M84.5,69.8c0.1,2.4,0.4,3.2,1.2,3.5c0.6,0.1,1.2,0.2,1.5,0.2c0.1,0,0.2,0.1,0.2,0.2c0,0.2-0.2,0.2-0.5,0.2
			c-1.7,0-2.9-0.1-3.2-0.1c-0.3,0-1.5,0.1-2.9,0.1c-0.3,0-0.5,0-0.5-0.2c0-0.1,0.1-0.2,0.2-0.2c0.2,0,0.8,0,1.2-0.2
			c0.7-0.2,0.9-1.1,0.9-3.8l0-17c0-1.2,0.1-1.5,0.3-1.5c0.2,0,0.7,0.7,1,1c0.4,0.5,4.9,5.3,9.5,10.2c2.9,3.2,6.2,6.8,7.1,7.8
			l-0.3-15.1c0-1.9-0.2-2.6-1.2-2.8c-0.5-0.1-1.2-0.1-1.5-0.1c-0.2,0-0.2-0.1-0.2-0.2c0-0.2,0.2-0.2,0.6-0.2c1.3,0,2.8,0.1,3.1,0.1
			c0.3,0,1.3-0.1,2.5-0.1c0.3,0,0.5,0,0.5,0.2c0,0.1-0.1,0.2-0.3,0.2c-0.1,0-0.4,0-0.7,0.1c-1,0.2-1.1,0.9-1.1,2.6L102.1,72
			c0,2-0.1,2.1-0.3,2.1c-0.2,0-0.6-0.3-2.2-1.9c-0.3-0.3-4.6-4.7-7.8-8.1c-3.5-3.7-6.8-7.5-7.8-8.5L84.5,69.8z"/>
		<path fill="#231F20" d="M110,73.5c-0.4-0.2-0.4-0.3-0.4-1.1c0-1.5,0.1-2.7,0.2-3.2c0-0.3,0.1-0.5,0.2-0.5c0.2,0,0.2,0.1,0.2,0.3
			c0,0.3,0,0.7,0.1,1.1c0.4,2.2,2.4,3,4.4,3c2.9,0,4.3-2.1,4.3-4c0-2.1-0.9-3.2-3.4-5.4l-1.3-1.1c-3.2-2.6-3.9-4.4-3.9-6.5
			c0-3.2,2.4-5.4,6.2-5.4c1.2,0,2,0.1,2.8,0.3c0.6,0.1,0.8,0.1,1,0.1s0.3,0.1,0.3,0.2c0,0.1-0.1,1.1-0.1,3.2c0,0.5-0.1,0.7-0.2,0.7
			c-0.2,0-0.2-0.1-0.2-0.4c0-0.4-0.2-1.2-0.4-1.5c-0.2-0.3-1-1.6-3.7-1.6c-2.1,0-3.7,1.3-3.7,3.5c0,1.7,0.8,2.7,3.6,5l0.8,0.7
			c3.5,2.8,4.3,4.6,4.3,7c0,1.2-0.5,3.5-2.5,4.9c-1.3,0.9-2.9,1.3-4.5,1.3C112.6,74.3,111.2,74.1,110,73.5"/>
		<path fill="#231F20" d="M137.2,51c6.7,0,11.7,4.2,11.7,11.2c0,6.7-4.7,12.2-11.9,12.2c-8.2,0-11.5-6.3-11.5-11.7
			C125.4,57.8,129,51,137.2,51 M137.8,73.2c2.7,0,8.2-1.5,8.2-10.2c0-7.1-4.3-11-9-11c-5,0-8.7,3.3-8.7,9.8
			C128.3,68.7,132.4,73.2,137.8,73.2"/>
		<path fill="#231F20" d="M156.7,69.8c0.1,2.4,0.4,3.2,1.2,3.5c0.6,0.1,1.2,0.2,1.5,0.2c0.1,0,0.2,0.1,0.2,0.2
			c0,0.2-0.2,0.2-0.5,0.2c-1.7,0-2.9-0.1-3.2-0.1c-0.3,0-1.5,0.1-2.9,0.1c-0.3,0-0.5,0-0.5-0.2c0-0.1,0.1-0.2,0.2-0.2
			c0.2,0,0.8,0,1.2-0.2c0.7-0.2,0.9-1.1,0.9-3.8l0-17c0-1.2,0.1-1.5,0.3-1.5s0.7,0.7,1,1c0.4,0.5,4.9,5.3,9.5,10.2
			c2.9,3.2,6.2,6.8,7.1,7.8l-0.3-15.1c0-1.9-0.2-2.6-1.2-2.8c-0.5-0.1-1.2-0.1-1.5-0.1c-0.2,0-0.2-0.1-0.2-0.2
			c0-0.2,0.2-0.2,0.6-0.2c1.3,0,2.8,0.1,3.1,0.1c0.3,0,1.3-0.1,2.5-0.1c0.3,0,0.5,0,0.5,0.2c0,0.1-0.1,0.2-0.3,0.2
			c-0.1,0-0.4,0-0.7,0.1c-1,0.2-1.1,0.9-1.1,2.6L174.3,72c0,2-0.1,2.1-0.3,2.1c-0.2,0-0.6-0.3-2.2-1.9c-0.3-0.3-4.6-4.7-7.8-8.1
			c-3.5-3.7-6.8-7.5-7.8-8.5L156.7,69.8z"/>
		<path fill="#231F20" d="M182.2,73.5c-0.4-0.2-0.4-0.3-0.4-1.1c0-1.5,0.1-2.7,0.1-3.2c0-0.3,0.1-0.5,0.2-0.5c0.2,0,0.2,0.1,0.2,0.3
			c0,0.3,0,0.7,0.1,1.1c0.4,2.2,2.4,3,4.4,3c2.9,0,4.3-2.1,4.3-4c0-2.1-0.9-3.2-3.4-5.4l-1.3-1.1c-3.2-2.6-3.9-4.4-3.9-6.5
			c0-3.2,2.4-5.4,6.2-5.4c1.2,0,2,0.1,2.8,0.3c0.6,0.1,0.8,0.1,1,0.1c0.2,0,0.3,0.1,0.3,0.2c0,0.1-0.1,1.1-0.1,3.2
			c0,0.5-0.1,0.7-0.2,0.7c-0.2,0-0.2-0.1-0.2-0.4c0-0.4-0.2-1.2-0.4-1.5c-0.2-0.3-1-1.6-3.7-1.6c-2.1,0-3.7,1.3-3.7,3.5
			c0,1.7,0.8,2.7,3.6,5l0.8,0.7c3.5,2.8,4.3,4.6,4.3,7c0,1.2-0.5,3.5-2.5,4.9c-1.3,0.9-2.9,1.3-4.5,1.3
			C184.8,74.3,183.4,74.1,182.2,73.5"/>
		<path fill="#231F20" d="M213.2,67.2c0,4.8,0,6.7-0.9,8.8c-0.6,1.5-1.9,2.9-4.3,4.6c-0.4,0.3-0.9,0.6-1.2,0.7
			c-0.1,0-0.1,0.1-0.2,0.1c-0.1,0-0.2-0.1-0.2-0.2c0-0.2,0.1-0.3,0.4-0.4c0.4-0.2,0.8-0.6,1-0.8c1.9-2,2.9-3.5,2.9-11.2V60
			c0-4.6,0-5.5-0.1-6.4c-0.1-1-0.3-1.5-1.3-1.7c-0.2-0.1-0.7-0.1-1-0.1c-0.1,0-0.2-0.1-0.2-0.2c0-0.2,0.1-0.2,0.5-0.2
			c1.3,0,3.2,0.1,3.4,0.1c0.1,0,2-0.1,2.9-0.1c0.3,0,0.5,0.1,0.5,0.2c0,0.1-0.1,0.2-0.2,0.2c-0.2,0-0.4,0-0.7,0.1
			c-0.8,0.1-1,0.7-1.1,1.7c-0.1,0.9-0.1,1.8-0.1,6.4V67.2z"/>
		<path fill="#231F20" d="M223,60c0-4.6,0-5.5-0.1-6.4c-0.1-1-0.3-1.5-1.3-1.7c-0.2-0.1-0.7-0.1-1-0.1c-0.1,0-0.2-0.1-0.2-0.2
			c0-0.2,0.2-0.2,0.5-0.2c1.3,0,3.2,0.1,3.4,0.1c0.2,0,6.1,0,6.8,0c0.6,0,1-0.1,1.3-0.1c0.1,0,0.3-0.1,0.4-0.1
			c0.1,0,0.1,0.1,0.1,0.3c0,0.2-0.2,0.6-0.2,1.4c0,0.3-0.1,1.6-0.1,2c0,0.1-0.1,0.3-0.2,0.3c-0.2,0-0.2-0.1-0.2-0.4
			c0-0.2,0-0.7-0.2-1.1c-0.2-0.5-0.5-0.8-2.1-1c-0.5-0.1-3.7-0.1-4.1-0.1c-0.1,0-0.2,0.1-0.2,0.3v8.2c0,0.2,0,0.3,0.2,0.3
			c0.4,0,4,0,4.7-0.1c0.7-0.1,1.1-0.1,1.4-0.4c0.2-0.2,0.3-0.4,0.4-0.4c0.1,0,0.1,0.1,0.1,0.2c0,0.2-0.1,0.7-0.2,1.7
			c-0.1,0.6-0.1,1.7-0.1,1.9c0,0.2,0,0.6-0.2,0.6c-0.1,0-0.2-0.1-0.2-0.3c0-0.3,0-0.6-0.1-1c-0.1-0.4-0.4-0.9-1.5-1
			c-0.8-0.1-3.7-0.1-4.3-0.1c-0.1,0-0.2,0.1-0.2,0.2v2.6c0,1,0,4.5,0,5.1c0.1,2.1,0.5,2.4,3.5,2.4c0.8,0,2.1,0,2.9-0.3
			c0.8-0.3,1.1-0.9,1.3-2.1c0.1-0.3,0.1-0.4,0.3-0.4c0.2,0,0.2,0.2,0.2,0.4c0,0.2-0.2,2.3-0.4,2.9c-0.2,0.8-0.4,0.8-1.6,0.8
			c-4.5,0-6.5-0.2-7.3-0.2c-0.1,0-0.6,0-1.2,0c-0.6,0-1.3,0.1-1.7,0.1c-0.3,0-0.5-0.1-0.5-0.2c0-0.1,0.1-0.2,0.2-0.2
			c0.3,0,0.6-0.1,0.9-0.1c0.6-0.1,0.7-0.8,0.9-1.6c0.2-1.2,0.2-3.6,0.2-6.5V60z"/>
		<path fill="#231F20" d="M260.5,69.8h0.1c0.8-2.7,3.5-11.4,4.6-15.2c0.3-1.1,0.3-1.5,0.3-1.9c0-0.5-0.3-0.9-1.7-0.9
			c-0.1,0-0.3-0.1-0.3-0.2c0-0.1,0.1-0.2,0.5-0.2c1.5,0,2.8,0.1,3,0.1c0.2,0,1.5-0.1,2.4-0.1c0.3,0,0.4,0.1,0.4,0.2
			c0,0.1-0.1,0.2-0.3,0.2c-0.1,0-0.7,0-1,0.1c-0.9,0.3-1.4,1.6-1.9,3.2c-1.3,3.8-4.3,13.2-5.5,16.6c-0.8,2.2-0.9,2.6-1.2,2.6
			c-0.3,0-0.5-0.4-0.9-1.5l-5.8-16.5h-0.1c-1.1,2.9-5.1,13.7-6.2,16.5c-0.5,1.2-0.6,1.6-1,1.6c-0.3,0-0.4-0.3-1-2.4l-5.3-17.6
			c-0.5-1.6-0.9-2-1.6-2.3c-0.4-0.1-1.1-0.2-1.3-0.2c-0.1,0-0.3,0-0.3-0.2c0-0.1,0.2-0.2,0.5-0.2c1.5,0,3.2,0.1,3.5,0.1
			c0.3,0,1.6-0.1,3.1-0.1c0.4,0,0.5,0.1,0.5,0.2c0,0.2-0.1,0.2-0.3,0.2c-0.2,0-0.8,0-1.2,0.2c-0.2,0.1-0.4,0.3-0.4,0.7
			c0,0.4,0.3,1.4,0.6,2.7c0.4,1.9,3.5,12.8,4,14.4h0.1l6.3-17c0.4-1.2,0.6-1.4,0.7-1.4c0.2,0,0.4,0.4,0.7,1.4L260.5,69.8z"/>
		<path fill="#231F20" d="M274.8,60c0-4.6,0-5.5-0.1-6.4c-0.1-1-0.3-1.5-1.3-1.7c-0.2-0.1-0.7-0.1-1-0.1c-0.1,0-0.2-0.1-0.2-0.2
			c0-0.2,0.1-0.2,0.5-0.2c1.3,0,3.2,0.1,3.4,0.1c0.2,0,6.1,0,6.8,0c0.6,0,1-0.1,1.3-0.1c0.2,0,0.3-0.1,0.4-0.1
			c0.1,0,0.1,0.1,0.1,0.3c0,0.2-0.1,0.6-0.2,1.4c0,0.3-0.1,1.6-0.1,2c0,0.1-0.1,0.3-0.2,0.3c-0.2,0-0.2-0.1-0.2-0.4
			c0-0.2,0-0.7-0.2-1.1c-0.2-0.5-0.5-0.8-2.1-1c-0.5-0.1-3.7-0.1-4.1-0.1c-0.1,0-0.2,0.1-0.2,0.3v8.2c0,0.2,0,0.3,0.2,0.3
			c0.4,0,4,0,4.7-0.1c0.7-0.1,1.1-0.1,1.4-0.4c0.2-0.2,0.3-0.4,0.4-0.4c0.1,0,0.1,0.1,0.1,0.2c0,0.2-0.1,0.7-0.2,1.7
			c-0.1,0.6-0.1,1.7-0.1,1.9c0,0.2,0,0.6-0.2,0.6c-0.2,0-0.2-0.1-0.2-0.3c0-0.3,0-0.6-0.1-1c-0.1-0.4-0.4-0.9-1.5-1
			c-0.8-0.1-3.7-0.1-4.3-0.1c-0.1,0-0.2,0.1-0.2,0.2v2.6c0,1,0,4.5,0,5.1c0.1,2.1,0.5,2.4,3.5,2.4c0.8,0,2.1,0,2.9-0.3
			c0.8-0.3,1.1-0.9,1.3-2.1c0.1-0.3,0.1-0.4,0.3-0.4c0.2,0,0.2,0.2,0.2,0.4c0,0.2-0.2,2.3-0.4,2.9c-0.2,0.8-0.4,0.8-1.6,0.8
			c-4.5,0-6.5-0.2-7.3-0.2c-0.1,0-0.6,0-1.2,0c-0.6,0-1.3,0.1-1.7,0.1c-0.3,0-0.5-0.1-0.5-0.2c0-0.1,0.1-0.2,0.2-0.2
			c0.3,0,0.6-0.1,0.9-0.1c0.6-0.1,0.7-0.8,0.9-1.6c0.1-1.2,0.1-3.6,0.1-6.5V60z"/>
		<path fill="#231F20" d="M295.4,65.3c0,4.4,0.1,6.3,0.7,6.8c0.5,0.5,1.2,0.7,3.6,0.7c1.6,0,2.9,0,3.6-0.9c0.4-0.5,0.7-1.2,0.8-1.8
			c0-0.2,0.1-0.4,0.3-0.4c0.2,0,0.2,0.1,0.2,0.4c0,0.3-0.2,2.1-0.4,3c-0.2,0.7-0.3,0.8-1.9,0.8c-4.3,0-6.2-0.2-8-0.2
			c-0.1,0-0.6,0-1.2,0c-0.6,0-1.2,0.1-1.7,0.1c-0.3,0-0.5-0.1-0.5-0.2c0-0.1,0.1-0.2,0.2-0.2c0.3,0,0.6-0.1,0.9-0.1
			c0.6-0.1,0.7-0.8,0.9-1.6c0.1-1.2,0.1-3.6,0.1-6.5V60c0-4.6,0-5.5-0.1-6.4c-0.1-1-0.3-1.5-1.3-1.7c-0.2-0.1-0.7-0.1-1-0.1
			c-0.1,0-0.2-0.1-0.2-0.2c0-0.2,0.2-0.2,0.5-0.2c1.3,0,3.2,0.1,3.4,0.1c0.1,0,2.3-0.1,3.2-0.1c0.3,0,0.5,0.1,0.5,0.2
			c0,0.1-0.1,0.2-0.2,0.2c-0.2,0-0.6,0-1,0.1c-0.9,0.1-1.1,0.7-1.2,1.7c-0.1,0.9-0.1,1.8-0.1,6.4V65.3z"/>
		<path fill="#231F20" d="M313,65.3c0,4.4,0.1,6.3,0.7,6.8c0.5,0.5,1.2,0.7,3.6,0.7c1.6,0,2.9,0,3.6-0.9c0.4-0.5,0.7-1.2,0.8-1.8
			c0-0.2,0.1-0.4,0.3-0.4c0.1,0,0.2,0.1,0.2,0.4c0,0.3-0.2,2.1-0.4,3c-0.2,0.7-0.3,0.8-1.9,0.8c-4.3,0-6.2-0.2-8-0.2
			c-0.1,0-0.6,0-1.2,0c-0.6,0-1.2,0.1-1.7,0.1c-0.3,0-0.5-0.1-0.5-0.2c0-0.1,0.1-0.2,0.2-0.2c0.3,0,0.6-0.1,0.9-0.1
			c0.6-0.1,0.7-0.8,0.9-1.6c0.1-1.2,0.1-3.6,0.1-6.5V60c0-4.6,0-5.5-0.1-6.4c-0.1-1-0.3-1.5-1.3-1.7c-0.2-0.1-0.7-0.1-1-0.1
			c-0.1,0-0.2-0.1-0.2-0.2c0-0.2,0.1-0.2,0.5-0.2c1.3,0,3.2,0.1,3.4,0.1c0.1,0,2.3-0.1,3.2-0.1c0.3,0,0.5,0.1,0.5,0.2
			c0,0.1-0.1,0.2-0.2,0.2c-0.2,0-0.6,0-1,0.1c-0.9,0.1-1.1,0.7-1.2,1.7c-0.1,0.9-0.1,1.8-0.1,6.4V65.3z"/>
		<path fill="#231F20" d="M328.1,60c0-4.6,0-5.5-0.1-6.4c-0.1-1-0.3-1.5-1.3-1.7c-0.2-0.1-0.7-0.1-1-0.1c-0.1,0-0.2-0.1-0.2-0.2
			c0-0.2,0.1-0.2,0.5-0.2c1.3,0,3.2,0.1,3.4,0.1c0.2,0,6.1,0,6.8,0c0.6,0,1-0.1,1.3-0.1c0.1,0,0.3-0.1,0.4-0.1
			c0.1,0,0.1,0.1,0.1,0.3c0,0.2-0.2,0.6-0.2,1.4c0,0.3-0.1,1.6-0.2,2c0,0.1-0.1,0.3-0.2,0.3c-0.2,0-0.2-0.1-0.2-0.4
			c0-0.2,0-0.7-0.2-1.1c-0.2-0.5-0.5-0.8-2.1-1c-0.5-0.1-3.7-0.1-4.1-0.1c-0.1,0-0.2,0.1-0.2,0.3v8.2c0,0.2,0,0.3,0.2,0.3
			c0.4,0,4,0,4.7-0.1c0.7-0.1,1.1-0.1,1.4-0.4c0.2-0.2,0.3-0.4,0.4-0.4c0.1,0,0.1,0.1,0.1,0.2c0,0.2-0.1,0.7-0.2,1.7
			c-0.1,0.6-0.1,1.7-0.1,1.9c0,0.2,0,0.6-0.2,0.6c-0.2,0-0.2-0.1-0.2-0.3c0-0.3,0-0.6-0.1-1c-0.1-0.4-0.4-0.9-1.5-1
			c-0.8-0.1-3.7-0.1-4.3-0.1c-0.1,0-0.2,0.1-0.2,0.2v2.6c0,1,0,4.5,0,5.1c0.1,2.1,0.5,2.4,3.5,2.4c0.8,0,2.1,0,2.9-0.3
			c0.8-0.3,1.1-0.9,1.3-2.1c0.1-0.3,0.1-0.4,0.3-0.4c0.2,0,0.2,0.2,0.2,0.4c0,0.2-0.2,2.3-0.4,2.9c-0.2,0.8-0.4,0.8-1.6,0.8
			c-4.5,0-6.5-0.2-7.3-0.2c-0.1,0-0.6,0-1.2,0c-0.6,0-1.3,0.1-1.7,0.1c-0.3,0-0.5-0.1-0.5-0.2c0-0.1,0.1-0.2,0.2-0.2
			c0.3,0,0.6-0.1,0.9-0.1c0.6-0.1,0.7-0.8,0.9-1.6c0.1-1.2,0.1-3.6,0.1-6.5V60z"/>
		<path fill="#231F20" d="M346.3,60c0-4.6,0-5.5-0.1-6.4c-0.1-1-0.3-1.5-1.3-1.7c-0.2-0.1-0.7-0.1-1-0.1c-0.1,0-0.2-0.1-0.2-0.2
			c0-0.2,0.1-0.2,0.5-0.2c1.3,0,3.2,0.1,3.4,0.1c0.3,0,2.6-0.1,3.5-0.1c1.9,0,3.9,0.2,5.4,1.3c0.7,0.5,2.1,2,2.1,4
			c0,2.2-0.9,4.4-3.6,6.9c2.4,3.1,4.5,5.8,6.2,7.6c1.6,1.7,2.9,2,3.6,2.1c0.6,0.1,1,0.1,1.2,0.1c0.1,0,0.3,0.1,0.3,0.2
			c0,0.2-0.2,0.2-0.7,0.2h-2.1c-1.7,0-2.4-0.1-3.2-0.6c-1.3-0.7-2.3-2.1-4-4.4c-1.2-1.6-2.6-3.6-3.2-4.4c-0.1-0.1-0.2-0.2-0.4-0.2
			l-3.7-0.1c-0.1,0-0.2,0.1-0.2,0.2v0.7c0,2.9,0,5.2,0.1,6.5c0.1,0.9,0.3,1.5,1.2,1.6c0.4,0.1,1.1,0.1,1.3,0.1
			c0.2,0,0.2,0.1,0.2,0.2c0,0.1-0.1,0.2-0.5,0.2c-1.6,0-3.5-0.1-3.7-0.1c0,0-1.9,0.1-2.8,0.1c-0.3,0-0.5-0.1-0.5-0.2
			c0-0.1,0.1-0.2,0.2-0.2c0.3,0,0.6-0.1,0.9-0.1c0.6-0.1,0.7-0.8,0.9-1.6c0.1-1.2,0.1-3.6,0.1-6.5V60z M348.6,62.6
			c0,0.1,0.1,0.3,0.2,0.4c0.4,0.3,1.8,0.5,3.1,0.5c0.7,0,1.5-0.1,2.2-0.6c1-0.7,1.8-2.3,1.8-4.6c0-3.7-2-5.9-5.1-5.9
			c-0.9,0-1.7,0.1-2,0.2c-0.1,0.1-0.2,0.2-0.2,0.4V62.6z"/>
		<path fill="#231F20" d="M366.5,73.5c-0.4-0.2-0.4-0.3-0.4-1.1c0-1.5,0.1-2.7,0.1-3.2c0-0.3,0.1-0.5,0.2-0.5c0.2,0,0.2,0.1,0.2,0.3
			c0,0.3,0,0.7,0.1,1.1c0.4,2.2,2.4,3,4.4,3c2.9,0,4.3-2.1,4.3-4c0-2.1-0.9-3.2-3.4-5.4l-1.3-1.1c-3.2-2.6-3.9-4.4-3.9-6.5
			c0-3.2,2.4-5.4,6.2-5.4c1.2,0,2,0.1,2.8,0.3c0.6,0.1,0.8,0.1,1,0.1s0.3,0.1,0.3,0.2c0,0.1-0.1,1.1-0.1,3.2c0,0.5-0.1,0.7-0.2,0.7
			c-0.2,0-0.2-0.1-0.2-0.4c0-0.4-0.2-1.2-0.4-1.5c-0.2-0.3-1-1.6-3.7-1.6c-2.1,0-3.7,1.3-3.7,3.5c0,1.7,0.8,2.7,3.6,5l0.8,0.7
			c3.5,2.8,4.3,4.6,4.3,7c0,1.2-0.5,3.5-2.5,4.9c-1.3,0.9-2.9,1.3-4.5,1.3C369.1,74.3,367.7,74.1,366.5,73.5"/>
		<rect x="19.3" y="80.7" fill="#231F20" width="183.3" height="0.6"/>
		<rect x="213.2" y="80.7" fill="#231F20" width="163.9" height="0.6"/>
		<path fill="#231F20" d="M276,97.3c0,0.9,0.1,1.2,0.4,1.3c0.2,0.1,0.5,0.1,0.6,0.1c0.1,0,0.1,0,0.1,0.1c0,0.1-0.1,0.1-0.2,0.1
			c-0.7,0-1.1,0-1.2,0c-0.1,0-0.6,0-1.1,0c-0.1,0-0.2,0-0.2-0.1c0,0,0-0.1,0.1-0.1c0.1,0,0.3,0,0.5-0.1c0.3-0.1,0.3-0.4,0.3-1.4
			l0-6.5c0-0.4,0-0.6,0.1-0.6c0.1,0,0.3,0.2,0.4,0.4c0.2,0.2,1.9,2,3.6,3.9c1.1,1.2,2.4,2.6,2.7,3l-0.1-5.8c0-0.7-0.1-1-0.4-1.1
			c-0.2,0-0.5-0.1-0.6-0.1c-0.1,0-0.1,0-0.1-0.1c0-0.1,0.1-0.1,0.2-0.1c0.5,0,1.1,0,1.2,0c0.1,0,0.5,0,1,0c0.1,0,0.2,0,0.2,0.1
			c0,0,0,0.1-0.1,0.1c-0.1,0-0.1,0-0.3,0c-0.4,0.1-0.4,0.3-0.4,1l0,6.7c0,0.8,0,0.8-0.1,0.8c-0.1,0-0.2-0.1-0.8-0.7
			c-0.1-0.1-1.8-1.8-3-3.1c-1.3-1.4-2.6-2.9-3-3.3L276,97.3z"/>
		<path fill="#231F20" d="M290.2,93.5c0-1.8,0-2.1,0-2.5c0-0.4-0.1-0.6-0.5-0.6c-0.1,0-0.3,0-0.4,0c0,0-0.1,0-0.1-0.1
			c0-0.1,0.1-0.1,0.2-0.1c0.5,0,1.2,0,1.3,0c0.1,0,0.8,0,1.1,0c0.1,0,0.2,0,0.2,0.1c0,0,0,0.1-0.1,0.1c-0.1,0-0.1,0-0.3,0
			c-0.3,0-0.4,0.2-0.4,0.6c0,0.4,0,0.7,0,2.5v1.6c0,1.6,0.4,2.3,0.9,2.8c0.6,0.5,1.1,0.6,1.7,0.6c0.7,0,1.4-0.3,1.8-0.8
			c0.5-0.6,0.7-1.6,0.7-2.8v-1.4c0-1.8,0-2.1,0-2.5c0-0.4-0.1-0.6-0.5-0.6c-0.1,0-0.3,0-0.4,0c0,0-0.1,0-0.1-0.1
			c0-0.1,0.1-0.1,0.2-0.1c0.5,0,1.1,0,1.2,0c0.1,0,0.6,0,1,0c0.1,0,0.2,0,0.2,0.1c0,0,0,0.1-0.1,0.1c-0.1,0-0.1,0-0.3,0
			c-0.3,0.1-0.4,0.2-0.4,0.6c0,0.4,0,0.7,0,2.5v1.2c0,1.2-0.1,2.6-1,3.4c-0.8,0.7-1.7,0.8-2.3,0.8c-0.4,0-1.5,0-2.3-0.8
			c-0.6-0.5-1-1.3-1-3V93.5z"/>
		<path fill="#231F20" d="M304.9,97.3c0,0.9,0.1,1.2,0.4,1.3c0.2,0.1,0.5,0.1,0.6,0.1c0.1,0,0.1,0,0.1,0.1c0,0.1-0.1,0.1-0.2,0.1
			c-0.7,0-1.1,0-1.2,0c-0.1,0-0.6,0-1.1,0c-0.1,0-0.2,0-0.2-0.1c0,0,0-0.1,0.1-0.1c0.1,0,0.3,0,0.5-0.1c0.3-0.1,0.3-0.4,0.3-1.4
			l0-6.5c0-0.4,0-0.6,0.1-0.6c0.1,0,0.3,0.2,0.4,0.4c0.2,0.2,1.9,2,3.6,3.9c1.1,1.2,2.4,2.6,2.7,3l-0.1-5.8c0-0.7-0.1-1-0.4-1.1
			c-0.2,0-0.5-0.1-0.6-0.1c-0.1,0-0.1,0-0.1-0.1c0-0.1,0.1-0.1,0.2-0.1c0.5,0,1.1,0,1.2,0c0.1,0,0.5,0,1,0c0.1,0,0.2,0,0.2,0.1
			c0,0,0,0.1-0.1,0.1c-0.1,0-0.1,0-0.3,0c-0.4,0.1-0.4,0.3-0.4,1l0,6.7c0,0.8,0,0.8-0.1,0.8c-0.1,0-0.2-0.1-0.8-0.7
			c-0.1-0.1-1.8-1.8-3-3.1c-1.3-1.4-2.6-2.9-3-3.3L304.9,97.3z"/>
		<path fill="#231F20" d="M319.8,93.5c0-1.8,0-2.1,0-2.5c0-0.4-0.1-0.6-0.5-0.6c-0.1,0-0.3,0-0.4,0c0,0-0.1,0-0.1-0.1
			c0-0.1,0.1-0.1,0.2-0.1c0.3,0,0.6,0,0.8,0l0.5,0c0.1,0,2.3,0,2.6,0c0.2,0,0.4,0,0.5-0.1c0.1,0,0.1-0.1,0.2-0.1c0,0,0,0,0,0.1
			c0,0.1-0.1,0.2-0.1,0.5c0,0.1,0,0.6-0.1,0.8c0,0.1,0,0.1-0.1,0.1c-0.1,0-0.1-0.1-0.1-0.1c0-0.1,0-0.3-0.1-0.4
			c-0.1-0.2-0.2-0.3-0.8-0.4c-0.2,0-1.4,0-1.6,0c0,0-0.1,0-0.1,0.1v3.1c0,0.1,0,0.1,0.1,0.1c0.1,0,1.6,0,1.8,0c0.3,0,0.4,0,0.5-0.2
			c0.1-0.1,0.1-0.1,0.2-0.1c0,0,0.1,0,0.1,0.1c0,0.1-0.1,0.3-0.1,0.6c0,0.2,0,0.7,0,0.7c0,0.1,0,0.2-0.1,0.2c-0.1,0-0.1,0-0.1-0.1
			c0-0.1,0-0.2,0-0.4c0-0.2-0.1-0.4-0.6-0.4c-0.3,0-1.4-0.1-1.6-0.1c-0.1,0-0.1,0-0.1,0.1v1c0,0.4,0,1.7,0,2c0,0.8,0.2,0.9,1.3,0.9
			c0.3,0,0.8,0,1.1-0.1c0.3-0.1,0.4-0.4,0.5-0.8c0-0.1,0-0.2,0.1-0.2c0.1,0,0.1,0.1,0.1,0.2c0,0.1-0.1,0.9-0.1,1.1
			c-0.1,0.3-0.2,0.3-0.6,0.3c-0.9,0-1.5,0-1.9,0c-0.4,0-0.7,0-0.9,0c0,0-0.2,0-0.5,0c-0.2,0-0.5,0-0.7,0c-0.1,0-0.2,0-0.2-0.1
			c0,0,0-0.1,0.1-0.1c0.1,0,0.2,0,0.3,0c0.2,0,0.3-0.3,0.3-0.6c0.1-0.5,0.1-1.4,0.1-2.5V93.5z"/>
		<path fill="#231F20" d="M332.7,90.5c0.1-0.4,0.2-0.4,0.2-0.4c0.1,0,0.1,0.1,0.3,0.4c0.2,0.4,2,5.1,2.7,6.9c0.4,1,0.7,1.2,1,1.3
			c0.2,0.1,0.3,0.1,0.5,0.1c0.1,0,0.1,0,0.1,0.1c0,0.1-0.1,0.1-0.2,0.1c-0.2,0-1,0-1.8,0c-0.2,0-0.3,0-0.3-0.1c0,0,0-0.1,0.1-0.1
			c0.1,0,0.1-0.1,0.1-0.3l-1.1-2.8c0,0,0-0.1-0.1-0.1h-2.4c-0.1,0-0.1,0-0.1,0.1l-0.7,2c-0.1,0.3-0.2,0.6-0.2,0.8
			c0,0.2,0.2,0.3,0.4,0.3h0.1c0.1,0,0.1,0,0.1,0.1c0,0.1-0.1,0.1-0.2,0.1c-0.3,0-0.8,0-0.9,0c-0.1,0-0.8,0-1.3,0
			c-0.1,0-0.2,0-0.2-0.1c0,0,0-0.1,0.1-0.1c0.1,0,0.2,0,0.3,0c0.5-0.1,0.8-0.5,1-1.1L332.7,90.5z M333.9,95.1
			C333.9,95.1,333.9,95.1,333.9,95.1l-1-3.2c-0.1-0.2-0.1-0.2-0.2,0l-1,3.1c0,0.1,0,0.1,0,0.1H333.9z"/>
		<path fill="#231F20" d="M345,95.6c0,1.1,0,2,0.1,2.5c0,0.3,0.1,0.6,0.4,0.6c0.2,0,0.4,0,0.5,0c0.1,0,0.1,0,0.1,0.1
			c0,0.1-0.1,0.1-0.2,0.1c-0.6,0-1.3,0-1.4,0c-0.1,0-0.8,0-1.1,0c-0.1,0-0.2,0-0.2-0.1c0,0,0-0.1,0.1-0.1c0.1,0,0.2,0,0.3,0
			c0.2,0,0.3-0.3,0.3-0.6c0.1-0.5,0.1-1.4,0.1-2.5v-4.8l-1.7,0c-0.7,0-1,0.1-1.2,0.4c-0.1,0.2-0.2,0.3-0.2,0.4
			c0,0.1-0.1,0.1-0.1,0.1c0,0-0.1,0-0.1-0.1c0-0.1,0.2-1.1,0.3-1.2c0-0.1,0.1-0.2,0.1-0.2c0.1,0,0.2,0.1,0.5,0.1
			c0.3,0,0.8,0.1,0.9,0.1h4.3c0.4,0,0.6,0,0.8-0.1c0.2,0,0.3-0.1,0.3-0.1c0.1,0,0.1,0.1,0.1,0.1c0,0.3,0,1.1,0,1.3
			c0,0.1,0,0.1-0.1,0.1c-0.1,0-0.1,0-0.1-0.2l0-0.1c0-0.3-0.3-0.6-1.4-0.6l-1.4,0V95.6z"/>
		<path fill="#231F20" d="M357.6,90.1c2.6,0,4.5,1.6,4.5,4.3c0,2.6-1.8,4.7-4.5,4.7c-3.1,0-4.4-2.4-4.4-4.5
			C353.1,92.7,354.4,90.1,357.6,90.1 M357.8,98.6c1,0,3.1-0.6,3.1-3.9c0-2.7-1.7-4.2-3.5-4.2c-1.9,0-3.3,1.3-3.3,3.8
			C354.2,96.9,355.8,98.6,357.8,98.6"/>
		<path fill="#231F20" d="M369.1,97.3c0,0.9,0.1,1.2,0.4,1.3c0.2,0.1,0.5,0.1,0.6,0.1c0.1,0,0.1,0,0.1,0.1c0,0.1-0.1,0.1-0.2,0.1
			c-0.6,0-1.1,0-1.2,0c-0.1,0-0.6,0-1.1,0c-0.1,0-0.2,0-0.2-0.1c0,0,0-0.1,0.1-0.1c0.1,0,0.3,0,0.5-0.1c0.3-0.1,0.3-0.4,0.3-1.4
			l0-6.5c0-0.4,0-0.6,0.1-0.6c0.1,0,0.3,0.2,0.4,0.4c0.2,0.2,1.9,2,3.6,3.9c1.1,1.2,2.4,2.6,2.7,3l-0.1-5.8c0-0.7-0.1-1-0.4-1.1
			c-0.2,0-0.5-0.1-0.6-0.1c-0.1,0-0.1,0-0.1-0.1c0-0.1,0.1-0.1,0.2-0.1c0.5,0,1.1,0,1.2,0c0.1,0,0.5,0,1,0c0.1,0,0.2,0,0.2,0.1
			c0,0,0,0.1-0.1,0.1c-0.1,0-0.1,0-0.3,0c-0.4,0.1-0.4,0.3-0.4,1l0,6.7c0,0.8,0,0.8-0.1,0.8c-0.1,0-0.2-0.1-0.8-0.7
			c-0.1-0.1-1.8-1.8-3-3.1c-1.3-1.4-2.6-2.9-3-3.3L369.1,97.3z"/>
	</g>
</g>
</svg>
