<?xml version="1.0" encoding="utf-8"?>
<!-- Generator: Adobe Illustrator 13.0.0, SVG Export Plug-In . SVG Version: 6.00 Build 14948)  -->
<!DOCTYPE svg PUBLIC "-//W3C//DTD SVG 1.1//EN" "http://www.w3.org/Graphics/SVG/1.1/DTD/svg11.dtd">
<svg version="1.1" id="sponsor-logo_slm-builders" xmlns="http://www.w3.org/2000/svg" xmlns:xlink="http://www.w3.org/1999/xlink"
	 x="0px" y="0px" width="390px" height="150px" viewBox="0 0 390 150" enable-background="new 0 0 390 150" xml:space="preserve">
<polygon fill="#506177" points="343.4,56.4 355.1,49.7 378,62.9 366.3,69.7 "/>
<polygon fill="#2B3C53" points="343.5,30.1 355.2,23.4 355.1,49.7 343.4,56.4 "/>
<polygon fill="#1FB5C3" points="343.5,30.1 355.1,23.4 378,35.9 366.3,42.7 "/>
<polygon fill="#1294A1" points="366.3,42.7 378,35.9 377.9,62.9 366.3,69.7 "/>
<polygon fill="#506177" points="327,66.4 338.7,59.6 361.6,72.9 349.9,79.6 "/>
<polygon fill="#2B3C53" points="327.1,40.1 338.7,33.3 338.7,59.6 327,66.4 "/>
<polygon fill="#1FB5C3" points="327,40.1 338.7,33.3 361.6,45.9 349.9,52.7 "/>
<polygon fill="#1294A1" points="349.9,52.7 361.5,45.9 361.5,72.9 349.8,79.6 "/>
<g>
	<path fill="#1FB5C3" d="M30.6,71.7c1.6,0.7,3,1.7,4.4,3.1l-4.1,4.1c-1.4-1.6-3.3-2.5-5.8-2.5c-2.5,0-4,0.6-4.7,1.7
		c-0.7,1.2-0.7,2.2,0,3c0.7,0.8,2.3,1.4,4.7,1.9c2.6,0.3,5,1.1,7.1,2.6c2.1,1.4,3.2,3.7,3.2,6.9c0,2.5-1.1,4.6-3.4,6.4
		c-2.3,1.8-4.9,2.7-7.9,2.7c-2.9,0-5.3-0.4-7.2-1.2C15,99.5,13.4,98.4,12,97l4.1-4.1c1.4,1.6,3.7,2.6,7,2.9c2.7,0,4.5-0.6,5.1-1.7
		c0.7-1.2,0.7-2.3,0-3.5c-0.7-1.2-2.4-1.9-5.1-2.2c-2.5-0.3-4.7-1-6.8-2.3c-2.1-1.2-3.1-3.4-3.1-6.4c0-2.7,1.2-4.9,3.5-6.6
		c2.3-1.7,4.7-2.5,7.2-2.5C26.8,70.7,29,71.1,30.6,71.7"/>
	<polygon fill="#1FB5C3" points="47.2,70.7 47.2,95.8 63.6,95.8 63.6,101.5 41,101.5 41,70.7 	"/>
	<polygon fill="#1FB5C3" points="68.7,101.5 68.7,70.7 70.8,70.7 84.1,85.9 97.5,70.7 99.5,70.7 99.5,101.5 93.4,101.5 93.4,83.7 
		84.1,93.9 74.9,83.7 74.9,101.5 	"/>
	<path fill="#2B3C53" d="M127.6,85.3c2.7,1.8,4.1,4.2,4.3,7.1c-0.3,5.8-3.4,8.9-9.3,9.2l-17.3,0V70.7h16.4c5.2,0.3,7.9,3.3,8.2,9.1
		C129.7,82.5,129,84.4,127.6,85.3 M111.4,83.1h8.6c2.5,0,3.8-1.3,3.8-3.8c-0.1-1.5-1.3-2.3-3.8-2.4h-8.7V83.1z M111.4,96.7h10.1
		c2.9,0,4.4-1.5,4.4-4.5c-0.1-2-1.5-3-4.4-3.1h-10.1V96.7z"/>
	<path fill="#2B3C53" d="M143.7,70.7v17.9c0,2.3,0.7,4,2.1,5.1c1.4,1.1,3.1,1.6,5.1,1.6s3.8-0.5,5.1-1.6c1.4-1.1,2.1-2.8,2.1-5.1
		V70.7h6.2v19.5c0,3.2-1.3,5.8-3.8,8c-2.5,2.2-5.7,3.3-9.6,3.3s-7-1.1-9.6-3.3c-2.5-2.2-3.8-4.9-3.8-8V70.7H143.7z"/>
	<rect x="170.9" y="70.7" fill="#2B3C53" width="6.1" height="30.9"/>
	<polygon fill="#2B3C53" points="189.5,70.7 189.5,95.8 205.9,95.8 205.9,101.5 183.3,101.5 183.3,70.7 	"/>
	<path fill="#2B3C53" d="M211,101.5V70.7h11.9c9.6,0,14.4,5.1,14.4,15.4c0,10.3-4.8,15.4-14.4,15.4H211z M222.9,95.4
		c5.5,0,8.2-3.1,8.2-9.3c0-6.2-2.8-9.2-8.2-9.2h-5.7v18.5H222.9z"/>
	<polygon fill="#2B3C53" points="243.8,101.5 243.8,70.7 266.5,70.7 266.5,76.5 250,76.5 250,83 262.4,83 262.4,88.8 250,88.8 
		250,95.8 266.4,95.8 266.4,101.5 	"/>
	<path fill="#2B3C53" d="M291.3,88.1l7.7,13.4h-7.1l-7.4-12.7h-5.6v12.7h-6.2V70.7h13.4c7.2,0,10.8,3,10.8,8.9
		C296.9,84,295,86.9,291.3,88.1 M278.9,83h8.6c2.5,0,3.8-1.2,3.8-3.4c-0.1-2-1.3-3.1-3.8-3.2h-8.7V83z"/>
	<path fill="#2B3C53" d="M318.8,71.7c1.6,0.7,3,1.7,4.4,3.1l-4.1,4.1c-1.4-1.6-3.3-2.5-5.8-2.5c-2.5,0-4,0.6-4.7,1.7
		c-0.7,1.2-0.7,2.2,0,3c0.7,0.8,2.3,1.4,4.7,1.9c2.6,0.3,5,1.1,7.1,2.6c2.1,1.4,3.2,3.7,3.2,6.9c0,2.5-1.1,4.6-3.4,6.4
		c-2.3,1.8-4.9,2.7-7.9,2.7c-2.9,0-5.3-0.4-7.2-1.2c-1.9-0.8-3.6-1.9-4.9-3.3l4.1-4.1c1.4,1.6,3.7,2.6,7,2.9c2.7,0,4.5-0.6,5.1-1.7
		c0.7-1.2,0.7-2.3,0-3.5c-0.7-1.2-2.4-1.9-5.1-2.2c-2.5-0.3-4.7-1-6.8-2.3c-2.1-1.2-3.1-3.4-3.1-6.4c0-2.7,1.2-4.9,3.5-6.6
		c2.3-1.7,4.7-2.5,7.2-2.5C315,70.7,317.3,71.1,318.8,71.7"/>
	<path fill="#96969A" d="M16.7,122.4v-1c-0.2,0.3-0.4,0.6-0.6,0.8c-0.3,0.3-0.7,0.4-1.3,0.4c-0.8,0-1.4-0.3-1.9-0.8
		c-0.4-0.5-0.7-1.3-0.7-2.5c0-1,0.3-1.9,1-2.5c0.6-0.5,1.2-0.8,2.4-0.8h1.1v-1.8c0-1-0.5-1.6-1.3-1.6c-0.4,0-0.6,0.2-0.9,0.4
		c-0.3,0.3-0.4,0.7-0.4,1.3h-1.8c0-0.9,0.2-1.7,0.9-2.4c0.5-0.5,1.3-0.8,2.2-0.8c0.9,0,1.7,0.3,2.2,0.8c0.5,0.6,0.9,1.3,0.9,2.5v8.1
		H16.7z M16.6,117.3h-1c-0.5,0-0.9,0.1-1.3,0.4c-0.3,0.3-0.5,0.9-0.5,1.5c0,1.2,0.5,1.9,1.4,1.9c0.8,0,1.4-0.7,1.4-1.8V117.3z"/>
	<path fill="#96969A" d="M28.6,112.8c-1.2,0-2,0.8-2,2.1v7.6h-1.8v-11.2h1.7v1.2c0.2-0.3,0.5-0.6,0.8-0.8c0.5-0.4,1.1-0.6,1.8-0.6
		v1.7H28.6z"/>
	<path fill="#96969A" d="M31.9,117.3c0,1.8,0.1,2.8,0.5,3.3c0.2,0.3,0.5,0.5,1,0.5c0.4,0,0.7-0.2,1-0.4c0.2-0.3,0.4-0.8,0.4-1.3h1.7
		c0,1-0.3,1.8-0.9,2.5c-0.5,0.6-1.3,0.8-2.2,0.8c-1,0-1.6-0.3-2.2-0.9c-0.9-0.9-1-2.6-1-4.9c0-2.4,0.1-4,1-4.9
		c0.6-0.6,1.3-0.9,2.2-0.9c0.9,0,1.6,0.2,2.2,0.9c0.9,1,1,2.9,1,5.3H31.9z M34.3,113.1c-0.2-0.3-0.5-0.5-1-0.5s-0.8,0.2-1,0.5
		c-0.3,0.4-0.5,1.3-0.5,2.8h2.9C34.7,114.4,34.6,113.5,34.3,113.1"/>
	<path fill="#96969A" d="M44,121.8c-0.5,0.5-1,0.8-1.9,0.8c-0.5,0-0.9-0.1-1.2-0.3c-0.2-0.1-0.5-0.4-0.6-0.6v5h-1.8v-15.4h1.7v0.9
		c0.1-0.2,0.5-0.6,0.7-0.7c0.3-0.2,0.8-0.3,1.2-0.3c0.8,0,1.4,0.2,1.9,0.8c0.7,0.8,0.8,2.4,0.8,5C44.8,119.4,44.7,121,44,121.8
		 M42.6,113.1c-0.2-0.3-0.6-0.5-1-0.5c-0.3,0-0.7,0.1-0.9,0.3c-0.3,0.3-0.4,0.7-0.4,1.3v5.1c0,0.6,0.2,1,0.4,1.3
		c0.2,0.2,0.6,0.3,0.9,0.3c0.4,0,0.8-0.2,1-0.5c0.4-0.6,0.4-1.7,0.4-3.7C43,114.8,43,113.7,42.6,113.1"/>
	<path fill="#96969A" d="M51.3,122.4v-0.9c-0.2,0.3-0.5,0.5-0.7,0.7c-0.3,0.2-0.8,0.3-1.2,0.3c-0.8,0-1.4-0.3-1.9-0.8
		c-0.5-0.5-0.7-1.1-0.7-2.3v-8.2h1.8v8.2c0,1,0.6,1.6,1.3,1.6s1.3-0.5,1.3-1.6v-8.2H53v11.2H51.3z"/>
	<path fill="#96969A" d="M56.8,121.8c-0.6-0.5-1-1.3-1-2.5v-6.6h-1.3v-1.4h1.3v-3.1h1.8v3.1h1.7v1.4h-1.7v6.6c0,1.2,0.6,1.7,1.8,1.7
		v1.6C58.4,122.4,57.5,122.4,56.8,121.8"/>
	<path fill="#96969A" d="M65.1,122.4v-1c-0.2,0.3-0.4,0.6-0.6,0.8c-0.3,0.3-0.7,0.4-1.3,0.4c-0.8,0-1.4-0.3-1.9-0.8
		c-0.4-0.5-0.7-1.3-0.7-2.5c0-1,0.3-1.9,1-2.5c0.6-0.5,1.2-0.8,2.4-0.8H65v-1.8c0-1-0.5-1.6-1.3-1.6c-0.4,0-0.6,0.2-0.9,0.4
		c-0.3,0.3-0.4,0.7-0.4,1.3h-1.8c0-0.9,0.2-1.7,0.9-2.4c0.5-0.5,1.3-0.8,2.2-0.8c0.9,0,1.7,0.3,2.2,0.8c0.5,0.6,0.9,1.3,0.9,2.5v8.1
		H65.1z M65,117.3h-1c-0.5,0-0.9,0.1-1.3,0.4c-0.3,0.3-0.5,0.9-0.5,1.5c0,1.2,0.5,1.9,1.4,1.9c0.8,0,1.4-0.7,1.4-1.8V117.3z"/>
	<path fill="#96969A" d="M70.6,121.8c-0.6-0.5-1-1.3-1-2.5v-6.6h-1.3v-1.4h1.3v-3.1h1.8v3.1h1.7v1.4h-1.7v6.6c0,1.2,0.6,1.7,1.8,1.7
		v1.6C72.1,122.4,71.3,122.4,70.6,121.8"/>
	<path fill="#96969A" d="M74.6,107.2h2.1v2h-2.1V107.2z M74.8,111.4h1.8v11h-1.8V111.4z"/>
	<path fill="#96969A" d="M84.2,121.6c-0.6,0.8-1.4,1-2.4,1c-1,0-1.8-0.3-2.4-1c-0.7-0.9-0.8-2.5-0.8-4.7c0-2.3,0.1-3.9,0.8-4.7
		c0.6-0.8,1.4-1,2.4-1c1,0,1.8,0.3,2.4,1c0.7,0.9,0.8,2.5,0.8,4.7C85,119.1,84.9,120.7,84.2,121.6 M82.8,113.1
		c-0.2-0.3-0.6-0.5-1-0.5c-0.4,0-0.8,0.2-1,0.5c-0.4,0.6-0.5,1.7-0.5,3.7c0,2,0,3.2,0.5,3.7c0.2,0.3,0.6,0.5,1,0.5
		c0.4,0,0.8-0.2,1-0.5c0.4-0.6,0.4-1.7,0.4-3.7C83.3,114.8,83.2,113.7,82.8,113.1"/>
	<path fill="#96969A" d="M91.5,122.4v-8.2c0-1-0.6-1.6-1.3-1.6s-1.3,0.5-1.3,1.6v8.2h-1.8v-11.2h1.7v0.9c0.2-0.3,0.5-0.5,0.7-0.7
		c0.3-0.2,0.8-0.3,1.2-0.3c0.8,0,1.4,0.3,1.9,0.8c0.5,0.5,0.7,1.1,0.7,2.3v8.2H91.5z"/>
	<path fill="#96969A" d="M101.9,112.6v9.8h-1.8v-9.8h-1.3v-1.4h1.3v-1.1c0-1.2,0.3-2,1-2.5c0.7-0.6,1.6-0.7,2.5-0.7v1.6
		c-1.1,0-1.7,0.6-1.7,1.7v1h1.7v1.4H101.9z"/>
	<path fill="#96969A" d="M110.2,121.6c-0.6,0.8-1.4,1-2.4,1c-1,0-1.8-0.3-2.4-1c-0.7-0.9-0.8-2.5-0.8-4.7c0-2.3,0.1-3.9,0.8-4.7
		c0.6-0.8,1.4-1,2.4-1c1,0,1.8,0.3,2.4,1c0.7,0.9,0.8,2.5,0.8,4.7C111,119.1,110.9,120.7,110.2,121.6 M108.8,113.1
		c-0.2-0.3-0.6-0.5-1-0.5s-0.8,0.2-1,0.5c-0.4,0.6-0.5,1.7-0.5,3.7c0,2,0,3.2,0.5,3.7c0.2,0.3,0.6,0.5,1,0.5s0.8-0.2,1-0.5
		c0.4-0.6,0.4-1.7,0.4-3.7C109.3,114.8,109.3,113.7,108.8,113.1"/>
	<path fill="#96969A" d="M116.9,112.8c-1.2,0-2,0.8-2,2.1v7.6h-1.8v-11.2h1.7v1.2c0.2-0.3,0.5-0.6,0.8-0.8c0.5-0.4,1.1-0.6,1.8-0.6
		v1.7H116.9z"/>
	<path fill="#96969A" d="M127.2,126.6v-5c-0.2,0.2-0.4,0.5-0.6,0.6c-0.3,0.2-0.8,0.3-1.2,0.3c-0.8,0-1.4-0.3-1.9-0.8
		c-0.7-0.8-0.8-2.4-0.8-5c0-2.6,0.1-4.1,0.8-5c0.5-0.6,1.1-0.8,1.9-0.8c0.5,0,0.9,0.1,1.2,0.3c0.2,0.1,0.6,0.5,0.7,0.7v-0.9h1.7
		v15.4H127.2z M127.2,114.3c0-0.6-0.2-1-0.5-1.3c-0.2-0.2-0.6-0.3-0.9-0.3c-0.4,0-0.7,0.2-1,0.5c-0.4,0.6-0.5,1.7-0.5,3.7
		c0,2,0,3.2,0.5,3.7c0.2,0.3,0.6,0.5,1,0.5c0.3,0,0.7-0.1,0.9-0.3c0.3-0.3,0.5-0.7,0.5-1.3V114.3z"/>
	<path fill="#96969A" d="M135.8,122.4v-0.9c-0.2,0.3-0.5,0.5-0.7,0.7c-0.3,0.2-0.8,0.3-1.2,0.3c-0.8,0-1.4-0.3-1.9-0.8
		c-0.5-0.5-0.7-1.1-0.7-2.3v-8.2h1.8v8.2c0,1,0.6,1.6,1.3,1.6s1.3-0.5,1.3-1.6v-8.2h1.8v11.2H135.8z"/>
	<path fill="#96969A" d="M144.1,122.4v-1c-0.2,0.3-0.4,0.6-0.6,0.8c-0.3,0.3-0.7,0.4-1.3,0.4c-0.8,0-1.4-0.3-1.9-0.8
		c-0.4-0.5-0.7-1.3-0.7-2.5c0-1,0.3-1.9,1-2.5c0.6-0.5,1.2-0.8,2.4-0.8h1.1v-1.8c0-1-0.5-1.6-1.3-1.6c-0.4,0-0.6,0.2-0.9,0.4
		c-0.3,0.3-0.4,0.7-0.4,1.3h-1.8c0-0.9,0.2-1.7,0.9-2.4c0.5-0.5,1.3-0.8,2.2-0.8c0.9,0,1.7,0.3,2.2,0.8c0.5,0.6,0.9,1.3,0.9,2.5v8.1
		H144.1z M144,117.3h-1c-0.5,0-0.9,0.1-1.3,0.4c-0.3,0.3-0.5,0.9-0.5,1.5c0,1.2,0.5,1.9,1.4,1.9c0.8,0,1.4-0.7,1.4-1.8V117.3z"/>
	<path fill="#96969A" d="M149,121.8c-0.6-0.5-1-1.3-1-2.5V107h1.8v12.1c0,1.1,0.5,1.7,1.7,1.7v1.6
		C150.5,122.4,149.7,122.3,149,121.8"/>
	<path fill="#96969A" d="M152.9,107.2h2.1v2h-2.1V107.2z M153,111.4h1.8v11H153V111.4z"/>
	<path fill="#96969A" d="M158.6,121.8c-0.6-0.5-1-1.3-1-2.5v-6.6h-1.3v-1.4h1.3v-3.1h1.8v3.1h1.7v1.4h-1.7v6.6
		c0,1.2,0.6,1.7,1.8,1.7v1.6C160.2,122.4,159.3,122.4,158.6,121.8"/>
	<path fill="#96969A" d="M165.8,124.2c-0.5,2-1.9,2.4-3.7,2.4v-1.6c1.1,0,1.8-0.3,2-1.3l0.3-1.4l-2.7-11.2h1.9l1.7,8.4l1.7-8.4h1.9
		L165.8,124.2z"/>
	<path fill="#96969A" d="M178.4,122.4v-1c-0.2,0.3-0.4,0.6-0.6,0.8c-0.3,0.3-0.7,0.4-1.3,0.4c-0.8,0-1.4-0.3-1.9-0.8
		c-0.4-0.5-0.7-1.3-0.7-2.5c0-1,0.3-1.9,1-2.5c0.6-0.5,1.2-0.8,2.4-0.8h1.1v-1.8c0-1-0.5-1.6-1.3-1.6c-0.4,0-0.6,0.2-0.9,0.4
		c-0.3,0.3-0.4,0.7-0.4,1.3H174c0-0.9,0.2-1.7,0.9-2.4c0.5-0.5,1.3-0.8,2.2-0.8c0.9,0,1.7,0.3,2.2,0.8c0.5,0.6,0.9,1.3,0.9,2.5v8.1
		H178.4z M178.4,117.3h-1c-0.5,0-0.9,0.1-1.3,0.4c-0.3,0.3-0.5,0.9-0.5,1.5c0,1.2,0.5,1.9,1.4,1.9c0.8,0,1.4-0.7,1.4-1.8V117.3z"/>
	<path fill="#96969A" d="M186.9,122.4v-8.2c0-1-0.6-1.6-1.3-1.6s-1.3,0.5-1.3,1.6v8.2h-1.8v-11.2h1.7v0.9c0.2-0.3,0.5-0.5,0.7-0.7
		c0.3-0.2,0.8-0.3,1.2-0.3c0.8,0,1.4,0.3,1.9,0.8c0.5,0.5,0.7,1.1,0.7,2.3v8.2H186.9z"/>
	<path fill="#96969A" d="M195.2,122.4v-0.9c-0.1,0.2-0.5,0.6-0.7,0.7c-0.3,0.2-0.8,0.3-1.2,0.3c-0.8,0-1.4-0.2-1.9-0.8
		c-0.7-0.8-0.8-2.4-0.8-5c0-2.6,0.1-4.1,0.8-5c0.5-0.5,1-0.8,1.9-0.8c0.5,0,0.9,0.1,1.2,0.3c0.2,0.1,0.5,0.4,0.6,0.6v-5h1.8v15.4
		H195.2z M195.2,114.3c0-0.6-0.2-1-0.5-1.3c-0.2-0.2-0.6-0.3-0.9-0.3c-0.4,0-0.7,0.2-1,0.5c-0.4,0.6-0.5,1.7-0.5,3.7
		c0,2,0,3.2,0.5,3.7c0.2,0.3,0.6,0.5,1,0.5c0.3,0,0.7-0.1,0.9-0.3c0.3-0.3,0.5-0.7,0.5-1.3V114.3z"/>
	<path fill="#96969A" d="M204.8,121.8c-0.6-0.5-1-1.3-1-2.5v-6.6h-1.3v-1.4h1.3v-3.1h1.8v3.1h1.7v1.4h-1.7v6.6
		c0,1.2,0.6,1.7,1.8,1.7v1.6C206.4,122.4,205.5,122.4,204.8,121.8"/>
	<path fill="#96969A" d="M212.9,112.8c-1.2,0-2,0.8-2,2.1v7.6h-1.8v-11.2h1.7v1.2c0.2-0.3,0.5-0.6,0.8-0.8c0.5-0.4,1.1-0.6,1.8-0.6
		v1.7H212.9z"/>
	<path fill="#96969A" d="M219.3,122.4v-0.9c-0.2,0.3-0.5,0.5-0.7,0.7c-0.3,0.2-0.8,0.3-1.2,0.3c-0.8,0-1.4-0.3-1.9-0.8
		c-0.5-0.5-0.7-1.1-0.7-2.3v-8.2h1.8v8.2c0,1,0.6,1.6,1.3,1.6s1.3-0.5,1.3-1.6v-8.2h1.8v11.2H219.3z"/>
	<path fill="#96969A" d="M228.4,121.7c-0.6,0.6-1.4,0.9-2.3,0.9c-0.9,0-1.7-0.3-2.2-0.9c-0.6-0.7-1-1.4-1-2.5h1.7
		c0,0.6,0.1,1,0.5,1.4c0.3,0.3,0.7,0.4,1,0.4c0.5,0,0.8-0.1,1.1-0.4c0.3-0.3,0.4-0.7,0.4-1.1c0-0.4-0.1-0.7-0.3-1
		c-0.2-0.3-0.5-0.6-1-0.8l-1.5-0.7c-0.7-0.4-1.3-0.8-1.5-1.3c-0.2-0.4-0.3-0.9-0.3-1.5c0-1,0.4-1.7,0.9-2.3c0.6-0.6,1.3-0.8,2.2-0.8
		c0.9,0,1.6,0.3,2.2,0.8c0.6,0.6,0.9,1.4,0.9,2.5h-1.7c0-0.6-0.1-1-0.4-1.3c-0.3-0.3-0.6-0.4-1-0.4c-0.4,0-0.7,0.1-1,0.4
		c-0.3,0.3-0.4,0.7-0.4,1.1c0,0.3,0.1,0.6,0.2,0.8c0.2,0.3,0.5,0.5,0.9,0.7l1.4,0.7c0.8,0.4,1.3,0.8,1.6,1.3
		c0.3,0.5,0.5,1.1,0.5,1.8C229.4,120.4,229,121.2,228.4,121.7"/>
	<path fill="#96969A" d="M232.6,121.8c-0.6-0.5-1-1.3-1-2.5v-6.6h-1.3v-1.4h1.3v-3.1h1.8v3.1h1.7v1.4h-1.7v6.6
		c0,1.2,0.6,1.7,1.8,1.7v1.6C234.2,122.4,233.4,122.4,232.6,121.8"/>
</g>
</svg>
