<?xml version="1.0" encoding="utf-8"?>
<!-- Generator: Adobe Illustrator 13.0.0, SVG Export Plug-In . SVG Version: 6.00 Build 14948)  -->
<!DOCTYPE svg PUBLIC "-//W3C//DTD SVG 1.1//EN" "http://www.w3.org/Graphics/SVG/1.1/DTD/svg11.dtd">
<svg version="1.1" id="sponsor-logo_hygiene-solutions"
	 xmlns="http://www.w3.org/2000/svg" xmlns:xlink="http://www.w3.org/1999/xlink" x="0px" y="0px" width="390px" height="150px"
	 viewBox="0 0 390 150" enable-background="new 0 0 390 150" xml:space="preserve">
<polygon fill="#28285A" points="127.2,24.8 135.7,24.8 135.7,41.4 150.4,41.4 150.4,24.8 158.9,24.8 158.9,68.8 150.4,68.8 
	150.4,49.5 135.7,49.5 135.7,68.8 127.2,68.8 "/>
<polygon fill="#28285A" points="166.1,36.3 174.4,36.3 182.9,56.7 192.2,36.3 200.6,36.3 180.2,80.8 171.8,80.8 178.5,66.4 "/>
<g>
	<path fill="#28285A" d="M231,36.3h8.1v27.9c0,5.5-1.1,9.6-3.3,12.2c-3,3.5-7.5,5.3-13.4,5.3c-3.2,0-5.9-0.4-8.1-1.2
		c-2.2-0.8-4-2-5.5-3.5c-1.5-1.5-2.6-3.4-3.3-5.6h9c0.8,0.9,1.8,1.6,3.1,2.1c1.3,0.5,2.7,0.7,4.5,0.7c2.2,0,4-0.3,5.3-1
		c1.3-0.7,2.3-1.6,2.8-2.6c0.5-1.1,0.8-2.9,0.8-5.6c-1.4,1.4-2.9,2.5-4.5,3.1c-1.6,0.6-3.4,0.9-5.4,0.9c-4.4,0-8.1-1.6-11.1-4.7
		c-3-3.2-4.5-7.1-4.5-12c0-5.2,1.6-9.3,4.8-12.5c2.9-2.8,6.3-4.3,10.4-4.3c1.9,0,3.6,0.3,5.3,1c1.7,0.7,3.3,1.8,5,3.4V36.3z
		 M222.5,43.1c-2.6,0-4.7,0.9-6.4,2.6c-1.7,1.7-2.5,3.9-2.5,6.5c0,2.7,0.9,4.9,2.6,6.7c1.7,1.7,3.9,2.6,6.5,2.6
		c2.5,0,4.6-0.8,6.3-2.5c1.6-1.7,2.5-3.9,2.5-6.7c0-2.7-0.8-4.9-2.5-6.6C227.3,43.9,225.2,43.1,222.5,43.1"/>
	<path fill="#E11C83" d="M252.3,22.8c1.4,0,2.7,0.5,3.7,1.6c1,1,1.5,2.3,1.5,3.8c0,1.5-0.5,2.7-1.5,3.7c-1,1-2.2,1.5-3.6,1.5
		c-1.5,0-2.7-0.5-3.7-1.6c-1-1-1.5-2.3-1.5-3.8c0-1.4,0.5-2.7,1.5-3.7C249.6,23.4,250.8,22.8,252.3,22.8"/>
	<rect x="248.2" y="36.3" fill="#28285A" width="8.2" height="32.6"/>
	<path fill="#28285A" d="M298.1,54.9h-26.3c0.4,2.3,1.4,4.2,3,5.5c1.6,1.4,3.7,2.1,6.3,2.1c3.1,0,5.7-1.1,7.9-3.2l6.9,3.2
		c-1.7,2.4-3.8,4.2-6.2,5.4c-2.4,1.2-5.2,1.8-8.5,1.8c-5.1,0-9.3-1.6-12.5-4.8c-3.2-3.2-4.8-7.3-4.8-12.1c0-5,1.6-9.1,4.8-12.4
		c3.2-3.3,7.2-4.9,12.1-4.9c5.1,0,9.3,1.6,12.5,4.9c3.2,3.3,4.8,7.6,4.8,13L298.1,54.9z M289.9,48.5c-0.5-1.8-1.6-3.3-3.2-4.4
		c-1.6-1.1-3.4-1.7-5.5-1.7c-2.3,0-4.3,0.6-6,1.9c-1.1,0.8-2.1,2.2-3,4.2H289.9z"/>
	<path fill="#28285A" d="M306.4,36.3h8.2v3.3c1.9-1.6,3.5-2.7,5-3.3c1.5-0.6,3-0.9,4.6-0.9c3.2,0,6,1.1,8.2,3.4
		c1.9,1.9,2.8,4.8,2.8,8.5v21.5h-8.1V54.6c0-3.9-0.2-6.5-0.5-7.7c-0.3-1.3-1-2.2-1.8-2.9c-0.9-0.7-1.9-1-3.2-1
		c-1.7,0-3.1,0.6-4.3,1.7c-1.2,1.1-2,2.6-2.5,4.6c-0.2,1-0.4,3.2-0.4,6.6v13.1h-8.2V36.3z"/>
	<path fill="#28285A" d="M377.5,54.9h-26.3c0.4,2.3,1.4,4.2,3,5.5c1.6,1.4,3.7,2.1,6.3,2.1c3.1,0,5.7-1.1,7.9-3.2l6.9,3.2
		c-1.7,2.4-3.8,4.2-6.2,5.4c-2.4,1.2-5.2,1.8-8.5,1.8c-5.1,0-9.3-1.6-12.5-4.8c-3.2-3.2-4.8-7.3-4.8-12.1c0-5,1.6-9.1,4.8-12.4
		c3.2-3.3,7.2-4.9,12.1-4.9c5.1,0,9.3,1.6,12.5,4.9c3.2,3.3,4.8,7.6,4.8,13L377.5,54.9z M369.3,48.5c-0.5-1.8-1.6-3.3-3.2-4.4
		c-1.6-1.1-3.4-1.7-5.5-1.7c-2.3,0-4.3,0.6-6,1.9c-1.1,0.8-2.1,2.2-3,4.2H369.3z"/>
	<path fill="#28285A" d="M124.5,117l3.8-2.2c2.6,4.9,5.7,7.3,9.2,7.3c1.5,0,2.9-0.3,4.2-1c1.3-0.7,2.3-1.6,3-2.8
		c0.7-1.2,1-2.4,1-3.7c0-1.5-0.5-2.9-1.5-4.4c-1.4-2-3.9-4.3-7.6-7.1c-3.7-2.8-6-4.8-6.9-6c-1.6-2.1-2.3-4.3-2.3-6.8
		c0-1.9,0.5-3.7,1.4-5.3c0.9-1.6,2.2-2.8,3.9-3.7S136,80,138,80c2.1,0,4,0.5,5.8,1.5c1.8,1,3.7,2.9,5.7,5.7l-3.6,2.7
		c-1.7-2.2-3.1-3.7-4.2-4.4c-1.2-0.7-2.4-1.1-3.8-1.1c-1.8,0-3.2,0.5-4.4,1.6c-1.1,1.1-1.7,2.4-1.7,4c0,1,0.2,1.9,0.6,2.8
		c0.4,0.9,1.1,1.9,2.2,2.9c0.6,0.6,2.5,2,5.7,4.4c3.8,2.8,6.4,5.3,7.9,7.5c1.4,2.2,2.1,4.4,2.1,6.6c0,3.2-1.2,6-3.6,8.3
		c-2.4,2.4-5.4,3.5-8.9,3.5c-2.7,0-5.1-0.7-7.3-2.1S126.3,120.4,124.5,117"/>
	<path fill="#28285A" d="M174.4,91.7c5,0,9.2,1.8,12.5,5.5c3,3.3,4.5,7.3,4.5,11.8c0,4.6-1.6,8.5-4.8,12c-3.2,3.4-7.3,5.1-12.3,5.1
		c-5,0-9.1-1.7-12.3-5.1c-3.2-3.4-4.8-7.4-4.8-12c0-4.5,1.5-8.4,4.5-11.8C165.2,93.6,169.4,91.7,174.4,91.7 M174.4,95.8
		c-3.5,0-6.5,1.3-9,3.9c-2.5,2.6-3.8,5.7-3.8,9.4c0,2.4,0.6,4.6,1.7,6.6c1.1,2,2.7,3.6,4.6,4.7s4.1,1.7,6.4,1.7
		c2.3,0,4.5-0.6,6.4-1.7c1.9-1.1,3.5-2.7,4.6-4.7c1.1-2,1.7-4.2,1.7-6.6c0-3.7-1.3-6.8-3.8-9.4C180.9,97.1,177.9,95.8,174.4,95.8"/>
	<rect x="198.6" y="80" fill="#28285A" width="4.2" height="45.3"/>
	<path fill="#28285A" d="M211,92.6h4.2v15.2c0,3.7,0.2,6.3,0.6,7.7c0.6,2,1.7,3.6,3.4,4.7c1.7,1.2,3.7,1.7,6.1,1.7
		c2.3,0,4.3-0.6,6-1.7c1.6-1.1,2.8-2.6,3.4-4.5c0.4-1.3,0.6-3.9,0.6-8V92.6h4.3v16c0,4.5-0.5,7.9-1.6,10.2c-1,2.3-2.6,4.1-4.7,5.4
		c-2.1,1.3-4.8,1.9-7.9,1.9c-3.2,0-5.8-0.6-8-1.9c-2.1-1.3-3.7-3.1-4.8-5.4c-1-2.3-1.6-5.8-1.6-10.4V92.6z"/>
	<polygon fill="#28285A" points="252.6,80.4 256.8,80.4 256.8,92.6 263.4,92.6 263.4,96.2 256.8,96.2 256.8,125.2 252.6,125.2 
		252.6,96.2 246.8,96.2 246.8,92.6 252.6,92.6 	"/>
	<path fill="#0FAAE2" d="M271.2,79.1c1,0,1.8,0.3,2.5,1c0.7,0.7,1,1.5,1,2.5c0,0.9-0.3,1.8-1,2.4c-0.7,0.7-1.5,1-2.5,1
		c-0.9,0-1.7-0.3-2.4-1c-0.7-0.7-1-1.5-1-2.4c0-1,0.3-1.8,1-2.5C269.4,79.5,270.2,79.1,271.2,79.1"/>
	<rect x="269.1" y="92.6" fill="#28285A" width="4.2" height="32.7"/>
	<path fill="#28285A" d="M297.5,91.7c5,0,9.2,1.8,12.5,5.5c3,3.3,4.5,7.3,4.5,11.8c0,4.6-1.6,8.5-4.8,12c-3.2,3.4-7.3,5.1-12.3,5.1
		c-5,0-9.1-1.7-12.3-5.1c-3.2-3.4-4.8-7.4-4.8-12c0-4.5,1.5-8.4,4.5-11.8C288.3,93.6,292.4,91.7,297.5,91.7 M297.5,95.8
		c-3.5,0-6.5,1.3-9,3.9c-2.5,2.6-3.8,5.7-3.8,9.4c0,2.4,0.6,4.6,1.7,6.6c1.1,2,2.7,3.6,4.6,4.7c1.9,1.1,4.1,1.7,6.4,1.7
		c2.3,0,4.5-0.6,6.4-1.7c1.9-1.1,3.5-2.7,4.6-4.7c1.1-2,1.7-4.2,1.7-6.6c0-3.7-1.3-6.8-3.8-9.4C303.9,97.1,300.9,95.8,297.5,95.8"/>
	<path fill="#28285A" d="M322.3,92.6h4.2v5.9c1.7-2.2,3.5-3.9,5.6-5c2-1.1,4.3-1.7,6.7-1.7c2.4,0,4.6,0.6,6.5,1.9
		c1.9,1.2,3.3,2.9,4.2,5c0.9,2.1,1.4,5.4,1.4,9.8v16.8h-4.2v-15.6c0-3.8-0.2-6.3-0.5-7.5c-0.5-2.2-1.4-3.8-2.8-4.9
		c-1.4-1.1-3.2-1.6-5.4-1.6c-2.5,0-4.8,0.8-6.8,2.5c-2,1.7-3.3,3.8-4,6.2c-0.4,1.6-0.6,4.6-0.6,8.9v12h-4.2V92.6z"/>
	<path fill="#28285A" d="M376.2,96.1l-2.7,2.8c-2.2-2.2-4.4-3.3-6.6-3.3c-1.4,0-2.5,0.4-3.5,1.4c-1,0.9-1.5,2-1.5,3.2
		c0,1.1,0.4,2.1,1.2,3c0.8,1,2.5,2.1,5.1,3.5c3.1,1.6,5.3,3.2,6.4,4.7c1.1,1.5,1.7,3.2,1.7,5.1c0,2.7-0.9,5-2.8,6.8
		c-1.9,1.9-4.2,2.8-7.1,2.8c-1.9,0-3.7-0.4-5.4-1.2c-1.7-0.8-3.1-2-4.3-3.4l2.6-3c2.1,2.4,4.4,3.6,6.8,3.6c1.7,0,3.1-0.5,4.3-1.6
		c1.2-1.1,1.8-2.4,1.8-3.8c0-1.2-0.4-2.3-1.2-3.2c-0.8-0.9-2.5-2.1-5.3-3.5c-2.9-1.5-5-3-6-4.5c-1.1-1.5-1.6-3.2-1.6-5.1
		c0-2.5,0.8-4.5,2.5-6.2s3.8-2.5,6.4-2.5C370.1,91.7,373.1,93.2,376.2,96.1"/>
	<path fill="#28285A" d="M12.5,75c0-29.7,24-53.7,53.7-53.7l0,0c29.7,0,53.7,24,53.7,53.7l0,0c0,29.7-24,53.7-53.7,53.7l0,0
		C36.5,128.7,12.5,104.7,12.5,75L12.5,75z M30.7,110.5c9.1,9.1,21.6,14.7,35.5,14.7l0,0c13.9,0,26.4-5.6,35.5-14.7l0,0
		c9.1-9.1,14.7-21.6,14.7-35.5l0,0c0-13.9-5.6-26.4-14.7-35.5l0,0C92.6,30.5,80,24.9,66.2,24.9l0,0c-13.9,0-26.4,5.6-35.5,14.7l0,0
		C21.7,48.6,16,61.1,16,75l0,0C16,88.9,21.7,101.4,30.7,110.5L30.7,110.5z"/>
	<path fill="#0FAAE2" d="M39.6,48.8c0,5.2,4.3,9.5,9.5,9.5c5.2,0,9.5-4.3,9.5-9.5c0-5.3-4.3-9.5-9.5-9.5
		C43.8,39.3,39.6,43.5,39.6,48.8"/>
	<path fill="#E11C83" d="M72.5,48.8c0,5.2,4.3,9.5,9.5,9.5s9.5-4.3,9.5-9.5c0-5.3-4.3-9.5-9.5-9.5S72.5,43.5,72.5,48.8"/>
	<path fill="#0FAAE2" d="M38.8,57.6h1.9c0,0,7.8,8.8,16.2,0h1.9c0,0,3.8,8.5,4,12.7c0,0,1.1,11.2-3.9,13.2c0,0-0.6-0.2-1-1.6
		l-5.5,30.3h-7.4l-5.6-30.2c0,0-0.7,1.2-1.1,1.5c0,0-2.4-1.4-3.8-8.4C34.6,75,35.3,64.4,38.8,57.6"/>
	<path fill="#E11C83" d="M72.5,57.6h1.7c0,0,7.6,8.5,15.8,0H92c0,0,4.2,10.8,4.4,14.2c0,0,0.6,5.9-2.2,9.7l6.9,9.9l-11.8,0.3
		l-3.4,20.4h-7.8l-3.5-20.4H64.2l6.5-9.2c0,0-2.5-1.7-2.9-10.4C67.8,72,67.9,62.8,72.5,57.6"/>
</g>
</svg>
