<?xml version="1.0" encoding="utf-8"?>
<!-- Generator: Adobe Illustrator 18.1.1, SVG Export Plug-In . SVG Version: 6.00 Build 0)  -->
<svg version="1.1" id="Layer_15" xmlns="http://www.w3.org/2000/svg" xmlns:xlink="http://www.w3.org/1999/xlink" x="0px" y="0px"
	 viewBox="0 0 390 292.5" enable-background="new 0 0 390 292.5" xml:space="preserve">
<polygon fill="#28285A" points="126.7,96.1 135.2,96.1 135.2,112.7 149.9,112.7 149.9,96.1 158.4,96.1 158.4,140.1 149.9,140.1 
	149.9,120.8 135.2,120.8 135.2,140.1 126.7,140.1 "/>
<polygon fill="#28285A" points="165.6,107.6 173.9,107.6 182.4,128 191.7,107.6 200.1,107.6 179.7,152.1 171.3,152.1 178,137.7 "/>
<g>
	<path fill="#28285A" d="M230.5,107.6h8.1v27.9c0,5.5-1.1,9.6-3.3,12.2c-3,3.5-7.5,5.3-13.4,5.3c-3.2,0-5.9-0.4-8.1-1.2
		c-2.2-0.8-4-2-5.5-3.5s-2.6-3.4-3.3-5.6h9c0.8,0.9,1.8,1.6,3.1,2.1s2.7,0.7,4.5,0.7c2.2,0,4-0.3,5.3-1s2.3-1.6,2.8-2.6
		c0.5-1.1,0.8-2.9,0.8-5.6c-1.4,1.4-2.9,2.5-4.5,3.1c-1.6,0.6-3.4,0.9-5.4,0.9c-4.4,0-8.1-1.6-11.1-4.7c-3-3.2-4.5-7.1-4.5-12
		c0-5.2,1.6-9.3,4.8-12.5c2.9-2.8,6.3-4.3,10.4-4.3c1.9,0,3.6,0.3,5.3,1c1.7,0.7,3.3,1.8,5,3.4L230.5,107.6L230.5,107.6z M222,114.3
		c-2.6,0-4.7,0.9-6.4,2.6c-1.7,1.7-2.5,3.9-2.5,6.5c0,2.7,0.9,4.9,2.6,6.7c1.7,1.7,3.9,2.6,6.5,2.6c2.5,0,4.6-0.8,6.3-2.5
		c1.6-1.7,2.5-3.9,2.5-6.7c0-2.7-0.8-4.9-2.5-6.6C226.8,115.2,224.7,114.3,222,114.3"/>
	<path fill="#E11C83" d="M251.8,94.1c1.4,0,2.7,0.5,3.7,1.6c1,1,1.5,2.3,1.5,3.8s-0.5,2.7-1.5,3.7s-2.2,1.5-3.6,1.5
		c-1.5,0-2.7-0.5-3.7-1.6c-1-1-1.5-2.3-1.5-3.8c0-1.4,0.5-2.7,1.5-3.7C249.1,94.7,250.3,94.1,251.8,94.1"/>
	<rect x="247.7" y="107.6" fill="#28285A" width="8.2" height="32.6"/>
	<path fill="#28285A" d="M297.6,126.2h-26.3c0.4,2.3,1.4,4.2,3,5.5c1.6,1.4,3.7,2.1,6.3,2.1c3.1,0,5.7-1.1,7.9-3.2l6.9,3.2
		c-1.7,2.4-3.8,4.2-6.2,5.4c-2.4,1.2-5.2,1.8-8.5,1.8c-5.1,0-9.3-1.6-12.5-4.8c-3.2-3.2-4.8-7.3-4.8-12.1c0-5,1.6-9.1,4.8-12.4
		c3.2-3.3,7.2-4.9,12.1-4.9c5.1,0,9.3,1.6,12.5,4.9s4.8,7.6,4.8,13L297.6,126.2z M289.4,119.8c-0.5-1.8-1.6-3.3-3.2-4.4
		c-1.6-1.1-3.4-1.7-5.5-1.7c-2.3,0-4.3,0.6-6,1.9c-1.1,0.8-2.1,2.2-3,4.2H289.4z"/>
	<path fill="#28285A" d="M305.9,107.6h8.2v3.3c1.9-1.6,3.5-2.7,5-3.3s3-0.9,4.6-0.9c3.2,0,6,1.1,8.2,3.4c1.9,1.9,2.8,4.8,2.8,8.5
		v21.5h-8.1v-14.2c0-3.9-0.2-6.5-0.5-7.7c-0.3-1.3-1-2.2-1.8-2.9c-0.9-0.7-1.9-1-3.2-1c-1.7,0-3.1,0.6-4.3,1.7
		c-1.2,1.1-2,2.6-2.5,4.6c-0.2,1-0.4,3.2-0.4,6.6v13.1h-8.2v-32.7H305.9z"/>
	<path fill="#28285A" d="M377,126.2h-26.3c0.4,2.3,1.4,4.2,3,5.5c1.6,1.4,3.7,2.1,6.3,2.1c3.1,0,5.7-1.1,7.9-3.2l6.9,3.2
		c-1.7,2.4-3.8,4.2-6.2,5.4c-2.4,1.2-5.2,1.8-8.5,1.8c-5.1,0-9.3-1.6-12.5-4.8c-3.2-3.2-4.8-7.3-4.8-12.1c0-5,1.6-9.1,4.8-12.4
		c3.2-3.3,7.2-4.9,12.1-4.9c5.1,0,9.3,1.6,12.5,4.9s4.8,7.6,4.8,13L377,126.2z M368.8,119.8c-0.5-1.8-1.6-3.3-3.2-4.4
		c-1.6-1.1-3.4-1.7-5.5-1.7c-2.3,0-4.3,0.6-6,1.9c-1.1,0.8-2.1,2.2-3,4.2H368.8z"/>
	<path fill="#28285A" d="M124,188.2l3.8-2.2c2.6,4.9,5.7,7.3,9.2,7.3c1.5,0,2.9-0.3,4.2-1s2.3-1.6,3-2.8c0.7-1.2,1-2.4,1-3.7
		c0-1.5-0.5-2.9-1.5-4.4c-1.4-2-3.9-4.3-7.6-7.1c-3.7-2.8-6-4.8-6.9-6c-1.6-2.1-2.3-4.3-2.3-6.8c0-1.9,0.5-3.7,1.4-5.3
		c0.9-1.6,2.2-2.8,3.9-3.7s3.3-1.3,5.3-1.3c2.1,0,4,0.5,5.8,1.5s3.7,2.9,5.7,5.7l-3.6,2.7c-1.7-2.2-3.1-3.7-4.2-4.4
		c-1.2-0.7-2.4-1.1-3.8-1.1c-1.8,0-3.2,0.5-4.4,1.6c-1.1,1.1-1.7,2.4-1.7,4c0,1,0.2,1.9,0.6,2.8c0.4,0.9,1.1,1.9,2.2,2.9
		c0.6,0.6,2.5,2,5.7,4.4c3.8,2.8,6.4,5.3,7.9,7.5c1.4,2.2,2.1,4.4,2.1,6.6c0,3.2-1.2,6-3.6,8.3c-2.4,2.4-5.4,3.5-8.9,3.5
		c-2.7,0-5.1-0.7-7.3-2.1C127.8,193.8,125.8,191.7,124,188.2"/>
	<path fill="#28285A" d="M173.9,162.9c5,0,9.2,1.8,12.5,5.5c3,3.3,4.5,7.3,4.5,11.8c0,4.6-1.6,8.5-4.8,12c-3.2,3.4-7.3,5.1-12.3,5.1
		s-9.1-1.7-12.3-5.1c-3.2-3.4-4.8-7.4-4.8-12c0-4.5,1.5-8.4,4.5-11.8C164.7,164.9,168.9,162.9,173.9,162.9 M173.9,167.1
		c-3.5,0-6.5,1.3-9,3.9c-2.5,2.6-3.8,5.7-3.8,9.4c0,2.4,0.6,4.6,1.7,6.6c1.1,2,2.7,3.6,4.6,4.7c1.9,1.1,4.1,1.7,6.4,1.7
		c2.3,0,4.5-0.6,6.4-1.7c1.9-1.1,3.5-2.7,4.6-4.7s1.7-4.2,1.7-6.6c0-3.7-1.3-6.8-3.8-9.4C180.4,168.4,177.4,167.1,173.9,167.1"/>
	<rect x="198.1" y="151.2" fill="#28285A" width="4.2" height="45.3"/>
	<path fill="#28285A" d="M210.5,163.9h4.2v15.2c0,3.7,0.2,6.3,0.6,7.7c0.6,2,1.7,3.6,3.4,4.7c1.7,1.2,3.7,1.7,6.1,1.7
		c2.3,0,4.3-0.6,6-1.7c1.6-1.1,2.8-2.6,3.4-4.5c0.4-1.3,0.6-3.9,0.6-8v-15.1h4.3v16c0,4.5-0.5,7.9-1.6,10.2c-1,2.3-2.6,4.1-4.7,5.4
		c-2.1,1.3-4.8,1.9-7.9,1.9c-3.2,0-5.8-0.6-8-1.9c-2.1-1.3-3.7-3.1-4.8-5.4c-1-2.3-1.6-5.8-1.6-10.4V163.9z"/>
	<polygon fill="#28285A" points="252.1,151.7 256.3,151.7 256.3,163.9 262.9,163.9 262.9,167.4 256.3,167.4 256.3,196.4 
		252.1,196.4 252.1,167.4 246.3,167.4 246.3,163.9 252.1,163.9 	"/>
	<path fill="#0FAAE2" d="M270.7,150.4c1,0,1.8,0.3,2.5,1s1,1.5,1,2.5c0,0.9-0.3,1.8-1,2.4c-0.7,0.7-1.5,1-2.5,1
		c-0.9,0-1.7-0.3-2.4-1c-0.7-0.7-1-1.5-1-2.4c0-1,0.3-1.8,1-2.5C268.9,150.8,269.7,150.4,270.7,150.4"/>
	<rect x="268.6" y="163.9" fill="#28285A" width="4.2" height="32.7"/>
	<path fill="#28285A" d="M297,162.9c5,0,9.2,1.8,12.5,5.5c3,3.3,4.5,7.3,4.5,11.8c0,4.6-1.6,8.5-4.8,12c-3.2,3.4-7.3,5.1-12.3,5.1
		s-9.1-1.7-12.3-5.1c-3.2-3.4-4.8-7.4-4.8-12c0-4.5,1.5-8.4,4.5-11.8C287.8,164.9,291.9,162.9,297,162.9 M297,167.1
		c-3.5,0-6.5,1.3-9,3.9c-2.5,2.6-3.8,5.7-3.8,9.4c0,2.4,0.6,4.6,1.7,6.6s2.7,3.6,4.6,4.7c1.9,1.1,4.1,1.7,6.4,1.7s4.5-0.6,6.4-1.7
		c1.9-1.1,3.5-2.7,4.6-4.7s1.7-4.2,1.7-6.6c0-3.7-1.3-6.8-3.8-9.4C303.4,168.4,300.4,167.1,297,167.1"/>
	<path fill="#28285A" d="M321.8,163.9h4.2v5.9c1.7-2.2,3.5-3.9,5.6-5c2-1.1,4.3-1.7,6.7-1.7c2.4,0,4.6,0.6,6.5,1.9
		c1.9,1.2,3.3,2.9,4.2,5c0.9,2.1,1.4,5.4,1.4,9.8v16.8h-4.2V181c0-3.8-0.2-6.3-0.5-7.5c-0.5-2.2-1.4-3.8-2.8-4.9
		c-1.4-1.1-3.2-1.6-5.4-1.6c-2.5,0-4.8,0.8-6.8,2.5s-3.3,3.8-4,6.2c-0.4,1.6-0.6,4.6-0.6,8.9v12h-4.2v-32.7H321.8z"/>
	<path fill="#28285A" d="M375.7,167.4l-2.7,2.8c-2.2-2.2-4.4-3.3-6.6-3.3c-1.4,0-2.5,0.4-3.5,1.4c-1,0.9-1.5,2-1.5,3.2
		c0,1.1,0.4,2.1,1.2,3c0.8,1,2.5,2.1,5.1,3.5c3.1,1.6,5.3,3.2,6.4,4.7s1.7,3.2,1.7,5.1c0,2.7-0.9,5-2.8,6.8
		c-1.9,1.9-4.2,2.8-7.1,2.8c-1.9,0-3.7-0.4-5.4-1.2c-1.7-0.8-3.1-2-4.3-3.4l2.6-3c2.1,2.4,4.4,3.6,6.8,3.6c1.7,0,3.1-0.5,4.3-1.6
		c1.2-1.1,1.8-2.4,1.8-3.8c0-1.2-0.4-2.3-1.2-3.2c-0.8-0.9-2.5-2.1-5.3-3.5c-2.9-1.5-5-3-6-4.5c-1.1-1.5-1.6-3.2-1.6-5.1
		c0-2.5,0.8-4.5,2.5-6.2s3.8-2.5,6.4-2.5C369.6,162.9,372.6,164.4,375.7,167.4"/>
	<path fill="#28285A" d="M12,146.2c0-29.7,24-53.7,53.7-53.7l0,0c29.7,0,53.7,24,53.7,53.7l0,0c0,29.7-24,53.7-53.7,53.7l0,0
		C36,199.9,12,175.9,12,146.2L12,146.2z M30.2,181.8c9.1,9.1,21.6,14.7,35.5,14.7l0,0c13.9,0,26.4-5.6,35.5-14.7l0,0
		c9.1-9.1,14.7-21.6,14.7-35.5l0,0c0-13.9-5.6-26.4-14.7-35.5l0,0c-9.1-9-21.7-14.6-35.5-14.6l0,0c-13.9,0-26.4,5.6-35.5,14.7l0,0
		c-9,9-14.7,21.5-14.7,35.4l0,0C15.5,160.2,21.2,172.7,30.2,181.8L30.2,181.8z"/>
	<path fill="#0FAAE2" d="M39.1,120.1c0,5.2,4.3,9.5,9.5,9.5s9.5-4.3,9.5-9.5c0-5.3-4.3-9.5-9.5-9.5
		C43.3,110.6,39.1,114.8,39.1,120.1"/>
	<path fill="#E11C83" d="M72,120.1c0,5.2,4.3,9.5,9.5,9.5s9.5-4.3,9.5-9.5c0-5.3-4.3-9.5-9.5-9.5S72,114.8,72,120.1"/>
	<path fill="#0FAAE2" d="M38.3,128.9h1.9c0,0,7.8,8.8,16.2,0h1.9c0,0,3.8,8.5,4,12.7c0,0,1.1,11.2-3.9,13.2c0,0-0.6-0.2-1-1.6
		l-5.5,30.3h-7.4l-5.6-30.2c0,0-0.7,1.2-1.1,1.5c0,0-2.4-1.4-3.8-8.4C34.1,146.2,34.8,135.7,38.3,128.9"/>
	<path fill="#E11C83" d="M72,128.9h1.7c0,0,7.6,8.5,15.8,0h2c0,0,4.2,10.8,4.4,14.2c0,0,0.6,5.9-2.2,9.7l6.9,9.9l-11.8,0.3
		l-3.4,20.4h-7.8l-3.5-20.4H63.7l6.5-9.2c0,0-2.5-1.7-2.9-10.4C67.3,143.2,67.4,134.1,72,128.9"/>
</g>
<g>
</g>
<g>
</g>
<g>
</g>
<g>
</g>
<g>
</g>
<g>
</g>
<g>
</g>
<g>
</g>
<g>
</g>
<g>
</g>
</svg>
