<?xml version="1.0" encoding="utf-8"?>
<!-- Generator: Adobe Illustrator 13.0.0, SVG Export Plug-In . SVG Version: 6.00 Build 14948)  -->
<!DOCTYPE svg PUBLIC "-//W3C//DTD SVG 1.1//EN" "http://www.w3.org/Graphics/SVG/1.1/DTD/svg11.dtd">
<svg version="1.1" id="sponsor-logo_champions-afterdinner"
	 xmlns="http://www.w3.org/2000/svg" xmlns:xlink="http://www.w3.org/1999/xlink" x="0px" y="0px" width="390px" height="150px"
	 viewBox="0 0 390 150" enable-background="new 0 0 390 150" xml:space="preserve">
<g>
	<g>
		<path fill="#F26F21" d="M174.1,95.7h4.2l3.9,17h-3.4l-0.8-4.3h-3.6l-0.8,4.3h-3.2L174.1,95.7z M177.5,105.9l-1.4-7.1l-1.3,7.1
			H177.5z"/>
		<polygon fill="#F26F21" points="182.4,95.7 191.3,95.7 191.3,98.5 185.6,98.5 185.6,102.5 191,102.5 191,105.2 185.6,105.2 
			185.6,112.7 182.4,112.7 		"/>
		<polygon fill="#F26F21" points="194.9,98.5 191.2,98.5 191.2,95.7 201.7,95.7 201.7,98.5 198,98.5 198,112.7 194.9,112.7 		"/>
		<polygon fill="#F26F21" points="201.9,95.7 210.6,95.7 210.6,98.5 205,98.5 205,102.5 210.2,102.5 210.2,105.1 205,105.1 
			205,109.8 210.7,109.8 210.7,112.7 201.9,112.7 		"/>
		<path fill="#F26F21" d="M211.6,95.7h5.7c3.4,0,4.8,1.3,4.8,4.5c0,2.2-0.8,3.5-2.4,3.7c2.3,0.6,2.3,1.8,2.4,4l0.1,2.3
			c0,1.1,0.2,1.9,0.9,2.5h-3.8c-0.2-0.7-0.3-1.6-0.3-2.6l0-1.8v-0.5c0-2.2-0.9-2.6-3.2-2.6h-1.1v7.5h-3V95.7z M216.5,102.9
			c1.8,0,2.4-0.6,2.4-2.5c0-1.8-0.8-2.3-2.7-2.3h-1.6v4.8H216.5z"/>
		<path fill="#F26F21" d="M227.3,95.7h5.1c1.9,0,3.1,0.2,4,1.1c1.4,1.4,1.6,3.4,1.6,6.3c0,3.3,0,5.8-1.1,7.7
			c-0.9,1.7-2.5,1.9-5.2,1.9h-4.4V95.7z M231.8,110.2c1.1,0,1.8,0,2.2-0.7c0.7-1.1,0.8-2.9,0.8-5.5c0-2.7-0.1-4.4-1-5.3
			c-0.4-0.5-1.1-0.5-2.1-0.5h-1.4v12H231.8z"/>
		<rect x="239.1" y="95.7" fill="#F26F21" width="3.2" height="17"/>
		<polygon fill="#F26F21" points="243.7,95.7 247,95.7 251.4,107.6 251.3,95.7 254.3,95.7 254.3,112.7 251.1,112.7 246.6,100.8 
			246.7,112.7 243.7,112.7 		"/>
		<polygon fill="#F26F21" points="255.7,95.7 259,95.7 263.4,107.6 263.3,95.7 266.3,95.7 266.3,112.7 263.1,112.7 258.6,100.8 
			258.7,112.7 255.7,112.7 		"/>
		<polygon fill="#F26F21" points="267.7,95.7 276.4,95.7 276.4,98.5 270.9,98.5 270.9,102.5 276.1,102.5 276.1,105.1 270.9,105.1 
			270.9,109.8 276.6,109.8 276.6,112.7 267.7,112.7 		"/>
		<path fill="#F26F21" d="M277.4,95.7h5.7c3.4,0,4.8,1.3,4.8,4.5c0,2.2-0.8,3.5-2.4,3.7c2.3,0.6,2.3,1.8,2.3,4l0.1,2.3
			c0,1.1,0.2,1.9,0.9,2.5h-3.8c-0.2-0.7-0.3-1.6-0.3-2.6l0-1.8v-0.5c0-2.2-0.9-2.6-3.2-2.6h-1.1v7.5h-3V95.7z M282.3,102.9
			c1.8,0,2.4-0.6,2.4-2.5c0-1.8-0.8-2.3-2.7-2.3h-1.6v4.8H282.3z"/>
		<path fill="#F26F21" d="M296,106.7v1.1c0,1.8,0.3,2.7,1.7,2.7c1.4,0,2.1-0.7,2.1-2c0-1.2-0.6-1.8-1.9-2.7l-1.6-1.2
			c-2.2-1.5-3.2-2.4-3.2-4.8c0-2.8,1.8-4.6,4.8-4.6c3.1,0,4.9,1.8,4.9,5c0,0.2,0,0.4,0,0.6h-3v-0.5c0-1.8-0.5-2.6-1.9-2.6
			c-1,0-1.6,0.6-1.6,1.7c0,1.1,0.8,1.6,2,2.4l1.7,1.2c2.2,1.5,3.2,2.6,3.2,5.1c0,3.1-1.8,4.8-5.1,4.8c-3.4,0-5.1-1.7-5.1-5.4
			c0-0.3,0-0.7,0-1H296z"/>
		<path fill="#F26F21" d="M304.1,95.7h5.5c3.3,0,4.7,1.4,4.7,4.8c0,3.4-1.6,5-4.8,5h-2.3v7.2h-3.1V95.7z M308.5,103.1
			c1.9,0,2.7-0.6,2.7-2.6c0-2-0.7-2.5-2.6-2.5h-1.4v5.1H308.5z"/>
		<polygon fill="#F26F21" points="314.9,95.7 323.7,95.7 323.7,98.5 318.1,98.5 318.1,102.5 323.3,102.5 323.3,105.1 318.1,105.1 
			318.1,109.8 323.8,109.8 323.8,112.7 314.9,112.7 		"/>
		<path fill="#F26F21" d="M327.2,95.7h4.2l3.9,17h-3.4l-0.8-4.3h-3.6l-0.8,4.3h-3.2L327.2,95.7z M330.6,105.9l-1.4-7.1l-1.3,7.1
			H330.6z"/>
		<polygon fill="#F26F21" points="335.5,95.7 338.6,95.7 338.6,102.8 342.5,95.7 346,95.7 341.7,102.7 346.3,112.7 342.8,112.7 
			339.8,105.7 338.6,107.5 338.6,112.7 335.5,112.7 		"/>
		<polygon fill="#F26F21" points="346.4,95.7 355.1,95.7 355.1,98.5 349.6,98.5 349.6,102.5 354.7,102.5 354.7,105.1 349.6,105.1 
			349.6,109.8 355.3,109.8 355.3,112.7 346.4,112.7 		"/>
		<path fill="#F26F21" d="M356.1,95.7h5.7c3.4,0,4.8,1.3,4.8,4.5c0,2.2-0.8,3.5-2.4,3.7c2.3,0.6,2.3,1.8,2.3,4l0.1,2.3
			c0,1.1,0.2,1.9,0.9,2.5h-3.8c-0.2-0.7-0.3-1.6-0.3-2.6l0-1.8v-0.5c0-2.2-0.9-2.6-3.2-2.6h-1.1v7.5h-3.1V95.7z M361,102.9
			c1.8,0,2.4-0.6,2.4-2.5c0-1.8-0.8-2.3-2.7-2.3h-1.6v4.8H361z"/>
		<path fill="#F26F21" d="M370.5,106.7v1.1c0,1.8,0.3,2.7,1.7,2.7c1.4,0,2.1-0.7,2.1-2c0-1.2-0.6-1.8-1.9-2.7l-1.6-1.2
			c-2.2-1.5-3.2-2.4-3.2-4.8c0-2.8,1.8-4.6,4.8-4.6c3.1,0,4.9,1.8,4.9,5c0,0.2,0,0.4,0,0.6h-3v-0.5c0-1.8-0.5-2.6-1.9-2.6
			c-1,0-1.6,0.6-1.6,1.7c0,1.1,0.8,1.6,2,2.4l1.7,1.2c2.2,1.5,3.2,2.6,3.2,5.1c0,3.1-1.8,4.8-5.1,4.8c-3.4,0-5.1-1.7-5.1-5.4
			c0-0.3,0-0.7,0-1H370.5z"/>
	</g>
	<g>
		<path fill="#020000" d="M292.5,71.5c-1.2-1.5-1.8-3.4-1.8-5.6c0-0.6,0.1-1.3,0.2-2c0.1-0.7,0.3-1.3,0.5-1.8
			c0.2-0.5,0.6-1.2,1.1-1.9l0.1-0.2h-0.9l0,0c-0.9,1.1-1.5,2.1-1.9,3c-0.4,0.9-0.5,1.8-0.5,2.8c0,0.9,0.2,1.9,0.5,2.8
			c0.2,0.6,0.4,1,0.7,1.4c0.2,0.3,0.6,0.8,1,1.4l0.2,0.3h1L292.5,71.5z"/>
		<path fill="#020000" d="M298.3,61.5v4.9c0,0.6-0.1,1.1-0.2,1.4c-0.1,0.3-0.3,0.5-0.5,0.7c-0.4,0.4-1,0.5-1.7,0.5
			c-0.5,0-0.9-0.1-1.3-0.3c-0.3-0.2-0.6-0.4-0.8-0.7c-0.2-0.3-0.3-0.8-0.3-1.6v-4.9h-1.4v4.9c0,0.7,0,1.2,0.1,1.5
			c0.1,0.3,0.2,0.6,0.4,0.8c0.1,0.2,0.3,0.4,0.5,0.6c0.7,0.6,1.6,0.9,2.7,0.9c1.1,0,2-0.3,2.7-0.9c0.2-0.2,0.4-0.4,0.5-0.6
			c0.1-0.2,0.3-0.5,0.4-0.9c0.1-0.3,0.1-0.8,0.1-1.5v-4.9H298.3z"/>
		<polygon fill="#020000" points="303.3,65.6 307,61.5 305.2,61.5 301.8,65.2 301.8,61.5 300.4,61.5 300.4,70.2 301.8,70.2 
			301.8,66.1 306,70.2 308,70.2 		"/>
		<path fill="#020000" d="M310.1,63c-0.2-0.6-0.4-1-0.7-1.4c-0.2-0.4-0.6-0.8-1-1.3l-0.2-0.3h-0.9l0.1,0.2c0.4,0.6,0.8,1.2,1,1.7
			c0.2,0.6,0.4,1.2,0.6,1.9c0.1,0.6,0.2,1.3,0.2,2c0,0.6-0.1,1.2-0.2,1.9c-0.1,0.7-0.3,1.3-0.5,1.8c-0.2,0.5-0.6,1.2-1.1,2l-0.1,0.2
			h0.9l0,0c0.6-0.8,1.1-1.4,1.3-1.8c0.2-0.4,0.4-0.9,0.6-1.3c0.3-0.9,0.5-1.8,0.5-2.7C310.6,64.9,310.4,63.9,310.1,63"/>
		<path fill="#020000" d="M314.3,74.4V61.6h2.9c1.5,0,2.7,0.4,3.5,1.1c0.8,0.7,1.3,1.8,1.3,3.1c0,1.3-0.4,2.3-1.2,3.1
			c-0.8,0.8-1.8,1.2-3,1.2c-0.5,0-1.1-0.1-1.8-0.4v4.5H314.3z M317.2,63.2H316v5.2c0.5,0.3,1.1,0.4,1.6,0.4c0.8,0,1.4-0.3,1.9-0.8
			c0.5-0.5,0.8-1.2,0.8-2.1c0-0.6-0.1-1-0.4-1.5c-0.2-0.4-0.6-0.7-1-0.9C318.5,63.3,317.9,63.2,317.2,63.2"/>
		<rect x="323.4" y="57.2" fill="#020000" width="1.7" height="12.9"/>
		<path fill="#020000" d="M333.4,68.1v1.7c-0.8,0.3-1.7,0.5-2.5,0.5c-1.3,0-2.4-0.4-3.2-1.2c-0.8-0.8-1.2-1.8-1.2-3.2
			c0-1.3,0.4-2.4,1.2-3.2c0.8-0.8,1.8-1.2,3-1.2c0.4,0,0.8,0,1.2,0.1c0.3,0.1,0.8,0.2,1.3,0.5v1.8c-0.8-0.5-1.6-0.8-2.4-0.8
			c-0.8,0-1.4,0.3-1.9,0.8c-0.5,0.5-0.7,1.2-0.7,2c0,0.9,0.3,1.6,0.8,2.1c0.5,0.5,1.2,0.8,2.1,0.8C331.8,68.6,332.5,68.5,333.4,68.1
			"/>
		<path fill="#020000" d="M38.3,61.5v10h-1.4c-0.6-2.6-1.7-4.6-3.4-6.1c-1.7-1.5-3.7-2.3-6-2.3c-2.8,0-5.1,1.1-6.9,3.3
			c-1.8,2.2-2.6,5-2.6,8.5c0,3.8,1,7.2,3.1,10c2.1,2.8,4.6,4.2,7.5,4.2c1.9,0,3.8-0.5,5.7-1.6c1.9-1,3.5-2.5,4.8-4.3v2.1
			c-3.1,4.2-7.2,6.2-12.5,6.2c-4.2,0-7.6-1.3-10.2-4c-2.6-2.6-4-6.1-4-10.3c0-4.3,1.4-8,4.3-11.1c2.8-3,6.3-4.6,10.3-4.6
			c1.8,0,3.8,0.4,6,1.1c1,0.3,1.6,0.5,2,0.5c0.8,0,1.4-0.5,1.9-1.6H38.3z"/>
		<path fill="#020000" d="M63,84.6v-14c0-1.9-0.5-3.4-1.6-4.5c-1-1.1-2.4-1.7-4.1-1.7c-1.6,0-3,0.4-4.3,1.2c-1.3,0.8-2.6,2.2-4,4.1
			v15.5c0,1.5,0.3,2.5,1,3c0.7,0.5,1.9,0.8,3.7,0.8v1.3H38.7v-1.3c2.2-0.1,3.5-0.4,4.1-1c0.6-0.7,0.9-2.1,0.9-4.4V47
			c0-1.7-0.3-2.9-0.9-3.4c-0.6-0.6-2-0.8-4.1-0.8v-1.3l9.1-1h1.3v26.7c1.8-2.1,3.5-3.5,4.9-4.4c1.5-0.8,3.1-1.3,5-1.3
			c2.7,0,5,0.9,6.8,2.7c1.8,1.8,2.6,4.1,2.6,7.1v12.5c0,2.2,0.3,3.7,0.9,4.4c0.6,0.7,1.8,1.1,3.7,1.1v1.3H58.3v-1.3
			c1.9,0,3.2-0.3,3.8-0.9C62.7,87.7,63,86.5,63,84.6"/>
		<path fill="#020000" d="M82.2,91.4c-2.2,0-4.1-0.7-5.7-2.2c-1.6-1.5-2.4-3.2-2.4-5.3c0-2,0.7-3.6,2-4.9c1.4-1.3,4.1-2.5,8.3-3.7
			c2.6-0.7,4.4-1.3,5.3-1.9v-2.1c0-2-0.6-3.7-1.7-5c-1.1-1.3-2.7-1.9-4.6-1.9c-1.7,0-3.3,0.5-4.6,1.6c-1.3,1.1-2.3,2.6-2.8,4.4
			l-1.4-0.4c0.6-2.6,1.8-4.7,3.7-6.3c1.9-1.6,4.1-2.4,6.7-2.4c3,0,5.5,0.9,7.4,2.7c1.9,1.8,2.8,4.4,2.8,7.6V84
			c0,1.7,0.1,2.9,0.3,3.5c0.2,0.6,0.6,0.9,1.3,0.9c0.4,0,0.8-0.2,1.1-0.5c0.3-0.4,0.6-1.1,0.9-2.2h1.3c-0.1,1.8-0.7,3.2-1.7,4.2
			c-1,1-2.3,1.6-3.8,1.6c-2.3,0-3.9-1.3-4.8-4c-1.4,1.5-2.6,2.6-3.7,3.2C85,91.1,83.7,91.4,82.2,91.4 M89.8,84.8v-9.6
			c-0.8,0.3-2,0.8-3.5,1.3c-2.8,1-4.6,1.9-5.4,2.9c-0.8,0.9-1.2,2.2-1.2,3.8c0,1.4,0.4,2.6,1.3,3.6c0.8,1,1.8,1.5,3,1.5
			c1.1,0,2.2-0.3,3.3-1C88.5,86.6,89.3,85.8,89.8,84.8"/>
		<path fill="#020000" d="M110.7,61.5v5.9h0.2c1.2-1.8,2.7-3.2,4.5-4.3c1.8-1.1,3.7-1.6,5.5-1.6c2.1,0,3.9,0.6,5.5,1.7
			c1.6,1.1,2.7,2.7,3.4,4.7c3-4.2,6.5-6.3,10.4-6.3c2.8,0,5,0.8,6.9,2.5c1.8,1.7,2.7,4,2.7,7v14.2c0,1.5,0.3,2.6,1,3.1
			c0.7,0.5,1.9,0.8,3.7,0.8v1.4h-14.9v-1.4c2,0,3.4-0.3,3.9-1c0.6-0.7,0.9-2.1,0.9-4.4V70.3c0-1.8-0.5-3.2-1.6-4.3
			c-1.1-1-2.6-1.6-4.5-1.6c-3,0-5.6,1.8-8,5.4v15.1c0,1.6,0.3,2.6,1,3.2c0.7,0.6,1.9,0.8,3.7,0.8v1.4h-14.8v-1.4c2.1,0,3.4-0.3,4-1
			c0.5-0.7,0.8-2.1,0.8-4.4V70.6c0-1.9-0.6-3.4-1.7-4.5c-1.1-1.1-2.6-1.7-4.3-1.7c-1.5,0-3,0.5-4.5,1.5c-1.5,1-2.7,2.3-3.6,4v15.3
			c0,1.4,0.4,2.5,1,3c0.7,0.6,1.9,0.9,3.7,0.9v1.3h-15v-1.4c2.1,0,3.4-0.3,3.9-1c0.6-0.6,0.8-1.8,0.8-3.6V67.8
			c0-1.5-0.3-2.5-0.9-3.2c-0.6-0.6-1.6-1-3-1h-1.8v-1.3l9.7-0.9H110.7z"/>
		<path fill="#020000" d="M162.8,61.5v4.7c1.8-1.7,3.4-3,4.9-3.7c1.5-0.7,3.1-1.1,4.9-1.1c3.7,0,6.7,1.4,9.1,4.2
			c2.4,2.8,3.6,6.3,3.6,10.5c0,4.4-1.3,8-4,10.9c-2.7,2.9-6,4.3-10,4.3c-2.8,0-5.6-1.1-8.5-3.3v18.6c0,1.9,0.3,3.2,1,3.8
			c0.7,0.6,1.9,0.9,3.7,0.9v1.3h-15.1v-1.3c1.9,0,3.3-0.3,3.9-0.8c0.7-0.5,1-1.6,1-3.1V68.1c0-1.9-0.3-3.1-0.9-3.6s-1.9-0.8-4.1-0.8
			v-1.3l9-0.9H162.8z M162.8,68.3V86c2.2,2.3,4.8,3.5,7.8,3.5c2.5,0,4.6-1.2,6.3-3.5c1.7-2.4,2.6-5.3,2.6-8.8c0-3.8-0.9-6.9-2.6-9.4
			c-1.7-2.5-3.9-3.7-6.5-3.7C167.7,64.1,165.2,65.5,162.8,68.3"/>
		<path fill="#020000" d="M231.9,76.5c0,4.3-1.5,7.8-4.4,10.6c-2.9,2.8-6.6,4.3-11,4.3c-4.4,0-8.1-1.4-11-4.3
			c-2.9-2.8-4.4-6.4-4.4-10.6c0-4.3,1.5-7.9,4.4-10.7c2.9-2.8,6.6-4.3,11.1-4.3c4.4,0,8.1,1.4,11.1,4.3
			C230.4,68.6,231.9,72.2,231.9,76.5 M226,76.5c0-4-0.9-7.3-2.6-9.7c-1.7-2.5-4-3.7-7-3.7c-3,0-5.3,1.2-7,3.6
			c-1.7,2.4-2.6,5.7-2.6,9.8c0,4.1,0.8,7.3,2.5,9.7c1.7,2.4,4,3.6,7,3.6c3,0,5.3-1.2,7-3.7C225.1,83.7,226,80.5,226,76.5"/>
		<path fill="#020000" d="M241.5,61.5v5.6c3.3-3.8,6.7-5.6,10.2-5.6c2.7,0,5,0.9,6.8,2.8c1.8,1.9,2.7,4.3,2.7,7.3v12.7
			c0,1.9,0.3,3.2,1,3.9c0.6,0.6,1.9,0.9,3.8,0.9v1.3h-15.1v-1.3c1.9,0,3.1-0.2,3.8-0.7c0.7-0.5,1-1.4,1-2.8V70.9
			c0-2-0.6-3.5-1.8-4.7c-1.2-1.2-2.7-1.8-4.5-1.8c-2.6,0-5.3,1.8-8,5.5v13.8c0,2.3,0.3,3.8,0.9,4.5c0.6,0.6,1.9,1,3.8,1v1.3h-14.9
			v-1.3c2.2,0,3.5-0.3,4-1c0.5-0.7,0.7-2.2,0.7-4.4V67.8c0-1.7-0.3-2.8-0.9-3.3c-0.6-0.5-1.9-0.8-3.8-0.8v-1.3l8.8-0.9H241.5z"/>
		<path fill="#020000" d="M284.8,61.5v8.7h-1.6c-0.3-2.2-1-3.9-2.3-5.2c-1.3-1.3-2.9-1.9-4.7-1.9c-1.4,0-2.5,0.4-3.4,1.1
			c-0.9,0.7-1.3,1.6-1.3,2.8c0,1.1,0.4,2.1,1.2,3c0.8,0.9,2.5,1.9,5.2,3.1c3.4,1.6,5.7,3,6.8,4.5c1.1,1.4,1.7,3.1,1.7,5.1
			c0,2.4-0.9,4.4-2.6,6.1c-1.8,1.7-3.9,2.6-6.3,2.6c-1.2,0-2.9-0.5-4.9-1.4c-1.1-0.5-1.9-0.7-2.2-0.7c-0.5,0-0.9,0.2-1.2,0.5
			s-0.5,0.8-0.6,1.4H267v-9.6h1.4c0.5,2.5,1.6,4.5,3.3,6c1.7,1.5,3.6,2.2,5.8,2.2c1.4,0,2.6-0.5,3.5-1.4c0.9-0.9,1.4-2.1,1.4-3.5
			c0-1.3-0.4-2.5-1.3-3.4s-2.8-2.1-5.7-3.4c-3.3-1.4-5.4-2.8-6.5-4c-1-1.2-1.6-2.8-1.6-4.5c0-2.2,0.8-4.1,2.5-5.7
			c1.7-1.6,3.7-2.4,6.1-2.4c1.1,0,2.3,0.3,3.5,0.8c0.9,0.4,1.6,0.5,2.2,0.5c0.8,0,1.3-0.4,1.7-1.3H284.8z"/>
		<path fill="#F26F21" d="M180.8,41.9c0.2-2.7,1.3-5,1.3-5c-1.3,8.5,6.5,8.4,11.7,10.2c4,1.4,6.6,2.9,7.8,6.8c0,0,0,0,0,0v0
			c0.5,1.8,0.6,3.8-0.2,5.9c0-4.7-4.6-6.8-9.2-8.2c-0.2-0.1-0.4-0.1-0.5-0.2c-2.6-0.8-5.1-1.4-6.7-2.2c-0.6-0.3-1-0.6-1.4-0.9
			c-0.4-0.3-0.8-0.7-1.1-1.1C181,45.6,180.7,43.7,180.8,41.9"/>
		<path fill="#F26F21" d="M182,49.6c0.3,0.3,0.6,0.7,1,1c0.4,0.3,0.9,0.6,1.4,0.9c1.6,0.8,4,1.4,6.5,2.1c0.2,0.1,0.4,0.1,0.5,0.2
			c4.1,1.3,8.2,3.1,8.8,7c0.1,1.1-0.1,2.2-0.5,3.4c0-4.1-4-5.9-7.9-7.1c-0.2-0.1-0.3-0.1-0.5-0.1c-2.2-0.7-4.4-1.2-5.8-1.9
			c-0.5-0.2-0.9-0.5-1.2-0.8c-0.4-0.3-0.7-0.6-1-0.9C182.5,52.1,182.1,50.8,182,49.6"/>
		<path fill="#F26F21" d="M198.6,64.5c-0.3-1.8-1.5-3-3.2-3.9c-1.1-0.6-2.3-1-3.5-1.4c-0.1,0-0.3-0.1-0.4-0.1
			c-0.2-0.1-0.3-0.1-0.5-0.2c-0.3-0.1-0.7-0.2-1-0.3c-1.3-0.4-2.6-0.7-3.4-1.2c-0.4-0.2-0.7-0.4-1.1-0.7c-0.3-0.2-0.6-0.5-0.8-0.8
			c0.1,0.9,0.4,2.1,1.1,2.9c0.1,0.1,0.2,0.2,0.3,0.4c0.1,0.1,0.2,0.2,0.4,0.3c0.3,0.2,0.6,0.4,0.9,0.6c0.6,0.3,1.5,0.6,2.5,0.9
			c0.6,0.2,1.2,0.4,1.9,0.5c0.1,0,0.2,0.1,0.4,0.1c0.2,0.1,0.3,0.1,0.5,0.2c0.1,0,0.1,0,0.2,0.1c0.1,0,0.2,0.1,0.3,0.1
			c0.1,0,0.1,0.1,0.2,0.1c0.1,0,0.2,0.1,0.3,0.1c0.1,0,0.2,0.1,0.3,0.1c0.1,0,0.2,0.1,0.2,0.1c0.1,0,0.2,0.1,0.3,0.1
			c0.1,0,0.1,0.1,0.2,0.1c0.2,0.1,0.5,0.3,0.7,0.4c0.3,0.2,0.5,0.3,0.8,0.5c0,0,0,0,0,0c0.1,0.1,0.2,0.2,0.3,0.3c0,0,0,0,0,0
			c0.1,0.1,0.2,0.2,0.3,0.3h0c0.5,0.5,0.9,1.1,1.1,1.7c0.1,0.3,0.2,0.7,0.2,1.1C198.6,66.1,198.7,65.3,198.6,64.5"/>
		<path fill="#F26F21" d="M196.6,88.4c-0.7-0.5-1-1.6-1-3.1V67.4v-1.9c-0.2-0.2-0.4-0.3-0.7-0.4c-0.8-0.4-1.6-0.7-2.5-1
			c-0.1,0-0.2-0.1-0.3-0.1c-0.1,0-0.2-0.1-0.4-0.1c-0.2-0.1-0.5-0.1-0.7-0.2c-0.3-0.1-0.5-0.2-0.8-0.2c-0.6-0.2-1.2-0.4-1.7-0.6
			c-0.3-0.1-0.5-0.3-0.8-0.5c-0.2-0.2-0.4-0.4-0.6-0.5c0,0.7,0.3,1.5,0.8,2.1c0.1,0.1,0.2,0.2,0.3,0.3c0.1,0.1,0.2,0.2,0.3,0.2
			c0.2,0.2,0.4,0.3,0.7,0.4c0.3,0.1,0.6,0.3,1,0.4v20c0,1.6-0.3,2.6-1,3.1c-0.6,0.5-2.1,0.8-4.4,0.8v1.3h15.4v-1.3
			C198.5,89.2,197.3,88.9,196.6,88.4"/>
	</g>
</g>
</svg>
