<?xml version="1.0" encoding="utf-8"?>
<!-- Generator: Adobe Illustrator 18.1.1, SVG Export Plug-In . SVG Version: 6.00 Build 0)  -->
<svg version="1.1" id="sponsor-logo_inspirational-magazine"
	 xmlns="http://www.w3.org/2000/svg" xmlns:xlink="http://www.w3.org/1999/xlink" x="0px" y="0px" viewBox="-764 466 390 150"
	 enable-background="new -764 466 390 150" xml:space="preserve">
<g>
	<g>
		<path fill="#231F20" d="M-665.3,558.3h-4.2v-1.2c3.1,0,6-0.2,8.9-0.5l-1.4,5.3c2.6-3.5,5.3-5.3,8.3-5.3c3.1,0,4.8,1.5,4.8,4.3
			c0,0.3,0,0.7-0.1,1c2.4-3.5,5.1-5.3,8.3-5.3c3.1,0,4.9,1.5,4.9,3.9c0,0.8-0.1,1.6-0.3,2.3l-3.6,12.7c-0.1,0.4-0.2,0.8-0.2,1.3
			s0.4,0.9,1,0.9c2,0,3.8-2.2,5.7-6.6l1,0.5c-1.8,5.5-4.5,8.2-8.3,8.2c-2.1,0-3.4-1.2-3.4-3.2c0-0.9,0.2-1.8,0.6-3l3.2-11.1
			c0.3-1,0.4-1.8,0.4-2.2c0-1.1-0.8-1.8-2.2-1.8c-2.9,0-6.9,3.7-8.2,8.5l-3.2,12.1h-4.2l4.2-15.9c0.3-1.1,0.5-1.9,0.5-2.5
			c0-1.3-0.9-2.1-2.4-2.1c-3,0-6.8,3.8-8,8.1l-3.4,12.4h-4.1L-665.3,558.3z"/>
		<path fill="#231F20" d="M-622,562.4c-2.4,4.3-3.6,9-3.6,11.6c0,2.7,1.3,4.1,3.6,4.1c2.6,0,4.6-1.7,6.3-5c0.5-0.9,1.3-3.2,2.3-6.8
			c0.5-1.9,0.7-3.5,0.7-4.6c0-2.6-1.2-4-3.6-4C-618.6,557.8-620.3,559.4-622,562.4 M-622.7,579.5c-4.1,0-7.1-3.2-7.1-8.1
			c0-3.4,1.5-6.8,4.4-10c2.9-3.2,6-4.9,8.8-4.9c2.8,0,4.4,1.2,5,3.7l1-3.2h4l-4.4,15.2c-0.6,2-0.9,3.3-0.9,4s0.5,1.2,1,1.2
			c1.7,0,3.8-2.2,5.6-6.7l1.2,0.4c-2,5.5-4.9,8.4-8.2,8.4c-2.4,0-3.4-1.3-3.5-3.9C-617.6,578.2-620,579.5-622.7,579.5"/>
		<path fill="#231F20" d="M-594.9,567.9c0,1.4,1.1,2.6,3,2.6c2,0,3.3-0.7,4.1-2.3c1.3-2.5,2-5.5,2-7.1c0-2.1-1.2-3.3-3.3-3.3
			C-592.4,557.8-594.9,562.3-594.9,567.9 M-602,585c0,3,2.5,4.7,7,4.7c6.3,0,10.4-2.9,10.4-6.3c0-2.4-1.3-3.1-4.9-3.3l-2.6-0.2
			c-2.7-0.2-4.8-0.3-6.2-0.7C-600.7,580.6-602,582.9-602,585 M-598.9,565.2c0-4.5,4.2-8.7,9.3-8.7c3.6,0,5.8,1.4,7.3,4.4
			c1.1-3.3,2.3-5,4.1-5c1.3,0,2.2,0.9,2.2,2c0,1.3-0.8,2.1-1.9,2.1c-1.1,0-1.5-0.9-1.9-0.9c-1,0-1.1,1.9-1.9,4.4
			c-1.8,5.5-4.5,8.2-9.6,8.2c-1.9,0-3.5-0.4-4.9-1.4c-2,0.9-3,2-3,2.9c0,1.3,1.5,1.8,4.5,2l5.9,0.3c4.4,0.3,6.4,2.1,6.4,5.9
			c0,5.4-5.2,9.6-13.3,9.6c-6.1,0-9.9-2.5-9.9-6.2c0-2.7,1.9-4.4,5.9-6.3c-1.9-0.2-3-1.5-3-3.2c0-2.1,1.8-4.3,5.4-6
			C-598.3,568.2-598.9,566.9-598.9,565.2"/>
		<path fill="#231F20" d="M-570.2,562.4c-2.4,4.3-3.6,9-3.6,11.6c0,2.7,1.3,4.1,3.6,4.1c2.6,0,4.6-1.7,6.3-5
			c0.5-0.9,1.3-3.2,2.3-6.8c0.5-1.9,0.7-3.5,0.7-4.6c0-2.6-1.2-4-3.6-4C-566.8,557.8-568.5,559.4-570.2,562.4 M-571,579.5
			c-4.1,0-7.1-3.2-7.1-8.1c0-3.4,1.5-6.8,4.4-10c2.9-3.2,6-4.9,8.8-4.9c2.8,0,4.4,1.2,5,3.7l1-3.2h4l-4.4,15.2c-0.6,2-0.9,3.3-0.9,4
			s0.5,1.2,1,1.2c1.7,0,3.8-2.2,5.6-6.7l1.2,0.4c-2,5.5-4.9,8.4-8.2,8.4c-2.4,0-3.4-1.3-3.5-3.9C-565.8,578.2-568.2,579.5-571,579.5
			"/>
		<path fill="#231F20" d="M-550.7,577.2c0,1.5-0.5,2.3-1.3,2.3s-1.1-0.3-1.1-1.2c0-0.9,0.6-1.7,1.7-2.8l14.7-14.5
			c-2.1,0.2-3.9,0.3-5.4,0.3c-1.6,0-2.9-0.3-4.1-0.9l-1.8,3.2l-1.1-0.6l3.7-6.5c3.5,1.3,6.5,2,9.2,2c0.6,0,1.3-0.1,1.8-0.1
			c0.1-1.2,0.6-1.7,1.4-1.7c0.5,0,0.9,0.3,0.9,1c0,0.8-0.9,2.1-2.8,3.8l-13,12.7c4.9,0.5,7.7,2.6,9.5,2.6c1.2,0,1.9-0.5,1.9-1
			c0-1.2-2.6-0.1-2.6-2.4c0-1,0.7-1.7,1.8-1.7c1.3,0,2.3,1.1,2.3,3.2c0,2.7-2.5,4.8-6.3,4.8c-2.4,0-4.1-0.6-5.6-1.1l-4-1.5v0.1
			H-550.7z"/>
		<path fill="#231F20" d="M-522.2,545.4c1.5,0,2.6,1.1,2.6,2.6s-1.1,2.7-2.6,2.7s-2.7-1.2-2.7-2.7
			C-524.9,546.6-523.7,545.4-522.2,545.4 M-525.4,558.3h-4.2v-1.2c3.3,0,6.3-0.2,9-0.5l-5.3,18.8c-0.1,0.2-0.1,0.5-0.1,0.7
			c0,0.7,0.6,1.3,1.4,1.3c1.7,0,4-2.2,5.8-6.5l1.1,0.5c-1.9,5.3-5.5,8.2-8.7,8.2c-2.1,0-3.6-1.3-3.6-3.4c0-0.6,0.2-1.5,0.5-2.8
			L-525.4,558.3z"/>
		<path fill="#231F20" d="M-514.8,578.9l5.4-20.6h-4.2v-1.2c3.3,0,6.2-0.1,8.9-0.5l-1.4,5.3c2.5-3.6,5.3-5.4,8.5-5.4
			c3.3,0,5.3,1.6,5.3,4.1c0,0.8-0.2,1.7-0.4,2.5l-3.7,12.6c-0.1,0.4-0.2,0.6-0.2,0.8c0,0.6,0.5,1,1.1,1c2,0,3.8-2.2,5.7-6.6l1.1,0.5
			c-2.1,5.5-4.5,8.2-8.3,8.2c-2.4,0-3.7-1.3-3.7-3c0-0.5,0.1-1.4,0.4-2.4l3.4-11.8c0.2-0.9,0.3-1.6,0.3-1.9c0-1.5-0.7-2.2-2.4-2.2
			c-3.1,0-7.1,3.6-8.6,9.3l-3,11.4L-514.8,578.9L-514.8,578.9z"/>
		<path fill="#231F20" d="M-480.3,566.7c5.7,0,8.8-2.5,8.8-6.3c0-1.7-0.9-2.6-2.6-2.6c-2.5,0-4.8,3-6.8,8.8h0.6V566.7z
			 M-482.3,573.1c0,3.3,1.7,5.1,4.8,5.1c2.8,0,5.6-2,7.3-5.6l1.2,0.7c-2,4.1-5.3,6.3-9,6.3c-4.9,0-8.6-3.6-8.6-9.1
			c0-3,1.1-5.9,3.4-8.6c3-3.6,6.5-5.4,10.4-5.4c3.3,0,5.4,1.9,5.4,4.5c0,4.1-4.8,7-13.5,7h-0.5
			C-481.9,570.1-482.3,571.8-482.3,573.1"/>
		<path fill="#231F20" d="M-699.7,535.4V526h1.3c1.3,5.6,4.2,8.5,8.3,8.5c4.3,0,7.3-2.7,7.3-6.8c0-2.9-1.7-4.6-5.6-5.7l-3-0.9
			c-5.6-1.6-8.2-4.4-8.2-9.5c0-5.4,3.4-8.9,8.6-8.9c2.6,0,4.6,0.6,6.6,2.3l1.8-1.9h0.7v8.9h-1.1c-1.3-5.3-4.2-8-8.1-8
			c-3.6,0-6.2,2.3-6.2,5.4c0,2.9,2,3.8,5.5,4.8l3.4,0.9c5.4,1.5,8.1,4.4,8.1,10c0,6.2-3.8,10.7-9.7,10.7c-2.7,0-4.8-0.8-7.1-2.4
			l-1.8,2H-699.7z"/>
		<path fill="#231F20" d="M-661.7,519.5c5.9,0,8-2,8-7.7c0-5.8-2-7.1-6.8-7.1h-3.9v14.8H-661.7z M-675.2,535v-1.2h4.6v-29.1h-4.6
			v-1.2h15.6c8.4,0,12.6,2.9,12.6,8.7c0,5.8-4.3,8.5-13.2,8.5h-4.2V534h4.9v1H-675.2z"/>
	</g>
	<polygon fill="#231F20" points="-643.8,535 -643.8,533.9 -639.1,533.9 -639.1,504.7 -643.8,504.7 -643.8,503.5 -628.4,503.5 
		-628.4,504.7 -633,504.7 -633,533.9 -628.4,533.9 -628.4,535 	"/>
	<g>
		<path fill="#231F20" d="M-612.1,517.5c5.2,0,7.3-1.7,7.3-6.4c0-5.3-1.7-6.4-6.3-6.4h-3.6v12.8
			C-614.7,517.5-612.1,517.5-612.1,517.5z M-625.3,535v-1.2h4.6v-29.1h-4.6v-1.2h15.6c7.7,0,11.4,1.9,11.4,7.3
			c0,4.1-3.1,6.4-9.6,7.4v0.4c6.1,1.1,8.6,3.7,8.6,9.8v2c0,2.7,0.7,3.7,3.3,3.7c0.3,0,0.9-0.1,1.4-0.3v1.3c-0.9,0.2-1.8,0.4-2.6,0.4
			c-6.4,0-8.5-2-8.7-7.3l-0.1-3c-0.2-5.1-1.7-6.5-8.6-6.7v15.2h4.6v1.3H-625.3z"/>
	</g>
	<path fill="#231F20" d="M-574.8,524.3l-4.5-12.8h-0.5l-4.5,12.8H-574.8z M-576.3,533.9h4.8l-2.9-8.3h-10.4l-2.8,8.3h4.9v1.1h-10.1
		v-1.2h3.8l10.9-31.1h1.6l11.2,31.1h3.8v1.2h-14.8V533.9z"/>
	<g>
		<path fill="#231F20" d="M-533.3,513.5h-1.4c-1.2-6.7-3-9-8.1-9c-0.5,0-1,0-1.5,0v29.3h5.1v1.2h-16.3v-1.2h5.1v-29.2h-1.6
			c-5.1,0-6.8,2-8.1,9h-1.4l0.4-10h27.3L-533.3,513.5z"/>
	</g>
	<polygon fill="#231F20" points="-530.2,535 -530.2,533.9 -525.6,533.9 -525.6,504.7 -530.2,504.7 -530.2,503.5 -514.9,503.5 
		-514.9,504.7 -519.5,504.7 -519.5,533.9 -514.9,533.9 -514.9,535 	"/>
	<g>
		<path fill="#231F20" d="M-496.4,534.6c5.6,0,7.7-3.5,7.7-11.4v-7.8c0-8-2.1-11.4-7.7-11.4s-7.7,3.5-7.7,11.4v7.8
			C-504.1,531.2-501.9,534.6-496.4,534.6 M-496.3,502.8c8.2,0,14.4,7,14.4,16.5s-6.2,16.5-14.4,16.5c-8.3,0-14.5-7-14.5-16.5
			S-504.6,502.8-496.3,502.8"/>
	</g>
	<polygon fill="#231F20" points="-452.3,524.5 -452.3,504.7 -456.9,504.7 -456.9,503.5 -446.4,503.5 -446.4,504.7 -450.9,504.7 
		-450.9,535.6 -452.7,535.6 -472.1,505.4 -472.5,505.4 -472.5,533.9 -467.9,533.9 -467.9,535 -478.4,535 -478.4,533.9 -473.8,533.9 
		-473.8,504.7 -478.4,504.7 -478.4,503.5 -466.3,503.5 -452.7,524.5 	"/>
	<path fill="#231F20" d="M-427.5,524.3l-4.5-12.8h-0.5l-4.5,12.8H-427.5z M-429,533.9h4.8l-2.9-8.3h-10.4l-2.8,8.3h4.9v1.1h-10.1
		v-1.2h3.8l10.9-31.1h1.6l11.2,31.2h3.8v1.1H-429V533.9z"/>
	<g>
		<path fill="#231F20" d="M-412.8,535v-1.2h4.6v-29.1h-4.6v-1.2h15.3v1.2h-4.6v29.2h4.9c6.3,0,8.7-2.6,9.5-9.7h1.2l-0.3,10.8H-412.8
			z"/>
	</g>
	<polygon fill="#231F20" points="-705.7,524.6 -705.7,504.7 -710.3,504.7 -710.3,503.5 -699.8,503.5 -699.8,504.7 -704.4,504.7 
		-704.4,535.6 -706.1,535.6 -725.5,505.5 -725.9,505.5 -725.9,533.9 -721.3,533.9 -721.3,535.1 -731.8,535.1 -731.8,533.9 
		-727.2,533.9 -727.2,504.7 -731.8,504.7 -731.8,503.5 -719.7,503.5 -706.2,524.6 	"/>
	<polygon fill="#231F20" points="-751.5,535.1 -751.5,533.9 -746.9,533.9 -746.9,504.7 -751.5,504.7 -751.5,503.5 -736.2,503.5 
		-736.2,504.7 -740.8,504.7 -740.8,533.9 -736.2,533.9 -736.2,535.1 	"/>
</g>
</svg>
