<?xml version="1.0" encoding="utf-8"?>
<!-- Generator: Adobe Illustrator 18.1.1, SVG Export Plug-In . SVG Version: 6.00 Build 0)  -->
<svg version="1.1" id="Layer_13" xmlns="http://www.w3.org/2000/svg" xmlns:xlink="http://www.w3.org/1999/xlink" x="0px" y="0px"
	 viewBox="-764 466 390 150" enable-background="new -764 466 390 150" xml:space="preserve">
<g>
	<path fill="#FFFFFF" d="M-522.9,541c0,35.9-20.6,65-46.1,65s-46.1-29.1-46.1-65s20.6-65,46.1-65S-522.9,505.1-522.9,541"/>
</g>
<path fill="#D2232A" d="M-598,579.8c0-0.7,0-0.7-0.7-0.8v-0.2h2c1.3,0,2.3,0.4,2.3,2.4c0,2.2-1.2,2.4-2.6,2.4h-1V579.8
	 M-597.2,582.8c0,0.3,0,0.5,0.5,0.5c1.3,0,1.6-0.6,1.6-2c0-1.2-0.1-2-1.5-2c-0.4,0-0.6,0-0.6,0.4V582.8z"/>
<path fill="#D2232A" d="M-592.4,579.8c0-0.1,0.1-0.4,0.1-0.4c0-0.3-0.3-0.3-0.5-0.3v-0.2h1.3l1.7,4.8h-0.7l-0.5-1.5h-1.8l-0.5,1.5
	h-0.4L-592.4,579.8 M-592.7,581.8h1.6l-0.8-2.1L-592.7,581.8z"/>
<path fill="#D2232A" d="M-588.8,579.8c0-0.6,0-0.6-0.7-0.7V579l1.5-0.2v4c0,0.5,0,0.5,0.5,0.5h0.6c0.4,0,0.8,0,0.8-0.7h0.2v1h-2.9
	V579.8"/>
<path fill="#D2232A" d="M-584.7,579.8c0-0.6,0-0.6-0.7-0.7V579l1.5-0.2v4c0,0.5,0,0.5,0.5,0.5h0.6c0.4,0,0.8,0,0.8-0.7h0.2v1h-2.9
	L-584.7,579.8"/>
<path fill="#D2232A" d="M-579.8,579.8c0-0.1,0.1-0.4,0.1-0.4c0-0.3-0.3-0.3-0.5-0.3v-0.2h1.3l1.7,4.8h-0.7l-0.5-1.5h-1.8l-0.5,1.5
	h-0.4L-579.8,579.8 M-580.1,581.8h1.6l-0.8-2.1L-580.1,581.8z"/>
<path fill="#D2232A" d="M-573.8,579.5c-0.2-0.1-0.7-0.3-1.3-0.3c-0.4,0-0.7,0.2-0.7,0.7c0,1.1,2.3,1,2.3,2.5c0,1-0.8,1.4-1.8,1.4
	c-0.5,0-1.1-0.1-1.2-0.2V583c0.2,0.1,0.8,0.4,1.3,0.4c0.4,0,0.9-0.2,0.9-0.8c0-1.1-2.3-1-2.3-2.5c0-0.8,0.6-1.2,1.6-1.2
	c0.5,0,0.9,0.1,1.1,0.1v0.5"/>
<path fill="#D2232A" d="M-569.8,579.8c0-0.7,0-0.7-0.7-0.8v-0.2h2.1c0.8,0,1.7,0.2,1.7,1.1c0,0.7-0.5,1-0.8,1.1l0,0
	c0.5,0.1,1.1,0.4,1.1,1.3c0,1.3-1.4,1.3-2,1.3h-1.3L-569.8,579.8 M-569,581h0.5c0.6,0,1.1-0.2,1.1-0.9c0-0.6-0.4-0.8-1-0.8
	c-0.4,0-0.5,0-0.5,0.4L-569,581L-569,581z M-569,583c0,0.3,0.3,0.3,0.7,0.3c0.8,0,1.1-0.3,1.1-1.1c0-0.7-0.5-0.9-1.1-0.9h-0.7V583z"
	/>
<path fill="#D2232A" d="M-561.9,581.8c0,0.9-0.1,1.9-1.7,1.9c-1.2,0-1.7-0.6-1.7-1.6v-2.3c0-0.6,0-0.6-0.7-0.7V579l1.5-0.2v2.9
	c0,0.8,0,1.7,1,1.7c1.1,0,1.1-0.8,1.1-1.5v-3h0.5L-561.9,581.8"/>
<path fill="#D2232A" d="M-560.4,579.8c0-0.7,0-0.7-0.7-0.8v-0.2h1.7c0.5,0,2,0,2,1.3c0,0.8-0.5,1.1-1.1,1.2l1.3,2.3h-0.8l-1.2-2.2
	h-0.4v2.2h-0.8V579.8 M-559.6,581.1h0.4c0.5,0,1.1-0.1,1.1-0.9s-0.4-1-1-1c-0.5,0-0.5,0.1-0.5,0.6V581.1z"/>
<path fill="#D2232A" d="M-553.7,579.5c-0.2-0.1-0.7-0.3-1.3-0.3c-0.4,0-0.7,0.2-0.7,0.7c0,1.1,2.3,1,2.3,2.5c0,1-0.8,1.4-1.8,1.4
	c-0.5,0-1.1-0.1-1.2-0.2V583c0.2,0.1,0.8,0.4,1.3,0.4c0.4,0,0.9-0.2,0.9-0.8c0-1.1-2.3-1-2.3-2.5c0-0.8,0.6-1.2,1.6-1.2
	c0.5,0,0.9,0.1,1.1,0.1L-553.7,579.5"/>
<path fill="#D2232A" d="M-551.4,579.2h-0.5c-0.6,0-0.7,0.2-0.8,0.7h-0.2v-1h3.6v1h-0.2c0-0.5-0.2-0.7-0.8-0.7h-0.5v4.4h-0.8v-4.4"/>
<path fill="#D2232A" d="M-548.7,581.3c0-1.5,0.4-2.5,2-2.5c1.5,0,1.9,1,1.9,2.5s-0.4,2.4-1.9,2.4S-548.7,582.8-548.7,581.3
	 M-546.7,583.4c1.1,0,1.1-1.2,1.1-2.1c0-0.9-0.1-2.1-1.1-2.1c-1.1,0-1.2,1.2-1.2,2.1C-547.9,582.2-547.8,583.4-546.7,583.4z"/>
<path fill="#D2232A" d="M-543.5,579.8c0-0.7-0.1-0.6-0.7-0.7v-0.2h1.5l2.2,3.8l0,0v-3.8h0.4v4.8h-0.7l-2.3-4l0,0v4h-0.4V579.8"/>
<path fill="#D2232A" d="M-587.4,586.8c0-0.7,0-0.7-0.7-0.8v-0.2h2.2c0.9,0,1.4,0.5,1.4,1.3c0,1.3-1.1,1.3-1.9,1.3h-0.2v2.1h-0.8
	V586.8 M-586.6,588.2h0.4c0.6,0,1-0.2,1-1s-0.4-0.9-1-0.9c-0.4,0-0.4,0.1-0.4,0.4V588.2z"/>
<path fill="#D2232A" d="M-583.6,588.3c0-1.5,0.4-2.5,2-2.5c1.5,0,1.9,1,1.9,2.5s-0.4,2.4-1.9,2.4S-583.6,589.8-583.6,588.3
	 M-581.7,590.4c1.1,0,1.1-1.2,1.1-2.1c0-0.9-0.1-2.1-1.1-2.1c-1.1,0-1.2,1.2-1.2,2.1C-582.8,589.1-582.7,590.4-581.7,590.4z"/>
<path fill="#D2232A" d="M-578.4,586.8c0-0.6,0-0.6-0.7-0.7V586l1.5-0.2v4c0,0.5,0,0.5,0.5,0.5h0.6c0.4,0,0.8,0,0.8-0.7h0.2v1h-2.9
	L-578.4,586.8"/>
<path fill="#D2232A" d="M-574.7,588.3c0-1.5,0.4-2.5,2-2.5c1.5,0,1.9,1,1.9,2.5s-0.4,2.4-1.9,2.4S-574.7,589.8-574.7,588.3
	 M-572.7,590.4c1.1,0,1.1-1.2,1.1-2.1c0-0.9-0.1-2.1-1.1-2.1c-1.1,0-1.2,1.2-1.2,2.1C-573.9,589.1-573.8,590.4-572.7,590.4z"/>
<path fill="#D2232A" d="M-563.9,590.4c-0.2,0.1-0.7,0.3-1.4,0.3c-1.4,0-2-0.9-2-2.5c0-1.3,0.4-2.4,2-2.4c1.1,0,1.5,0.5,1.6,1h-0.8
	c0-0.2-0.2-0.7-0.8-0.7c-1,0-1.1,1.2-1.1,1.9c0,0.8,0.1,2.3,1.4,2.3c0.6,0,1-0.2,1.2-0.4v0.5"/>
<path fill="#D2232A" d="M-562.7,586.8c0-0.6,0-0.6-0.7-0.7V586l1.5-0.2v4c0,0.5,0,0.5,0.5,0.5h0.6c0.4,0,0.8,0,0.8-0.7h0.2v1h-2.9
	L-562.7,586.8"/>
<path fill="#D2232A" d="M-555.2,588.8c0,0.9-0.1,1.9-1.7,1.9c-1.2,0-1.7-0.6-1.7-1.6v-2.3c0-0.6,0-0.6-0.7-0.7V586l1.5-0.2v2.9
	c0,0.8,0,1.7,1,1.7c1.1,0,1.1-0.8,1.1-1.5v-3h0.5L-555.2,588.8"/>
<path fill="#D2232A" d="M-553.7,586.8c0-0.7,0-0.7-0.7-0.8v-0.2h2.1c0.8,0,1.7,0.2,1.7,1.1c0,0.7-0.5,1-0.8,1.1l0,0
	c0.5,0.1,1.1,0.4,1.1,1.3c0,1.3-1.4,1.3-2,1.3h-1.3v-3.8 M-552.9,587.9h0.5c0.6,0,1.1-0.2,1.1-0.9c0-0.6-0.4-0.8-1-0.8
	c-0.4,0-0.5,0-0.5,0.4v1.3H-552.9z M-552.9,590c0,0.3,0.3,0.3,0.7,0.3c0.8,0,1.1-0.3,1.1-1.1c0-0.7-0.5-0.9-1.1-0.9h-0.6v1.7H-552.9
	z"/>
<path fill="#BBBDC0" d="M-567.2,510.4c0,0-0.1,0.1-0.1,0.4c0,0.1-0.3,0.6-0.4,1c-0.1,0.4,0.2,1.4,0.2,1.4s-1.8-1.3-2.1-1.4
	c-0.2-0.1-0.5-0.2-0.5-0.2s-0.8-0.5-1.3-0.6c-0.6-0.1-1.4-0.2-1.5-0.3c-0.1-0.1-0.6-0.8-0.6-0.8s-0.2-0.2-0.3-0.1
	c-0.1,0.1-0.8,0.4-0.8,0.4s-0.2-0.2-0.1-0.4c0.1-0.2-0.1-0.5-0.1-0.5s0.1-0.2,0.1-0.3c-0.1-0.4-1-2.2-2.7-2.7
	c-1.6-0.4-3.1,0-4.1,1.6c-0.9,1.6-0.1,3.1-0.1,3.2s-1.4,1-1.1,1.3c0.3,0.3,2.1-0.4,2.1-0.4s0.1,0.1,0,0.3c0,0.3-0.3,0.9,0,1
	c0.2,0,0.2,0,0.4,0c0.3,0,0.2,0.1,0.3,0.3c0,0.2,0.3,0.2,0.3,0.2s0,0.2,0.1,0.3c0.1,0,0.3,0.1,0.4,0.3c0,0.1,0.1,0.5,0.4,0.5
	c0.4,0,1-0.6,1-0.6s0.1,0,0.3,0c0.1,0,0.3-0.2,0.3-0.2l0.2,0.1c0,0-0.1,0.5-0.1,0.6c0,0.1,0.3,0.1,0.3,0.1s0,0.7,0.1,1
	c0.1,0.4,0.5,0.7,0.6,0.8c0.1,0.2,0.3,0.8,0.5,1.2c0.2,0.4,1,1.7,1.2,1.9c0.2,0.3,1.2,2.2,1.4,2.5c0.2,0.3,0.4,0.4,0.5,0.6
	c0.1,0.2,0.4,0.9,0.6,1.1c0.1,0.2,0.4,0.5,0.4,0.5s0,0.4-0.2,0.6c-0.2,0.2-0.6,0.4-0.7,0.6s-0.3,0.6-0.4,0.6
	c-0.1,0.1-0.2,0.3-0.2,0.4c0,0.1,0,0.2-0.1,0.2c-0.1,0-0.3,0.3-0.4,0.4c-0.1,0.1-0.2,0.4-0.2,0.5c0,0-0.2,0.2-0.5,0.4
	c-0.7-1.3-1.5-3.2-1.9-3.9c-0.5-1.2-2.3-3.5-2.4-3.7c-0.2-0.1-0.2-0.5-0.1-0.8c0.2-0.3,0.8-1.2,0.9-1.8c0.1-0.6,0-1,0-1.4
	c0-0.3-0.6,0.5-0.8,0.8c-0.2,0.3-1.7,1.5-1.7,1.5s-0.2,0-0.5-0.1c-0.2,0-0.7-0.1-0.7-0.1s-0.4-1.7-0.6-2s-0.8,0.9-1,1.2
	c-0.3,0.3-0.4,1.9-0.4,1.9l-0.5,0.4c0,0-0.6,0.2-0.7,0.3c-0.1,0.1,0,0.5,0,0.5s-0.5,0.5-0.7,0.8s-0.9,0.9-1.2,1.1
	c-0.2,0.2-0.3,0.6-0.3,0.9s0,0.9,0,0.9l-1.7,2.6c0,0-0.3,0.1-0.4,0.2c-0.1,0.1,0,0.4,0,0.4s-0.4,1.1-0.5,1.2
	c-0.1,0.2-0.4,0.6-0.7,0.9s-0.1,1.8-0.1,2.1c0,0.3-0.1,0.5-0.1,1s1,0.4,1.3,0.5c0.3,0.1,0.3,0.1,0.6,0.2c0.2,0.2,0.5,0.1,0.6,0.1
	c0.1,0,1.4-0.1,1.7-0.1l0,0c0.1,0.2,0.1,0.3,0.2,0.5l0,0c-0.1,0.1-0.1,0.2-0.1,0.3c0,0.1,0,0.2,0.1,0.2c0,0.9,0.2,2.4,0.3,2.9
	c0.3,3.2,1.8,5.2,2.7,5.7c0.7,0.4,1.5,0.6,1.9,0.7c-0.1,0.6-0.1,1.2,0,1.8c0.3,1.7,1.2,2.7,1.2,2.9s-2.1,3-2.6,3.6
	c-0.4,0.6-2.6,2.7-3,3c-0.4,0.4-0.3,1.1-0.3,1.1s-0.2,0.6-0.1,1.2c0,0.6,0.6,1.1,0.6,1.3c0.1,0.2-0.2,0.4-0.2,0.8
	c0,0.4,0.8,1.9,1,2.7c0.2,0.8,0.7,3,1.1,3.4c0.2,0.2,1,0.1,1.3,0.2c0.3,0.1,0.7,0.9,0.9,1.3c0.1,0.3,0.6,0.3,0.7,0.4
	c0.1,0.1,0.4,0.2,0.4,0.2s0.7,0.8,1.2,0.9c1.1,0.3,1.6-0.8,1.4-2.1c-0.2-1.4-0.8-1.7-1-1.7c-0.2-0.1-0.8-0.1-0.8-0.1
	s-0.3-0.2-0.4-0.2c-0.3-0.2-0.7,0-0.8,0c-0.1,0-0.4-0.3-0.4-0.4c0-0.1,0.1-0.5-0.2-1.3c-0.2-0.5-0.6-0.5-0.8-0.9
	c-0.3-0.4-1.2-3.1-1.4-3.3c-0.1-0.2-0.3-0.6-0.3-1c0-0.4,0.4-1.3,0.7-1.4c0.2-0.1,0.5-0.4,1.1-0.7c0.5-0.3,1.2-0.5,1.8-0.7
	c0.7-0.3,1.4-0.9,2.1-1.3c0.4-0.2,0.8-0.3,1.1-0.3c0.4,0.6,1,1.5,2,1.9c0.6,0.3,1.1,0.3,1.5,0.2c-0.3,1.1-0.7,2.3-1,2.6
	c-0.4,0.7-2,3.8-2.2,4.1s0.1,0.9,0.2,1.1c0.1,0.2,0.2,0.9,0.4,1.2s2.7,1.1,3.3,1.4c0.6,0.3,1.2,0.6,1.4,0.8c0.2,0.3,1,0.3,1.5,0.3
	c0.5,0.1,1-0.1,1.1-0.2c0.1-0.1,0.5-0.2,0.8-0.3c0.3,0,1,0.3,1.1,0.4s0.5,0,0.5,0s1.4,0.5,1.7,0.5s0.4-1,0.3-1.6
	c-0.2-1.1-0.6-1.4-0.8-1.5c-0.1-0.1-0.5-0.1-0.5-0.1s-0.3-0.2-0.4-0.2c-0.2-0.1-0.6-0.1-0.9-0.1c-0.3,0-0.5,0.4-0.7,0.5
	s-1.1-0.2-1.1-0.2s-0.3-0.1-0.4-0.3c-0.1-0.2-0.8-0.3-0.8-0.3s0-0.2,0-0.3c-0.1-0.1-0.4-0.2-0.5-0.2c0,0.1,0,0.2,0,0.2l-1-0.3v-0.2
	c0-0.1-0.5-0.2-0.5-0.2c0,0.1,0,0.2,0,0.2s-0.9-0.3-1-0.2c-0.1,0-0.2,0.2-0.4,0.2c-0.2,0-0.3-0.6-0.2-0.8c0-0.2,4.9-6.7,5.1-7.1
	c0.2-0.3,0.5-0.7,1-0.9c0.5-0.2,0.7-0.7,0.8-0.8c0.2-0.1,2.2,0,4.8-0.8c0.1,0,0.1,4.4,0.2,5.1c0.1,0.7,0.5,1.5,0.6,2.1
	c0.1,0.6-0.4,4.6-0.6,5.1s-3.7,6.4-3.8,6.7c-0.2,0.3-2,1.6-2.3,1.8s-0.3,0.5-0.3,0.5s-1.5,1.5-1.1,2c0.1,0.2,3.2,0.2,3.9-0.1
	c0.2-0.1,0.5-0.7,0.5-0.7s0.3-0.1,0.3-0.2c0.1-0.3-0.2-0.6-0.2-0.8c0-0.1,0.6-0.1,1.1-0.4c0.4-0.2,2.3-4.2,2.3-4.2s1.8-0.4,2.5-1.1
	c0.1-0.1,0-0.8,0-1.1c0-0.2,0.1-0.2,0.1-0.4s-0.4-0.2-0.4-0.6c0-0.4,0.3-0.4,0.6-0.5c0.3-0.1,0.7-0.6,0.8-0.9
	c0.3-0.5,2.9-2.4,3.3-2.7c0.4-0.3,2.4-1.6,2.8-1.7c0.4-0.1,0.4-0.3,0.7-0.9c0.4-0.6,0.4-0.9,0.2-1.5c-0.2-0.6,0.5-3.3,0.6-4.6
	c0.1-1.3,2-3,2.8-3.7c0.9-0.9,1.8-1.9,3.5-5c0.7-1.3,0.5-3.2-0.2-5c0.2,0.2,0.5,0.4,0.8,0.7c0.3,0.2,1,0.4,1,0.4s0.2,0.4,0.6,0.7
	c0,0.1-0.2,0.4,0,1.1c0.1,0.5,0.8,1,0.8,1s0,0.5,0.3,1c0.4,0.5,0.8,0.7,0.9,0.7c0,0,0.2,0.7,0.7,0.5c0.5-0.1,0.5-0.5,0.3-0.9
	c-0.1-0.4,0.4-0.5,0.2-1.1c-0.1-0.6-0.5-0.9-0.5-0.9s0.2-0.6-0.2-1c-0.4-0.4-0.9-0.6-1.2-0.7c-0.3-0.2-0.6-0.7-0.6-0.7
	s0.2-0.6-0.2-1.1c-0.4-0.4-1.4-0.6-1.4-0.6s-0.8-0.4-1-0.8c-0.3-0.8-0.6-1.3-1.6-1.4c-0.4,0-0.7-0.1-0.9-0.1c-0.9-1-1.9-1.7-2.6-2.4
	c-2.3-2.4-3.7-1.4-4.6-1.7c-2.1-0.8-4.4,0.1-4.4,0.1s0.1-0.2,0-0.5c-0.2-0.4-0.4-0.6-0.4-0.6s0.6-1-0.5-1.8
	c-1.2-0.8-3.5,1.4-4.4,1.9c0.1-0.2,1.1-1.9,0.9-4.5c-0.1-1.7-1.1-2.6-1.2-2.7c-0.1-0.1-0.2-1.1-0.2-1.1s-0.1-0.1-0.2-0.1
	c0,0,0-0.4-0.1-0.6c0-0.2-0.3-0.8-0.4-1c-0.1-0.1-0.5-0.6-0.6-1s-0.8-1.1-0.9-1.3c-0.2-0.2-0.7-0.7-0.8-0.9
	c-0.1-0.2-0.2-1.4-0.2-1.4s0.5,0.3,0.7,0.3s0.4,0,0.5,0c0.1,0,0.3,0.1,0.5-0.1c0.1-0.2,0.5-0.5,0.4-1.1c-0.1-0.6-0.3-1.3-0.5-1.5
	s-0.4-0.4-0.5-0.5c-0.1-0.1-0.1-0.3-0.1-0.3c0-0.1,0.1-0.1,0.2-0.1c0.2-0.2,0.3-0.6,0.3-0.9c0.1-0.3,0.1-0.4,0-0.5
	c-0.1-0.1-0.1-0.2-0.1-0.4c0-0.2,0-0.2-0.1-0.3c-0.1,0-0.2-0.1-0.2-0.1s0.2-0.5,0.2-0.6c0-0.1-0.2-0.3-0.3-0.3s-0.3,0-0.3,0
	s0.1-0.7,0.1-0.9c0-0.2-0.1-0.5-0.2-0.6c-0.1-0.1-0.3,0-0.3,0s-0.4-0.8-0.6-1.4 M-582.8,531c0.6-0.3,0.9-0.7,0.9-0.7
	s0.4-0.2,0.5-0.1c0,0,0.1,0.3,0.1,0.8c-0.6,0.2-1.8,0.4-2.5,0.4C-583.4,531.3-583,531.1-582.8,531z M-584.4,532
	c0.8,0,2.4-0.4,3.2-0.6c0,0.2,0,0.4,0.1,0.5c-0.6,0.2-1.7,0.5-2.3,0.7c-0.1-0.1-0.3-0.2-0.5-0.2c-0.2,0-0.4,0.1-0.5,0.3
	C-584.4,532.5-584.4,532.3-584.4,532z M-584.4,532.9c0-0.2,0.2-0.4,0.5-0.4c0.1,0,0.2,0.1,0.3,0.1c-0.2,0,0,0.5,0.1,0.5
	c-0.1,0.2-0.2,0.3-0.4,0.3c-0.1,0-0.3-0.1-0.3-0.2c0.1,0,0.2-0.1,0.2-0.2C-584.1,533-584.2,532.9-584.4,532.9z M-585.6,534
	c-0.1-0.1-0.2-0.2-0.2-0.4c0.2-0.1,0.4-0.4,0.4-0.6c0.1-0.3,0.3-1,0.3-1l0,0c0.1,0.9,0.2,1.7,0.1,2c-0.1,0-0.2,0-0.3,0
	C-585.3,534-585.5,534-585.6,534z M-580,539.4c0,0.1-0.1,0.5-0.2,0.9c-0.1,0.1-0.3,0.3-0.4,0.6c0,0.3,0,0.4,0.1,0.6
	c0,0.1,0,0.2,0,0.2s-0.2,0.7-0.4,1.6c-0.4,0-1.4-0.1-2.3-0.6c-0.4-0.3-1.2-1.8-1.7-3.4c-0.4-1.6-0.1-3.9-0.1-4.4
	c0.2-0.1,0.4-0.2,0.4-0.4c0-0.1-0.1-0.3-0.2-0.3c0.1-0.5,0-1.5-0.1-2.2h0.1c0,0.5,0,1.4,0.2,1.4c0,0,0.1,0,0.2,0
	c0.1,0.2,0.3,0.3,0.5,0.3c0.3,0,0.5-0.2,0.6-0.4c0.7-0.2,1.6-0.5,2.3-0.8c0.1,0.6,0.2,1.3,0.3,2C-580.5,536.4-580,538.5-580,539.4z
	 M-569.9,526.5c0.3,0.1,0.7,0.9,0.7,0.9l-0.4,0.3c0,0-0.1-0.2-0.3-0.4c-0.1-0.1-0.3-0.3-0.3-0.3L-569.9,526.5z M-572.6,527.9
	c0,0,0.1,0.2,0.3,0.2s0.5-0.1,0.5-0.1s0.1,0.1,0.3,0c0.1,0,0.3-0.1,0.3-0.1s0,0.1,0.2,0.1s0.4-0.1,0.4-0.1l0.2-0.2l0.4,0.3
	c0,0-1.6,1.6-2.4,3c-0.2-0.3-0.5-0.8-0.7-1.1c0-0.6,0.1-1.2,0.1-1.4S-572.6,527.9-572.6,527.9z M-573.6,527.9l0.4-0.3l0.2,0.1
	c0,0-0.1,0.2-0.2,0.3c-0.1,0-0.3,0.1-0.4,0.1C-573.6,528.2-573.6,527.9-573.6,527.9z M-573.2,528.4c0,0-0.1,0.2-0.1,0.4
	c0,0.1,0,0.5-0.1,0.9c0-0.1-0.1-0.2-0.1-0.2c-0.1-0.1-0.2-0.3-0.3-0.6c0-0.1,0-0.1,0-0.1C-573.7,528.7-573.2,528.4-573.2,528.4z
	 M-573.9,528.1v0.2l-0.1,0.1c0-0.1-0.1-0.1-0.1-0.2L-573.9,528.1z M-573,555.1c-0.3,0.1-0.9,0.3-1.4,0c-0.6-0.4-1.3-1.2-1.6-1.7
	c0.4-0.2,0.7-0.7,1-0.7c0.4,0,2.4,1.1,2.4,1.1S-572.7,554.3-573,555.1z M-553.8,556.8c-0.3,0.5-0.8,0.7-0.7,1.2
	c0.1,0.2-0.1,1.4-0.4,1.4c-0.3,0-0.6,0.3-0.7,0.7c0,0.2-1.4,1.1-1.8,1.4c-0.2,0.1-0.1-2.3-0.2-3.2c-0.1-1,0.4-3.4,0.6-4
	c0.2-0.5,0.2-1.1,0.6-1.4c0.4-0.3,3.4-3.5,3.6-3.1C-552.8,549.8-553.5,556.3-553.8,556.8z"/>
<path fill="#BBBDC0" d="M-566.2,509.2c-0.1-0.2-2.4-7.7-6.1-14.6c-3.1-5.7-7.8-10.9-7.8-10.9l1.4-1.1c0,0,0.3-0.2,0.3-0.5
	c0-0.2-0.2-0.4-0.2-0.4s-1.2-0.1-1.4,0c-0.2,0.1-2.9,2-2.9,2.4s0.1,0.4,0.2,0.6c0.1,0.2,0.4,0.3,0.7,0.1c0.3-0.2,1.3-0.9,1.3-0.9
	c0.9,0.9,5.2,5.5,7.8,10.8c3,6,5.1,11.5,6,14.7"/>
<path fill="#D2232A" d="M-555.7,522.3c-5.4,0-8.5,0.3-12.7,0.3c-3.2,0-3.6-0.1-3.9-0.5c-0.1-0.2-0.2-0.3-0.3-0.3
	c-0.3,0.3-0.6,1-0.6,1.6c0,0.8,0.5,1,1.6,1c2,0,7.7-1.3,11.2-1.3c0.8,0,0.6,0.5,0.5,0.8c-2.2,4.8-6.4,12.6-8.8,17.1
	c-3,5.5-7.7,14-11.8,21c-0.4,0.6-0.8,1.3-2.4,3.1l0.6,0.5c1.7-1.4,4.4-2.6,5.4-2.6c0.5,0,1.4,0.4,2.2,0.9c3.6,1.8,8.2,2.4,11.9,2.4
	c12.8,0,20.7-8.3,20.7-15.5c0-5.8-6-6.8-9.6-7.5c-0.2,0-0.2-0.1-0.2-0.2c0-0.1,0-0.3,0.2-0.3c10.1-2.3,13.6-9.1,13.6-12.7
	C-538.1,523.3-544,522.3-555.7,522.3 M-542.8,529.4c0,6.3-4.9,10.9-9.5,12.9c-1,0.4-2.7,0.6-3.9,0.6c-1.4,0-2.7-0.6-4.1-0.6
	c-0.6,0-1.1,0.6-1.1,1.2c0,0.8,0.2,0.9,0.6,1c1.6,0,4.1-0.7,5.9-0.7c5.1,0.3,8.1,2.2,8.1,6c0,8.9-9.4,15.4-18.2,15.7
	c-6.9,0.1-9.3-3.7-9.3-5.1c0.1-0.7,0.3-1.2,0.6-1.7c4.8-9.6,10-19.6,14.2-27.1c1.3-2.2,2.8-4.9,4.3-6.8c0.9-1.2,2.2-1.4,3.6-1.4
	C-547.4,523.3-542.8,524.4-542.8,529.4z"/>
<path fill="#D2232A" d="M-599.3,553c1.7-1.4,4-2.4,5-2.4c0.6,0,1.1,0.2,1.6,0.5c3.9,2,7.8,2.4,12.2,2.4c5.3,0,10.7-1,15.6-3.1
	c9.8-4.4,18.4-16.2,18.4-27c0-11.7-10.9-13.6-20.9-13.6c-3.2,0-6.3,0.2-9.5,0.3c-2.7,0.2-7.1,0.5-9.4,0.5c-1.8,0-4-1.2-4.2-1.2
	c-0.4,0-0.5,1.1-0.5,1.4c0,1.2,0.6,1.5,1.7,1.5c4.2-0.1,8.1-1.3,12.2-1.3c0.3,0,0.8,0.1,0.8,0.5c-2.6,5.9-17.5,31.5-19.8,35.4
	c-0.8,1.5-2.3,3.8-4,5.6L-599.3,553 M-551.5,522.8c0,16.9-13.3,29.9-29,29.9c-4,0-8.1-1.2-10.4-3.5c-0.4-0.4-0.6-0.8-0.6-1.2
	c0-0.3,0.2-0.8,0.4-1.2c4.7-9.6,13.4-25,19.8-35c0.8-1.3,1.7-1.2,3.1-1.2C-554.7,510.8-551.5,517.1-551.5,522.8z"/>
<path fill="#D2232A" d="M-590.7,567.4c-0.9,0-1.5,0.7-1.5,1.5c0,0.8,0.7,1.5,1.5,1.5c0.9,0,1.5-0.7,1.5-1.5
	C-589.2,568.1-589.9,567.4-590.7,567.4"/>
<path fill="#D2232A" d="M-600.8,585.7c-8.1-11.5-13.1-27.3-13.1-44.7l0,0c0-17.5,5-33.3,13.1-44.7l0,0c8.1-11.5,19.4-18.6,31.8-18.6
	l0,0c12.4,0,23.7,7.1,31.8,18.6l0,0c8.1,11.5,13.1,27.3,13.1,44.7l0,0c0,17.5-5,33.3-13.1,44.7l0,0c-8.1,11.5-19.4,18.6-31.8,18.6
	l0,0C-581.4,604.3-592.7,597.2-600.8,585.7L-600.8,585.7z M-600.4,496.6c-8.1,11.4-13,27.1-13,44.4l0,0c0,17.4,5,33.1,13,44.4l0,0
	c8.1,11.4,19.2,18.4,31.4,18.4l0,0c12.2,0,23.3-7,31.4-18.4l0,0c8.1-11.4,13-27.1,13-44.4l0,0c0-17.4-5-33.1-13-44.4l0,0
	c-8.1-11.4-19.2-18.4-31.4-18.4l0,0l0,0l0,0C-581.2,478.2-592.3,485.2-600.4,496.6L-600.4,496.6z"/>
<path fill="#D2232A" d="M-578.8,594l-0.5,1.7h-1.8l1.4,1l-0.5,1.7l1.4-1l1.4,1l-0.5-1.7l1.4-1h-1.8L-578.8,594 M-573.9,594l-0.5,1.7
	h-1.8l1.4,1l-0.5,1.7l1.4-1l1.4,1l-0.5-1.7l1.4-1h-1.8L-573.9,594z M-569,594l-0.5,1.7h-1.8l1.4,1l-0.5,1.7l1.4-1l1.4,1l-0.5-1.7
	l1.4-1h-1.8L-569,594z M-564.1,594l-0.5,1.7h-1.8l1.4,1l-0.5,1.7l1.4-1l1.4,1l-0.5-1.7l1.4-1h-1.8L-564.1,594z M-559.2,594l-0.5,1.7
	h-1.8l1.4,1l-0.5,1.7l1.4-1l1.4,1l-0.5-1.7l1.4-1h-1.8L-559.2,594z"/>
</svg>
