<?xml version="1.0" encoding="utf-8"?>
<!-- Generator: Adobe Illustrator 18.1.1, SVG Export Plug-In . SVG Version: 6.00 Build 0)  -->
<svg version="1.1" id="Layer_8" xmlns="http://www.w3.org/2000/svg" xmlns:xlink="http://www.w3.org/1999/xlink" x="0px" y="0px"
	 viewBox="0 0 390 150" enable-background="new 0 0 390 150" xml:space="preserve">
<g>
	<g id="Grosvenor_Casinos_1_">
		<path fill="#03252C" d="M236.5,83.6c-1.1-0.3-2.3,0.4-2.6,1.5c-0.3,1.1,0.4,2.3,1.5,2.6c1.1,0.3,2.3-0.4,2.6-1.5
			C238.4,85,237.7,83.8,236.5,83.6z"/>
		<path fill="#03252C" d="M154.3,83.6c-1.1,0.3-1.8,1.5-1.5,2.6c0.3,1.1,1.5,1.8,2.6,1.5c1.1-0.3,1.8-1.4,1.5-2.6
			C156.6,84,155.4,83.3,154.3,83.6z"/>
		<path fill="#03252C" d="M155.6,70.7c2.8-0.1,5.1-2,5.8-5c0.4-1.6,0.5-3,0.2-4.7l0-0.1l-5.2-1.4l-1.1,4.3l1.9,0.5l0.6-2.2l2,0.5
			c0,0.7,0,1.5-0.2,2.4c-0.5,2.1-2.1,3.4-4,3.5c-0.4,0-0.9,0-1.3-0.2c-1.1-0.3-2.1-1-2.7-2c-0.6-1-0.7-2.2-0.4-3.3
			c0.4-1.3,1.1-2.6,2.2-3.7l0.2-0.3l-2.1-0.6l-0.1,0.1c-1.2,1.6-1.7,2.5-2.1,3.9c-0.9,3.6,1,7.1,4.5,8
			C154.3,70.6,155,70.7,155.6,70.7z"/>
		<path fill="#03252C" d="M164.8,57.3l-4.3-2.9l0.3-0.4c0.4-0.6,0.9-1.1,3.8-1l3,0.1l1.4-2.1l-1.4,0c-0.7,0-1.2,0-1.9,0l-0.1,0
			c-1.7-0.1-2.9-0.1-3.9,0.2c0.2-1.3-0.4-2.4-1.5-3.1c-0.7-0.4-1.3-0.6-2-0.6c-1.2,0-2.3,0.8-3.2,2.1l-1.8,2.7l10.2,6.9L164.8,57.3z
			 M159.4,52.6l-0.5,0.7l-2.7-1.8l0.5-0.7c0.8-1.2,1.6-1.5,2.5-0.9c0.4,0.3,0.7,0.6,0.7,1C160,51.3,159.9,51.9,159.4,52.6z"/>
		<path fill="#03252C" d="M170,48.8c1.4,0,2.7-0.6,3.9-1.5c3.5-2.7,3.3-6.6,1.4-9c-1.3-1.6-3.1-2.5-5.1-2.5c-1.4,0-2.8,0.6-4,1.5
			c-3,2.3-3.6,6.2-1.4,9C166.1,47.9,168,48.9,170,48.8z M167.5,38.9c0.8-0.6,1.7-0.9,2.6-1c1.3,0,2.6,0.6,3.5,1.7
			c0.7,1,1,2.1,0.9,3.2c-0.2,1.1-0.8,2.2-1.8,2.9c-0.8,0.6-1.7,0.9-2.6,1h0c-1.4,0-2.6-0.6-3.5-1.7C165.1,43,165.5,40.4,167.5,38.9z
			"/>
		<path fill="#03252C" d="M181.6,36.9c1.3,0.3,2.5,0.5,2.8,1.5c0.2,0.5,0,1.4-1.2,1.8c-1,0.4-2.2,0.1-3.3-0.6l-0.5-0.3l0.9,2.7
			l0.1,0c0.7,0.2,1.3,0.3,1.9,0.3c0.6,0,1.1-0.1,1.7-0.3c1.9-0.7,2.9-2.5,2.2-4.4c-0.7-2.1-2.7-2.5-4.3-2.8
			c-1.2-0.2-2.2-0.4-2.5-1.2c-0.2-0.7,0.3-1.4,1.2-1.7c0.9-0.3,1.9-0.2,2.9,0.2l0.4,0.2l-0.8-2.4l-0.1,0c-1-0.3-2-0.2-2.9,0.1
			c-2.2,0.8-3.2,2.5-2.5,4.4C178.2,36.2,180,36.5,181.6,36.9z"/>
		<polygon fill="#03252C" points="207.3,39.6 202.2,38.5 202.9,35.3 207.6,36.4 208,34.4 203.3,33.4 203.9,30.3 208.9,31.4 
			209.3,29.5 202.3,28 199.7,39.8 199.7,40 206.8,41.5 		"/>
		<polygon fill="#03252C" points="210.9,43.2 215.5,35.7 217.4,47.2 218.9,48.2 225.3,37.7 223.6,36.6 219,44.2 217,32.6 
			215.6,31.7 209.1,42.2 		"/>
		<path fill="#03252C" d="M222.6,49.4c-0.3,1.7,0.2,3.5,1.3,5c1.4,1.9,3.3,2.9,5.5,2.8c1.3,0,2.5-0.5,3.5-1.2c2.9-2.2,3.4-6,1.2-9.1
			c-1.4-1.8-3.3-2.9-5.4-2.8c-1.3,0-2.5,0.5-3.5,1.2C223.7,46.4,222.8,47.8,222.6,49.4z M226.3,47.2c0.7-0.5,1.6-0.8,2.5-0.9
			c1.4,0,2.7,0.6,3.6,1.9c1.5,2.1,1.2,4.6-0.8,6.1c-0.7,0.5-1.6,0.8-2.4,0.9c-1.4,0-2.7-0.6-3.6-1.9c-0.7-1-1-2.1-0.9-3.3
			C224.8,48.9,225.4,47.9,226.3,47.2z"/>
		<path fill="#03252C" d="M241,60.8l-0.9-3.1l-11.6,3.4l-0.2,0.1l0.6,2l4.9-1.5l0.1,0.5c0.2,0.7,0.2,1.4-1.7,3.6l-2,2.3l0.7,2.5
			l0.4-0.5c0.7-0.9,1-1.3,1.6-2l0,0c1.1-1.2,1.8-2.1,2.3-3.2c0.9,0.9,2.1,1.2,3.3,0.9C240.8,65.2,241.7,63.3,241,60.8z M238.2,63.7
			c-0.2,0.1-0.4,0.1-0.5,0.1c-0.8,0-1.4-0.5-1.7-1.6l-0.3-0.8l3.2-0.9l0.3,0.9C239.6,63,238.8,63.5,238.2,63.7z"/>
		<polygon fill="#03252C" points="193,40.1 193.6,40 198.1,27.4 196,27.5 193,35.7 189.1,27.9 187,28 193,40 		"/>
		<path fill="#03252C" d="M161.3,105.8c-0.9-1-1.3-2.1-1.3-3.3c0-1.1,0.6-2.2,1.5-3c0.8-0.7,1.9-1.1,2.9-1.1c1.2,0,2.4,0.6,3.3,1.7
			c0.9,1,1.4,2.2,1.7,3.8l0.1,0.4l1.8-1.5l0-0.1c-0.6-1.7-1.2-2.9-2-3.8c-1.3-1.5-3.1-2.4-4.9-2.5c-1.6-0.1-3.1,0.5-4.4,1.6
			c-1.8,1.6-3.5,5.4-0.3,9c1.4,1.6,2.6,2.2,3.7,2.6l0.1,0l1.8-1.6l-0.4-0.1C163.4,107.6,162.1,106.8,161.3,105.8z"/>
		<path fill="#03252C" d="M165.5,112.7l1.9,1.1l3.1-2.2l4.1,2.5l-0.4,3.8l1.9,1.1l1.6-13.3l0-0.1l-1.3-0.8L165.5,112.7z
			 M174.8,111.9l-2.6-1.6l3.1-2.3L174.8,111.9z"/>
		<path fill="#03252C" d="M186,109c-0.4-0.1-0.8-0.2-1.2-0.2c-1.7-0.1-2.9,0.9-3.4,2.4c-0.5,1.8,0.7,3.1,1.8,4.3
			c0.9,1,1.8,1.9,1.5,2.9c-0.1,0.4-0.6,0.9-1.4,0.9c-0.2,0-0.4,0-0.6-0.1c-1.1-0.3-1.9-1.1-2.4-2.4l-0.2-0.6l-0.8,2.8l0.1,0.1
			c0.8,1,1.7,1.7,3,2c0.3,0.1,0.6,0.1,1,0.2c1.6,0.1,2.9-0.9,3.4-2.5c0.6-2.2-0.8-3.6-1.9-4.7c-0.9-0.9-1.6-1.6-1.4-2.5
			c0.1-0.5,0.6-0.8,1.3-0.8c0.2,0,0.4,0,0.6,0.1c0.9,0.3,1.6,0.9,2.2,1.9l0.3,0.4l0.7-2.4l-0.1-0.1C187.7,109.8,186.9,109.2,186,109
			z"/>
		<polygon fill="#03252C" points="190.2,122.2 190.2,122.4 192.3,122.6 193.4,110.5 193.4,110.3 191.3,110.2 		"/>
		<polygon fill="#03252C" points="205.2,109.2 206.7,117.9 197.7,110.6 197.6,110.5 195.9,110.8 198,122.9 200,122.6 198.5,113.9 
			207.5,121.2 207.6,121.3 209.3,121 207.2,108.9 		"/>
		<path fill="#03252C" d="M217.8,104c-1.3,0-2.6,0.3-3.8,1.1c-1.6,1-2.7,2.4-3.1,4.1c-0.4,1.6-0.1,3.3,0.8,4.7c1.1,1.8,3,3,5.1,3
			c1.3,0,2.6-0.3,3.8-1c1.7-1,2.8-2.5,3.2-4.2c0.4-1.6,0.1-3.2-0.8-4.7C221.7,105.1,219.8,104,217.8,104z M219.4,114.1
			c-0.8,0.5-1.7,0.7-2.5,0.7c-1.4,0-2.7-0.8-3.5-2.1c-1.3-2.1-0.7-4.6,1.5-6c0.8-0.5,1.7-0.7,2.5-0.7c1.4,0,2.7,0.8,3.5,2.1
			C222.3,110.3,221.6,112.8,219.4,114.1z"/>
		<path fill="#03252C" d="M229.2,100.5c-1,0-2,0.3-2.9,0.6c-0.7,0.3-1.4,0.5-2,0.5c-0.3,0-0.6-0.1-0.8-0.3c-0.5-0.5-0.5-1.3,0.2-2
			c0.6-0.7,1.5-1.1,2.6-1.2l0.5-0.1l-1.9-1.7l-0.1,0c-1,0.3-1.8,0.8-2.5,1.5c-0.7,0.8-1.1,1.8-1.1,2.7c0,0.9,0.4,1.8,1.2,2.4
			c0.5,0.5,1.2,0.7,1.9,0.7c0.9,0,1.9-0.3,2.8-0.6c0.8-0.3,1.6-0.5,2.2-0.5c0.4,0,0.7,0.1,1,0.4c0.2,0.2,0.4,0.5,0.4,0.9
			c0,0.3-0.1,0.8-0.5,1.3c-0.7,0.8-1.7,1.2-3,1.2l-0.8,0l2.2,1.9l0.1,0c1.3-0.3,2.3-0.8,3.1-1.8c1.3-1.5,1.2-3.6-0.3-4.9
			C230.8,100.8,230.1,100.5,229.2,100.5z"/>
	</g>
	<path id="Chip" fill="#03252C" d="M195.5,12.5c-34.8,0-63,28.2-63,63s28.2,63,63,63c34.8,0,63-28.2,63-63
		C258.5,40.7,230.3,12.5,195.5,12.5z M140.3,75.5c0-30.5,24.7-55.2,55.2-55.2c30.5,0,55.2,24.7,55.2,55.2
		c0,30.5-24.7,55.2-55.2,55.2C165,130.7,140.3,106,140.3,75.5z M251,91c1.4-4.9,2.1-10.1,2.1-15.5c0-5.4-0.8-10.7-2.2-15.6l4.6,0
		c1.3,5,2,10.2,2,15.6c0,5.4-0.7,10.6-2,15.5l0,0.1h-4.6L251,91z M211.2,15.4l0,4.7c-5-1.4-10.2-2.2-15.7-2.2
		c-5.4,0-10.6,0.8-15.6,2.2l0-4.6c5-1.3,10.2-2,15.6-2C200.9,13.4,206.2,14.1,211.2,15.4z M135.4,59.9l4.7,0
		c-1.4,5-2.2,10.2-2.2,15.6c0,5.4,0.8,10.7,2.2,15.7l-4.7,0c-1.3-5-2-10.2-2-15.7C133.4,70.1,134.1,64.9,135.4,59.9z M179.9,135.6
		l0-4.6c5,1.4,10.2,2.2,15.6,2.2c5.4,0,10.7-0.8,15.7-2.2l0,4.7c-5,1.3-10.3,2-15.7,2C190.1,137.6,184.9,136.9,179.9,135.6z"/>
	<path id="G" fill="#03252C" d="M213.9,64.4c1.6,0.7,2.2-0.5,2.7-1.3c0.4-0.7,3.2-6-2.3-11.5c-5.7-5.8-17-5.3-23.4-2.3
		c-5.6,2.6-11.4,6.7-16.8,15.5c-6.1,9.8-7.1,22.9-0.9,30.4c6.6,8,21.4,7.7,31.6,2.1c10.8-5.9,15-13.1,15.6-19.4
		c0.5-5-3.8-5.2-6.7-3.4c-5.3,3.3-8.7,5-15,6.4c-6.1,1.4-9.3,0.4-10,0.2c-1.6-0.3-2.5,1.7-1.1,2.3c1.4,0.6,5,2.2,12.9,1
		c6.2-1,10.4-2.5,11.2-2.8c0.6-0.2,1.3-0.2-0.4,2c-1.7,2.2-8.4,10.3-18.4,11.5c-10,1.2-14.8-4.5-16.8-10c-3.5-9.8,0.2-20.4,6.2-26.7
		c6.8-7.2,13-9.5,19.4-9.2c6,0.3,10.5,2.4,12,5.9c1.2,3,0.1,5.4-0.5,7.2C212.7,63.1,212.8,63.9,213.9,64.4z"/>
</g>
<g>
</g>
<g>
</g>
<g>
</g>
<g>
</g>
<g>
</g>
<g>
</g>
<g>
</g>
<g>
</g>
<g>
</g>
<g>
</g>
</svg>
