<?xml version="1.0" encoding="utf-8"?>
<!-- Generator: Adobe Illustrator 19.0.1, SVG Export Plug-In . SVG Version: 6.00 Build 0)  -->
<svg version="1.1" id="Layer_22" xmlns="http://www.w3.org/2000/svg" xmlns:xlink="http://www.w3.org/1999/xlink" x="0px" y="0px"
	 viewBox="0 0 390 292.5" enable-background="new 0 0 390 292.5" xml:space="preserve">
<g>
	<polygon fill-rule="evenodd" clip-rule="evenodd" fill="#00ADEE" points="12,99.8 378,99.8 378,192.7 12,192.7 12,99.8 	"/>
	<path fill-rule="evenodd" clip-rule="evenodd" fill="#FFFFFF" d="M158.2,121.7l-17.9,31.2c-0.4,0.7-3.9,6-11.1,6.5
		c-7.1,0.3-13.2-6.4-13.1-13.6c0.2-7.2,5.6-12.9,12.8-13.1c6.1,0.1,10.6,4.8,10.5,4.8c1.3,1.1,2.1,1.9,3.1,3.4l6.5-11.4
		c-1.2-1.2-1.7-1.8-3.1-2.8c-3.7-3.3-9.1-6-16.8-6.2c-7.3-0.2-14.7,2.9-20.4,10.2c-3.5,4.7-4.9,8.9-5.1,15
		c0.1,7.2,2.7,13.1,6.5,17.3c6.6,6.9,14.5,8.5,18.7,8.5c6.1-0.3,10.5-1.7,14.8-4.5c1.3-0.9,2.8-2.1,4.3-3.7h11.4v7.1H171v-48.8
		H158.2L158.2,121.7z M159.4,153.2h-6.2l6.2-11.1V153.2L159.4,153.2z"/>
	<polygon fill-rule="evenodd" clip-rule="evenodd" fill="#FFFFFF" points="182.5,170.8 182.5,133.2 173.3,133.2 173.3,121.9 
		204,121.9 204,133.2 194.6,133.2 194.6,170.8 182.5,170.8 	"/>
	<polygon fill-rule="evenodd" clip-rule="evenodd" fill="#FFFFFF" points="230.7,152.1 218.3,152.1 218.3,170.8 206.1,170.8 
		206.1,121.9 218.3,121.9 218.3,140.5 230.7,140.5 230.7,121.9 242.9,121.9 242.9,170.8 230.7,170.8 230.7,152.1 	"/>
	<path fill-rule="evenodd" clip-rule="evenodd" fill="#FFFFFF" d="M343.5,121.9v27.2l-18.2-27.2h-10.9v16.5
		c-1.2-3.8-3.4-7.2-6.4-10.2c-4.8-4.7-11.1-7.2-17.7-7.2c-7,0-13.2,2.4-18.1,7.2c-4.9,4.7-7.5,10.9-7.5,17.7
		c0,5.4,1.3,10.1,3.9,14.2h-9.3v-38.1h-12.1v48.9h26.2v-5.2c4.6,4,10.3,6.1,16.7,6.1c6.9,0,13.5-2.7,18.3-7.6c2.8-2.8,4.8-6.2,6-9.9
		v16.7h12.1v-27.2l18.5,27.2h10.7v-48.9H343.5L343.5,121.9z M290.2,159.6c-6.8,0-13-5.9-13-13.6c0-7.2,5.8-12.9,13.2-12.9
		c7,0,12.8,5.7,12.8,12.9C303.1,154,297.3,159.6,290.2,159.6L290.2,159.6z"/>
	<path fill-rule="evenodd" clip-rule="evenodd" fill="#FFFFFF" d="M103.7,132.5v-10.8h-27v20.1c-0.8-5.8-3.1-10.6-6.9-14.1
		c-5.2-4.8-10.7-5.8-18.5-5.8H34.4v48.9H53c7,0,11.6-1,16.9-6.1c3.7-3.6,6-8.2,6.8-13.7v19.4h27V160h-15v-9.1h13.1v-10.5H88.7v-8
		H103.7L103.7,132.5z M51.4,160.1h-4.9v-27.7h4.8c8.9,0,13.7,5,13.7,13.8C65,155.8,60.6,160.1,51.4,160.1L51.4,160.1z"/>
</g>
<g>
</g>
<g>
</g>
<g>
</g>
<g>
</g>
<g>
</g>
<g>
</g>
<g>
</g>
<g>
</g>
<g>
</g>
<g>
</g>
</svg>
