<?xml version="1.0" encoding="utf-8"?>
<!-- Generator: Adobe Illustrator 19.1.0, SVG Export Plug-In . SVG Version: 6.00 Build 0)  -->
<svg version="1.1" id="Layer_23" xmlns="http://www.w3.org/2000/svg" xmlns:xlink="http://www.w3.org/1999/xlink" x="0px" y="0px"
	 viewBox="0 0 390 292.5" enable-background="new 0 0 390 292.5" xml:space="preserve">
<g>
	<path d="M178.4,165.5c0,2.8,0.4,5.3,1.2,7.5c1.4,3.3,3.9,5.4,7.3,6.5c3.3,1.1,6.6,1.7,10,1.7c3.1,0.1,6.4-0.6,9.8-2
		c3.3-1.5,5-4.3,5.1-8.3c0.1-2.8-1.5-5.1-4.8-6.8c-3.5-1.6-10-3.7-19.7-6.2c-4.5-1.2-9-2.6-13.3-4.1c-4.5-1.5-8.6-3.4-12.3-5.7
		c-3.7-2.3-6.7-5.4-9.1-9.2c-2.4-3.6-3.6-8.2-3.6-13.8c0.2-13.1,4.8-22.7,13.8-28.7c8.6-5.8,18.8-8.8,30.5-8.8
		c12.3-0.1,22.8,2.5,31.7,7.9c8.6,5.7,13.3,15.4,14.1,29h-32c0.4-4.2-0.9-7.2-4-9c-3-1.8-6.3-2.8-10-2.8c-2.5,0-5.1,0.5-7.7,1.4
		c-1.2,0.5-2.2,1.3-3.1,2.3c-0.9,1-1.4,2.3-1.4,3.9c0.2,1.9,1.3,3.5,3.2,4.7c1.9,1.4,4.3,2.6,7.2,3.6c6.3,1.9,13.4,3.9,21.4,5.9
		c4.3,1.1,8.3,2.4,12.2,4c3.8,1.5,7.3,3.5,10.5,6c3.2,2.5,5.7,5.6,7.6,9.2c1.7,3.8,2.6,8.3,2.6,13.5c-0.3,14.5-5.7,24.7-16.3,30.5
		c-10.4,5.8-22.2,8.7-35.3,8.6c-3.3,0-7.5-0.5-12.9-1.5c-5.4-0.9-10.8-2.8-16.3-5.5c-5.5-2.8-10.1-6.9-13.8-12.4
		c-3.8-5.3-5.9-12.4-6.2-21.4H178.4z"/>
	<path d="M133.2,146.7c0.1-14.8-3.5-27.8-10.9-39c-7.6-11.3-20.5-17.1-38.6-17.4H28.2v87.1L85.7,203
		C117.6,199.6,133.4,180.9,133.2,146.7z M98.6,155c-0.6,3.2-1.8,6.3-3.4,9.2c-1.7,2.9-4.1,5.3-7.3,7.3c-3.2,2-7.4,3-12.8,3H62v-55.3
		h10.8c6.1,0,11,1,14.6,2.9c3.6,2.1,6.3,4.7,8,7.7c1.9,3,3,5.9,3.5,8.9c0.3,3,0.5,5.5,0.5,7.5C99.4,148.8,99.1,151.7,98.6,155z"/>
	<polygon points="304,127.3 325.9,203.8 360.2,203.8 320,90.1 288.2,90.1 248.3,203.8 282.4,203.8 	"/>
	<g>
		<path d="M342.9,90.7c5.2,0,9.1,3.8,9.1,9.4c0,5.6-3.9,9.4-9.1,9.4c-5.2,0-9.1-3.8-9.1-9.4C333.8,94.5,337.7,90.7,342.9,90.7z
			 M342.9,108.4c4.5,0,7.8-3.4,7.8-8.2c0-4.9-3.4-8.2-7.8-8.2c-4.5,0-7.8,3.4-7.8,8.2C335.1,105,338.5,108.4,342.9,108.4z
			 M347.2,98.2c0,1.5-0.7,2.5-1.8,3l2.2,3.9h-2.2l-1.9-3.6h-2.1v3.6h-2V94.9h4.5C345.8,94.9,347.2,96.1,347.2,98.2z M341.2,96.7v3
			h2.3c0.9,0,1.6-0.5,1.6-1.5c0-1-0.6-1.5-1.6-1.5H341.2z"/>
	</g>
</g>
<g>
</g>
<g>
</g>
<g>
</g>
<g>
</g>
<g>
</g>
<g>
</g>
<g>
</g>
<g>
</g>
<g>
</g>
<g>
</g>
</svg>
