<?xml version="1.0" encoding="utf-8"?>
<!-- Generator: Adobe Illustrator 13.0.0, SVG Export Plug-In . SVG Version: 6.00 Build 14948)  -->
<!DOCTYPE svg PUBLIC "-//W3C//DTD SVG 1.1//EN" "http://www.w3.org/Graphics/SVG/1.1/DTD/svg11.dtd">
<svg version="1.1" id="Layer_18" xmlns="http://www.w3.org/2000/svg" xmlns:xlink="http://www.w3.org/1999/xlink" x="0px" y="0px"
	 width="390px" height="150px" viewBox="0 0 390 150" enable-background="new 0 0 390 150" xml:space="preserve">
<g>
	<path fill="#101416" d="M264.3,55.2v0.7c-0.7,0.5-1.3,0.8-1.6,0.8c-0.2,0-0.3-0.1-0.4-0.2c-0.1-0.1-0.1-0.4-0.2-0.8
		c-0.8,0.6-1.6,1-2.5,1c-0.6,0-1.1-0.2-1.5-0.6s-0.6-0.9-0.6-1.4c0-0.9,0.4-1.5,1.2-2c0.8-0.5,1.9-0.8,3.4-0.8v-1
		c0-1.1-0.6-1.6-1.7-1.6c-0.7,0-1.5,0.3-2.4,1v-0.9c0.9-0.6,1.7-0.8,2.5-0.8c0.7,0,1.3,0.2,1.8,0.5c0.5,0.3,0.7,0.9,0.7,1.5v4.9
		c0,0.3,0.1,0.4,0.2,0.4C263.3,55.9,263.7,55.7,264.3,55.2 M262.1,55.1v-2.4c-1.1,0-2,0.1-2.7,0.6c-0.7,0.4-1.1,1-1.1,1.6
		c0,0.4,0.1,0.7,0.4,0.9c0.3,0.3,0.7,0.4,1.1,0.4C260.6,56.1,261.4,55.7,262.1,55.1z"/>
	<path fill="#101416" d="M266.8,56.2V44.7h0.8v5.2c0.8-0.9,1.8-1.3,2.8-1.3c1,0,1.9,0.4,2.5,1.1c0.7,0.7,1,1.6,1,2.8
		c0,1.3-0.4,2.4-1.2,3.1c-0.8,0.8-1.9,1.2-3.2,1.2C268.7,56.8,267.8,56.6,266.8,56.2 M267.7,50.8v4.8c0.6,0.2,1.3,0.4,1.9,0.4
		c1,0,1.8-0.3,2.5-1c0.7-0.7,1-1.5,1-2.5c0-0.9-0.3-1.7-0.8-2.3c-0.5-0.6-1.2-0.9-1.9-0.9C269.5,49.3,268.5,49.8,267.7,50.8z"/>
	<path fill="#101416" d="M281.4,49.3v0.9c-0.8-0.5-1.5-0.8-2.2-0.8c-0.5,0-0.9,0.1-1.2,0.4s-0.5,0.6-0.5,0.9c0,0.3,0.1,0.5,0.3,0.7
		c0.2,0.2,0.7,0.5,1.6,0.9c0.9,0.3,1.5,0.7,1.7,1.1c0.3,0.4,0.4,0.8,0.4,1.2c0,0.6-0.2,1.1-0.7,1.5c-0.5,0.4-1.1,0.6-1.8,0.6
		c-0.8,0-1.6-0.2-2.4-0.7v-0.8c0.9,0.5,1.8,0.7,2.5,0.7c0.5,0,0.9-0.1,1.2-0.4c0.3-0.3,0.5-0.6,0.5-1c0-0.3-0.1-0.5-0.3-0.8
		c-0.2-0.2-0.7-0.5-1.6-0.9c-0.9-0.4-1.5-0.7-1.7-1c-0.3-0.3-0.4-0.7-0.4-1.1c0-0.6,0.2-1.1,0.7-1.5c0.5-0.4,1.1-0.6,1.8-0.6
		C280,48.6,280.7,48.8,281.4,49.3"/>
	<path fill="#101416" d="M288.3,48.6c1.1,0,2.1,0.4,2.8,1.2c0.8,0.8,1.1,1.8,1.1,2.9c0,1.2-0.4,2.1-1.1,2.9
		c-0.8,0.8-1.7,1.2-2.8,1.2c-1.1,0-2.1-0.4-2.9-1.2c-0.8-0.8-1.1-1.7-1.1-2.9c0-1.2,0.4-2.1,1.1-2.9C286.2,49,287.2,48.6,288.3,48.6
		 M288.3,55.9c0.9,0,1.6-0.3,2.2-0.9c0.6-0.6,0.9-1.4,0.9-2.3c0-0.9-0.3-1.7-0.9-2.3c-0.6-0.6-1.3-0.9-2.2-0.9
		c-0.9,0-1.6,0.3-2.2,0.9c-0.6,0.6-0.9,1.4-0.9,2.3c0,0.9,0.3,1.7,0.9,2.3C286.7,55.6,287.4,55.9,288.3,55.9z"/>
	<rect x="295.7" y="44.7" fill="#101416" width="0.8" height="11.9"/>
	<path fill="#101416" d="M305.7,56.6v-1.3h0c-0.4,0.5-0.7,0.9-1.1,1.1c-0.4,0.2-0.9,0.3-1.5,0.3c-0.8,0-1.5-0.3-2.1-0.8
		c-0.6-0.5-0.8-1.3-0.8-2.3v-4.9h0.8v4.8c0,0.7,0.2,1.3,0.6,1.7c0.4,0.4,0.9,0.6,1.6,0.6c0.5,0,1-0.1,1.4-0.4
		c0.4-0.3,0.8-0.7,1.2-1.3v-5.5h0.8v7.9H305.7"/>
	<path fill="#101416" d="M311.7,46.2v2.6h2.2v0.7h-2.2v4.7c0,0.8,0.1,1.2,0.2,1.5s0.5,0.4,1,0.4c0.4,0,0.9-0.1,1.4-0.4v0.8
		c-0.6,0.3-1.1,0.4-1.6,0.4c-0.5,0-1-0.1-1.3-0.4c-0.3-0.3-0.5-0.7-0.5-1.2v-5.7h-2.1v-0.7h2.1v-1.9l0.6-0.7H311.7"/>
	<path fill="#101416" d="M323.5,52.4h-6.2c0,0.1,0,0.3,0,0.4c0,0.9,0.3,1.6,0.9,2.2c0.6,0.6,1.4,0.9,2.2,0.9c1,0,2-0.4,2.9-1.2v0.9
		c-0.9,0.7-1.9,1-3,1c-1.1,0-2.1-0.4-2.8-1.2c-0.7-0.8-1.1-1.8-1.1-3c0-1.1,0.3-2.1,1-2.9c0.7-0.8,1.5-1.1,2.6-1.1
		c1,0,1.8,0.3,2.5,1C323.2,50.3,323.5,51.2,323.5,52.4 M317.4,51.7h5.1c-0.3-1.5-1.1-2.3-2.5-2.3c-0.6,0-1.2,0.2-1.7,0.6
		C317.9,50.4,317.6,51,317.4,51.7z"/>
	<path fill="#101416" d="M268.3,98.1V99c-0.8-0.5-1.5-0.8-2.2-0.8c-0.5,0-0.9,0.1-1.2,0.4c-0.3,0.3-0.5,0.6-0.5,0.9
		c0,0.3,0.1,0.5,0.3,0.7s0.7,0.5,1.6,0.9c0.9,0.3,1.5,0.7,1.7,1.1c0.3,0.4,0.4,0.8,0.4,1.2c0,0.6-0.2,1.1-0.7,1.5
		c-0.5,0.4-1.1,0.6-1.8,0.6c-0.8,0-1.6-0.2-2.4-0.7V104c0.9,0.5,1.8,0.7,2.5,0.7c0.5,0,0.9-0.1,1.2-0.4c0.3-0.3,0.5-0.6,0.5-1
		c0-0.3-0.1-0.5-0.3-0.8c-0.2-0.2-0.7-0.5-1.6-0.9c-0.9-0.4-1.5-0.7-1.7-1c-0.3-0.3-0.4-0.7-0.4-1.2c0-0.6,0.2-1.1,0.7-1.5
		s1.1-0.6,1.8-0.6C266.8,97.4,267.5,97.6,268.3,98.1"/>
	<path fill="#101416" d="M278.1,101.2h-6.2c0,0.1,0,0.3,0,0.4c0,0.9,0.3,1.6,0.9,2.2c0.6,0.6,1.4,0.9,2.2,0.9c1,0,2-0.4,2.9-1.2v0.9
		c-0.9,0.7-1.9,1-3,1c-1.1,0-2.1-0.4-2.8-1.2c-0.7-0.8-1.1-1.8-1.1-3c0-1.1,0.3-2.1,1-2.9c0.7-0.8,1.5-1.1,2.6-1.1
		c1,0,1.8,0.3,2.5,1C277.7,99.1,278.1,100,278.1,101.2 M272,100.5h5.1c-0.3-1.5-1.1-2.3-2.5-2.3c-0.6,0-1.2,0.2-1.7,0.6
		C272.4,99.2,272.1,99.8,272,100.5z"/>
	<path fill="#101416" d="M286.4,98.3l-0.5,0.8c-0.7-0.6-1.2-0.9-1.6-0.9c-0.8,0-1.6,0.8-2.5,2.3v4.9H281v-7.9h0.8v2.1h0
		c0.9-1.5,1.9-2.2,2.7-2.2C285.1,97.4,285.7,97.7,286.4,98.3"/>
	<polyline fill="#101416" points="295.6,97.6 292.2,105.6 291.7,105.6 288.1,97.6 289,97.6 292,104.2 294.8,97.6 295.6,97.6 	"/>
	<path fill="#101416" d="M298,93.5h0.8v1.4H298V93.5z M298,97.6h0.8v7.9H298V97.6z"/>
	<path fill="#101416" d="M308,97.8v0.9c-0.7-0.3-1.4-0.5-2-0.5c-0.9,0-1.6,0.3-2.1,0.9c-0.5,0.6-0.8,1.4-0.8,2.4
		c0,1,0.3,1.8,0.8,2.4c0.5,0.6,1.3,0.9,2.2,0.9c0.7,0,1.4-0.1,2.1-0.5v0.9c-0.8,0.3-1.5,0.4-2.2,0.4c-1.1,0-2.1-0.4-2.8-1.1
		c-0.7-0.7-1.1-1.7-1.1-2.9c0-1.2,0.4-2.2,1.1-3c0.7-0.8,1.6-1.2,2.7-1.2C306.5,97.4,307.2,97.5,308,97.8"/>
	<path fill="#101416" d="M317.6,101.2h-6.2c0,0.1,0,0.3,0,0.4c0,0.9,0.3,1.6,0.9,2.2c0.6,0.6,1.4,0.9,2.2,0.9c1,0,2-0.4,2.9-1.2v0.9
		c-0.9,0.7-1.9,1-3,1c-1.1,0-2.1-0.4-2.8-1.2c-0.7-0.8-1.1-1.8-1.1-3c0-1.1,0.3-2.1,1-2.9c0.7-0.8,1.5-1.1,2.6-1.1
		c1,0,1.8,0.3,2.5,1C317.3,99.1,317.6,100,317.6,101.2 M311.5,100.5h5.1c-0.3-1.5-1.1-2.3-2.5-2.3c-0.6,0-1.2,0.2-1.7,0.6
		C312,99.2,311.7,99.8,311.5,100.5z"/>
	<g>
		<defs>
			<rect id="SVGID_1_" x="206.6" y="27.9" width="170.8" height="94.5"/>
		</defs>
		<clipPath id="SVGID_2_">
			<use xlink:href="#SVGID_1_"  overflow="visible"/>
		</clipPath>
		<path clip-path="url(#SVGID_2_)" fill="#101416" d="M303.6,86.6c0,0-0.9,0.1-2.7,0.2c-1.7,0.1-4.3,0.3-7.6,0.5
			c-3.3,0.2-7.2,0.3-11.8,0.4c-4.6,0.1-9.7,0.1-15.3,0c-5.6-0.1-11.7-0.3-18.1-0.8c-6.4-0.5-13.2-1.4-20.1-2.9
			c-3.4-0.8-6.9-1.7-10.4-3.2c-1.7-0.7-3.4-1.5-5-2.6c-1.6-1-3.1-2.3-4.3-4c-1.2-1.7-1.9-3.7-1.8-5.9c0-0.5,0-0.9,0.1-1.4l0.1-0.8
			l0.2-0.7c0.2-1,0.6-1.9,1-2.8c1.7-3.6,4.4-6.5,7.3-9c2.9-2.5,6.1-4.6,9.3-6.5c3.3-1.9,6.6-3.6,10-5.1c6.8-3,13.7-5.4,20.4-7.3
			c13.6-3.8,26.6-5.8,37.8-6.6c11.2-0.8,20.6-0.3,27.1,0.5c3.2,0.4,5.8,0.8,7.5,1.2c1.7,0.4,2.6,0.6,2.6,0.6l0,0.2
			c0,0-0.9-0.2-2.6-0.5c-1.7-0.3-4.3-0.6-7.5-0.9c-3.2-0.3-7.2-0.5-11.7-0.5c-4.5,0-9.7,0.2-15.2,0.7c-11.1,1-24,3.2-37.4,7.1
			c-6.7,2-13.5,4.3-20.1,7.3c-3.3,1.5-6.6,3.1-9.8,5c-3.2,1.9-6.2,3.9-9,6.3c-2.7,2.4-5.2,5.1-6.7,8.3c-0.3,0.8-0.7,1.6-0.9,2.4
			l-0.1,0.6l-0.1,0.6c-0.1,0.4-0.1,0.9-0.1,1.3c0,1.6,0.5,3.2,1.4,4.5c0.9,1.4,2.3,2.5,3.7,3.4c1.4,1,3,1.7,4.6,2.4
			c3.2,1.4,6.6,2.3,10,3.1c6.8,1.6,13.5,2.4,19.8,3c6.4,0.6,12.4,1,18,1.2c5.6,0.2,10.7,0.3,15.3,0.3c4.5,0,8.5,0,11.8,0
			c3.3-0.1,5.8-0.1,7.6-0.2c1.7-0.1,2.7-0.1,2.7-0.1L303.6,86.6"/>
		<path clip-path="url(#SVGID_2_)" fill="#BA283B" d="M280.4,66.5c0,0,0.9-0.1,2.7-0.2c1.7-0.1,4.3-0.3,7.6-0.4
			c3.3-0.2,7.2-0.3,11.8-0.4c4.6-0.1,9.7-0.1,15.3,0c5.6,0.1,11.7,0.3,18.1,0.8c6.4,0.5,13.2,1.3,20.1,2.7c3.4,0.7,6.9,1.7,10.3,3
			c1.7,0.7,3.4,1.5,5,2.5c1.6,1,3.1,2.2,4.3,3.8c1.2,1.6,1.9,3.5,1.8,5.6c0,0.4,0,0.9-0.1,1.4l-0.1,0.7l-0.2,0.7
			c-0.2,0.9-0.6,1.8-1,2.7c-1.7,3.4-4.4,6.2-7.3,8.5c-2.9,2.4-6.1,4.4-9.3,6.2c-3.3,1.8-6.6,3.4-10,4.8c-6.8,2.9-13.7,5.1-20.4,6.9
			c-13.5,3.6-26.6,5.5-37.8,6.3c-11.2,0.8-20.6,0.3-27.1-0.5c-3.2-0.4-5.8-0.8-7.5-1.1c-1.7-0.3-2.6-0.5-2.6-0.5l0-0.2
			c0,0,0.9,0.2,2.6,0.4c1.7,0.3,4.3,0.6,7.5,0.9c3.2,0.3,7.2,0.5,11.7,0.5c4.5,0,9.6-0.2,15.2-0.7c11.1-0.9,24-3,37.4-6.8
			c6.7-1.9,13.5-4.1,20.1-7c3.3-1.4,6.6-3,9.8-4.8c3.2-1.8,6.2-3.8,9-6c2.7-2.3,5.2-4.9,6.7-7.9c0.3-0.8,0.7-1.5,0.9-2.3l0.1-0.6
			l0.1-0.6c0.1-0.3,0.1-0.8,0.1-1.3c0-1.5-0.5-3-1.4-4.3c-0.9-1.3-2.3-2.4-3.7-3.3c-1.4-0.9-3-1.7-4.6-2.3c-3.2-1.3-6.6-2.2-10-3
			c-6.7-1.5-13.4-2.3-19.8-2.9c-6.4-0.6-12.4-0.9-18-1.2c-5.6-0.2-10.7-0.3-15.2-0.3c-4.5,0-8.5,0-11.8,0c-3.3,0.1-5.8,0.1-7.6,0.1
			c-1.7,0.1-2.7,0.1-2.7,0.1L280.4,66.5"/>
	</g>
	<path fill="#BA283B" d="M241.1,76.1L241.1,76.1c0.7-1.6,1.5-2.3,2.5-2.3c0.5,0,0.9,0.2,1.6,0.7l-0.7,2.1c-0.6-0.4-1-0.6-1.4-0.6
		c-0.9,0-1.4,0.8-2,2.2v3.3h-2.4v-7.7h2.4V76.1"/>
	<path fill="#BA283B" d="M254.4,80.7c-1.4,1-2.8,1-3.4,1c-2.7,0-4.4-1.6-4.4-4c0-2.3,1.7-4,4-4c2.2,0,4.1,1.6,4,4.4H249
		c0.1,1.4,1,2.2,2.5,2.2c1,0,1.7-0.3,2.8-1.1V80.7 M252.4,76.9c-0.1-1-0.7-1.7-1.7-1.7c-0.9,0-1.6,0.6-1.7,1.7H252.4z"/>
	<path fill="#BA283B" d="M264,81.2c-1,0.3-1.8,0.5-2.6,0.5c-2.7,0-4.4-1.6-4.4-4c0-2.3,1.8-4,4.3-4c0.8,0,1.8,0.2,2.6,0.5v1.8
		c-0.6-0.3-1.4-0.5-2-0.5c-1.4,0-2.4,0.9-2.4,2.2c0,1.4,0.9,2.3,2.3,2.3c0.6,0,1.1-0.1,2.2-0.5V81.2"/>
	<path fill="#BA283B" d="M269.2,76.1L269.2,76.1c0.7-1.6,1.5-2.3,2.5-2.3c0.5,0,0.9,0.2,1.6,0.7l-0.7,2.1c-0.6-0.4-1-0.6-1.4-0.6
		c-0.9,0-1.4,0.8-2,2.2v3.3h-2.4v-7.7h2.4V76.1"/>
	<path fill="#BA283B" d="M280.7,80.5c-0.8,0.9-1.5,1.2-2.5,1.2c-1.5,0-2.8-0.9-2.8-2.9v-4.9h2.4v4.7c0,1.1,0.6,1.5,1.2,1.5
		c0.7,0,1.4-0.6,1.6-1.3v-4.9h2.4v7.7h-2.4V80.5"/>
	<path fill="#BA283B" d="M288.8,71.4c0,0.7-0.6,1.3-1.3,1.3s-1.3-0.6-1.3-1.3c0-0.7,0.6-1.3,1.3-1.3S288.8,70.7,288.8,71.4
		 M288.7,81.6h-2.4v-7.7h2.4V81.6z"/>
	<path fill="#BA283B" d="M297.4,75.6h-2.8v3.2c0,0.7,0.4,1.2,1.2,1.2c0.5,0,1-0.1,1.6-0.4v1.7c-0.8,0.3-1.5,0.5-2.2,0.5
		c-1.6,0-3-0.7-3-2.9v-3.3h-1.1v-0.5l3.2-3.6h0.3v2.4h2.8V75.6"/>
	<path fill="#BA283B" d="M302.3,74.9c0.4-0.4,0.8-0.7,1.3-0.9c0.4-0.2,0.9-0.3,1.4-0.3c1.3,0,2.2,0.5,2.8,1.6c1-1.1,1.9-1.6,3-1.6
		c1.7,0,3,1.1,3,2.9v4.9h-2.4v-4.5c0-1.1-0.5-1.7-1.4-1.7c-0.7,0-1.3,0.4-1.9,1.3v4.9h-2.4V77c0-1.2-0.7-1.7-1.5-1.7
		c-0.6,0-1.3,0.4-1.8,1.1v5.1h-2.4v-7.7h2.4V74.9"/>
	<path fill="#BA283B" d="M324.4,80.7c-1.4,1-2.8,1-3.4,1c-2.7,0-4.4-1.6-4.4-4c0-2.3,1.7-4,4-4c2.2,0,4.1,1.6,4,4.4H319
		c0.1,1.4,1,2.2,2.5,2.2c1,0,1.7-0.3,2.8-1.1V80.7 M322.4,76.9c-0.1-1-0.7-1.7-1.7-1.7c-0.9,0-1.6,0.6-1.7,1.7H322.4z"/>
	<path fill="#BA283B" d="M329.7,75c0.8-0.9,1.5-1.2,2.5-1.2c1.2,0,2.8,0.7,2.8,2.9v4.9h-2.4v-4.7c0-1.1-0.5-1.5-1.2-1.5
		c-0.6,0-1,0.3-1.7,1.3v4.9h-2.4v-7.7h2.4V75"/>
	<path fill="#BA283B" d="M343.6,75.6h-2.8v3.2c0,0.7,0.4,1.2,1.2,1.2c0.5,0,1-0.1,1.6-0.4v1.7c-0.8,0.3-1.5,0.5-2.2,0.5
		c-1.6,0-3-0.7-3-2.9v-3.3h-1.1v-0.5l3.2-3.6h0.3v2.4h2.8V75.6"/>
</g>
<g>
	<path fill="#101416" d="M67.4,50.8c0,0.3,0,0.4,0.2,0.4c0.2,0,0.8-0.3,1.3-0.8v0.8c-1,0.7-1.4,0.9-1.7,0.9c-0.4,0-0.6-0.2-0.6-1.1
		c-1,0.8-1.8,1.1-2.7,1.1c-1.3,0-2.3-1-2.3-2.2c0-1.9,1.8-3,5.1-3.2v-1.1c0-1.2-0.6-1.7-1.9-1.7c-0.9,0-1.5,0.2-2.6,1V44
		c1-0.7,1.9-0.9,2.8-0.9c0.9,0,1.7,0.3,2.2,0.8c0.4,0.4,0.5,0.8,0.5,2V50.8 M66.4,47.5c-0.9,0-1.1,0-1.8,0.2
		c-1.4,0.3-2.4,1.2-2.4,2.3c0,0.8,0.7,1.4,1.7,1.4c0.8,0,1.5-0.3,2.4-1.1V47.5z"/>
	<path fill="#101416" d="M72.4,44.5c1.2-1.1,2-1.4,3.1-1.4c2.3,0,3.9,1.7,3.9,4.2c0,2.9-1.9,4.8-4.9,4.8c-1,0-1.9-0.2-3.1-0.6V38.8
		h0.9V44.5 M72.4,50.8c0.8,0.3,1.4,0.4,2.1,0.4c2.2,0,3.9-1.6,3.9-3.8c0-2-1.3-3.5-3-3.5c-1.1,0-2,0.5-3,1.7V50.8z"/>
	<path fill="#101416" d="M82.3,50.4c1.1,0.6,1.9,0.8,2.7,0.8c1.1,0,1.8-0.6,1.8-1.4c0-0.8-0.5-1.3-1.8-1.7c-0.4-0.2-0.7-0.3-0.9-0.3
		c-0.4-0.1-0.7-0.3-1-0.6c-0.5-0.4-0.8-1-0.8-1.7c0-1.3,1.2-2.4,2.8-2.4c0.8,0,1.4,0.2,2.3,0.8v1c-1-0.7-1.6-0.9-2.4-0.9
		c-1.1,0-1.9,0.6-1.9,1.5c0,0.8,0.6,1.2,2.1,1.7c1.4,0.5,1.9,0.9,2.3,1.7c0.1,0.3,0.2,0.6,0.2,0.8c0,1.4-1.2,2.4-2.8,2.4
		c-0.9,0-1.7-0.2-2.6-0.8V50.4"/>
	<path fill="#101416" d="M94.8,52.1c-2.5,0-4.4-1.9-4.4-4.5c0-2.6,1.8-4.5,4.4-4.5c2.6,0,4.4,1.9,4.4,4.5
		C99.3,50.2,97.4,52.1,94.8,52.1 M94.8,44c-2,0-3.4,1.5-3.4,3.6c0,2.1,1.4,3.6,3.4,3.6c2,0,3.5-1.5,3.5-3.7
		C98.3,45.5,96.8,44,94.8,44z"/>
	<rect x="102.8" y="38.8" fill="#101416" width="0.9" height="13.2"/>
	<path fill="#101416" d="M113.7,50.5c-0.6,0.7-0.8,0.9-1.4,1.2c-0.5,0.3-1,0.4-1.6,0.4c-1.1,0-2.1-0.5-2.6-1.3
		c-0.4-0.7-0.5-1.3-0.5-2.6v-4.9h0.9v4.9c0,1.1,0.1,1.6,0.3,2.1c0.4,0.7,1.1,1.1,2,1.1c1.1,0,2.1-0.6,2.6-1.4
		c0.1-0.1,0.2-0.3,0.3-0.5v-6.1h0.9v8.7h-0.9V50.5"/>
	<path fill="#101416" d="M120.1,40.4v2.9h2.4V44h-2.4v5.3c0,1.5,0.3,1.8,1.3,1.8c0.5,0,0.8-0.1,1.6-0.4v0.9
		c-0.7,0.3-1.2,0.4-1.8,0.4c-0.8,0-1.5-0.4-1.8-1c-0.1-0.3-0.2-0.6-0.2-0.9V44h-2.3v-0.8h2.3v-2.1l0.6-0.8H120.1"/>
	<path fill="#101416" d="M132.8,50.9c-1,0.8-2.1,1.1-3.3,1.1c-2.5,0-4.3-1.9-4.3-4.6c0-2.5,1.7-4.4,4-4.4c1.8,0,3.3,1.2,3.7,3
		c0.1,0.3,0.1,0.6,0.1,1.2h-6.8c0,0.1,0,0.2,0,0.3c0,2.1,1.4,3.6,3.4,3.6c1,0,1.9-0.3,2.8-0.9c0.1-0.1,0.3-0.2,0.5-0.4V50.9
		 M131.9,46.5c-0.3-1.7-1.3-2.6-2.7-2.6c-1.4,0-2.6,1-2.9,2.6H131.9z"/>
	<path fill="#101416" d="M59.3,103.4c1.1,0.6,1.9,0.8,2.7,0.8c1.1,0,1.8-0.6,1.8-1.4c0-0.8-0.5-1.3-1.8-1.7
		c-0.4-0.2-0.7-0.3-0.9-0.3c-0.4-0.1-0.7-0.3-1-0.6c-0.5-0.4-0.8-1-0.8-1.7c0-1.3,1.2-2.4,2.8-2.4c0.8,0,1.4,0.2,2.3,0.8v1
		c-1-0.7-1.6-0.9-2.4-0.9c-1.1,0-1.9,0.6-1.9,1.5c0,0.8,0.6,1.2,2.1,1.7c1.4,0.5,1.9,0.9,2.3,1.7c0.1,0.3,0.2,0.6,0.2,0.8
		c0,1.3-1.2,2.4-2.8,2.4c-0.9,0-1.7-0.2-2.6-0.8V103.4"/>
	<path fill="#101416" d="M71.9,105.1c-2.5,0-4.4-1.9-4.4-4.5c0-2.6,1.8-4.5,4.4-4.5c2.6,0,4.4,1.9,4.4,4.5
		C76.3,103.2,74.4,105.1,71.9,105.1 M71.9,97c-2,0-3.4,1.5-3.4,3.6c0,2.1,1.4,3.6,3.4,3.6c2,0,3.5-1.5,3.5-3.7
		C75.3,98.5,73.8,97,71.9,97z"/>
	<rect x="79.8" y="91.8" fill="#101416" width="0.9" height="13.2"/>
	<path fill="#101416" d="M90.7,103.5c-0.6,0.7-0.8,0.9-1.3,1.2c-0.5,0.2-1,0.4-1.6,0.4c-1.1,0-2.1-0.5-2.6-1.3
		c-0.4-0.7-0.5-1.3-0.5-2.6v-4.9h0.9v4.9c0,1.1,0.1,1.6,0.3,2.1c0.4,0.7,1.1,1.1,2,1.1c1.1,0,2.1-0.6,2.6-1.4
		c0.1-0.1,0.2-0.3,0.2-0.5v-6.1h0.9v8.7h-0.9V103.5"/>
	<path fill="#101416" d="M97.2,93.4v2.9h2.4v0.8h-2.4v5.3c0,1.5,0.3,1.8,1.3,1.8c0.5,0,0.8-0.1,1.6-0.4v0.9
		c-0.7,0.3-1.2,0.4-1.8,0.4c-0.8,0-1.5-0.4-1.8-1c-0.1-0.3-0.2-0.6-0.2-0.9v-6.1h-2.3v-0.8h2.3v-2.1l0.6-0.8H97.2"/>
	<path fill="#101416" d="M102.8,91.8h0.9v1.6h-0.9V91.8z M102.8,96.3h0.9v8.7h-0.9V96.3z"/>
	<path fill="#101416" d="M111.6,105.1c-2.5,0-4.4-1.9-4.4-4.5c0-2.6,1.8-4.5,4.4-4.5c2.6,0,4.4,1.9,4.4,4.5
		C116.1,103.2,114.2,105.1,111.6,105.1 M111.6,97c-2,0-3.4,1.5-3.4,3.6c0,2.1,1.4,3.6,3.4,3.6c2,0,3.5-1.5,3.5-3.7
		C115.1,98.5,113.6,97,111.6,97z"/>
	<path fill="#101416" d="M120.3,105h-0.9v-8.7h0.9v1.5c0.8-1.2,1.6-1.7,2.9-1.7c1,0,2,0.5,2.6,1.2c0.5,0.7,0.7,1.5,0.7,2.9v4.7h-0.9
		v-4.6c0-1.2-0.2-1.8-0.5-2.4c-0.4-0.6-1.2-1-1.9-1c-1.1,0-2.1,0.7-2.7,1.9V105"/>
	<path fill="#101416" d="M129.8,103.4c1.1,0.6,1.9,0.8,2.7,0.8c1.1,0,1.8-0.6,1.8-1.4c0-0.8-0.5-1.3-1.8-1.7
		c-0.4-0.2-0.7-0.3-0.9-0.3c-0.4-0.1-0.7-0.3-1-0.6c-0.5-0.4-0.8-1-0.8-1.7c0-1.3,1.2-2.4,2.8-2.4c0.8,0,1.4,0.2,2.3,0.8v1
		c-1-0.7-1.6-0.9-2.4-0.9c-1.1,0-1.9,0.6-1.9,1.5c0,0.8,0.6,1.2,2.1,1.7c1.4,0.5,1.9,0.9,2.3,1.7c0.1,0.3,0.2,0.6,0.2,0.8
		c0,1.3-1.2,2.4-2.8,2.4c-0.9,0-1.7-0.2-2.6-0.8V103.4"/>
	<g>
		<defs>
			<rect id="SVGID_3_" x="12.1" y="25.5" width="170" height="99.2"/>
		</defs>
		<clipPath id="SVGID_4_">
			<use xlink:href="#SVGID_3_"  overflow="visible"/>
		</clipPath>
		<path clip-path="url(#SVGID_4_)" fill="#101416" d="M109.4,84.4c0,0-0.9,0.1-2.7,0.2c-1.8,0.1-4.3,0.3-7.6,0.5
			c-3.3,0.2-7.3,0.3-11.8,0.4c-4.6,0.1-9.7,0.1-15.4,0c-5.6-0.1-11.7-0.3-18.2-0.8c-6.4-0.5-13.2-1.4-20.2-2.9
			c-3.5-0.8-7-1.8-10.4-3.2c-1.7-0.7-3.4-1.5-5-2.6c-1.6-1-3.1-2.3-4.3-4c-1.2-1.7-1.9-3.7-1.8-5.9c0-0.5,0-0.9,0.1-1.4l0.1-0.8
			l0.2-0.7c0.2-1,0.6-1.9,1-2.8c1.7-3.6,4.4-6.5,7.3-9c2.9-2.5,6.1-4.6,9.3-6.5c3.3-1.9,6.6-3.6,10-5.1c6.8-3,13.7-5.4,20.5-7.3
			c13.6-3.8,26.7-5.8,37.9-6.6c11.3-0.8,20.7-0.3,27.2,0.5c3.3,0.4,5.8,0.8,7.5,1.2c1.7,0.4,2.6,0.6,2.6,0.6l0,0.2
			c0,0-0.9-0.2-2.6-0.5c-1.7-0.3-4.3-0.6-7.5-0.9c-3.3-0.3-7.2-0.5-11.8-0.5c-4.5,0-9.7,0.2-15.3,0.7c-11.1,1-24.1,3.2-37.5,7.1
			c-6.7,2-13.5,4.3-20.2,7.3c-3.3,1.5-6.6,3.2-9.8,5c-3.2,1.9-6.2,3.9-9,6.3c-2.7,2.4-5.2,5.1-6.7,8.3c-0.3,0.8-0.7,1.6-0.9,2.4
			l-0.1,0.6l-0.1,0.6c-0.1,0.4-0.1,0.9-0.1,1.3c0,1.6,0.5,3.2,1.4,4.5c1,1.4,2.3,2.5,3.7,3.5c1.4,1,3,1.8,4.6,2.4
			c3.2,1.4,6.6,2.3,10,3.1c6.8,1.6,13.5,2.4,19.9,3c6.4,0.6,12.4,1,18,1.2c5.6,0.2,10.7,0.3,15.3,0.3c4.6,0,8.5,0,11.8,0
			c3.3-0.1,5.8-0.1,7.6-0.2c1.8-0.1,2.7-0.1,2.7-0.1L109.4,84.4"/>
		<path clip-path="url(#SVGID_4_)" fill="#BA283B" d="M96.8,69.7c7.5-0.1,15.1,0,22.6,0.3c7.5,0.3,15,0.9,22.5,1.8
			c7.5,0.9,15,2.1,22.3,4.1c3.7,1.1,7.3,2.3,10.7,4.3c1.7,1,3.4,2.2,4.7,3.8c0.7,0.8,1.3,1.7,1.7,2.7c0.4,1,0.6,2.1,0.7,3.2l0-0.1
			c0,0.3,0,0.5,0,0.7c0,0.2-0.1,0.4-0.1,0.6c-0.1,0.4-0.2,0.7-0.3,1.1c-0.1,0.3-0.2,0.7-0.4,1l-0.5,0.9c-0.6,1.2-1.4,2.3-2.3,3.3
			l-0.6,0.8l-0.7,0.7l-1.4,1.4c-1,0.8-2,1.7-3,2.4c-1,0.7-2.1,1.5-3.1,2.2l-3.3,1.9c-1.1,0.7-2.2,1.2-3.3,1.8
			c-1.1,0.6-2.2,1.2-3.4,1.6l-3.4,1.5c-1.1,0.5-2.3,0.9-3.5,1.4l-3.5,1.3c-1.2,0.5-2.4,0.8-3.5,1.2l-5.3,1.7l-9,2.5h0l-0.3,0
			l-4.7,0.9c-1.7,0.3-3.3,0.6-5,0.9c-1.7,0.3-3.3,0.5-5,0.8c-1.7,0.2-3.3,0.5-5,0.7c-1.7,0.2-3.3,0.4-5,0.6l-5,0.5l-5,0.3
			c-1.7,0.1-3.4,0.1-5,0.2l-2.5,0.1l-2.5,0c-1.7,0-3.4,0.1-5,0l-5-0.1c-1.7,0-3.4-0.1-5-0.2c-1.7-0.1-3.4-0.1-5-0.3l-5-0.4
			c-1.7-0.1-3.3-0.3-5-0.5l-5-0.6l5,0.5c1.7,0.2,3.3,0.3,5,0.4l5,0.3c1.7,0.1,3.4,0.1,5,0.1c1.7,0,3.4,0.1,5,0l5-0.1
			c1.7,0,3.3-0.1,5-0.2l2.5-0.1l2.5-0.2c1.7-0.1,3.3-0.2,5-0.4l5-0.5l5-0.6c1.7-0.2,3.3-0.5,5-0.7c1.7-0.2,3.3-0.5,4.9-0.8
			c1.6-0.3,3.3-0.6,4.9-0.9c1.6-0.3,3.3-0.7,4.9-1l2.4-0.6l1.2-0.3l0.6-0.1c0.3-0.1,0.6-0.1,0.9-0.1l-0.3,0h0l8.9-2.6l1.7-0.6
			l3.5-1.2c1.2-0.4,2.3-0.7,3.5-1.2l3.4-1.3c1.1-0.4,2.3-0.8,3.4-1.4l3.4-1.5c1.1-0.5,2.2-1,3.3-1.6c1.1-0.6,2.2-1.1,3.2-1.7
			l3.1-1.8c1-0.7,2-1.4,3-2c1-0.7,1.9-1.5,2.8-2.2l1.3-1.2l0.6-0.6l0.6-0.7c0.8-0.9,1.4-1.8,2-2.8l0.4-0.7c0.1-0.2,0.2-0.5,0.3-0.7
			c0.1-0.2,0.2-0.5,0.2-0.7c0-0.1,0.1-0.2,0.1-0.3c0-0.1,0-0.2,0-0.2l0-0.1c0-0.8-0.2-1.5-0.4-2.2c-0.3-0.7-0.7-1.4-1.2-2.1
			c-1.1-1.3-2.5-2.3-4-3.3c-3.1-1.8-6.6-3.1-10.1-4.2c-7.1-2.1-14.5-3.4-21.9-4.4c-7.4-1-14.9-1.7-22.4-2.1
			c-7.5-0.5-15-0.8-22.5-0.9L96.8,69.7"/>
	</g>
	<polyline fill="#BA283B" points="81.3,60.5 81.3,80.7 84.6,80.7 84.6,71 94.8,71 94.8,80.7 98.1,80.7 98.1,60.5 94.7,60.5 
		94.7,69.7 84.5,69.7 84.5,60.5 81.3,60.5 	"/>
	<path fill="#BA283B" d="M109.4,71.1c0,0,4.6-1.4,4.6-5.4c0-0.9-0.3-5.3-6.2-5.3c-6,0-7.9,0-7.9,0v20.2h3.3v-9.5h2.5l6.8,9.5h4
		L109.4,71.1 M107.6,69.7h-4.4v-8c0,0,1.2,0,2.7,0c4.2,0,4.7,3.5,4.7,4C110.6,68.8,107.6,69.7,107.6,69.7z"/>
</g>
</svg>
