<?xml version="1.0" encoding="utf-8"?>
<!-- Generator: Adobe Illustrator 18.1.1, SVG Export Plug-In . SVG Version: 6.00 Build 0)  -->
<svg version="1.1" id="Layer_14" xmlns="http://www.w3.org/2000/svg" xmlns:xlink="http://www.w3.org/1999/xlink" x="0px" y="0px"
	 viewBox="0 0 390 292.5" enable-background="new 0 0 390 292.5" xml:space="preserve">
<g>
	<path fill="#FFFFFF" d="M289.9,146.2c0,73.9-42.4,133.8-94.9,133.8s-94.9-59.9-94.9-133.8S142.5,12.5,195,12.5
		S289.9,72.4,289.9,146.2"/>
</g>
<path fill="#D2232A" d="M135.3,226.1c0-1.4,0-1.4-1.4-1.6V224h4.1c2.7,0,4.7,0.8,4.7,4.9c0,4.5-2.5,4.9-5.3,4.9h-2.1V226.1
	 M137,232.3c0,0.6,0,1,1,1c2.7,0,3.3-1.2,3.3-4.1c0-2.5-0.2-4.1-3.1-4.1c-0.8,0-1.2,0-1.2,0.8V232.3z"/>
<path fill="#D2232A" d="M146.8,226.1c0-0.2,0.2-0.8,0.2-0.8c0-0.6-0.6-0.6-1-0.6v-0.4h2.7l3.5,9.9h-1.4l-1-3.1H146l-1,3.1h-0.8
	L146.8,226.1 M146.2,230.2h3.3l-1.6-4.3L146.2,230.2z"/>
<path fill="#D2232A" d="M154.3,226.1c0-1.2,0-1.2-1.4-1.4v-0.2l3.1-0.4v8.2c0,1,0,1,1,1h1.2c0.8,0,1.6,0,1.6-1.4h0.4v2.1h-6
	L154.3,226.1"/>
<path fill="#D2232A" d="M162.7,226.1c0-1.2,0-1.2-1.4-1.4v-0.2l3.1-0.4v8.2c0,1,0,1,1,1h1.2c0.8,0,1.6,0,1.6-1.4h0.4v2.1h-6
	L162.7,226.1"/>
<path fill="#D2232A" d="M172.8,226.1c0-0.2,0.2-0.8,0.2-0.8c0-0.6-0.6-0.6-1-0.6v-0.4h2.7l3.5,9.9h-1.4l-1-3.1H172l-1,3.1h-0.8
	L172.8,226.1 M172.2,230.2h3.3l-1.6-4.3L172.2,230.2z"/>
<path fill="#D2232A" d="M185.1,225.5c-0.4-0.2-1.4-0.6-2.7-0.6c-0.8,0-1.4,0.4-1.4,1.4c0,2.3,4.7,2.1,4.7,5.1c0,2.1-1.6,2.9-3.7,2.9
	c-1,0-2.3-0.2-2.5-0.4v-1.2c0.4,0.2,1.6,0.8,2.7,0.8c0.8,0,1.9-0.4,1.9-1.6c0-2.3-4.7-2.1-4.7-5.1c0-1.6,1.2-2.5,3.3-2.5
	c1,0,1.9,0.2,2.3,0.2v1"/>
<path fill="#D2232A" d="M193.4,226.1c0-1.4,0-1.4-1.4-1.6V224h4.3c1.6,0,3.5,0.4,3.5,2.3c0,1.4-1,2.1-1.6,2.3l0,0
	c1,0.2,2.3,0.8,2.3,2.7c0,2.7-2.9,2.7-4.1,2.7h-2.7L193.4,226.1 M195,228.6h1c1.2,0,2.3-0.4,2.3-1.9c0-1.2-0.8-1.6-2.1-1.6
	c-0.8,0-1,0-1,0.8L195,228.6L195,228.6z M195,232.7c0,0.6,0.6,0.6,1.4,0.6c1.6,0,2.3-0.6,2.3-2.3c0-1.4-1-1.9-2.3-1.9H195V232.7z"/>
<path fill="#D2232A" d="M209.6,230.2c0,1.9-0.2,3.9-3.5,3.9c-2.5,0-3.5-1.2-3.5-3.3v-4.7c0-1.2,0-1.2-1.4-1.4v-0.2l3.1-0.4v6
	c0,1.6,0,3.5,2.1,3.5c2.3,0,2.3-1.6,2.3-3.1v-6.2h1L209.6,230.2"/>
<path fill="#D2232A" d="M212.7,226.1c0-1.4,0-1.4-1.4-1.6V224h3.5c1,0,4.1,0,4.1,2.7c0,1.6-1,2.3-2.3,2.5l2.7,4.7h-1.6l-2.5-4.5
	h-0.8v4.5h-1.6V226.1 M214.3,228.8h0.8c1,0,2.3-0.2,2.3-1.9s-0.8-2.1-2.1-2.1c-1,0-1,0.2-1,1.2V228.8z"/>
<path fill="#D2232A" d="M226.5,225.5c-0.4-0.2-1.4-0.6-2.7-0.6c-0.8,0-1.4,0.4-1.4,1.4c0,2.3,4.7,2.1,4.7,5.1c0,2.1-1.6,2.9-3.7,2.9
	c-1,0-2.3-0.2-2.5-0.4v-1.2c0.4,0.2,1.6,0.8,2.7,0.8c0.8,0,1.9-0.4,1.9-1.6c0-2.3-4.7-2.1-4.7-5.1c0-1.6,1.2-2.5,3.3-2.5
	c1,0,1.9,0.2,2.3,0.2L226.5,225.5"/>
<path fill="#D2232A" d="M231.2,224.9h-1c-1.2,0-1.4,0.4-1.6,1.4h-0.4v-2.1h7.4v2.1h-0.4c0-1-0.4-1.4-1.6-1.4h-1v9.1h-1.6v-9.1"/>
<path fill="#D2232A" d="M236.8,229.2c0-3.1,0.8-5.1,4.1-5.1c3.1,0,3.9,2.1,3.9,5.1c0,3.1-0.8,4.9-3.9,4.9
	C237.8,234.1,236.8,232.3,236.8,229.2 M240.9,233.5c2.3,0,2.3-2.5,2.3-4.3c0-1.9-0.2-4.3-2.3-4.3c-2.3,0-2.5,2.5-2.5,4.3
	C238.4,231,238.6,233.5,240.9,233.5z"/>
<path fill="#D2232A" d="M247.5,226.1c0-1.4-0.2-1.2-1.4-1.4v-0.4h3.1l4.5,7.8l0,0v-7.8h0.8v9.9H253l-4.7-8.2l0,0v8.2h-0.8V226.1"/>
<path fill="#D2232A" d="M157.1,240.5c0-1.4,0-1.4-1.4-1.6v-0.4h4.5c1.9,0,2.9,1,2.9,2.7c0,2.7-2.3,2.7-3.9,2.7h-0.4v4.3h-1.6V240.5
	 M158.8,243.4h0.8c1.2,0,2.1-0.4,2.1-2.1c0-1.6-0.8-1.9-2.1-1.9c-0.8,0-0.8,0.2-0.8,0.8V243.4z"/>
<path fill="#D2232A" d="M165,243.6c0-3.1,0.8-5.1,4.1-5.1c3.1,0,3.9,2.1,3.9,5.1c0,3.1-0.8,4.9-3.9,4.9
	C166,248.5,165,246.7,165,243.6 M168.9,247.9c2.3,0,2.3-2.5,2.3-4.3c0-1.9-0.2-4.3-2.3-4.3c-2.3,0-2.5,2.5-2.5,4.3
	C166.6,245.2,166.8,247.9,168.9,247.9z"/>
<path fill="#D2232A" d="M175.7,240.5c0-1.2,0-1.2-1.4-1.4v-0.2l3.1-0.4v8.2c0,1,0,1,1,1h1.2c0.8,0,1.6,0,1.6-1.4h0.4v2.1h-6
	L175.7,240.5"/>
<path fill="#D2232A" d="M183.3,243.6c0-3.1,0.8-5.1,4.1-5.1c3.1,0,3.9,2.1,3.9,5.1c0,3.1-0.8,4.9-3.9,4.9
	C184.3,248.5,183.3,246.7,183.3,243.6 M187.4,247.9c2.3,0,2.3-2.5,2.3-4.3c0-1.9-0.2-4.3-2.3-4.3c-2.3,0-2.5,2.5-2.5,4.3
	C184.9,245.2,185.1,247.9,187.4,247.9z"/>
<path fill="#D2232A" d="M205.5,247.9c-0.4,0.2-1.4,0.6-2.9,0.6c-2.9,0-4.1-1.9-4.1-5.1c0-2.7,0.8-4.9,4.1-4.9c2.3,0,3.1,1,3.3,2.1
	h-1.6c0-0.4-0.4-1.4-1.6-1.4c-2.1,0-2.3,2.5-2.3,3.9c0,1.6,0.2,4.7,2.9,4.7c1.2,0,2.1-0.4,2.5-0.8v1"/>
<path fill="#D2232A" d="M208,240.5c0-1.2,0-1.2-1.4-1.4v-0.2l3.1-0.4v8.2c0,1,0,1,1,1h1.2c0.8,0,1.6,0,1.6-1.4h0.4v2.1h-6L208,240.5
	"/>
<path fill="#D2232A" d="M223.4,244.6c0,1.9-0.2,3.9-3.5,3.9c-2.5,0-3.5-1.2-3.5-3.3v-4.7c0-1.2,0-1.2-1.4-1.4v-0.2l3.1-0.4v6
	c0,1.6,0,3.5,2.1,3.5c2.3,0,2.3-1.6,2.3-3.1v-6.2h1L223.4,244.6"/>
<path fill="#D2232A" d="M226.5,240.5c0-1.4,0-1.4-1.4-1.6v-0.4h4.3c1.6,0,3.5,0.4,3.5,2.3c0,1.4-1,2.1-1.6,2.3l0,0
	c1,0.2,2.3,0.8,2.3,2.7c0,2.7-2.9,2.7-4.1,2.7h-2.7v-7.8 M228.1,242.8h1c1.2,0,2.3-0.4,2.3-1.9c0-1.2-0.8-1.6-2.1-1.6
	c-0.8,0-1,0-1,0.8v2.7H228.1z M228.1,247.1c0,0.6,0.6,0.6,1.4,0.6c1.6,0,2.3-0.6,2.3-2.3c0-1.4-1-1.9-2.3-1.9h-1.2v3.5H228.1z"/>
<path fill="#BBBDC0" d="M198.7,83.3c0,0-0.2,0.2-0.2,0.8c0,0.2-0.6,1.2-0.8,2.1c-0.2,0.8,0.4,2.9,0.4,2.9s-3.7-2.7-4.3-2.9
	c-0.4-0.2-1-0.4-1-0.4s-1.6-1-2.7-1.2c-1.2-0.2-2.9-0.4-3.1-0.6c-0.2-0.2-1.2-1.6-1.2-1.6s-0.4-0.4-0.6-0.2
	c-0.2,0.2-1.6,0.8-1.6,0.8s-0.4-0.4-0.2-0.8c0.2-0.4-0.2-1-0.2-1s0.2-0.4,0.2-0.6c-0.2-0.8-2.1-4.5-5.6-5.6c-3.3-0.8-6.4,0-8.4,3.3
	c-1.9,3.3-0.2,6.4-0.2,6.6s-2.9,2.1-2.3,2.7c0.6,0.6,4.3-0.8,4.3-0.8s0.2,0.2,0,0.6c0,0.6-0.6,1.9,0,2.1c0.4,0,0.4,0,0.8,0
	c0.6,0,0.4,0.2,0.6,0.6c0,0.4,0.6,0.4,0.6,0.4s0,0.4,0.2,0.6c0.2,0,0.6,0.2,0.8,0.6c0,0.2,0.2,1,0.8,1c0.8,0,2.1-1.2,2.1-1.2
	s0.2,0,0.6,0c0.2,0,0.6-0.4,0.6-0.4l0.4,0.2c0,0-0.2,1-0.2,1.2s0.6,0.2,0.6,0.2s0,1.4,0.2,2.1c0.2,0.8,1,1.4,1.2,1.6
	c0.2,0.4,0.6,1.6,1,2.5c0.4,0.8,2.1,3.5,2.5,3.9c0.4,0.6,2.5,4.5,2.9,5.1c0.4,0.6,0.8,0.8,1,1.2c0.2,0.4,0.8,1.9,1.2,2.3
	c0.2,0.4,0.8,1,0.8,1s0,0.8-0.4,1.2c-0.4,0.4-1.2,0.8-1.4,1.2c-0.2,0.4-0.6,1.2-0.8,1.2c-0.2,0.2-0.4,0.6-0.4,0.8
	c0,0.2,0,0.4-0.2,0.4s-0.6,0.6-0.8,0.8c-0.2,0.2-0.4,0.8-0.4,1c0,0-0.4,0.4-1,0.8c-1.4-2.7-3.1-6.6-3.9-8c-1-2.5-4.7-7.2-4.9-7.6
	c-0.4-0.2-0.4-1-0.2-1.6c0.4-0.6,1.6-2.5,1.9-3.7c0.2-1.2,0-2.1,0-2.9c0-0.6-1.2,1-1.6,1.6c-0.4,0.6-3.5,3.1-3.5,3.1s-0.4,0-1-0.2
	c-0.4,0-1.4-0.2-1.4-0.2s-0.8-3.5-1.2-4.1c-0.4-0.6-1.6,1.9-2.1,2.5c-0.6,0.6-0.8,3.9-0.8,3.9l-1,0.8c0,0-1.2,0.4-1.4,0.6
	c-0.2,0.2,0,1,0,1s-1,1-1.4,1.6s-1.9,1.9-2.5,2.3c-0.4,0.4-0.6,1.2-0.6,1.9s0,1.9,0,1.9l-3.5,5.3c0,0-0.6,0.2-0.8,0.4
	c-0.2,0.2,0,0.8,0,0.8s-0.8,2.3-1,2.5c-0.2,0.4-0.8,1.2-1.4,1.9c-0.6,0.6-0.2,3.7-0.2,4.3c0,0.6-0.2,1-0.2,2.1c0,1,2.1,0.8,2.7,1
	s0.6,0.2,1.2,0.4c0.4,0.4,1,0.2,1.2,0.2s2.9-0.2,3.5-0.2l0,0c0.2,0.4,0.2,0.6,0.4,1l0,0c-0.2,0.2-0.2,0.4-0.2,0.6s0,0.4,0.2,0.4
	c0,1.9,0.4,4.9,0.6,6c0.6,6.6,3.7,10.7,5.6,11.7c1.4,0.8,3.1,1.2,3.9,1.4c-0.2,1.2-0.2,2.5,0,3.7c0.6,3.5,2.5,5.6,2.5,6
	c0,0.4-4.3,6.2-5.3,7.4c-0.8,1.2-5.3,5.6-6.2,6.2c-0.8,0.8-0.6,2.3-0.6,2.3s-0.4,1.2-0.2,2.5c0,1.2,1.2,2.3,1.2,2.7
	c0.2,0.4-0.4,0.8-0.4,1.6c0,0.8,1.6,3.9,2.1,5.6s1.4,6.2,2.3,7c0.4,0.4,2.1,0.2,2.7,0.4c0.6,0.2,1.4,1.9,1.9,2.7
	c0.2,0.6,1.2,0.6,1.4,0.8c0.2,0.2,0.8,0.4,0.8,0.4s1.4,1.6,2.5,1.9c2.3,0.6,3.3-1.6,2.9-4.3c-0.4-2.9-1.6-3.5-2.1-3.5
	c-0.4-0.2-1.6-0.2-1.6-0.2s-0.6-0.4-0.8-0.4c-0.6-0.4-1.4,0-1.6,0s-0.8-0.6-0.8-0.8c0-0.2,0.2-1-0.4-2.7c-0.4-1-1.2-1-1.6-1.9
	c-0.6-0.8-2.5-6.4-2.9-6.8c-0.2-0.4-0.6-1.2-0.6-2.1c0-0.8,0.8-2.7,1.4-2.9c0.4-0.2,1-0.8,2.3-1.4c1-0.6,2.5-1,3.7-1.4
	c1.4-0.6,2.9-1.9,4.3-2.7c0.8-0.4,1.6-0.6,2.3-0.6c0.8,1.2,2.1,3.1,4.1,3.9c1.2,0.6,2.3,0.6,3.1,0.4c-0.6,2.3-1.4,4.7-2.1,5.3
	c-0.8,1.4-4.1,7.8-4.5,8.4c-0.4,0.6,0.2,1.9,0.4,2.3c0.2,0.4,0.4,1.9,0.8,2.5s5.6,2.3,6.8,2.9c1.2,0.6,2.5,1.2,2.9,1.6
	c0.4,0.6,2.1,0.6,3.1,0.6c1,0.2,2.1-0.2,2.3-0.4c0.2-0.2,1-0.4,1.6-0.6c0.6,0,2.1,0.6,2.3,0.8s1,0,1,0s2.9,1,3.5,1
	c0.6,0,0.8-2.1,0.6-3.3c-0.4-2.3-1.2-2.9-1.6-3.1c-0.2-0.2-1-0.2-1-0.2s-0.6-0.4-0.8-0.4c-0.4-0.2-1.2-0.2-1.9-0.2
	c-0.6,0-1,0.8-1.4,1c-0.4,0.2-2.3-0.4-2.3-0.4s-0.6-0.2-0.8-0.6c-0.2-0.4-1.6-0.6-1.6-0.6s0-0.4,0-0.6c-0.2-0.2-0.8-0.4-1-0.4
	c0,0.2,0,0.4,0,0.4l-2.1-0.6v-0.4c0-0.2-1-0.4-1-0.4c0,0.2,0,0.4,0,0.4s-1.9-0.6-2.1-0.4c-0.2,0-0.4,0.4-0.8,0.4s-0.6-1.2-0.4-1.6
	c0-0.4,10.1-13.8,10.5-14.6c0.4-0.6,1-1.4,2.1-1.9c1-0.4,1.4-1.4,1.6-1.6c0.4-0.2,4.5,0,9.9-1.6c0.2,0,0.2,9.1,0.4,10.5
	c0.2,1.4,1,3.1,1.2,4.3c0.2,1.2-0.8,9.5-1.2,10.5c-0.4,1-7.6,13.2-7.8,13.8c-0.4,0.6-4.1,3.3-4.7,3.7s-0.6,1-0.6,1s-3.1,3.1-2.3,4.1
	c0.2,0.4,6.6,0.4,8-0.2c0.4-0.2,1-1.4,1-1.4s0.6-0.2,0.6-0.4c0.2-0.6-0.4-1.2-0.4-1.6c0-0.2,1.2-0.2,2.3-0.8
	c0.8-0.4,4.7-8.6,4.7-8.6s3.7-0.8,5.1-2.3c0.2-0.2,0-1.6,0-2.3c0-0.4,0.2-0.4,0.2-0.8s-0.8-0.4-0.8-1.2c0-0.8,0.6-0.8,1.2-1
	c0.6-0.2,1.4-1.2,1.6-1.9c0.6-1,6-4.9,6.8-5.6c0.8-0.6,4.9-3.3,5.8-3.5c0.8-0.2,0.8-0.6,1.4-1.9c0.8-1.2,0.8-1.9,0.4-3.1
	c-0.4-1.2,1-6.8,1.2-9.5s4.1-6.2,5.8-7.6c1.9-1.9,3.7-3.9,7.2-10.3c1.4-2.7,1-6.6-0.4-10.3c0.4,0.4,1,0.8,1.6,1.4
	c0.6,0.4,2.1,0.8,2.1,0.8s0.4,0.8,1.2,1.4c0,0.2-0.4,0.8,0,2.3c0.2,1,1.6,2.1,1.6,2.1s0,1,0.6,2.1c0.8,1,1.6,1.4,1.9,1.4
	c0,0,0.4,1.4,1.4,1c1-0.2,1-1,0.6-1.9c-0.2-0.8,0.8-1,0.4-2.3c-0.2-1.2-1-1.9-1-1.9s0.4-1.2-0.4-2.1c-0.8-0.8-1.9-1.2-2.5-1.4
	c-0.6-0.4-1.2-1.4-1.2-1.4s0.4-1.2-0.4-2.3c-0.8-0.8-2.9-1.2-2.9-1.2s-1.6-0.8-2.1-1.6c-0.6-1.6-1.2-2.7-3.3-2.9
	c-0.8,0-1.4-0.2-1.9-0.2c-1.9-2.1-3.9-3.5-5.3-4.9c-4.7-4.9-7.6-2.9-9.5-3.5c-4.3-1.6-9.1,0.2-9.1,0.2s0.2-0.4,0-1
	c-0.4-0.8-0.8-1.2-0.8-1.2s1.2-2.1-1-3.7c-2.5-1.6-7.2,2.9-9.1,3.9c0.2-0.4,2.3-3.9,1.9-9.3c-0.2-3.5-2.3-5.3-2.5-5.6
	c-0.2-0.2-0.4-2.3-0.4-2.3s-0.2-0.2-0.4-0.2c0,0,0-0.8-0.2-1.2c0-0.4-0.6-1.6-0.8-2.1c-0.2-0.2-1-1.2-1.2-2.1
	c-0.2-0.8-1.6-2.3-1.9-2.7c-0.4-0.4-1.4-1.4-1.6-1.9c-0.2-0.4-0.4-2.9-0.4-2.9s1,0.6,1.4,0.6s0.8,0,1,0s0.6,0.2,1-0.2
	c0.2-0.4,1-1,0.8-2.3s-0.6-2.7-1-3.1c-0.4-0.4-0.8-0.8-1-1s-0.2-0.6-0.2-0.6c0-0.2,0.2-0.2,0.4-0.2c0.4-0.4,0.6-1.2,0.6-1.9
	c0.2-0.6,0.2-0.8,0-1s-0.2-0.4-0.2-0.8c0-0.4,0-0.4-0.2-0.6c-0.2,0-0.4-0.2-0.4-0.2s0.4-1,0.4-1.2s-0.4-0.6-0.6-0.6s-0.6,0-0.6,0
	s0.2-1.4,0.2-1.9c0-0.4-0.2-1-0.4-1.2c-0.2-0.2-0.6,0-0.6,0s-0.8-1.6-1.2-2.9 M166.6,125.7c1.2-0.6,1.9-1.4,1.9-1.4s0.8-0.4,1-0.2
	c0,0,0.2,0.6,0.2,1.6c-1.2,0.4-3.7,0.8-5.1,0.8C165.4,126.3,166.2,125.9,166.6,125.7z M163.3,127.7c1.6,0,4.9-0.8,6.6-1.2
	c0,0.4,0,0.8,0.2,1c-1.2,0.4-3.5,1-4.7,1.4c-0.2-0.2-0.6-0.4-1-0.4s-0.8,0.2-1,0.6C163.3,128.8,163.3,128.3,163.3,127.7z
	 M163.3,129.6c0-0.4,0.4-0.8,1-0.8c0.2,0,0.4,0.2,0.6,0.2c-0.4,0,0,1,0.2,1c-0.2,0.4-0.4,0.6-0.8,0.6c-0.2,0-0.6-0.2-0.6-0.4
	c0.2,0,0.4-0.2,0.4-0.4C163.9,129.8,163.7,129.6,163.3,129.6z M160.8,131.8c-0.2-0.2-0.4-0.4-0.4-0.8c0.4-0.2,0.8-0.8,0.8-1.2
	c0.2-0.6,0.6-2.1,0.6-2.1l0,0c0.2,1.9,0.4,3.5,0.2,4.1c-0.2,0-0.4,0-0.6,0C161.5,131.8,161,131.8,160.8,131.8z M172.4,143
	c0,0.2-0.2,1-0.4,1.9c-0.2,0.2-0.6,0.6-0.8,1.2c0,0.6,0,0.8,0.2,1.2c0,0.2,0,0.4,0,0.4s-0.4,1.4-0.8,3.3c-0.8,0-2.9-0.2-4.7-1.2
	c-0.8-0.6-2.5-3.7-3.5-7c-0.8-3.3-0.2-8-0.2-9.1c0.4-0.2,0.8-0.4,0.8-0.8c0-0.2-0.2-0.6-0.4-0.6c0.2-1,0-3.1-0.2-4.5h0.2
	c0,1,0,2.9,0.4,2.9c0,0,0.2,0,0.4,0c0.2,0.4,0.6,0.6,1,0.6c0.6,0,1-0.4,1.2-0.8c1.4-0.4,3.3-1,4.7-1.6c0.2,1.2,0.4,2.7,0.6,4.1
	C171.3,136.8,172.4,141.1,172.4,143z M193.1,116.4c0.6,0.2,1.4,1.9,1.4,1.9l-0.8,0.6c0,0-0.2-0.4-0.6-0.8c-0.2-0.2-0.6-0.6-0.6-0.6
	L193.1,116.4z M187.6,119.3c0,0,0.2,0.4,0.6,0.4s1-0.2,1-0.2s0.2,0.2,0.6,0c0.2,0,0.6-0.2,0.6-0.2s0,0.2,0.4,0.2s0.8-0.2,0.8-0.2
	l0.4-0.4l0.8,0.6c0,0-3.3,3.3-4.9,6.2c-0.4-0.6-1-1.6-1.4-2.3c0-1.2,0.2-2.5,0.2-2.9C186.8,120.1,187.6,119.3,187.6,119.3z
	 M185.5,119.3l0.8-0.6l0.4,0.2c0,0-0.2,0.4-0.4,0.6c-0.2,0-0.6,0.2-0.8,0.2C185.5,119.9,185.5,119.3,185.5,119.3z M186.4,120.3
	c0,0-0.2,0.4-0.2,0.8c0,0.2,0,1-0.2,1.9c0-0.2-0.2-0.4-0.2-0.4c-0.2-0.2-0.4-0.6-0.6-1.2c0-0.2,0-0.2,0-0.2
	C185.3,120.9,186.4,120.3,186.4,120.3z M184.9,119.7v0.4l-0.2,0.2c0-0.2-0.2-0.2-0.2-0.4L184.9,119.7z M186.8,175.3
	c-0.6,0.2-1.9,0.6-2.9,0c-1.2-0.8-2.7-2.5-3.3-3.5c0.8-0.4,1.4-1.4,2.1-1.4c0.8,0,4.9,2.3,4.9,2.3S187.4,173.6,186.8,175.3z
	 M226.3,178.8c-0.6,1-1.6,1.4-1.4,2.5c0.2,0.4-0.2,2.9-0.8,2.9c-0.6,0-1.2,0.6-1.4,1.4c0,0.4-2.9,2.3-3.7,2.9
	c-0.4,0.2-0.2-4.7-0.4-6.6c-0.2-2.1,0.8-7,1.2-8.2c0.4-1,0.4-2.3,1.2-2.9c0.8-0.6,7-7.2,7.4-6.4
	C228.3,164.4,226.9,177.7,226.3,178.8z"/>
<path fill="#BBBDC0" d="M200.8,80.8c-0.2-0.4-4.9-15.8-12.6-30c-6.4-11.7-16-22.4-16-22.4l2.9-2.3c0,0,0.6-0.4,0.6-1
	c0-0.4-0.4-0.8-0.4-0.8s-2.5-0.2-2.9,0c-0.4,0.2-6,4.1-6,4.9s0.2,0.8,0.4,1.2c0.2,0.4,0.8,0.6,1.4,0.2c0.6-0.4,2.7-1.9,2.7-1.9
	c1.9,1.9,10.7,11.3,16,22.2c6.2,12.3,10.5,23.7,12.3,30.2"/>
<path fill="#D2232A" d="M222.4,107.8c-11.1,0-17.5,0.6-26.1,0.6c-6.6,0-7.4-0.2-8-1c-0.2-0.4-0.4-0.6-0.6-0.6
	c-0.6,0.6-1.2,2.1-1.2,3.3c0,1.6,1,2.1,3.3,2.1c4.1,0,15.8-2.7,23-2.7c1.6,0,1.2,1,1,1.6c-4.5,9.9-13.2,25.9-18.1,35.2
	c-6.2,11.3-15.8,28.8-24.3,43.2c-0.8,1.2-1.6,2.7-4.9,6.4l1.2,1c3.5-2.9,9.1-5.3,11.1-5.3c1,0,2.9,0.8,4.5,1.9
	c7.4,3.7,16.9,4.9,24.5,4.9c26.3,0,42.6-17.1,42.6-31.9c0-11.9-12.3-14-19.8-15.4c-0.4,0-0.4-0.2-0.4-0.4c0-0.2,0-0.6,0.4-0.6
	c20.8-4.7,28-18.7,28-26.1C258.6,109.8,246.4,107.8,222.4,107.8 M248.9,122.4c0,13-10.1,22.4-19.5,26.5c-2.1,0.8-5.6,1.2-8,1.2
	c-2.9,0-5.6-1.2-8.4-1.2c-1.2,0-2.3,1.2-2.3,2.5c0,1.6,0.4,1.9,1.2,2.1c3.3,0,8.4-1.4,12.1-1.4c10.5,0.6,16.7,4.5,16.7,12.3
	c0,18.3-19.3,31.7-37.5,32.3c-14.2,0.2-19.1-7.6-19.1-10.5c0.2-1.4,0.6-2.5,1.2-3.5c9.9-19.8,20.6-40.3,29.2-55.8
	c2.7-4.5,5.8-10.1,8.8-14c1.9-2.5,4.5-2.9,7.4-2.9C239.4,109.8,248.9,112.1,248.9,122.4z"/>
<path fill="#D2232A" d="M132.7,170.9c3.5-2.9,8.2-4.9,10.3-4.9c1.2,0,2.3,0.4,3.3,1c8,4.1,16,4.9,25.1,4.9c10.9,0,22-2.1,32.1-6.4
	c20.2-9.1,37.9-33.3,37.9-55.6c0-24.1-22.4-28-43-28c-6.6,0-13,0.4-19.5,0.6c-5.6,0.4-14.6,1-19.3,1c-3.7,0-8.2-2.5-8.6-2.5
	c-0.8,0-1,2.3-1,2.9c0,2.5,1.2,3.1,3.5,3.1c8.6-0.2,16.7-2.7,25.1-2.7c0.6,0,1.6,0.2,1.6,1c-5.3,12.1-36,64.8-40.7,72.8
	c-1.6,3.1-4.7,7.8-8.2,11.5L132.7,170.9 M231,108.8c0,34.8-27.4,61.5-59.7,61.5c-8.2,0-16.7-2.5-21.4-7.2c-0.8-0.8-1.2-1.6-1.2-2.5
	c0-0.6,0.4-1.6,0.8-2.5c9.7-19.8,27.6-51.4,40.7-72c1.6-2.7,3.5-2.5,6.4-2.5C224.4,84.1,231,97.1,231,108.8z"/>
<path fill="#D2232A" d="M150.3,200.6c-1.9,0-3.1,1.4-3.1,3.1s1.4,3.1,3.1,3.1c1.9,0,3.1-1.4,3.1-3.1
	C153.4,202,152,200.6,150.3,200.6"/>
<path fill="#D2232A" d="M129.6,238.2c-16.7-23.7-27-56.2-27-92l0,0c0-36,10.3-68.5,27-92l0,0C146.2,30.6,169.5,16,195,16l0,0
	c25.5,0,48.8,14.6,65.4,38.3l0,0c16.7,23.7,27,56.2,27,92l0,0c0,36-10.3,68.5-27,92l0,0c-16.7,23.7-39.9,38.3-65.4,38.3l0,0
	C169.5,276.5,146.2,261.9,129.6,238.2L129.6,238.2z M130.4,54.9c-16.7,23.5-26.8,55.8-26.8,91.4l0,0c0,35.8,10.3,68.1,26.8,91.4l0,0
	c16.7,23.5,39.5,37.9,64.6,37.9l0,0c25.1,0,47.9-14.4,64.6-37.9l0,0c16.7-23.5,26.8-55.8,26.8-91.4l0,0c0-35.8-10.3-68.1-26.8-91.4
	l0,0C242.9,31.4,220.1,17,195,17l0,0l0,0l0,0C169.9,17,147.1,31.4,130.4,54.9L130.4,54.9z"/>
<path fill="#D2232A" d="M174.8,255.3l-1,3.5h-3.7l2.9,2.1l-1,3.5l2.9-2.1l2.9,2.1l-1-3.5l2.9-2.1h-3.7L174.8,255.3 M184.9,255.3
	l-1,3.5h-3.7l2.9,2.1l-1,3.5l2.9-2.1l2.9,2.1l-1-3.5l2.9-2.1h-3.7L184.9,255.3z M195,255.3l-1,3.5h-3.7l2.9,2.1l-1,3.5l2.9-2.1
	l2.9,2.1l-1-3.5l2.9-2.1H196L195,255.3z M205.1,255.3l-1,3.5h-3.7l2.9,2.1l-1,3.5l2.9-2.1l2.9,2.1l-1-3.5l2.9-2.1h-3.7L205.1,255.3z
	 M215.2,255.3l-1,3.5h-3.7l2.9,2.1l-1,3.5l2.9-2.1l2.9,2.1l-1-3.5l2.9-2.1h-3.7L215.2,255.3z"/>
<g>
</g>
<g>
</g>
<g>
</g>
<g>
</g>
<g>
</g>
<g>
</g>
<g>
</g>
<g>
</g>
<g>
</g>
<g>
</g>
</svg>
