<?xml version="1.0" encoding="utf-8"?>
<!-- Generator: Adobe Illustrator 18.1.1, SVG Export Plug-In . SVG Version: 6.00 Build 0)  -->
<svg version="1.1" id="SLM_Builders" xmlns="http://www.w3.org/2000/svg" xmlns:xlink="http://www.w3.org/1999/xlink" x="0px"
	 y="0px" viewBox="0 0 390 292.5" enable-background="new 0 0 390 292.5" xml:space="preserve">
<g>
	<g>
		<g>
			<g>
				<g enable-background="new    ">
					<g>
						<polygon fill="#506177" points="343.4,128.2 355,121.4 377.9,134.6 366.2,141.4 						"/>
					</g>
					<g>
						<polygon fill="#2B3C53" points="343.5,101.9 355.1,95.2 355,121.4 343.4,128.2 						"/>
					</g>
					<g>
						<polygon fill="#1FB5C3" points="343.4,101.9 355.1,95.2 377.9,107.7 366.2,114.5 						"/>
					</g>
					<g>
						<polygon fill="#1294A1" points="366.2,114.5 377.9,107.7 377.8,134.6 366.2,141.4 						"/>
					</g>
				</g>
			</g>
			<g>
				<g enable-background="new    ">
					<g>
						<polygon fill="#506177" points="327,138.1 338.6,131.4 361.5,144.6 349.8,151.3 						"/>
					</g>
					<g>
						<polygon fill="#2B3C53" points="327.1,111.9 338.7,105.1 338.6,131.4 327,138.1 						"/>
					</g>
					<g>
						<polygon fill="#1FB5C3" points="327,111.9 338.6,105.1 361.5,117.7 349.8,124.4 						"/>
					</g>
					<g>
						<polygon fill="#1294A1" points="349.8,124.4 361.5,117.7 361.4,144.6 349.8,151.3 						"/>
					</g>
				</g>
			</g>
		</g>
		<g>
			<path fill="#1FB5C3" d="M31.2,143.4c1.6,0.7,3,1.7,4.4,3.1l-4.1,4.1c-1.4-1.6-3.3-2.5-5.7-2.5s-4,0.6-4.7,1.7
				c-0.7,1.2-0.7,2.2,0,3c0.7,0.8,2.3,1.4,4.7,1.8c2.6,0.3,5,1.1,7.1,2.6c2.1,1.4,3.2,3.7,3.2,6.9c0,2.5-1.1,4.6-3.4,6.4
				c-2.3,1.8-4.9,2.7-7.9,2.7c-2.9,0-5.2-0.4-7.2-1.2c-1.9-0.8-3.6-1.9-4.9-3.3l4.1-4.1c1.4,1.6,3.7,2.6,7,2.9
				c2.7,0,4.4-0.6,5.1-1.7c0.7-1.2,0.7-2.3,0-3.5c-0.7-1.2-2.4-1.9-5.1-2.2c-2.5-0.3-4.7-1-6.8-2.3c-2.1-1.2-3.1-3.4-3.1-6.4
				c0-2.7,1.2-4.9,3.5-6.6c2.3-1.6,4.7-2.5,7.2-2.5C27.5,142.4,29.7,142.7,31.2,143.4z"/>
			<path fill="#1FB5C3" d="M47.8,142.4v25h16.4v5.7H41.6v-30.8H47.8z"/>
			<path fill="#1FB5C3" d="M69.3,173.2v-30.8h2.1l13.3,15.2L98,142.4h2.1v30.8h-6.2l0-17.8l-9.2,10.3l-9.2-10.3v17.8H69.3z"/>
			<path fill="#2B3C53" d="M128,156.9c2.7,1.8,4.1,4.1,4.3,7c-0.3,5.8-3.4,8.9-9.3,9.2l-17.3,0v-30.7H122c5.2,0.3,7.9,3.3,8.2,9
				C130.1,154.2,129.4,156,128,156.9z M111.9,154.8h8.6c2.5,0,3.7-1.3,3.8-3.8c-0.1-1.5-1.3-2.3-3.8-2.4h-8.7V154.8z M111.9,168.4
				h10.1c2.9,0,4.4-1.5,4.4-4.5c-0.1-2-1.5-3-4.4-3.1h-10.1V168.4z"/>
			<path fill="#2B3C53" d="M144.1,142.4v17.8c0,2.3,0.7,4,2.1,5.1c1.4,1.1,3.1,1.6,5.1,1.6c2.1,0,3.8-0.5,5.1-1.6
				c1.4-1.1,2.1-2.8,2.1-5.1v-17.8h6.2v19.5c0,3.1-1.3,5.8-3.8,8c-2.5,2.2-5.7,3.3-9.5,3.3s-7-1.1-9.5-3.3c-2.5-2.2-3.8-4.9-3.8-8
				v-19.5H144.1z"/>
			<path fill="#2B3C53" d="M171.3,142.4h6.1v30.8h-6.1V142.4z"/>
			<path fill="#2B3C53" d="M189.8,142.4v25h16.4v5.7h-22.6v-30.8H189.8z"/>
			<path fill="#2B3C53" d="M211.3,173.2v-30.8h11.9c9.6,0,14.4,5.1,14.4,15.4c0,10.3-4.8,15.4-14.4,15.4H211.3z M223.1,167
				c5.5,0,8.2-3.1,8.2-9.3c0-6.2-2.7-9.2-8.2-9.2h-5.7V167H223.1z"/>
			<path fill="#2B3C53" d="M244,173.2v-30.7l22.6,0v5.7h-16.4v6.6h12.3v5.7h-12.3v7h16.4v5.7H244z"/>
			<path fill="#2B3C53" d="M291.3,159.8l7.7,13.4h-7.1l-7.4-12.7H279v12.7h-6.2v-30.8h13.4c7.2,0,10.8,3,10.8,8.9
				C297,155.7,295.1,158.5,291.3,159.8z M279,154.7h8.6c2.5,0,3.7-1.2,3.8-3.4c-0.1-2-1.3-3.1-3.8-3.2H279V154.7z"/>
			<path fill="#2B3C53" d="M318.8,143.4c1.6,0.7,3,1.7,4.4,3.1l-4.1,4.1c-1.4-1.6-3.3-2.5-5.7-2.5c-2.5,0-4,0.6-4.7,1.7
				c-0.7,1.2-0.7,2.2,0,3c0.7,0.8,2.3,1.4,4.7,1.8c2.6,0.3,5,1.1,7.1,2.6c2.1,1.4,3.2,3.7,3.2,6.9c0,2.5-1.1,4.6-3.4,6.4
				c-2.3,1.8-4.9,2.7-7.9,2.7c-2.9,0-5.2-0.4-7.2-1.2c-1.9-0.8-3.6-1.9-4.9-3.3l4.1-4.1c1.4,1.6,3.7,2.6,7,2.9
				c2.7,0,4.4-0.6,5.1-1.7c0.7-1.2,0.7-2.3,0-3.5c-0.7-1.2-2.4-1.9-5.1-2.2c-2.5-0.3-4.7-1-6.8-2.3c-2.1-1.2-3.1-3.4-3.1-6.4
				c0-2.7,1.2-4.9,3.5-6.6c2.3-1.6,4.7-2.5,7.2-2.5C315.1,142.4,317.3,142.7,318.8,143.4z"/>
		</g>
	</g>
	<g>
		<path fill="#96969A" d="M17.4,194v-1c-0.2,0.3-0.4,0.6-0.6,0.8c-0.3,0.3-0.7,0.4-1.3,0.4c-0.8,0-1.4-0.3-1.9-0.8
			c-0.4-0.5-0.7-1.3-0.7-2.5c0-1,0.3-1.9,1-2.5c0.6-0.5,1.2-0.8,2.4-0.8h1.1v-1.8c0-1-0.5-1.6-1.3-1.6c-0.4,0-0.6,0.2-0.9,0.4
			c-0.3,0.3-0.4,0.7-0.4,1.3h-1.7c0-0.9,0.2-1.7,0.9-2.4c0.5-0.5,1.3-0.8,2.2-0.8c0.9,0,1.7,0.3,2.2,0.8c0.5,0.6,0.9,1.3,0.9,2.5
			v8.1H17.4z M17.3,188.8h-1c-0.5,0-0.9,0.1-1.3,0.4c-0.3,0.3-0.5,0.9-0.5,1.5c0,1.2,0.5,1.9,1.4,1.9c0.8,0,1.4-0.7,1.4-1.7V188.8z"
			/>
		<path fill="#96969A" d="M29.2,184.4c-1.2,0-2,0.8-2,2.1v7.6h-1.7v-11.2h1.7v1.2c0.2-0.3,0.5-0.6,0.8-0.8c0.5-0.4,1.1-0.6,1.8-0.6
			v1.7H29.2z"/>
		<path fill="#96969A" d="M32.5,188.8c0,1.8,0.1,2.8,0.5,3.3c0.2,0.3,0.5,0.5,1,0.5c0.4,0,0.7-0.2,1-0.4c0.2-0.3,0.4-0.8,0.4-1.3
			h1.7c0,1-0.3,1.8-0.9,2.5c-0.5,0.6-1.3,0.8-2.2,0.8c-1,0-1.6-0.3-2.2-0.9c-0.9-0.9-1-2.5-1-4.9s0.1-4,1-4.9
			c0.6-0.6,1.3-0.9,2.2-0.9c0.9,0,1.6,0.2,2.2,0.9c0.9,1,1,2.9,1,5.3H32.5z M34.9,184.7c-0.2-0.3-0.5-0.5-1-0.5
			c-0.5,0-0.8,0.2-1,0.5c-0.3,0.4-0.5,1.3-0.5,2.8h2.8C35.4,186,35.3,185.1,34.9,184.7z"/>
		<path fill="#96969A" d="M44.6,193.4c-0.5,0.5-1,0.8-1.9,0.8c-0.5,0-0.9-0.1-1.2-0.3c-0.2-0.1-0.5-0.4-0.6-0.6v5h-1.7v-15.4h1.7
			v0.9c0.1-0.2,0.5-0.6,0.7-0.7c0.3-0.2,0.8-0.3,1.2-0.3c0.8,0,1.4,0.2,1.9,0.8c0.7,0.8,0.8,2.4,0.8,4.9S45.3,192.5,44.6,193.4z
			 M43.2,184.7c-0.2-0.3-0.6-0.5-1-0.5c-0.3,0-0.7,0.1-0.9,0.3c-0.3,0.3-0.4,0.7-0.4,1.3v5.1c0,0.6,0.2,1,0.4,1.3
			c0.2,0.2,0.6,0.3,0.9,0.3c0.4,0,0.8-0.2,1-0.5c0.4-0.6,0.4-1.7,0.4-3.7S43.6,185.3,43.2,184.7z"/>
		<path fill="#96969A" d="M51.9,194v-0.9c-0.2,0.3-0.5,0.5-0.7,0.7c-0.3,0.2-0.8,0.3-1.2,0.3c-0.8,0-1.4-0.3-1.9-0.8
			c-0.5-0.5-0.7-1.1-0.7-2.3v-8.2h1.7v8.2c0,1,0.6,1.6,1.3,1.6c0.7,0,1.3-0.5,1.3-1.6v-8.2h1.7V194H51.9z"/>
		<path fill="#96969A" d="M57.4,193.3c-0.6-0.5-1-1.3-1-2.5v-6.6h-1.3v-1.4h1.3v-3.1h1.7v3.1h1.7v1.4h-1.7v6.6
			c0,1.2,0.6,1.7,1.8,1.7v1.6C59,194,58.1,193.9,57.4,193.3z"/>
		<path fill="#96969A" d="M65.7,194v-1c-0.2,0.3-0.4,0.6-0.6,0.8c-0.3,0.3-0.7,0.4-1.3,0.4c-0.8,0-1.4-0.3-1.9-0.8
			c-0.4-0.5-0.7-1.3-0.7-2.5c0-1,0.3-1.9,1-2.5c0.6-0.5,1.2-0.8,2.4-0.8h1.1v-1.8c0-1-0.5-1.6-1.3-1.6c-0.4,0-0.6,0.2-0.9,0.4
			c-0.3,0.3-0.4,0.7-0.4,1.3h-1.7c0-0.9,0.2-1.7,0.9-2.4c0.5-0.5,1.3-0.8,2.2-0.8c0.9,0,1.7,0.3,2.2,0.8c0.5,0.6,0.9,1.3,0.9,2.5
			v8.1H65.7z M65.6,188.8h-1c-0.5,0-0.9,0.1-1.3,0.4c-0.3,0.3-0.5,0.9-0.5,1.5c0,1.2,0.5,1.9,1.4,1.9c0.8,0,1.4-0.7,1.4-1.7V188.8z"
			/>
		<path fill="#96969A" d="M71.1,193.3c-0.6-0.5-1-1.3-1-2.5v-6.6h-1.3v-1.4h1.3v-3.1h1.7v3.1h1.7v1.4h-1.7v6.6
			c0,1.2,0.6,1.7,1.8,1.7v1.6C72.7,194,71.8,193.9,71.1,193.3z"/>
		<path fill="#96969A" d="M75.2,180.9v-2h2.1v2H75.2z M75.3,194v-11h1.7v11H75.3z"/>
		<path fill="#96969A" d="M84.7,193.2c-0.6,0.8-1.4,1-2.4,1c-1,0-1.8-0.3-2.4-1c-0.7-0.9-0.8-2.5-0.8-4.7s0.1-3.8,0.8-4.7
			c0.6-0.8,1.4-1,2.4-1c1,0,1.8,0.3,2.4,1c0.7,0.9,0.8,2.5,0.8,4.7S85.4,192.3,84.7,193.2z M83.3,184.7c-0.2-0.3-0.6-0.5-1-0.5
			c-0.4,0-0.8,0.2-1,0.5c-0.4,0.6-0.5,1.7-0.5,3.7s0,3.2,0.5,3.7c0.2,0.3,0.6,0.5,1,0.5c0.4,0,0.8-0.2,1-0.5
			c0.4-0.6,0.4-1.7,0.4-3.7S83.8,185.3,83.3,184.7z"/>
		<path fill="#96969A" d="M92,194v-8.2c0-1-0.6-1.6-1.3-1.6c-0.7,0-1.3,0.5-1.3,1.6v8.2h-1.7v-11.2h1.7v0.9c0.2-0.3,0.5-0.5,0.7-0.7
			c0.3-0.2,0.8-0.3,1.2-0.3c0.8,0,1.4,0.3,1.9,0.8c0.5,0.5,0.7,1.1,0.7,2.3v8.2H92z"/>
		<path fill="#96969A" d="M102.4,184.2v9.8h-1.7v-9.8h-1.3v-1.4h1.3v-1.1c0-1.2,0.3-2,1-2.5c0.7-0.6,1.6-0.7,2.5-0.7v1.6
			c-1.1,0-1.7,0.6-1.7,1.7v1h1.7v1.4H102.4z"/>
		<path fill="#96969A" d="M110.7,193.2c-0.6,0.8-1.4,1-2.4,1c-1,0-1.8-0.3-2.4-1c-0.7-0.9-0.8-2.5-0.8-4.7s0.1-3.8,0.8-4.7
			c0.6-0.8,1.4-1,2.4-1c1,0,1.8,0.3,2.4,1c0.7,0.9,0.8,2.5,0.8,4.7S111.4,192.3,110.7,193.2z M109.3,184.7c-0.2-0.3-0.6-0.5-1-0.5
			c-0.4,0-0.8,0.2-1,0.5c-0.4,0.6-0.5,1.7-0.5,3.7s0,3.2,0.5,3.7c0.2,0.3,0.6,0.5,1,0.5c0.4,0,0.8-0.2,1-0.5
			c0.4-0.6,0.4-1.7,0.4-3.7S109.7,185.3,109.3,184.7z"/>
		<path fill="#96969A" d="M117.4,184.4c-1.2,0-2,0.8-2,2.1v7.6h-1.7v-11.2h1.7v1.2c0.2-0.3,0.5-0.6,0.8-0.8c0.5-0.4,1.1-0.6,1.8-0.6
			v1.7H117.4z"/>
		<path fill="#96969A" d="M127.7,198.2v-5c-0.2,0.2-0.4,0.5-0.6,0.6c-0.3,0.2-0.8,0.3-1.2,0.3c-0.8,0-1.4-0.3-1.9-0.8
			c-0.7-0.8-0.8-2.4-0.8-4.9s0.1-4.1,0.8-4.9c0.5-0.6,1.1-0.8,1.9-0.8c0.5,0,0.9,0.1,1.2,0.3c0.2,0.1,0.6,0.5,0.7,0.7v-0.9h1.7v15.4
			H127.7z M127.7,185.9c0-0.6-0.2-1-0.5-1.3c-0.2-0.2-0.6-0.3-0.9-0.3c-0.4,0-0.7,0.2-0.9,0.5c-0.4,0.6-0.5,1.7-0.5,3.7
			s0,3.2,0.5,3.7c0.2,0.3,0.6,0.5,0.9,0.5c0.3,0,0.7-0.1,0.9-0.3c0.3-0.3,0.5-0.7,0.5-1.3V185.9z"/>
		<path fill="#96969A" d="M136.2,194v-0.9c-0.2,0.3-0.5,0.5-0.7,0.7c-0.3,0.2-0.8,0.3-1.2,0.3c-0.8,0-1.4-0.3-1.9-0.8
			c-0.5-0.5-0.7-1.1-0.7-2.3v-8.2h1.7v8.2c0,1,0.6,1.6,1.3,1.6c0.7,0,1.3-0.5,1.3-1.6v-8.2h1.7V194H136.2z"/>
		<path fill="#96969A" d="M144.4,194v-1c-0.2,0.3-0.4,0.6-0.6,0.8c-0.3,0.3-0.7,0.4-1.3,0.4c-0.8,0-1.4-0.3-1.9-0.8
			c-0.4-0.5-0.7-1.3-0.7-2.5c0-1,0.3-1.9,1-2.5c0.6-0.5,1.2-0.8,2.4-0.8h1.1v-1.8c0-1-0.5-1.6-1.3-1.6c-0.4,0-0.6,0.2-0.9,0.4
			c-0.3,0.3-0.4,0.7-0.4,1.3H140c0-0.9,0.2-1.7,0.9-2.4c0.5-0.5,1.3-0.8,2.2-0.8c0.9,0,1.7,0.3,2.2,0.8c0.5,0.6,0.9,1.3,0.9,2.5v8.1
			H144.4z M144.4,188.8h-1c-0.5,0-0.9,0.1-1.3,0.4c-0.3,0.3-0.5,0.9-0.5,1.5c0,1.2,0.5,1.9,1.4,1.9c0.8,0,1.4-0.7,1.4-1.7V188.8z"/>
		<path fill="#96969A" d="M149.4,193.3c-0.6-0.5-1-1.3-1-2.5v-12.2h1.7v12.1c0,1.1,0.5,1.7,1.7,1.7v1.6
			C150.9,194,150.1,193.9,149.4,193.3z"/>
		<path fill="#96969A" d="M153.2,180.9v-2h2.1v2H153.2z M153.4,194v-11h1.7v11H153.4z"/>
		<path fill="#96969A" d="M159,193.3c-0.6-0.5-1-1.3-1-2.5v-6.6h-1.3v-1.4h1.3v-3.1h1.7v3.1h1.7v1.4h-1.7v6.6c0,1.2,0.6,1.7,1.8,1.7
			v1.6C160.6,194,159.7,193.9,159,193.3z"/>
		<path fill="#96969A" d="M166.2,195.8c-0.5,2-1.9,2.4-3.7,2.4v-1.6c1.1,0,1.7-0.3,2-1.3l0.3-1.4l-2.7-11.2h1.9l1.7,8.4l1.7-8.4h1.9
			L166.2,195.8z"/>
		<path fill="#96969A" d="M178.8,194v-1c-0.2,0.3-0.4,0.6-0.6,0.8c-0.3,0.3-0.7,0.4-1.3,0.4c-0.8,0-1.4-0.3-1.9-0.8
			c-0.4-0.5-0.7-1.3-0.7-2.5c0-1,0.3-1.9,1-2.5c0.6-0.5,1.2-0.8,2.4-0.8h1.1v-1.8c0-1-0.5-1.6-1.3-1.6c-0.4,0-0.6,0.2-0.9,0.4
			c-0.3,0.3-0.4,0.7-0.4,1.3h-1.7c0-0.9,0.2-1.7,0.9-2.4c0.5-0.5,1.3-0.8,2.2-0.8c0.9,0,1.7,0.3,2.2,0.8c0.5,0.6,0.9,1.3,0.9,2.5
			v8.1H178.8z M178.7,188.8h-1c-0.5,0-0.9,0.1-1.3,0.4c-0.3,0.3-0.5,0.9-0.5,1.5c0,1.2,0.5,1.9,1.4,1.9c0.8,0,1.4-0.7,1.4-1.7V188.8
			z"/>
		<path fill="#96969A" d="M187.2,194v-8.2c0-1-0.6-1.6-1.3-1.6c-0.7,0-1.3,0.5-1.3,1.6v8.2h-1.7v-11.2h1.7v0.9
			c0.2-0.3,0.5-0.5,0.7-0.7c0.3-0.2,0.8-0.3,1.2-0.3c0.8,0,1.4,0.3,1.9,0.8c0.5,0.5,0.7,1.1,0.7,2.3v8.2H187.2z"/>
		<path fill="#96969A" d="M195.5,194v-0.9c-0.1,0.2-0.5,0.6-0.7,0.7c-0.3,0.2-0.8,0.3-1.2,0.3c-0.8,0-1.4-0.2-1.9-0.8
			c-0.7-0.8-0.8-2.4-0.8-4.9s0.1-4.1,0.8-4.9c0.5-0.5,1-0.8,1.9-0.8c0.5,0,0.9,0.1,1.2,0.3c0.2,0.1,0.5,0.4,0.6,0.6v-5h1.7V194
			H195.5z M195.5,185.9c0-0.6-0.2-1-0.5-1.3c-0.2-0.2-0.6-0.3-0.9-0.3c-0.4,0-0.7,0.2-0.9,0.5c-0.4,0.6-0.5,1.7-0.5,3.7
			s0,3.2,0.5,3.7c0.2,0.3,0.6,0.5,0.9,0.5c0.3,0,0.7-0.1,0.9-0.3c0.3-0.3,0.5-0.7,0.5-1.3V185.9z"/>
		<path fill="#96969A" d="M205.1,193.3c-0.6-0.5-1-1.3-1-2.5v-6.6h-1.3v-1.4h1.3v-3.1h1.7v3.1h1.7v1.4h-1.7v6.6
			c0,1.2,0.6,1.7,1.8,1.7v1.6C206.7,194,205.8,193.9,205.1,193.3z"/>
		<path fill="#96969A" d="M213.1,184.4c-1.2,0-2,0.8-2,2.1v7.6h-1.7v-11.2h1.7v1.2c0.2-0.3,0.5-0.6,0.8-0.8c0.5-0.4,1.1-0.6,1.8-0.6
			v1.7H213.1z"/>
		<path fill="#96969A" d="M219.6,194v-0.9c-0.2,0.3-0.5,0.5-0.7,0.7c-0.3,0.2-0.8,0.3-1.2,0.3c-0.8,0-1.4-0.3-1.9-0.8
			c-0.5-0.5-0.7-1.1-0.7-2.3v-8.2h1.7v8.2c0,1,0.6,1.6,1.3,1.6c0.7,0,1.3-0.5,1.3-1.6v-8.2h1.7V194H219.6z"/>
		<path fill="#96969A" d="M228.6,193.3c-0.6,0.6-1.4,0.9-2.3,0.9c-0.9,0-1.7-0.3-2.2-0.9c-0.6-0.7-0.9-1.4-0.9-2.5h1.7
			c0,0.6,0.2,1,0.5,1.4c0.3,0.3,0.6,0.4,1,0.4c0.5,0,0.8-0.1,1.1-0.4c0.3-0.3,0.4-0.7,0.4-1.1c0-0.4-0.1-0.7-0.3-1
			c-0.2-0.3-0.5-0.6-1-0.8l-1.4-0.7c-0.7-0.4-1.3-0.8-1.5-1.3c-0.2-0.4-0.3-0.9-0.3-1.5c0-1,0.4-1.7,0.9-2.3
			c0.6-0.6,1.3-0.8,2.2-0.8c0.9,0,1.6,0.3,2.2,0.8c0.6,0.6,0.9,1.4,0.9,2.5h-1.7c0-0.6-0.1-1-0.4-1.3c-0.3-0.3-0.6-0.4-0.9-0.4
			c-0.4,0-0.7,0.1-1,0.4c-0.3,0.3-0.4,0.7-0.4,1.1c0,0.3,0.1,0.6,0.2,0.8c0.2,0.3,0.5,0.5,0.9,0.7l1.4,0.7c0.8,0.4,1.3,0.8,1.6,1.3
			c0.3,0.5,0.5,1.1,0.5,1.8C229.6,192,229.2,192.8,228.6,193.3z"/>
		<path fill="#96969A" d="M232.8,193.3c-0.6-0.5-1-1.3-1-2.5v-6.6h-1.3v-1.4h1.3v-3.1h1.7v3.1h1.7v1.4h-1.7v6.6
			c0,1.2,0.6,1.7,1.8,1.7v1.6C234.4,194,233.5,193.9,232.8,193.3z"/>
	</g>
</g>
<g>
</g>
<g>
</g>
<g>
</g>
<g>
</g>
<g>
</g>
<g>
</g>
<g>
</g>
<g>
</g>
<g>
</g>
<g>
</g>
</svg>
