<?xml version="1.0" encoding="utf-8"?>
<!-- Generator: Adobe Illustrator 18.1.1, SVG Export Plug-In . SVG Version: 6.00 Build 0)  -->
<svg version="1.1" id="Layer_17" xmlns="http://www.w3.org/2000/svg" xmlns:xlink="http://www.w3.org/1999/xlink" x="0px" y="0px"
	 viewBox="0 0 390 292.5" enable-background="new 0 0 390 292.5" xml:space="preserve">
<g>
	<rect x="102.6" y="168.7" fill="#929497" width="275" height="3.7"/>
</g>
<path fill="#231F20" d="M61.5,96.3"/>
<path fill="#231F20" d="M60.4,118.5"/>
<path fill="#929497" d="M11.4,196l43-99.7L97.1,196H77.6l-7.6-24.2l-31.2-0.4l-7.4,24.8L11.4,196z M53.9,125l-11.3,32.1h23.1
	L53.9,125z"/>
<path fill="#929497" d="M268.5,98.2H245c0,0-22.7-2-23.2,23.2v14.4c0,0-0.8,26.9,20.6,26.9s26.1,0,26.1,0v-38.5h-25v11.3h13.9v15
	l-12.3-0.2c0,0-11.9,1.3-11.9-20.9c0,0-1.8-19.7,11.9-19.7l23.4,0.1V98.2z"/>
<path fill="#929497" d="M323.2,98.2v11.6h-19.6c0,0-8.7-0.1-8.7,14.7h28.3v11.7h-28.4c0,0,0.4,14.5,9.6,14.7c9.2,0.2,18.8,0,18.8,0
	v11.6h-18.8c0,0-22,1.1-22-30.1V125c0,0-1.1-26.8,19.4-26.8C318.6,98.2,323.2,98.2,323.2,98.2z"/>
<path fill="#929497" d="M377.1,98.2v11.6h-19.6c0,0-8.7-0.1-8.7,14.7h28.3v11.7h-28.4c0,0,0.4,14.5,9.6,14.7c9.2,0.2,18.8,0,18.8,0
	v11.6h-18.9c0,0-22,1.1-22-30.1V125c0,0-1.1-26.8,19.4-26.8C372.5,98.2,377.1,98.2,377.1,98.2z"/>
<g>
	<rect x="102.6" y="192.5" fill="#929497" width="275" height="3.7"/>
</g>
<path fill="#231F20" stroke="#231F20" stroke-width="0.5" d="M171.8,130.3"/>
<g>
	<path fill="#929497" d="M210.4,130.4c0,18-11.2,32.5-25.1,32.5c-13.9,0-25.1-14.6-25.1-32.5c0-18,11.2-32.5,25.1-32.5
		S210.4,112.4,210.4,130.4z M185.4,108.3c-9.1,0-13.6,9.9-13.6,22.1c0,12.2,6.1,22.1,13.6,22.1s13.6-9.9,13.6-22.1
		C198.9,118.2,192.9,108.3,185.4,108.3z"/>
</g>
<path fill="#231F20" stroke="#231F20" stroke-width="0.5" d="M148.4,137.3"/>
<path fill="#929497" d="M135.2,98.5c10.8,0,12.4,20,12.4,20c0,18.9-12.3,21.6-12.3,21.6h-21.6v22.4H103V98.6L135.2,98.5z M113.7,110
	v18.8h18.2c0,0,5,0.1,5-9.6c0,0,0.5-9.1-5-9.1C126.4,110,113.7,110,113.7,110z"/>
<path fill="#929497" d="M115.9,180.5v-0.6c0-1.3-0.5-1.4-2.5-1.4c-2.3,0-2.7,0.4-2.7,2.5v2.5c0,2.2,0.3,2.7,2.7,2.7
	c1.8,0,2.7-0.1,2.7-1.7v-0.6h2.3v0.7c0,3.4-2,3.2-5,3.4c-4.2,0.1-4.9-1.1-5-4.4V181c0-3.6,1.5-4.4,5-4.4c3,0,4.7,0,4.8,3.2v0.6h-2.3
	V180.5z"/>
<path fill="#929497" d="M139.4,178.5c2,0,2.8,0.1,2.8,2.2v3c0,2.2-0.7,2.4-2.8,2.4c-2.3,0-2.8-0.2-2.8-2.4v-3
	C136.6,179,136.9,178.5,139.4,178.5z M139.4,176.7c-3.8,0-5,0.6-5,4.1v3c0,3.7,1.4,4.3,5,4.3s5.1-0.7,5.1-4.3v-3
	C144.4,177.2,142.9,176.7,139.4,176.7z"/>
<path fill="#929497" d="M163.1,182.4v-3.8h3.2c1.6,0,1.9,0.3,1.9,1.9s-0.4,1.9-2.1,1.9H163.1z M166.6,184.2c1.1,0,1.5,0.7,1.5,1.6
	v2.1h2.3v-2.1c0-1.6-0.4-2.4-2-2.5v-0.1c2-0.3,2.1-1.5,2.1-3.1c0-2.5-1-3.3-3.6-3.3h-6.1v11.1h2.3v-3.7H166.6z"/>
<path fill="#929497" d="M189.4,182.5v-3.9h3c1.7,0,2,0.4,2,2c0,1.6-0.3,1.8-2,1.9H189.4z M187.1,187.9h2.3v-3.6h3
	c3.1,0,4.2-0.5,4.2-3.7c0-3.1-1.1-3.8-4.2-3.8h-5.3V187.9z"/>
<path fill="#929497" d="M217.6,178.5c2,0,2.8,0.1,2.8,2.2v3c0,2.2-0.7,2.4-2.8,2.4c-2.3,0-2.8-0.2-2.8-2.4v-3
	C214.9,179,215.1,178.5,217.6,178.5z M217.6,176.7c-3.8,0-5,0.6-5,4.1v3c0,3.7,1.4,4.3,5,4.3s5.1-0.7,5.1-4.3v-3
	C222.6,177.2,220.9,176.7,217.6,176.7z"/>
<path fill="#929497" d="M241.2,182.4v-3.8h3.2c1.6,0,1.9,0.3,1.9,1.9s-0.4,1.9-2.1,1.9H241.2z M244.9,184.2c1.1,0,1.5,0.7,1.5,1.6
	v2.1h2.3v-2.1c0-1.6-0.4-2.4-2-2.5v-0.1c2-0.3,2.1-1.5,2.1-3.1c0-2.5-1-3.3-3.6-3.3h-6.1v11.1h2.3v-3.7H244.9z"/>
<path fill="#929497" d="M272,184.2h-4.1l2-5.8l0,0L272,184.2z M272.5,185.8l0.8,2.1h2.3l-4-11.1h-3.4l-4,11.1h2.4l0.7-2.1H272.5z"/>
<path fill="#929497" d="M295.2,187.9H293v-9.3h-3.5v-1.8h9.3v1.8h-3.5V187.9z"/>
<path fill="#929497" d="M316.9,187.9h-2.3v-11.1h2.3V187.9z"/>
<path fill="#929497" d="M338.4,178.5c2,0,2.8,0.1,2.8,2.2v3c0,2.2-0.7,2.4-2.8,2.4c-2.3,0-2.8-0.2-2.8-2.4v-3
	C335.6,179,335.9,178.5,338.4,178.5z M338.4,176.7c-3.8,0-5,0.6-5,4.1v3c0,3.7,1.4,4.3,5,4.3s5.1-0.7,5.1-4.3v-3
	C343.5,177.2,341.8,176.7,338.4,176.7z"/>
<path fill="#929497" d="M368.6,176.8h2.3v11.1h-3.8l-5.1-9.3h-0.1l0.2,9.3h-2.3v-11.1h3.8l5.1,9.3h0.1L368.6,176.8z"/>
<g>
</g>
<g>
</g>
<g>
</g>
<g>
</g>
<g>
</g>
<g>
</g>
<g>
</g>
<g>
</g>
<g>
</g>
<g>
</g>
</svg>
