<?xml version="1.0" encoding="utf-8"?>
<!-- Generator: Adobe Illustrator 18.1.1, SVG Export Plug-In . SVG Version: 6.00 Build 0)  -->
<svg version="1.1" id="Layer_19" xmlns="http://www.w3.org/2000/svg" xmlns:xlink="http://www.w3.org/1999/xlink" x="0px" y="0px"
	 viewBox="0 0 390 292.5" enable-background="new 0 0 390 292.5" xml:space="preserve">
<g>
	<g>
		<path fill="#231F20" d="M18.6,139.3c0,4.8,0,6.7-0.9,8.8c-0.6,1.5-1.9,2.9-4.3,4.6c-0.4,0.3-0.9,0.6-1.2,0.7
			c-0.1,0-0.1,0.1-0.2,0.1s-0.2-0.1-0.2-0.2c0-0.2,0.1-0.3,0.4-0.4c0.4-0.2,0.8-0.6,1-0.8c1.9-2,2.9-3.5,2.9-11.2v-8.8
			c0-4.6,0-5.5-0.1-6.4c-0.1-1-0.3-1.5-1.3-1.7c-0.2-0.1-0.7-0.1-1-0.1c-0.1,0-0.2-0.1-0.2-0.2c0-0.2,0.1-0.2,0.5-0.2
			c1.3,0,3.2,0.1,3.4,0.1c0.1,0,2-0.1,2.9-0.1c0.3,0,0.5,0.1,0.5,0.2c0,0.1-0.1,0.2-0.2,0.2c-0.2,0-0.4,0-0.7,0.1
			c-0.8,0.1-1,0.7-1.1,1.7c-0.1,0.9-0.1,1.8-0.1,6.4L18.6,139.3L18.6,139.3z"/>
		<path fill="#231F20" d="M36.6,123c6.7,0,11.7,4.2,11.7,11.2c0,6.7-4.7,12.2-11.9,12.2c-8.2,0-11.5-6.3-11.5-11.7
			C24.7,129.8,28.3,123,36.6,123 M37.2,145.3c2.7,0,8.2-1.5,8.2-10.2c0-7.1-4.3-11-9-11c-5,0-8.7,3.3-8.7,9.8
			C27.6,140.8,31.7,145.3,37.2,145.3"/>
		<path fill="#231F20" d="M72.6,137.4c0,2.9,0,5.2,0.1,6.5c0.1,0.9,0.3,1.5,1.2,1.6c0.4,0.1,1.1,0.1,1.3,0.1s0.2,0.1,0.2,0.2
			c0,0.1-0.1,0.2-0.5,0.2c-1.6,0-3.5-0.1-3.7-0.1c-0.1,0-2,0.1-2.9,0.1c-0.3,0-0.5-0.1-0.5-0.2s0.1-0.2,0.2-0.2
			c0.3,0,0.6-0.1,0.9-0.1c0.6-0.1,0.7-0.8,0.9-1.6c0.1-1.2,0.1-3.6,0.1-6.5v-3.1c0-0.1-0.1-0.2-0.2-0.2H57.2c-0.1,0-0.2,0-0.2,0.2
			v3.1c0,2.9,0,5.2,0.1,6.5c0.1,0.9,0.3,1.5,1.2,1.6c0.4,0.1,1.1,0.1,1.3,0.1s0.2,0.1,0.2,0.2c0,0.1-0.1,0.2-0.5,0.2
			c-1.6,0-3.5-0.1-3.7-0.1c-0.1,0-2,0.1-2.9,0.1c-0.3,0-0.5-0.1-0.5-0.2s0.1-0.2,0.2-0.2c0.3,0,0.6-0.1,0.9-0.1
			c0.6-0.1,0.7-0.8,0.9-1.6c0.1-1.2,0.1-3.6,0.1-6.5v-5.3c0-4.6,0-5.5-0.1-6.4c-0.1-1-0.3-1.5-1.3-1.7c-0.2-0.1-0.7-0.1-1-0.1
			c-0.1,0-0.2-0.1-0.2-0.2c0-0.2,0.1-0.2,0.5-0.2c1.3,0,3.2,0.1,3.4,0.1c0.1,0,2-0.1,2.9-0.1c0.3,0,0.5,0.1,0.5,0.2
			c0,0.1-0.1,0.2-0.2,0.2c-0.2,0-0.4,0-0.7,0.1c-0.8,0.1-1,0.7-1.1,1.7c-0.1,0.9-0.1,1.8-0.1,6.4v0.6c0,0.1,0.1,0.2,0.2,0.2h12.6
			c0.1,0,0.2,0,0.2-0.2v-0.6c0-4.6,0-5.5-0.1-6.4c-0.1-1-0.3-1.5-1.3-1.7c-0.2-0.1-0.7-0.1-1-0.1c-0.1,0-0.2-0.1-0.2-0.2
			c0-0.2,0.1-0.2,0.5-0.2c1.3,0,3.2,0.1,3.4,0.1c0.1,0,2-0.1,2.9-0.1c0.3,0,0.5,0.1,0.5,0.2c0,0.1-0.1,0.2-0.2,0.2
			c-0.2,0-0.4,0-0.7,0.1c-0.8,0.1-1,0.7-1.1,1.7c-0.1,0.9-0.1,1.8-0.1,6.4L72.6,137.4L72.6,137.4z"/>
		<path fill="#231F20" d="M84,141.9c0.1,2.4,0.4,3.2,1.2,3.5c0.6,0.1,1.2,0.2,1.5,0.2c0.1,0,0.2,0.1,0.2,0.2c0,0.2-0.2,0.2-0.5,0.2
			c-1.7,0-2.9-0.1-3.2-0.1c-0.3,0-1.5,0.1-2.9,0.1c-0.3,0-0.5,0-0.5-0.2c0-0.1,0.1-0.2,0.2-0.2c0.2,0,0.8,0,1.2-0.2
			c0.7-0.2,0.9-1.1,0.9-3.8v-17.1c0-1.2,0.1-1.5,0.3-1.5c0.2,0,0.7,0.7,1,1c0.4,0.5,4.9,5.3,9.5,10.2c2.9,3.2,6.2,6.8,7.1,7.8
			l-0.3-15.2c0-1.9-0.2-2.6-1.2-2.8c-0.5-0.1-1.2-0.1-1.5-0.1c-0.2,0-0.2-0.1-0.2-0.2c0-0.2,0.2-0.2,0.6-0.2c1.3,0,2.8,0.1,3.1,0.1
			c0.3,0,1.3-0.1,2.5-0.1c0.3,0,0.5,0,0.5,0.2c0,0.1-0.1,0.2-0.3,0.2c-0.1,0-0.4,0-0.7,0.1c-1,0.2-1.1,0.9-1.1,2.6l0.2,17.4
			c0,2-0.1,2.1-0.3,2.1s-0.6-0.3-2.2-1.9c-0.3-0.3-4.6-4.7-7.8-8.1c-3.5-3.7-6.8-7.5-7.8-8.5L84,141.9z"/>
		<path fill="#231F20" d="M109.6,145.6c-0.4-0.2-0.4-0.3-0.4-1.1c0-1.5,0.1-2.7,0.2-3.2c0-0.3,0.1-0.5,0.2-0.5
			c0.2,0,0.2,0.1,0.2,0.3c0,0.3,0,0.7,0.1,1.1c0.4,2.2,2.4,3,4.4,3c2.9,0,4.3-2.1,4.3-4c0-2.1-0.9-3.2-3.4-5.4l-1.3-1.1
			c-3.2-2.6-3.9-4.4-3.9-6.5c0-3.2,2.4-5.4,6.2-5.4c1.2,0,2,0.1,2.8,0.3c0.6,0.1,0.8,0.1,1,0.1c0.2,0,0.3,0.1,0.3,0.2
			c0,0.1-0.1,1.1-0.1,3.2c0,0.5-0.1,0.7-0.2,0.7c-0.2,0-0.2-0.1-0.2-0.4c0-0.4-0.2-1.2-0.4-1.5c-0.2-0.3-1-1.6-3.7-1.6
			c-2.1,0-3.7,1.3-3.7,3.5c0,1.7,0.8,2.7,3.6,5l0.8,0.7c3.5,2.8,4.3,4.6,4.3,7c0,1.2-0.5,3.5-2.5,4.9c-1.3,0.9-2.9,1.3-4.5,1.3
			C112.2,146.4,110.8,146.2,109.6,145.6"/>
		<path fill="#231F20" d="M136.9,123c6.7,0,11.7,4.2,11.7,11.2c0,6.7-4.7,12.2-11.9,12.2c-8.2,0-11.5-6.3-11.5-11.7
			C125.1,129.8,128.7,123,136.9,123 M137.5,145.3c2.7,0,8.2-1.5,8.2-10.2c0-7.1-4.3-11-9-11c-5,0-8.7,3.3-8.7,9.8
			C128,140.8,132.1,145.3,137.5,145.3"/>
		<path fill="#231F20" d="M156.5,141.9c0.1,2.4,0.4,3.2,1.2,3.5c0.6,0.1,1.2,0.2,1.5,0.2c0.1,0,0.2,0.1,0.2,0.2
			c0,0.2-0.2,0.2-0.5,0.2c-1.7,0-2.9-0.1-3.2-0.1s-1.5,0.1-2.9,0.1c-0.3,0-0.5,0-0.5-0.2c0-0.1,0.1-0.2,0.2-0.2c0.2,0,0.8,0,1.2-0.2
			c0.7-0.2,0.9-1.1,0.9-3.8v-17.1c0-1.2,0.1-1.5,0.3-1.5s0.7,0.7,1,1c0.4,0.5,4.9,5.3,9.5,10.2c2.9,3.2,6.2,6.8,7.1,7.8l-0.3-15.2
			c0-1.9-0.2-2.6-1.2-2.8c-0.5-0.1-1.2-0.1-1.5-0.1c-0.2,0-0.2-0.1-0.2-0.2c0-0.2,0.2-0.2,0.6-0.2c1.3,0,2.8,0.1,3.1,0.1
			s1.3-0.1,2.5-0.1c0.3,0,0.5,0,0.5,0.2c0,0.1-0.1,0.2-0.3,0.2c-0.1,0-0.4,0-0.7,0.1c-1,0.2-1.1,0.9-1.1,2.6l0.2,17.4
			c0,2-0.1,2.1-0.3,2.1s-0.6-0.3-2.2-1.9c-0.3-0.3-4.6-4.7-7.8-8.1c-3.5-3.7-6.8-7.5-7.8-8.5L156.5,141.9z"/>
		<path fill="#231F20" d="M182.1,145.6c-0.4-0.2-0.4-0.3-0.4-1.1c0-1.5,0.1-2.7,0.1-3.2c0-0.3,0.1-0.5,0.2-0.5
			c0.2,0,0.2,0.1,0.2,0.3c0,0.3,0,0.7,0.1,1.1c0.4,2.2,2.4,3,4.4,3c2.9,0,4.3-2.1,4.3-4c0-2.1-0.9-3.2-3.4-5.4l-1.3-1.1
			c-3.2-2.6-3.9-4.4-3.9-6.5c0-3.2,2.4-5.4,6.2-5.4c1.2,0,2,0.1,2.8,0.3c0.6,0.1,0.8,0.1,1,0.1s0.3,0.1,0.3,0.2
			c0,0.1-0.1,1.1-0.1,3.2c0,0.5-0.1,0.7-0.2,0.7c-0.2,0-0.2-0.1-0.2-0.4c0-0.4-0.2-1.2-0.4-1.5c-0.2-0.3-1-1.6-3.7-1.6
			c-2.1,0-3.7,1.3-3.7,3.5c0,1.7,0.8,2.7,3.6,5l0.8,0.7c3.5,2.8,4.3,4.6,4.3,7c0,1.2-0.5,3.5-2.5,4.9c-1.3,0.9-2.9,1.3-4.5,1.3
			C184.7,146.4,183.3,146.2,182.1,145.6"/>
		<path fill="#231F20" d="M213.2,139.3c0,4.8,0,6.7-0.9,8.8c-0.6,1.5-1.9,2.9-4.3,4.6c-0.4,0.3-0.9,0.6-1.2,0.7
			c-0.1,0-0.1,0.1-0.2,0.1s-0.2-0.1-0.2-0.2c0-0.2,0.1-0.3,0.4-0.4c0.4-0.2,0.8-0.6,1-0.8c1.9-2,2.9-3.5,2.9-11.2v-8.8
			c0-4.6,0-5.5-0.1-6.4c-0.1-1-0.3-1.5-1.3-1.7c-0.2-0.1-0.7-0.1-1-0.1c-0.1,0-0.2-0.1-0.2-0.2c0-0.2,0.1-0.2,0.5-0.2
			c1.3,0,3.2,0.1,3.4,0.1c0.1,0,2-0.1,2.9-0.1c0.3,0,0.5,0.1,0.5,0.2c0,0.1-0.1,0.2-0.2,0.2c-0.2,0-0.4,0-0.7,0.1
			c-0.8,0.1-1,0.7-1.1,1.7c-0.1,0.9-0.1,1.8-0.1,6.4L213.2,139.3L213.2,139.3z"/>
		<path fill="#231F20" d="M223.1,132.1c0-4.6,0-5.5-0.1-6.4c-0.1-1-0.3-1.5-1.3-1.7c-0.2-0.1-0.7-0.1-1-0.1c-0.1,0-0.2-0.1-0.2-0.2
			c0-0.2,0.2-0.2,0.5-0.2c1.3,0,3.2,0.1,3.4,0.1s6.1,0,6.8,0c0.6,0,1-0.1,1.3-0.1c0.1,0,0.3-0.1,0.4-0.1s0.1,0.1,0.1,0.3
			c0,0.2-0.2,0.6-0.2,1.4c0,0.3-0.1,1.6-0.1,2c0,0.1-0.1,0.3-0.2,0.3c-0.2,0-0.2-0.1-0.2-0.4c0-0.2,0-0.7-0.2-1.1
			c-0.2-0.5-0.5-0.8-2.1-1c-0.5-0.1-3.7-0.1-4.1-0.1c-0.1,0-0.2,0.1-0.2,0.3v8.2c0,0.2,0,0.3,0.2,0.3c0.4,0,4,0,4.7-0.1
			c0.7-0.1,1.1-0.1,1.4-0.4c0.2-0.2,0.3-0.4,0.4-0.4c0.1,0,0.1,0.1,0.1,0.2c0,0.2-0.1,0.7-0.2,1.7c-0.1,0.6-0.1,1.7-0.1,1.9
			c0,0.2,0,0.6-0.2,0.6c-0.1,0-0.2-0.1-0.2-0.3c0-0.3,0-0.6-0.1-1c-0.1-0.4-0.4-0.9-1.5-1c-0.8-0.1-3.7-0.1-4.3-0.1
			c-0.1,0-0.2,0.1-0.2,0.2v2.6c0,1,0,4.5,0,5.1c0.1,2.1,0.5,2.4,3.5,2.4c0.8,0,2.1,0,2.9-0.3c0.8-0.3,1.1-0.9,1.3-2.1
			c0.1-0.3,0.1-0.4,0.3-0.4c0.2,0,0.2,0.2,0.2,0.4c0,0.2-0.2,2.3-0.4,2.9c-0.2,0.8-0.4,0.8-1.6,0.8c-4.5,0-6.5-0.2-7.3-0.2
			c-0.1,0-0.6,0-1.2,0c-0.6,0-1.3,0.1-1.7,0.1c-0.3,0-0.5-0.1-0.5-0.2s0.1-0.2,0.2-0.2c0.3,0,0.6-0.1,0.9-0.1
			c0.6-0.1,0.7-0.8,0.9-1.6c0.2-1.2,0.2-3.6,0.2-6.5v-5.5L223.1,132.1L223.1,132.1z"/>
		<path fill="#231F20" d="M260.7,141.9h0.1c0.8-2.7,3.5-11.4,4.6-15.3c0.3-1.1,0.3-1.5,0.3-1.9c0-0.5-0.3-0.9-1.7-0.9
			c-0.1,0-0.3-0.1-0.3-0.2c0-0.1,0.1-0.2,0.5-0.2c1.5,0,2.8,0.1,3,0.1c0.2,0,1.5-0.1,2.4-0.1c0.3,0,0.4,0.1,0.4,0.2
			c0,0.1-0.1,0.2-0.3,0.2c-0.1,0-0.7,0-1,0.1c-0.9,0.3-1.4,1.6-1.9,3.2c-1.3,3.8-4.3,13.2-5.5,16.7c-0.8,2.2-0.9,2.6-1.2,2.6
			s-0.5-0.4-0.9-1.5l-5.8-16.6h-0.1c-1.1,2.9-5.1,13.8-6.2,16.6c-0.5,1.2-0.6,1.6-1,1.6c-0.3,0-0.4-0.3-1-2.4l-5.3-17.7
			c-0.5-1.6-0.9-2-1.6-2.3c-0.4-0.1-1.1-0.2-1.3-0.2c-0.1,0-0.3,0-0.3-0.2c0-0.1,0.2-0.2,0.5-0.2c1.5,0,3.2,0.1,3.5,0.1
			s1.6-0.1,3.1-0.1c0.4,0,0.5,0.1,0.5,0.2c0,0.2-0.1,0.2-0.3,0.2s-0.8,0-1.2,0.2c-0.2,0.1-0.4,0.3-0.4,0.7s0.3,1.4,0.6,2.7
			c0.4,1.9,3.5,12.8,4,14.5h0.1l6.3-17.1c0.4-1.2,0.6-1.4,0.7-1.4c0.2,0,0.4,0.4,0.7,1.4L260.7,141.9z"/>
		<path fill="#231F20" d="M275.1,132.1c0-4.6,0-5.5-0.1-6.4c-0.1-1-0.3-1.5-1.3-1.7c-0.2-0.1-0.7-0.1-1-0.1c-0.1,0-0.2-0.1-0.2-0.2
			c0-0.2,0.1-0.2,0.5-0.2c1.3,0,3.2,0.1,3.4,0.1c0.2,0,6.1,0,6.8,0c0.6,0,1-0.1,1.3-0.1c0.2,0,0.3-0.1,0.4-0.1
			c0.1,0,0.1,0.1,0.1,0.3c0,0.2-0.1,0.6-0.2,1.4c0,0.3-0.1,1.6-0.1,2c0,0.1-0.1,0.3-0.2,0.3c-0.2,0-0.2-0.1-0.2-0.4
			c0-0.2,0-0.7-0.2-1.1c-0.2-0.5-0.5-0.8-2.1-1c-0.5-0.1-3.7-0.1-4.1-0.1c-0.1,0-0.2,0.1-0.2,0.3v8.2c0,0.2,0,0.3,0.2,0.3
			c0.4,0,4,0,4.7-0.1s1.1-0.1,1.4-0.4c0.2-0.2,0.3-0.4,0.4-0.4c0.1,0,0.1,0.1,0.1,0.2c0,0.2-0.1,0.7-0.2,1.7
			c-0.1,0.6-0.1,1.7-0.1,1.9c0,0.2,0,0.6-0.2,0.6c-0.2,0-0.2-0.1-0.2-0.3c0-0.3,0-0.6-0.1-1c-0.1-0.4-0.4-0.9-1.5-1
			c-0.8-0.1-3.7-0.1-4.3-0.1c-0.1,0-0.2,0.1-0.2,0.2v2.6c0,1,0,4.5,0,5.1c0.1,2.1,0.5,2.4,3.5,2.4c0.8,0,2.1,0,2.9-0.3
			c0.8-0.3,1.1-0.9,1.3-2.1c0.1-0.3,0.1-0.4,0.3-0.4c0.2,0,0.2,0.2,0.2,0.4c0,0.2-0.2,2.3-0.4,2.9c-0.2,0.8-0.4,0.8-1.6,0.8
			c-4.5,0-6.5-0.2-7.3-0.2c-0.1,0-0.6,0-1.2,0s-1.3,0.1-1.7,0.1c-0.3,0-0.5-0.1-0.5-0.2s0.1-0.2,0.2-0.2c0.3,0,0.6-0.1,0.9-0.1
			c0.6-0.1,0.7-0.8,0.9-1.6c0.1-1.2,0.1-3.6,0.1-6.5v-5.5L275.1,132.1L275.1,132.1z"/>
		<path fill="#231F20" d="M295.7,137.4c0,4.4,0.1,6.3,0.7,6.8c0.5,0.5,1.2,0.7,3.6,0.7c1.6,0,2.9,0,3.6-0.9c0.4-0.5,0.7-1.2,0.8-1.8
			c0-0.2,0.1-0.4,0.3-0.4c0.2,0,0.2,0.1,0.2,0.4s-0.2,2.1-0.4,3c-0.2,0.7-0.3,0.8-1.9,0.8c-4.3,0-6.2-0.2-8-0.2c-0.1,0-0.6,0-1.2,0
			s-1.2,0.1-1.7,0.1c-0.3,0-0.5-0.1-0.5-0.2c0-0.1,0.1-0.2,0.2-0.2c0.3,0,0.6-0.1,0.9-0.1c0.6-0.1,0.7-0.8,0.9-1.6
			c0.1-1.2,0.1-3.6,0.1-6.5v-5.2c0-4.6,0-5.5-0.1-6.4c-0.1-1-0.3-1.5-1.3-1.7c-0.2-0.1-0.7-0.1-1-0.1c-0.1,0-0.2-0.1-0.2-0.2
			c0-0.2,0.2-0.2,0.5-0.2c1.3,0,3.2,0.1,3.4,0.1c0.1,0,2.3-0.1,3.2-0.1c0.3,0,0.5,0.1,0.5,0.2c0,0.1-0.1,0.2-0.2,0.2
			c-0.2,0-0.6,0-1,0.1c-0.9,0.1-1.1,0.7-1.2,1.7c-0.1,0.9-0.1,1.8-0.1,6.4L295.7,137.4L295.7,137.4z"/>
		<path fill="#231F20" d="M313.4,137.4c0,4.4,0.1,6.3,0.7,6.8c0.5,0.5,1.2,0.7,3.6,0.7c1.6,0,2.9,0,3.6-0.9c0.4-0.5,0.7-1.2,0.8-1.8
			c0-0.2,0.1-0.4,0.3-0.4c0.1,0,0.2,0.1,0.2,0.4s-0.2,2.1-0.4,3c-0.2,0.7-0.3,0.8-1.9,0.8c-4.3,0-6.2-0.2-8-0.2c-0.1,0-0.6,0-1.2,0
			s-1.2,0.1-1.7,0.1c-0.3,0-0.5-0.1-0.5-0.2c0-0.1,0.1-0.2,0.2-0.2c0.3,0,0.6-0.1,0.9-0.1c0.6-0.1,0.7-0.8,0.9-1.6
			c0.1-1.2,0.1-3.6,0.1-6.5v-5.2c0-4.6,0-5.5-0.1-6.4c-0.1-1-0.3-1.5-1.3-1.7c-0.2-0.1-0.7-0.1-1-0.1c-0.1,0-0.2-0.1-0.2-0.2
			c0-0.2,0.1-0.2,0.5-0.2c1.3,0,3.2,0.1,3.4,0.1c0.1,0,2.3-0.1,3.2-0.1c0.3,0,0.5,0.1,0.5,0.2c0,0.1-0.1,0.2-0.2,0.2
			c-0.2,0-0.6,0-1,0.1c-0.9,0.1-1.1,0.7-1.2,1.7c-0.1,0.9-0.1,1.8-0.1,6.4L313.4,137.4L313.4,137.4z"/>
		<path fill="#231F20" d="M328.6,132.1c0-4.6,0-5.5-0.1-6.4c-0.1-1-0.3-1.5-1.3-1.7c-0.2-0.1-0.7-0.1-1-0.1c-0.1,0-0.2-0.1-0.2-0.2
			c0-0.2,0.1-0.2,0.5-0.2c1.3,0,3.2,0.1,3.4,0.1c0.2,0,6.1,0,6.8,0c0.6,0,1-0.1,1.3-0.1c0.1,0,0.3-0.1,0.4-0.1
			c0.1,0,0.1,0.1,0.1,0.3c0,0.2-0.2,0.6-0.2,1.4c0,0.3-0.1,1.6-0.2,2c0,0.1-0.1,0.3-0.2,0.3c-0.2,0-0.2-0.1-0.2-0.4
			c0-0.2,0-0.7-0.2-1.1c-0.2-0.5-0.5-0.8-2.1-1c-0.5-0.1-3.7-0.1-4.1-0.1c-0.1,0-0.2,0.1-0.2,0.3v8.2c0,0.2,0,0.3,0.2,0.3
			c0.4,0,4,0,4.7-0.1s1.1-0.1,1.4-0.4c0.2-0.2,0.3-0.4,0.4-0.4c0.1,0,0.1,0.1,0.1,0.2c0,0.2-0.1,0.7-0.2,1.7
			c-0.1,0.6-0.1,1.7-0.1,1.9c0,0.2,0,0.6-0.2,0.6c-0.2,0-0.2-0.1-0.2-0.3c0-0.3,0-0.6-0.1-1c-0.1-0.4-0.4-0.9-1.5-1
			c-0.8-0.1-3.7-0.1-4.3-0.1c-0.1,0-0.2,0.1-0.2,0.2v2.6c0,1,0,4.5,0,5.1c0.1,2.1,0.5,2.4,3.5,2.4c0.8,0,2.1,0,2.9-0.3
			c0.8-0.3,1.1-0.9,1.3-2.1c0.1-0.3,0.1-0.4,0.3-0.4c0.2,0,0.2,0.2,0.2,0.4c0,0.2-0.2,2.3-0.4,2.9c-0.2,0.8-0.4,0.8-1.6,0.8
			c-4.5,0-6.5-0.2-7.3-0.2c-0.1,0-0.6,0-1.2,0s-1.3,0.1-1.7,0.1c-0.3,0-0.5-0.1-0.5-0.2s0.1-0.2,0.2-0.2c0.3,0,0.6-0.1,0.9-0.1
			c0.6-0.1,0.7-0.8,0.9-1.6c0.1-1.2,0.1-3.6,0.1-6.5L328.6,132.1L328.6,132.1z"/>
		<path fill="#231F20" d="M346.8,132.1c0-4.6,0-5.5-0.1-6.4c-0.1-1-0.3-1.5-1.3-1.7c-0.2-0.1-0.7-0.1-1-0.1c-0.1,0-0.2-0.1-0.2-0.2
			c0-0.2,0.1-0.2,0.5-0.2c1.3,0,3.2,0.1,3.4,0.1c0.3,0,2.6-0.1,3.5-0.1c1.9,0,3.9,0.2,5.4,1.3c0.7,0.5,2.1,2,2.1,4
			c0,2.2-0.9,4.4-3.6,6.9c2.4,3.1,4.5,5.8,6.2,7.6c1.6,1.7,2.9,2,3.6,2.1c0.6,0.1,1,0.1,1.2,0.1c0.1,0,0.3,0.1,0.3,0.2
			c0,0.2-0.2,0.2-0.7,0.2h-2.1c-1.7,0-2.4-0.1-3.2-0.6c-1.3-0.7-2.3-2.1-4-4.4c-1.2-1.6-2.6-3.6-3.2-4.4c-0.1-0.1-0.2-0.2-0.4-0.2
			l-3.7-0.1c-0.1,0-0.2,0.1-0.2,0.2v0.7c0,2.9,0,5.2,0.1,6.5c0.1,0.9,0.3,1.5,1.2,1.6c0.4,0.1,1.1,0.1,1.3,0.1
			c0.2,0,0.2,0.1,0.2,0.2c0,0.1-0.1,0.2-0.5,0.2c-1.6,0-3.5-0.1-3.7-0.1c0,0-1.9,0.1-2.8,0.1c-0.3,0-0.5-0.1-0.5-0.2
			s0.1-0.2,0.2-0.2c0.3,0,0.6-0.1,0.9-0.1c0.6-0.1,0.7-0.8,0.9-1.6c0.1-1.2,0.1-3.6,0.1-6.5v-5L346.8,132.1L346.8,132.1z
			 M349.1,134.7c0,0.1,0.1,0.3,0.2,0.4c0.4,0.3,1.8,0.5,3.1,0.5c0.7,0,1.5-0.1,2.2-0.6c1-0.7,1.8-2.3,1.8-4.6c0-3.7-2-5.9-5.1-5.9
			c-0.9,0-1.7,0.1-2,0.2c-0.1,0.1-0.2,0.2-0.2,0.4V134.7z"/>
		<path fill="#231F20" d="M367.1,145.6c-0.4-0.2-0.4-0.3-0.4-1.1c0-1.5,0.1-2.7,0.1-3.2c0-0.3,0.1-0.5,0.2-0.5
			c0.2,0,0.2,0.1,0.2,0.3c0,0.3,0,0.7,0.1,1.1c0.4,2.2,2.4,3,4.4,3c2.9,0,4.3-2.1,4.3-4c0-2.1-0.9-3.2-3.4-5.4l-1.3-1.1
			c-3.2-2.6-3.9-4.4-3.9-6.5c0-3.2,2.4-5.4,6.2-5.4c1.2,0,2,0.1,2.8,0.3c0.6,0.1,0.8,0.1,1,0.1c0.2,0,0.3,0.1,0.3,0.2
			c0,0.1-0.1,1.1-0.1,3.2c0,0.5-0.1,0.7-0.2,0.7c-0.2,0-0.2-0.1-0.2-0.4c0-0.4-0.2-1.2-0.4-1.5c-0.2-0.3-1-1.6-3.7-1.6
			c-2.1,0-3.7,1.3-3.7,3.5c0,1.7,0.8,2.7,3.6,5l0.8,0.7c3.5,2.8,4.3,4.6,4.3,7c0,1.2-0.5,3.5-2.5,4.9c-1.3,0.9-2.9,1.3-4.5,1.3
			C369.7,146.4,368.3,146.2,367.1,145.6"/>
		<rect x="18.6" y="152.8" fill="#231F20" width="184" height="0.6"/>
		<rect x="213.2" y="152.8" fill="#231F20" width="164.5" height="0.6"/>
		<path fill="#231F20" d="M276.3,169.5c0,0.9,0.1,1.2,0.4,1.3c0.2,0.1,0.5,0.1,0.6,0.1c0.1,0,0.1,0,0.1,0.1c0,0.1-0.1,0.1-0.2,0.1
			c-0.7,0-1.1,0-1.2,0c-0.1,0-0.6,0-1.1,0c-0.1,0-0.2,0-0.2-0.1c0,0,0-0.1,0.1-0.1s0.3,0,0.5-0.1c0.3-0.1,0.3-0.4,0.3-1.4v-6.5
			c0-0.4,0-0.6,0.1-0.6s0.3,0.2,0.4,0.4c0.2,0.2,1.9,2,3.6,3.9c1.1,1.2,2.4,2.6,2.7,3l-0.1-5.8c0-0.7-0.1-1-0.4-1.1
			c-0.2,0-0.5-0.1-0.6-0.1c-0.1,0-0.1,0-0.1-0.1s0.1-0.1,0.2-0.1c0.5,0,1.1,0,1.2,0c0.1,0,0.5,0,1,0c0.1,0,0.2,0,0.2,0.1
			c0,0,0,0.1-0.1,0.1c-0.1,0-0.1,0-0.3,0c-0.4,0.1-0.4,0.3-0.4,1v6.7c0,0.8,0,0.8-0.1,0.8s-0.2-0.1-0.8-0.7c-0.1-0.1-1.8-1.8-3-3.1
			c-1.3-1.4-2.6-2.9-3-3.3L276.3,169.5z"/>
		<path fill="#231F20" d="M290.5,165.7c0-1.8,0-2.1,0-2.5c0-0.4-0.1-0.6-0.5-0.6c-0.1,0-0.3,0-0.4,0c0,0-0.1,0-0.1-0.1
			s0.1-0.1,0.2-0.1c0.5,0,1.2,0,1.3,0c0.1,0,0.8,0,1.1,0c0.1,0,0.2,0,0.2,0.1c0,0,0,0.1-0.1,0.1s-0.1,0-0.3,0
			c-0.3,0-0.4,0.2-0.4,0.6s0,0.7,0,2.5v1.6c0,1.6,0.4,2.3,0.9,2.8c0.6,0.5,1.1,0.6,1.7,0.6c0.7,0,1.4-0.3,1.8-0.8
			c0.5-0.6,0.7-1.6,0.7-2.8v-1.4c0-1.8,0-2.1,0-2.5c0-0.4-0.1-0.6-0.5-0.6c-0.1,0-0.3,0-0.4,0c0,0-0.1,0-0.1-0.1s0.1-0.1,0.2-0.1
			c0.5,0,1.1,0,1.2,0s0.6,0,1,0c0.1,0,0.2,0,0.2,0.1c0,0,0,0.1-0.1,0.1c-0.1,0-0.1,0-0.3,0c-0.3,0.1-0.4,0.2-0.4,0.6
			c0,0.4,0,0.7,0,2.5v1.2c0,1.2-0.1,2.6-1,3.4c-0.8,0.7-1.7,0.8-2.3,0.8c-0.4,0-1.5,0-2.3-0.8c-0.6-0.5-1-1.3-1-3v-1.6H290.5z"/>
		<path fill="#231F20" d="M305.3,169.5c0,0.9,0.1,1.2,0.4,1.3c0.2,0.1,0.5,0.1,0.6,0.1c0.1,0,0.1,0,0.1,0.1c0,0.1-0.1,0.1-0.2,0.1
			c-0.7,0-1.1,0-1.2,0c-0.1,0-0.6,0-1.1,0c-0.1,0-0.2,0-0.2-0.1c0,0,0-0.1,0.1-0.1c0.1,0,0.3,0,0.5-0.1c0.3-0.1,0.3-0.4,0.3-1.4
			v-6.5c0-0.4,0-0.6,0.1-0.6c0.1,0,0.3,0.2,0.4,0.4c0.2,0.2,1.9,2,3.6,3.9c1.1,1.2,2.4,2.6,2.7,3l-0.1-5.8c0-0.7-0.1-1-0.4-1.1
			c-0.2,0-0.5-0.1-0.6-0.1c-0.1,0-0.1,0-0.1-0.1s0.1-0.1,0.2-0.1c0.5,0,1.1,0,1.2,0c0.1,0,0.5,0,1,0c0.1,0,0.2,0,0.2,0.1
			c0,0,0,0.1-0.1,0.1c-0.1,0-0.1,0-0.3,0c-0.4,0.1-0.4,0.3-0.4,1v6.7c0,0.8,0,0.8-0.1,0.8c-0.1,0-0.2-0.1-0.8-0.7
			c-0.1-0.1-1.8-1.8-3-3.1c-1.3-1.4-2.6-2.9-3-3.3L305.3,169.5z"/>
		<path fill="#231F20" d="M320.2,165.7c0-1.8,0-2.1,0-2.5c0-0.4-0.1-0.6-0.5-0.6c-0.1,0-0.3,0-0.4,0c0,0-0.1,0-0.1-0.1
			s0.1-0.1,0.2-0.1c0.3,0,0.6,0,0.8,0h0.5c0.1,0,2.3,0,2.6,0c0.2,0,0.4,0,0.5-0.1c0.1,0,0.1-0.1,0.2-0.1c0,0,0,0,0,0.1
			c0,0.1-0.1,0.2-0.1,0.5c0,0.1,0,0.6-0.1,0.8c0,0.1,0,0.1-0.1,0.1c-0.1,0-0.1-0.1-0.1-0.1c0-0.1,0-0.3-0.1-0.4
			c-0.1-0.2-0.2-0.3-0.8-0.4c-0.2,0-1.4,0-1.6,0c0,0-0.1,0-0.1,0.1v3.1c0,0.1,0,0.1,0.1,0.1c0.1,0,1.6,0,1.8,0c0.3,0,0.4,0,0.5-0.2
			c0.1-0.1,0.1-0.1,0.2-0.1c0,0,0.1,0,0.1,0.1c0,0.1-0.1,0.3-0.1,0.6c0,0.2,0,0.7,0,0.7c0,0.1,0,0.2-0.1,0.2c-0.1,0-0.1,0-0.1-0.1
			c0-0.1,0-0.2,0-0.4c0-0.2-0.1-0.4-0.6-0.4c-0.3,0-1.4-0.1-1.6-0.1c-0.1,0-0.1,0-0.1,0.1v1c0,0.4,0,1.7,0,2c0,0.8,0.2,0.9,1.3,0.9
			c0.3,0,0.8,0,1.1-0.1c0.3-0.1,0.4-0.4,0.5-0.8c0-0.1,0-0.2,0.1-0.2c0.1,0,0.1,0.1,0.1,0.2c0,0.1-0.1,0.9-0.1,1.1
			c-0.1,0.3-0.2,0.3-0.6,0.3c-0.9,0-1.5,0-1.9,0s-0.7,0-0.9,0c0,0-0.2,0-0.5,0c-0.2,0-0.5,0-0.7,0c-0.1,0-0.2,0-0.2-0.1
			c0,0,0-0.1,0.1-0.1s0.2,0,0.3,0c0.2,0,0.3-0.3,0.3-0.6c0.1-0.5,0.1-1.4,0.1-2.5v-1.9H320.2z"/>
		<path fill="#231F20" d="M333.2,162.7c0.1-0.4,0.2-0.4,0.2-0.4c0.1,0,0.1,0.1,0.3,0.4c0.2,0.4,2,5.1,2.7,6.9c0.4,1,0.7,1.2,1,1.3
			c0.2,0.1,0.3,0.1,0.5,0.1c0.1,0,0.1,0,0.1,0.1c0,0.1-0.1,0.1-0.2,0.1c-0.2,0-1,0-1.8,0c-0.2,0-0.3,0-0.3-0.1c0,0,0-0.1,0.1-0.1
			c0.1,0,0.1-0.1,0.1-0.3l-1.1-2.8c0,0,0-0.1-0.1-0.1h-2.4c-0.1,0-0.1,0-0.1,0.1l-0.7,2c-0.1,0.3-0.2,0.6-0.2,0.8s0.2,0.3,0.4,0.3
			h0.1c0.1,0,0.1,0,0.1,0.1c0,0.1-0.1,0.1-0.2,0.1c-0.3,0-0.8,0-0.9,0s-0.8,0-1.3,0c-0.1,0-0.2,0-0.2-0.1c0,0,0-0.1,0.1-0.1
			c0.1,0,0.2,0,0.3,0c0.5-0.1,0.8-0.5,1-1.1L333.2,162.7z M334.4,167.3L334.4,167.3l-1-3.2c-0.1-0.2-0.1-0.2-0.2,0l-1,3.1
			c0,0.1,0,0.1,0,0.1L334.4,167.3L334.4,167.3z"/>
		<path fill="#231F20" d="M345.5,167.8c0,1.1,0,2,0.1,2.5c0,0.3,0.1,0.6,0.4,0.6c0.2,0,0.4,0,0.5,0c0.1,0,0.1,0,0.1,0.1
			c0,0.1-0.1,0.1-0.2,0.1c-0.6,0-1.3,0-1.4,0s-0.8,0-1.1,0c-0.1,0-0.2,0-0.2-0.1c0,0,0-0.1,0.1-0.1c0.1,0,0.2,0,0.3,0
			c0.2,0,0.3-0.3,0.3-0.6c0.1-0.5,0.1-1.4,0.1-2.5V163h-1.7c-0.7,0-1,0.1-1.2,0.4c-0.1,0.2-0.2,0.3-0.2,0.4s-0.1,0.1-0.1,0.1
			s-0.1,0-0.1-0.1s0.2-1.1,0.3-1.2c0-0.1,0.1-0.2,0.1-0.2c0.1,0,0.2,0.1,0.5,0.1s0.8,0.1,0.9,0.1h4.3c0.4,0,0.6,0,0.8-0.1
			c0.2,0,0.3-0.1,0.3-0.1c0.1,0,0.1,0.1,0.1,0.1c0,0.3,0,1.1,0,1.3c0,0.1,0,0.1-0.1,0.1c-0.1,0-0.1,0-0.1-0.2v-0.1
			c0-0.3-0.3-0.6-1.4-0.6h-1.4V167.8L345.5,167.8z"/>
		<path fill="#231F20" d="M358.2,162.3c2.6,0,4.5,1.6,4.5,4.3c0,2.6-1.8,4.7-4.5,4.7c-3.1,0-4.4-2.4-4.4-4.5
			C353.7,164.9,355,162.3,358.2,162.3 M358.4,170.8c1,0,3.1-0.6,3.1-3.9c0-2.7-1.7-4.2-3.5-4.2c-1.9,0-3.3,1.3-3.3,3.8
			C354.8,169.1,356.4,170.8,358.4,170.8"/>
		<path fill="#231F20" d="M369.7,169.5c0,0.9,0.1,1.2,0.4,1.3c0.2,0.1,0.5,0.1,0.6,0.1c0.1,0,0.1,0,0.1,0.1c0,0.1-0.1,0.1-0.2,0.1
			c-0.6,0-1.1,0-1.2,0c-0.1,0-0.6,0-1.1,0c-0.1,0-0.2,0-0.2-0.1c0,0,0-0.1,0.1-0.1c0.1,0,0.3,0,0.5-0.1c0.3-0.1,0.3-0.4,0.3-1.4
			v-6.5c0-0.4,0-0.6,0.1-0.6c0.1,0,0.3,0.2,0.4,0.4c0.2,0.2,1.9,2,3.6,3.9c1.1,1.2,2.4,2.6,2.7,3l-0.1-5.8c0-0.7-0.1-1-0.4-1.1
			c-0.2,0-0.5-0.1-0.6-0.1c-0.1,0-0.1,0-0.1-0.1s0.1-0.1,0.2-0.1c0.5,0,1.1,0,1.2,0c0.1,0,0.5,0,1,0c0.1,0,0.2,0,0.2,0.1
			c0,0,0,0.1-0.1,0.1c-0.1,0-0.1,0-0.3,0c-0.4,0.1-0.4,0.3-0.4,1v6.7c0,0.8,0,0.8-0.1,0.8c-0.1,0-0.2-0.1-0.8-0.7
			c-0.1-0.1-1.8-1.8-3-3.1c-1.3-1.4-2.6-2.9-3-3.3L369.7,169.5z"/>
	</g>
</g>
<g>
</g>
<g>
</g>
<g>
</g>
<g>
</g>
<g>
</g>
<g>
</g>
<g>
</g>
<g>
</g>
<g>
</g>
<g>
</g>
</svg>
