<?xml version="1.0" encoding="utf-8"?>
<!-- Generator: Adobe Illustrator 18.1.1, SVG Export Plug-In . SVG Version: 6.00 Build 0)  -->
<svg version="1.1" id="Layer_8" xmlns="http://www.w3.org/2000/svg" xmlns:xlink="http://www.w3.org/1999/xlink" x="0px" y="0px"
	 viewBox="0 0 390 292.5" enable-background="new 0 0 390 292.5" xml:space="preserve">
<g>
	<g id="Grosvenor_Casinos_1_">
		<path fill="#03252C" d="M282.1,163.4c-2.4-0.6-4.9,0.8-5.5,3.3c-0.6,2.4,0.9,4.9,3.3,5.5c2.4,0.6,4.9-0.8,5.5-3.2
			C286,166.5,284.5,164,282.1,163.4z"/>
		<path fill="#03252C" d="M107.5,163.4c-2.4,0.6-3.9,3.1-3.3,5.5c0.6,2.4,3.1,3.9,5.5,3.2c2.4-0.6,3.9-3.1,3.3-5.5
			C112.4,164.2,109.9,162.7,107.5,163.4z"/>
		<path fill="#03252C" d="M110.2,136c5.9-0.2,10.8-4.3,12.4-10.5c0.9-3.4,1-6.3,0.4-10l0-0.3l-11.1-2.9l-2.4,9.1l4,1l1.2-4.7
			l4.3,1.1c0.1,1.5,0,3.3-0.4,5.1c-1.2,4.5-4.4,7.3-8.5,7.4c-0.9,0-1.8-0.1-2.8-0.3c-2.4-0.6-4.4-2.1-5.7-4.2
			c-1.2-2.1-1.5-4.6-0.9-7c0.7-2.9,2.3-5.5,4.6-7.9l0.5-0.5l-4.6-1.2l-0.2,0.2c-2.6,3.4-3.6,5.4-4.4,8.3c-2,7.7,2.1,15,9.6,16.9
			C107.6,135.9,108.9,136.1,110.2,136z"/>
		<path fill="#03252C" d="M129.9,107.6l-9.1-6.1l0.6-0.9c0.9-1.3,2-2.2,8.1-2.1l6.4,0.1l3-4.5l-2.9,0.1c-1.5,0-2.5,0.1-4,0l-0.2,0
			c-3.5-0.2-6.1-0.2-8.2,0.5c0.3-2.7-0.7-5-3.1-6.6c-1.4-0.9-2.8-1.4-4.3-1.3c-2.5,0.1-4.9,1.6-6.8,4.4l-3.8,5.7l21.7,14.6
			L129.9,107.6z M118.4,97.6l-1,1.6l-5.8-3.9l1-1.6c1.7-2.5,3.4-3.1,5.3-1.9c0.9,0.6,1.4,1.3,1.6,2.1
			C119.7,95,119.3,96.2,118.4,97.6z"/>
		<path fill="#03252C" d="M140.9,89.6c2.9-0.1,5.8-1.2,8.3-3.1c7.3-5.6,7.1-13.9,3-19.2c-2.7-3.5-6.6-5.4-10.8-5.3
			c-2.9,0.1-5.8,1.2-8.4,3.2c-6.3,4.8-7.6,13.1-3,19.1C132.6,87.7,136.7,89.7,140.9,89.6z M135.5,68.5c1.7-1.3,3.6-2,5.6-2.1
			c2.9-0.1,5.6,1.2,7.4,3.6c1.6,2,2.2,4.4,1.9,6.8c-0.3,2.4-1.7,4.6-3.7,6.2c-1.7,1.3-3.6,2-5.6,2.1h0c-2.9,0.1-5.6-1.2-7.4-3.6
			C130.5,77.3,131.2,71.8,135.5,68.5z"/>
		<path fill="#03252C" d="M165.4,64.3c2.9,0.6,5.3,1.2,6,3.2c0.3,1-0.1,2.9-2.6,3.8c-2.2,0.8-4.7,0.3-7.1-1.3l-1.1-0.7l2,5.8
			l0.2,0.1c1.4,0.5,2.7,0.6,4,0.6c1.2,0,2.4-0.3,3.7-0.7c4.1-1.4,6.1-5.3,4.7-9.3c-1.6-4.5-5.7-5.3-9.1-5.9
			c-2.5-0.5-4.7-0.9-5.3-2.6c-0.5-1.4,0.5-2.9,2.5-3.5c1.9-0.6,3.9-0.5,6.1,0.5l0.9,0.4l-1.8-5.1l-0.2-0.1c-2.1-0.6-4.2-0.5-6.1,0.2
			c-4.7,1.6-6.7,5.3-5.3,9.4C158.3,62.7,162.1,63.5,165.4,64.3z"/>
		<polygon fill="#03252C" points="220,70.1 209.2,67.8 210.6,61 220.7,63.1 221.6,59.1 211.5,56.9 212.9,50.4 223.4,52.6 
			224.2,48.5 209.4,45.4 204,70.5 203.9,70.9 219.1,74.1 		"/>
		<polygon fill="#03252C" points="227.6,77.7 237.4,61.8 241.4,86.2 244.6,88.2 258.3,66 254.6,63.7 244.8,79.7 240.7,55.1 
			237.7,53.2 224,75.5 		"/>
		<path fill="#03252C" d="M252.4,90.9c-0.6,3.6,0.4,7.4,2.8,10.6c3,4,7.1,6.2,11.6,6c2.7-0.1,5.3-1,7.5-2.6
			c6.2-4.6,7.3-12.7,2.5-19.2c-2.9-3.9-7.1-6.1-11.6-6c-2.7,0.1-5.3,1-7.5,2.6C254.9,84.5,253,87.5,252.4,90.9z M260.5,86.1
			c1.6-1.2,3.4-1.8,5.2-1.9c3-0.1,5.8,1.3,7.7,3.9c3.2,4.4,2.5,9.9-1.8,13c-1.6,1.2-3.4,1.8-5.2,1.9c-3,0.1-5.8-1.4-7.7-4
			c-1.5-2.1-2.2-4.6-1.9-6.9C257.1,89.7,258.4,87.6,260.5,86.1z"/>
		<path fill="#03252C" d="M291.5,115.1l-1.9-6.5l-24.6,7.3l-0.4,0.1l1.3,4.3l10.5-3.1l0.3,1c0.5,1.6,0.5,3-3.5,7.6l-4.2,4.9l1.6,5.2
			l0.9-1.1c1.5-2,2.2-2.9,3.4-4.3l0.1-0.1c2.2-2.5,3.9-4.4,4.8-6.7c1.9,2,4.4,2.6,7.1,1.8C291.3,124.3,293.1,120.3,291.5,115.1z
			 M285.6,121.2c-0.4,0.1-0.8,0.2-1.2,0.2c-1.7,0.1-2.9-1.1-3.6-3.5l-0.5-1.8l6.7-2l0.5,1.8C288.7,119.7,287,120.7,285.6,121.2z"/>
		<polygon fill="#03252C" points="189.7,71.1 191.1,71 200.5,44 196,44.3 189.8,61.7 181.5,45.2 176.9,45.5 189.6,70.8 		"/>
		<path fill="#03252C" d="M122.4,210.6c-1.9-2.2-2.8-4.6-2.7-7c0.1-2.4,1.2-4.6,3.2-6.3c1.8-1.6,4-2.4,6.2-2.3
			c2.6,0.1,5.1,1.3,7,3.5c1.8,2.1,3,4.6,3.6,8.1l0.1,0.8l3.8-3.3l-0.1-0.3c-1.2-3.6-2.5-6.1-4.2-8c-2.8-3.2-6.5-5.1-10.4-5.2
			c-3.4-0.1-6.6,1.1-9.3,3.4c-3.8,3.3-7.3,11.4-0.6,19.1c2.9,3.3,5.6,4.7,7.8,5.6l0.2,0.1l3.8-3.3l-0.8-0.2
			C126.9,214.3,124.2,212.7,122.4,210.6z"/>
		<path fill="#03252C" d="M131.3,225.2l4,2.4l6.5-4.7l8.7,5.2l-0.9,8.1l4,2.4l3.5-28.2l0-0.3l-2.7-1.6L131.3,225.2z M151,223.6
			l-5.6-3.3l6.6-4.9L151,223.6z"/>
		<path fill="#03252C" d="M174.8,217.3c-0.9-0.3-1.8-0.4-2.6-0.4c-3.5-0.1-6.2,1.8-7.1,5.1c-1.1,3.8,1.6,6.6,3.9,9.1
			c2,2.1,3.7,4,3.1,6.1c-0.3,0.9-1.3,1.9-3,1.8c-0.4,0-0.8-0.1-1.2-0.2c-2.2-0.6-4-2.4-5.1-5.1l-0.5-1.2l-1.7,5.9l0.1,0.2
			c1.7,2.2,3.7,3.6,6.4,4.3c0.7,0.2,1.4,0.3,2,0.3c3.4,0.1,6.2-2,7.2-5.3c1.3-4.6-1.7-7.6-4.1-10.1c-1.8-1.8-3.4-3.4-2.9-5.2
			c0.3-1.1,1.4-1.7,2.8-1.7c0.4,0,0.8,0.1,1.3,0.2c1.9,0.5,3.5,1.9,4.7,3.9l0.5,0.9l1.5-5.2l-0.1-0.2
			C178.5,219,176.7,217.8,174.8,217.3z"/>
		<polygon fill="#03252C" points="183.8,245.4 183.8,245.8 188.3,246.2 190.5,220.7 190.5,220.2 186,219.8 		"/>
		<polygon fill="#03252C" points="215.6,217.8 218.8,236.3 199.6,220.8 199.4,220.6 195.9,221.3 200.4,247 204.7,246.2 201.5,227.9 
			220.5,243.3 220.6,243.5 224.3,242.8 219.8,217.1 		"/>
		<path fill="#03252C" d="M242.2,206.7c-2.7-0.1-5.6,0.7-8.2,2.3c-3.4,2.1-5.7,5.2-6.6,8.7c-0.8,3.4-0.2,7,1.6,10
			c2.4,3.9,6.4,6.3,10.9,6.4c2.7,0.1,5.5-0.7,8-2.2c3.6-2.2,5.9-5.2,6.7-8.8c0.8-3.4,0.2-6.9-1.7-9.9
			C250.6,209.2,246.7,206.8,242.2,206.7z M245.8,228.2c-1.7,1-3.5,1.5-5.4,1.5c-3-0.1-5.7-1.7-7.4-4.4c-2.8-4.5-1.4-9.9,3.2-12.7
			c1.7-1,3.6-1.5,5.4-1.5c3,0.1,5.7,1.7,7.4,4.4C251.8,220,250.5,225.4,245.8,228.2z"/>
		<path fill="#03252C" d="M266.6,199.3c-2.1-0.1-4.2,0.7-6.1,1.3c-1.6,0.6-3,1.1-4.2,1c-0.7,0-1.3-0.2-1.7-0.6c-1.1-1-1-2.8,0.4-4.3
			c1.3-1.5,3.2-2.3,5.6-2.6l1-0.1l-4.1-3.6l-0.2,0.1c-2.1,0.6-3.9,1.7-5.3,3.2c-1.6,1.8-2.4,3.8-2.4,5.7c0,1.9,0.9,3.7,2.5,5.1
			c1.2,1,2.5,1.5,4.1,1.6c1.9,0.1,3.9-0.6,5.8-1.2c1.7-0.5,3.3-1,4.7-1c0.9,0,1.6,0.3,2.1,0.8c0.5,0.4,0.8,1.1,0.8,1.8
			c0,0.6-0.2,1.6-1.1,2.7c-1.5,1.7-3.7,2.5-6.5,2.5l-1.6-0.1l4.6,4l0.2-0.1c2.7-0.6,4.8-1.8,6.7-3.9c2.9-3.3,2.6-7.7-0.5-10.5
			C270,200,268.4,199.3,266.6,199.3z"/>
	</g>
	<path id="Chip" fill="#03252C" d="M195,12.5c-73.9,0-133.8,59.9-133.8,133.8S121.1,280,195,280c73.9,0,133.8-59.9,133.8-133.8
		C328.8,72.4,268.9,12.5,195,12.5z M77.9,146.3c0-64.7,52.4-117.1,117.1-117.1c64.7,0,117.1,52.4,117.1,117.1
		c0,64.7-52.4,117.1-117.1,117.1C130.3,263.4,77.9,210.9,77.9,146.3z M312.8,179.2c2.9-10.5,4.5-21.5,4.5-32.9
		c0-11.5-1.6-22.6-4.6-33.2l9.9,0c2.8,10.6,4.2,21.7,4.2,33.2c0,11.4-1.4,22.4-4.2,32.9l-0.1,0.3h-9.9L312.8,179.2z M228.3,18.7
		l0,9.9c-10.6-3-21.8-4.6-33.3-4.6c-11.5,0-22.6,1.6-33.1,4.6l0-9.9c10.6-2.7,21.7-4.2,33.1-4.2C206.5,14.5,217.7,16,228.3,18.7z
		 M67.4,113l9.9,0c-3,10.6-4.6,21.7-4.6,33.2c0,11.5,1.6,22.7,4.6,33.2l-9.9,0c-2.8-10.6-4.2-21.8-4.2-33.2
		C63.2,134.8,64.7,123.6,67.4,113z M161.9,273.8l0-9.9c10.5,3,21.7,4.6,33.1,4.6c11.6,0,22.7-1.6,33.3-4.6l0,9.9
		c-10.6,2.8-21.8,4.3-33.3,4.3C183.5,278,172.4,276.6,161.9,273.8z"/>
	<path id="G" fill="#03252C" d="M234,122.6c3.3,1.5,4.7-1.1,5.6-2.7c0.8-1.4,6.7-12.7-4.9-24.4c-12.2-12.3-36.1-11.2-49.7-4.9
		c-11.8,5.4-24.2,14.2-35.8,32.9c-12.9,20.8-15.2,48.7-1.9,64.6c14.1,16.9,45.4,16.4,67.1,4.4c22.9-12.6,31.8-27.8,33.2-41.1
		c1.1-10.7-8-11.1-14.3-7.2c-11.3,6.9-18.5,10.5-31.8,13.6c-12.9,3-19.7,0.8-21.3,0.4c-3.3-0.7-5.3,3.5-2.3,4.9
		c3,1.3,10.7,4.7,27.4,2c13.2-2.1,22-5.3,23.7-5.9c1.2-0.4,2.7-0.4-1,4.3c-3.7,4.7-17.8,21.8-39,24.4c-21.2,2.6-31.5-9.7-35.6-21.2
		c-7.4-20.7,0.4-43.3,13.1-56.6c14.5-15.4,27.6-20.2,41.1-19.6c12.8,0.5,22.3,5.1,25.4,12.6c2.6,6.3,0.2,11.4-1.1,15.2
		C231.5,119.9,231.8,121.6,234,122.6z"/>
</g>
<g>
</g>
<g>
</g>
<g>
</g>
<g>
</g>
<g>
</g>
<g>
</g>
<g>
</g>
<g>
</g>
<g>
</g>
<g>
</g>
</svg>
