<?xml version="1.0" encoding="utf-8"?>
<!-- Generator: Adobe Illustrator 18.1.1, SVG Export Plug-In . SVG Version: 6.00 Build 0)  -->
<svg version="1.1" id="Layer_16" xmlns="http://www.w3.org/2000/svg" xmlns:xlink="http://www.w3.org/1999/xlink" x="0px" y="0px"
	 viewBox="0 0 390 292.5" enable-background="new 0 0 390 292.5" xml:space="preserve">
<g>
	<g>
		<path fill="#231F20" d="M97.8,157.8h-4.2v-1.2c3.1,0,6-0.2,8.9-0.5l-1.4,5.3c2.6-3.5,5.3-5.3,8.3-5.3c3.1,0,4.8,1.5,4.8,4.3
			c0,0.3,0,0.7-0.1,1c2.4-3.5,5.1-5.3,8.3-5.3c3.1,0,4.9,1.5,4.9,3.9c0,0.8-0.1,1.6-0.3,2.3l-3.6,12.8c-0.1,0.4-0.2,0.8-0.2,1.3
			c0,0.5,0.4,0.9,1,0.9c2,0,3.8-2.2,5.7-6.6l1,0.5c-1.8,5.5-4.5,8.2-8.3,8.2c-2.1,0-3.4-1.2-3.4-3.2c0-0.9,0.2-1.8,0.6-3l3.2-11.2
			c0.3-1,0.4-1.8,0.4-2.2c0-1.1-0.8-1.8-2.2-1.8c-2.9,0-6.9,3.7-8.2,8.5l-3.2,12.2h-4.2l4.2-16c0.3-1.1,0.5-1.9,0.5-2.5
			c0-1.3-0.9-2.1-2.4-2.1c-3,0-6.8,3.8-8,8.1l-3.4,12.5h-4.1L97.8,157.8z"/>
		<path fill="#231F20" d="M141.3,161.9c-2.4,4.3-3.6,9-3.6,11.7c0,2.7,1.3,4.1,3.6,4.1c2.6,0,4.6-1.7,6.3-5c0.5-0.9,1.3-3.2,2.3-6.8
			c0.5-1.9,0.7-3.5,0.7-4.6c0-2.6-1.2-4-3.6-4C144.7,157.3,143,158.9,141.3,161.9 M140.6,179.1c-4.1,0-7.1-3.2-7.1-8.1
			c0-3.4,1.5-6.8,4.4-10c2.9-3.2,6-4.9,8.8-4.9c2.8,0,4.4,1.2,5,3.7l1-3.2h4l-4.4,15.3c-0.6,2-0.9,3.3-0.9,4s0.5,1.2,1,1.2
			c1.7,0,3.8-2.2,5.6-6.7l1.2,0.4c-2,5.5-4.9,8.4-8.2,8.4c-2.4,0-3.4-1.3-3.5-3.9C145.7,177.7,143.3,179.1,140.6,179.1"/>
		<path fill="#231F20" d="M168.5,167.4c0,1.4,1.1,2.6,3,2.6c2,0,3.3-0.7,4.1-2.3c1.3-2.5,2-5.5,2-7.1c0-2.1-1.2-3.3-3.3-3.3
			C171,157.3,168.5,161.8,168.5,167.4 M161.3,184.6c0,3,2.5,4.7,7,4.7c6.3,0,10.4-2.9,10.4-6.3c0-2.4-1.3-3.1-4.9-3.3l-2.6-0.2
			c-2.7-0.2-4.8-0.3-6.2-0.7C162.7,180.2,161.3,182.5,161.3,184.6 M164.5,164.7c0-4.5,4.2-8.7,9.3-8.7c3.6,0,5.8,1.4,7.3,4.4
			c1.1-3.3,2.3-5,4.1-5c1.3,0,2.2,0.9,2.2,2c0,1.3-0.8,2.1-1.9,2.1c-1.1,0-1.5-0.9-1.9-0.9c-1,0-1.1,1.9-1.9,4.4
			c-1.8,5.5-4.5,8.2-9.6,8.2c-1.9,0-3.5-0.4-4.9-1.4c-2,0.9-3,2-3,2.9c0,1.3,1.5,1.8,4.5,2l5.9,0.3c4.4,0.3,6.4,2.1,6.4,5.9
			c0,5.4-5.2,9.6-13.4,9.6c-6.1,0-9.9-2.5-9.9-6.2c0-2.7,1.9-4.4,5.9-6.3c-1.9-0.2-3-1.5-3-3.2c0-2.1,1.8-4.3,5.4-6
			C165.1,167.7,164.5,166.4,164.5,164.7"/>
		<path fill="#231F20" d="M193.3,161.9c-2.4,4.3-3.6,9-3.6,11.7c0,2.7,1.3,4.1,3.6,4.1c2.6,0,4.6-1.7,6.3-5c0.5-0.9,1.3-3.2,2.3-6.8
			c0.5-1.9,0.7-3.5,0.7-4.6c0-2.6-1.2-4-3.6-4C196.7,157.3,195,158.9,193.3,161.9 M192.5,179.1c-4.1,0-7.1-3.2-7.1-8.1
			c0-3.4,1.5-6.8,4.4-10c2.9-3.2,6-4.9,8.8-4.9c2.8,0,4.4,1.2,5,3.7l1-3.2h4l-4.4,15.3c-0.6,2-0.9,3.3-0.9,4s0.5,1.2,1,1.2
			c1.7,0,3.8-2.2,5.6-6.7l1.2,0.4c-2,5.5-4.9,8.4-8.2,8.4c-2.4,0-3.4-1.3-3.5-3.9C197.7,177.7,195.3,179.1,192.5,179.1"/>
		<path fill="#231F20" d="M212.9,176.7c0,1.5-0.5,2.3-1.3,2.3s-1.1-0.3-1.1-1.2c0-0.9,0.6-1.7,1.7-2.8l14.8-14.6
			c-2.1,0.2-3.9,0.3-5.4,0.3c-1.6,0-2.9-0.3-4.1-0.9l-1.8,3.2l-1.1-0.6l3.7-6.5c3.5,1.3,6.5,2,9.2,2c0.6,0,1.3-0.1,1.8-0.1
			c0.1-1.2,0.6-1.7,1.4-1.7c0.5,0,0.9,0.3,0.9,1c0,0.8-0.9,2.1-2.8,3.8l-13.1,12.8c4.9,0.5,7.7,2.6,9.5,2.6c1.2,0,1.9-0.5,1.9-1
			c0-1.2-2.6-0.1-2.6-2.4c0-1,0.7-1.7,1.8-1.7c1.3,0,2.3,1.1,2.3,3.2c0,2.7-2.5,4.8-6.3,4.8c-2.4,0-4.1-0.6-5.6-1.1l-4-1.5v0.1
			L212.9,176.7L212.9,176.7z"/>
		<path fill="#231F20" d="M241.5,144.8c1.5,0,2.6,1.1,2.6,2.6s-1.1,2.7-2.6,2.7s-2.7-1.2-2.7-2.7C238.8,146,240,144.8,241.5,144.8
			 M238.3,157.8h-4.2v-1.2c3.3,0,6.3-0.2,9-0.5l-5.3,18.9c-0.1,0.2-0.1,0.5-0.1,0.7c0,0.7,0.6,1.3,1.4,1.3c1.7,0,4-2.2,5.8-6.5
			l1.1,0.5c-1.9,5.3-5.5,8.2-8.7,8.2c-2.1,0-3.6-1.3-3.6-3.4c0-0.6,0.2-1.5,0.5-2.8L238.3,157.8z"/>
		<path fill="#231F20" d="M249,178.4l5.4-20.7h-4.2v-1.2c3.3,0,6.2-0.1,8.9-0.5l-1.4,5.3c2.5-3.6,5.3-5.4,8.5-5.4
			c3.3,0,5.3,1.6,5.3,4.1c0,0.8-0.2,1.7-0.4,2.5l-3.7,12.7c-0.1,0.4-0.2,0.6-0.2,0.8c0,0.6,0.5,1,1.1,1c2,0,3.8-2.2,5.7-6.6l1.1,0.5
			c-2.1,5.5-4.5,8.2-8.3,8.2c-2.4,0-3.7-1.3-3.7-3c0-0.5,0.1-1.4,0.4-2.4l3.4-11.9c0.2-0.9,0.3-1.6,0.3-1.9c0-1.5-0.7-2.2-2.4-2.2
			c-3.1,0-7.1,3.6-8.6,9.3l-3,11.5L249,178.4L249,178.4z"/>
		<path fill="#231F20" d="M283.6,166.2c5.7,0,8.8-2.5,8.8-6.3c0-1.7-0.9-2.6-2.6-2.6c-2.5,0-4.8,3-6.8,8.8h0.6V166.2z M281.6,172.6
			c0,3.3,1.7,5.1,4.8,5.1c2.8,0,5.6-2,7.3-5.6l1.2,0.7c-2,4.1-5.3,6.3-9,6.3c-4.9,0-8.6-3.6-8.6-9.1c0-3,1.1-5.9,3.4-8.6
			c3-3.6,6.5-5.4,10.4-5.4c3.3,0,5.4,1.9,5.4,4.5c0,4.1-4.8,7-13.6,7h-0.5C282,169.6,281.6,171.3,281.6,172.6"/>
		<path fill="#231F20" d="M63.2,134.7v-9.4h1.3c1.3,5.6,4.2,8.5,8.3,8.5c4.3,0,7.3-2.7,7.3-6.8c0-2.9-1.7-4.6-5.6-5.7l-3-0.9
			c-5.6-1.6-8.2-4.4-8.2-9.5c0-5.4,3.4-8.9,8.6-8.9c2.6,0,4.6,0.6,6.6,2.3l1.8-1.9h0.7v8.9H80c-1.3-5.3-4.2-8-8.1-8
			c-3.6,0-6.2,2.3-6.2,5.4c0,2.9,2,3.8,5.5,4.8l3.4,0.9c5.4,1.5,8.1,4.4,8.1,10c0,6.2-3.8,10.7-9.7,10.7c-2.7,0-4.8-0.8-7.1-2.4
			l-1.8,2L63.2,134.7L63.2,134.7z"/>
		<path fill="#231F20" d="M101.4,118.8c5.9,0,8-2,8-7.7c0-5.8-2-7.1-6.8-7.1h-3.9v14.9H101.4z M87.8,134.3v-1.2h4.6v-29.2h-4.6v-1.2
			h15.7c8.4,0,12.7,2.9,12.7,8.7s-4.3,8.5-13.3,8.5h-4.2v13.4h4.9v1H87.8z"/>
	</g>
	<polygon fill="#231F20" points="119.4,134.3 119.4,133.2 124.1,133.2 124.1,103.9 119.4,103.9 119.4,102.7 134.8,102.7 
		134.8,103.9 130.2,103.9 130.2,133.2 134.8,133.2 134.8,134.3 	"/>
	<g>
		<path fill="#231F20" d="M151.2,116.8c5.2,0,7.3-1.7,7.3-6.4c0-5.3-1.7-6.4-6.3-6.4h-3.6v12.9C148.6,116.8,151.2,116.8,151.2,116.8
			z M137.9,134.3v-1.2h4.6v-29.2h-4.6v-1.2h15.7c7.7,0,11.5,1.9,11.5,7.3c0,4.1-3.1,6.4-9.6,7.4v0.4c6.1,1.1,8.6,3.7,8.6,9.8v2
			c0,2.7,0.7,3.7,3.3,3.7c0.3,0,0.9-0.1,1.4-0.3v1.3c-0.9,0.2-1.8,0.4-2.6,0.4c-6.4,0-8.5-2-8.7-7.3l-0.1-3
			c-0.2-5.1-1.7-6.5-8.6-6.7V133h4.6v1.3H137.9z"/>
	</g>
	<path fill="#231F20" d="M188.7,123.6l-4.5-12.9h-0.5l-4.5,12.9H188.7z M187.2,133.2h4.8l-2.9-8.3h-10.4l-2.8,8.3h4.9v1.1h-10.1
		v-1.2h3.8l11-31.2h1.6l11.3,31.2h3.8v1.2h-14.9V133.2z"/>
	<g>
		<path fill="#231F20" d="M230.4,112.7H229c-1.2-6.7-3-9-8.1-9c-0.5,0-1,0-1.5,0v29.4h5.1v1.2h-16.4v-1.2h5.1v-29.3h-1.6
			c-5.1,0-6.8,2-8.1,9H202l0.4-10h27.4L230.4,112.7z"/>
	</g>
	<polygon fill="#231F20" points="233.5,134.3 233.5,133.2 238.1,133.2 238.1,103.9 233.5,103.9 233.5,102.7 248.8,102.7 
		248.8,103.9 244.2,103.9 244.2,133.2 248.8,133.2 248.8,134.3 	"/>
	<g>
		<path fill="#231F20" d="M267.4,133.9c5.6,0,7.7-3.5,7.7-11.5v-7.8c0-8-2.1-11.5-7.7-11.5c-5.6,0-7.7,3.5-7.7,11.5v7.8
			C259.7,130.5,261.9,133.9,267.4,133.9 M267.5,102c8.2,0,14.5,7,14.5,16.6s-6.2,16.6-14.5,16.6c-8.3,0-14.6-7-14.6-16.6
			S259.2,102,267.5,102"/>
	</g>
	<polygon fill="#231F20" points="311.7,123.8 311.7,103.9 307.1,103.9 307.1,102.7 317.7,102.7 317.7,103.9 313.1,103.9 
		313.1,134.9 311.3,134.9 291.8,104.6 291.4,104.6 291.4,133.2 296.1,133.2 296.1,134.3 285.5,134.3 285.5,133.2 290.1,133.2 
		290.1,103.9 285.5,103.9 285.5,102.7 297.7,102.7 311.3,123.8 	"/>
	<path fill="#231F20" d="M336.7,123.6l-4.5-12.9h-0.5l-4.5,12.9H336.7z M335.1,133.2h4.8l-2.9-8.3h-10.4l-2.8,8.3h4.9v1.1h-10.1
		v-1.2h3.8l11-31.2h1.6l11.3,31.3h3.8v1.1h-14.9V133.2z"/>
	<g>
		<path fill="#231F20" d="M351.4,134.3v-1.2h4.6v-29.2h-4.6v-1.2h15.4v1.2h-4.6v29.3h4.9c6.3,0,8.7-2.6,9.5-9.7h1.2l-0.3,10.8
			L351.4,134.3L351.4,134.3z"/>
	</g>
	<polygon fill="#231F20" points="57.2,123.9 57.2,103.9 52.5,103.9 52.5,102.7 63.1,102.7 63.1,103.9 58.5,103.9 58.5,134.9 
		56.8,134.9 37.3,104.7 36.9,104.7 36.9,133.2 41.5,133.2 41.5,134.4 30.9,134.4 30.9,133.2 35.6,133.2 35.6,103.9 30.9,103.9 
		30.9,102.7 43.1,102.7 56.7,123.9 	"/>
	<polygon fill="#231F20" points="11.2,134.4 11.2,133.2 15.8,133.2 15.8,103.9 11.2,103.9 11.2,102.7 26.5,102.7 26.5,103.9 
		21.9,103.9 21.9,133.2 26.5,133.2 26.5,134.4 	"/>
</g>
<g>
</g>
<g>
</g>
<g>
</g>
<g>
</g>
<g>
</g>
<g>
</g>
<g>
</g>
<g>
</g>
<g>
</g>
<g>
</g>
</svg>
