<?xml version="1.0" encoding="utf-8"?>
<!-- Generator: Adobe Illustrator 18.1.1, SVG Export Plug-In . SVG Version: 6.00 Build 0)  -->
<svg version="1.1" id="Layer_1" xmlns="http://www.w3.org/2000/svg" xmlns:xlink="http://www.w3.org/1999/xlink" x="0px" y="0px"
	 viewBox="-764 466 390 150" enable-background="new -764 466 390 150" xml:space="preserve">
<g id="Guides">
</g>
<g id="sponsor-logo_championsuk">
	<polygon fill="#EB008B" points="-559.9,564.5 -563.5,564.5 -563.5,561.7 -553.1,561.7 -553.1,564.5 -556.7,564.5 -556.7,578.6 
		-559.9,578.6 	"/>
	<polygon fill="#EB008B" points="-552.3,561.7 -549.2,561.7 -549.2,568.3 -544.9,568.3 -544.9,561.7 -541.7,561.7 -541.7,578.6 
		-544.9,578.6 -544.9,570.9 -549.2,570.9 -549.2,578.6 -552.3,578.6 	"/>
	<polygon fill="#EB008B" points="-540.7,561.7 -531.9,561.7 -531.9,564.5 -537.5,564.5 -537.5,568.4 -532.3,568.4 -532.3,571.1 
		-537.5,571.1 -537.5,575.8 -531.8,575.8 -531.8,578.6 -540.7,578.6 	"/>
	<g>
		<path fill="#EB008B" d="M-521.1,576.2c1.6,0,2.2-0.7,2.2-2.7c0-2.2-0.7-2.7-2.6-2.7h-1v5.4C-522.5,576.2-521.1,576.2-521.1,576.2z
			 M-521.4,568.5c1.6,0,2.1-0.6,2.1-2.4c0-1.7-0.5-2.2-2.2-2.2h-1v4.6H-521.4z M-525.5,561.7h5.1c2.9,0,4.3,1.3,4.3,4.1
			c0,2.3-0.7,3.5-2.1,3.7c1.6,0.2,2.5,1.6,2.5,3.9c0,3.6-1.5,5.2-4.7,5.2h-5.2L-525.5,561.7L-525.5,561.7z"/>
		<path fill="#EB008B" d="M-510.1,568.8c1.8,0,2.4-0.6,2.4-2.5c0-1.8-0.8-2.3-2.7-2.3h-1.6v4.8H-510.1z M-515,561.7h5.7
			c3.4,0,4.8,1.3,4.8,4.5c0,2.2-0.8,3.5-2.4,3.7c2.3,0.6,2.3,1.8,2.3,4l0.1,2.3c0.1,1.1,0.2,1.9,0.9,2.5h-3.8
			c-0.2-0.7-0.3-1.6-0.3-2.6v-1.8v-0.4c0-2.2-0.9-2.6-3.2-2.6h-1.1v7.5h-3V561.7z"/>
		<path fill="#EB008B" d="M-497.1,571.8l-1.4-7.1l-1.3,7.1H-497.1z M-500.6,561.7h4.2l3.9,17h-3.4l-0.8-4.3h-3.6l-0.8,4.3h-3.2
			L-500.6,561.7z"/>
		<polygon fill="#EB008B" points="-492.5,561.7 -489.2,561.7 -484.8,573.5 -484.9,561.7 -481.9,561.7 -481.9,578.6 -485.2,578.6 
			-489.6,566.7 -489.5,578.6 -492.5,578.6 		"/>
		<path fill="#EB008B" d="M-476.5,576.1c1.1,0,1.8-0.1,2.2-0.7c0.7-1.1,0.8-2.9,0.8-5.5c0-2.7-0.1-4.4-1-5.3
			c-0.4-0.5-1.1-0.5-2.1-0.5h-1.4v12H-476.5z M-481,561.7h5.1c1.8,0,3.1,0.2,4,1.1c1.4,1.4,1.6,3.4,1.6,6.3c0,3.3,0,5.8-1.1,7.7
			c-1,1.7-2.5,1.9-5.2,1.9h-4.4V561.7z"/>
		<path fill="#EB008B" d="M-459,571.8l-1.4-7.1l-1.3,7.1H-459z M-462.5,561.7h4.2l3.9,17h-3.4l-0.8-4.3h-3.6l-0.8,4.3h-3.2
			L-462.5,561.7z"/>
		<path fill="#EB008B" d="M-446.2,576.8c-0.7,1.6-1.7,2.3-3.7,2.3c-3.9,0-4.8-2.9-4.8-9.4c0-3.1,0.3-5.2,1.1-6.4
			c0.9-1.4,2.3-2,4.5-2c3.6,0,5.3,1.7,5.3,5.3v0.4h-3v-0.2c0-2-0.8-3.1-2.3-3.1c-2.4,0-2.4,2-2.4,6.7c0,4.2,0.3,6,2.2,6
			c1.7,0,2.3-1.1,2.3-3.8V572h-2.2v-2.7h5.2v9.3h-2L-446.2,576.8z"/>
		<polygon fill="#EB008B" points="-442.6,561.7 -433.9,561.7 -433.9,564.5 -439.5,564.5 -439.5,568.4 -434.3,568.4 -434.3,571.1 
			-439.5,571.1 -439.5,575.8 -433.7,575.8 -433.7,578.6 -442.6,578.6 		"/>
		<polygon fill="#EB008B" points="-432.8,561.7 -429.6,561.7 -425.2,573.5 -425.2,561.7 -422.3,561.7 -422.3,578.6 -425.5,578.6 
			-429.9,566.7 -429.8,578.6 -432.8,578.6 		"/>
		<path fill="#EB008B" d="M-411.1,572.6c0,0.2,0,0.4,0,0.7c0,3.9-1.6,5.8-5,5.8c-1.6,0-2.7-0.4-3.6-1.3c-1.4-1.5-1.6-3.9-1.6-7.8
			c0-3.2,0.2-5.4,0.9-6.5c0.9-1.6,2.2-2.2,4.3-2.2c3.5,0,4.9,1.7,4.9,5.7h-3.1v-0.4c0-1.8-0.6-2.7-1.8-2.7c-2,0-2,1.8-2,6.1
			c0,4.7,0,6.6,1.9,6.6c1.5,0,1.9-1.1,1.9-3.7v-0.2h3.2V572.6z"/>
		<polygon fill="#EB008B" points="-407.2,571.4 -411.7,561.7 -408.2,561.7 -405.6,568.1 -403.1,561.7 -399.6,561.7 -404,571.4 
			-404,578.6 -407.2,578.6 		"/>
		<path fill="#231F20" d="M-458.3,537.5c-1.2-1.5-1.8-3.4-1.8-5.6c0-0.6,0.1-1.3,0.2-2c0.1-0.7,0.3-1.3,0.5-1.8s0.6-1.2,1.1-1.9
			l0.1-0.2h-0.9l0,0c-0.9,1.1-1.5,2.1-1.9,3s-0.5,1.8-0.5,2.8c0,0.9,0.2,1.9,0.5,2.8c0.2,0.6,0.4,1,0.7,1.4c0.2,0.3,0.6,0.8,1,1.4
			l0.2,0.3h1L-458.3,537.5z"/>
		<path fill="#231F20" d="M-452.5,527.5v4.9c0,0.7-0.1,1.1-0.2,1.4s-0.3,0.5-0.5,0.7c-0.4,0.4-1,0.5-1.7,0.5c-0.5,0-0.9-0.1-1.3-0.3
			s-0.6-0.4-0.8-0.7c-0.2-0.3-0.3-0.8-0.3-1.6v-4.9h-1.4v4.9c0,0.7,0,1.2,0.1,1.5c0.1,0.3,0.2,0.6,0.4,0.8c0.1,0.2,0.3,0.4,0.5,0.6
			c0.7,0.6,1.6,0.9,2.7,0.9s2-0.3,2.7-0.9c0.2-0.2,0.4-0.4,0.5-0.6s0.3-0.5,0.4-0.9c0.1-0.3,0.1-0.8,0.1-1.5v-4.9L-452.5,527.5
			L-452.5,527.5z"/>
		<polygon fill="#231F20" points="-447.5,531.7 -443.8,527.5 -445.6,527.5 -449,531.2 -449,527.5 -450.4,527.5 -450.4,536.2 
			-449,536.2 -449,532.2 -444.8,536.2 -442.8,536.2 		"/>
		<path fill="#231F20" d="M-440.8,529.1c-0.2-0.6-0.4-1-0.7-1.4c-0.2-0.4-0.6-0.8-1-1.3l-0.2-0.3h-0.9l0.1,0.2
			c0.4,0.6,0.8,1.2,1,1.7c0.2,0.6,0.4,1.2,0.6,1.9c0.1,0.7,0.2,1.3,0.2,2c0,0.6-0.1,1.2-0.2,1.9s-0.3,1.3-0.5,1.8s-0.6,1.2-1.1,2
			l-0.1,0.2h0.9l0,0c0.6-0.8,1.1-1.4,1.3-1.8c0.2-0.4,0.4-0.9,0.6-1.3c0.3-0.9,0.5-1.8,0.5-2.7C-440.2,530.9-440.4,530-440.8,529.1"
			/>
		<path fill="#231F20" d="M-436.5,540.4v-12.8h2.9c1.5,0,2.7,0.4,3.5,1.1c0.8,0.8,1.3,1.8,1.3,3.1s-0.4,2.3-1.2,3.1
			c-0.8,0.8-1.8,1.2-3,1.2c-0.5,0-1.1-0.1-1.8-0.4v4.5h-1.7V540.4z M-433.6,529.2h-1.2v5.2c0.5,0.3,1.1,0.4,1.6,0.4
			c0.8,0,1.4-0.3,1.9-0.8s0.7-1.2,0.7-2.1c0-0.6-0.1-1-0.4-1.5c-0.2-0.4-0.6-0.7-1-0.9C-432.3,529.3-432.9,529.2-433.6,529.2"/>
		<rect x="-427.4" y="523.2" fill="#231F20" width="1.7" height="12.9"/>
	</g>
	<g>
		<path fill="#231F20" d="M-417.5,534.1v1.7c-0.8,0.3-1.7,0.5-2.5,0.5c-1.3,0-2.4-0.4-3.2-1.2c-0.8-0.8-1.2-1.8-1.2-3.2
			c0-1.3,0.4-2.4,1.2-3.2c0.8-0.8,1.8-1.2,3-1.2c0.4,0,0.8,0,1.2,0.1c0.3,0.1,0.8,0.2,1.3,0.5v1.8c-0.8-0.5-1.6-0.8-2.4-0.8
			s-1.4,0.3-1.9,0.8s-0.7,1.2-0.7,2c0,0.9,0.3,1.6,0.8,2.1s1.2,0.8,2.1,0.8C-419,534.7-418.3,534.5-417.5,534.1"/>
		<path fill="#231F20" d="M-712.6,527.5v10h-1.4c-0.6-2.6-1.7-4.6-3.4-6.1c-1.7-1.5-3.7-2.3-6-2.3c-2.8,0-5.1,1.1-6.9,3.3
			c-1.8,2.2-2.6,5-2.6,8.5c0,3.8,1,7.2,3.1,10c2.1,2.8,4.6,4.2,7.5,4.2c1.9,0,3.8-0.5,5.7-1.6c1.9-1,3.5-2.5,4.8-4.3v2.1
			c-3.1,4.2-7.2,6.2-12.5,6.2c-4.2,0-7.6-1.3-10.2-4c-2.6-2.6-4-6.1-4-10.3c0-4.3,1.4-8,4.3-11.1c2.8-3,6.3-4.6,10.3-4.6
			c1.8,0,3.8,0.4,6,1.1c1,0.3,1.6,0.5,2,0.5c0.8,0,1.4-0.5,1.9-1.6C-714,527.5-712.6,527.5-712.6,527.5z"/>
	</g>
	<g>
		<path fill="#231F20" d="M-687.8,550.7v-14c0-1.9-0.5-3.4-1.6-4.5c-1-1.1-2.4-1.7-4.1-1.7c-1.6,0-3,0.4-4.3,1.2s-2.6,2.2-4,4.1
			v15.5c0,1.5,0.3,2.5,1,3s1.9,0.8,3.7,0.8v1.3h-15v-1.3c2.2-0.1,3.5-0.4,4.1-1.1s0.9-2.1,0.9-4.4V513c0-1.7-0.3-2.9-0.9-3.4
			c-0.6-0.6-2-0.8-4.1-0.8v-1.3l9.1-1h1.3v26.7c1.8-2.1,3.5-3.5,4.9-4.4c1.5-0.8,3.1-1.3,5-1.3c2.8,0,5,0.9,6.8,2.7s2.6,4.1,2.6,7.1
			v12.5c0,2.2,0.3,3.7,0.9,4.4s1.8,1.1,3.7,1.1v1.3h-14.7v-1.3c1.9,0,3.2-0.3,3.8-0.9C-688.1,553.7-687.8,552.5-687.8,550.7"/>
		<path fill="#231F20" d="M-668.6,557.4c-2.2,0-4.1-0.7-5.7-2.2c-1.6-1.5-2.4-3.2-2.4-5.3c0-2,0.7-3.6,2-4.9
			c1.4-1.3,4.1-2.5,8.3-3.7c2.6-0.7,4.4-1.3,5.3-1.9v-2.1c0-2.1-0.6-3.7-1.7-5s-2.7-1.9-4.6-1.9c-1.7,0-3.3,0.5-4.6,1.6
			s-2.3,2.6-2.8,4.4l-1.4-0.4c0.6-2.6,1.8-4.7,3.7-6.3c1.9-1.6,4.1-2.4,6.7-2.4c3,0,5.5,0.9,7.4,2.7c1.9,1.8,2.8,4.4,2.8,7.6V550
			c0,1.7,0.1,2.9,0.3,3.5s0.6,0.9,1.3,0.9c0.4,0,0.8-0.2,1.1-0.5c0.3-0.4,0.6-1.1,0.9-2.2h1.3c-0.1,1.8-0.7,3.2-1.7,4.2
			s-2.2,1.6-3.8,1.6c-2.3,0-3.9-1.3-4.8-4c-1.4,1.5-2.6,2.6-3.7,3.2C-665.9,557.2-667.2,557.4-668.6,557.4 M-661,550.8v-9.6
			c-0.8,0.3-2,0.8-3.5,1.3c-2.8,1-4.6,1.9-5.4,2.9c-0.8,0.9-1.2,2.2-1.2,3.8c0,1.4,0.4,2.6,1.3,3.6c0.8,1,1.8,1.5,3,1.5
			c1.1,0,2.2-0.4,3.3-1C-662.4,552.7-661.5,551.8-661,550.8"/>
		<path fill="#231F20" d="M-640.1,527.5v5.9h0.2c1.2-1.8,2.7-3.2,4.5-4.3c1.8-1.1,3.7-1.6,5.5-1.6c2.1,0,3.9,0.6,5.5,1.7
			c1.6,1.1,2.7,2.7,3.4,4.6c3-4.2,6.5-6.3,10.4-6.3c2.8,0,5,0.8,6.8,2.5s2.7,4,2.7,7v14.2c0,1.5,0.3,2.6,1,3.1
			c0.7,0.5,1.9,0.8,3.7,0.8v1.4h-14.9v-1.4c2.1,0,3.4-0.3,3.9-1c0.6-0.7,0.9-2.1,0.9-4.4v-13.3c0-1.8-0.5-3.2-1.6-4.3
			c-1.1-1-2.6-1.6-4.5-1.6c-3,0-5.6,1.8-8,5.4V551c0,1.6,0.3,2.6,1,3.2c0.7,0.6,1.9,0.8,3.7,0.8v1.4h-14.8V555c2.1,0,3.4-0.3,4-1
			c0.5-0.7,0.8-2.1,0.8-4.4v-12.9c0-1.9-0.6-3.4-1.7-4.5c-1.1-1.1-2.6-1.7-4.3-1.7c-1.5,0-3,0.5-4.5,1.5s-2.7,2.3-3.6,4v15.3
			c0,1.4,0.3,2.5,1.1,3c0.7,0.6,1.9,0.8,3.7,0.8v1.3h-15V555c2.1,0,3.4-0.3,4-1c0.6-0.6,0.8-1.8,0.8-3.6v-16.6
			c0-1.5-0.3-2.5-0.9-3.2c-0.6-0.7-1.6-1-3-1h-1.8v-1.3l9.7-0.9L-640.1,527.5L-640.1,527.5z"/>
		<path fill="#231F20" d="M-588.1,527.5v4.8c1.8-1.7,3.4-3,4.9-3.7c1.5-0.7,3.1-1.1,4.9-1.1c3.7,0,6.7,1.4,9.1,4.2
			c2.4,2.8,3.6,6.3,3.6,10.5c0,4.4-1.3,8-4,10.9c-2.7,2.9-6,4.3-10,4.3c-2.8,0-5.6-1.1-8.5-3.3v18.6c0,1.9,0.3,3.2,1,3.8
			c0.7,0.6,1.9,0.9,3.7,0.9v1.3h-15.1v-1.3c1.9,0,3.3-0.3,3.9-0.8c0.7-0.5,1-1.6,1-3.1v-39.4c0-1.9-0.3-3.1-0.9-3.6
			c-0.6-0.5-1.9-0.8-4.1-0.8v-1.3l9-0.9H-588.1z M-588.1,534.4v17.7c2.2,2.3,4.8,3.5,7.8,3.5c2.5,0,4.6-1.2,6.3-3.5
			c1.7-2.4,2.6-5.3,2.6-8.8c0-3.8-0.9-6.9-2.6-9.4s-3.9-3.7-6.5-3.7S-585.6,531.6-588.1,534.4"/>
		<path fill="#231F20" d="M-519,542.5c0,4.3-1.5,7.8-4.4,10.6c-2.9,2.8-6.6,4.3-11,4.3c-4.4,0-8.1-1.4-11-4.3
			c-2.9-2.8-4.4-6.4-4.4-10.6c0-4.3,1.5-7.9,4.4-10.7c2.9-2.8,6.6-4.3,11.1-4.3c4.4,0,8.1,1.4,11.1,4.3
			C-520.4,534.7-519,538.2-519,542.5 M-524.8,542.5c0-4-0.9-7.3-2.6-9.7c-1.7-2.5-4-3.7-7-3.7s-5.3,1.2-7,3.6
			c-1.7,2.4-2.6,5.7-2.6,9.8s0.8,7.3,2.5,9.7c1.7,2.4,4,3.6,7,3.6s5.3-1.2,7-3.7C-525.7,549.8-524.8,546.5-524.8,542.5"/>
		<path fill="#231F20" d="M-509.3,527.5v5.6c3.3-3.8,6.7-5.6,10.2-5.6c2.7,0,5,0.9,6.8,2.8c1.8,1.9,2.7,4.3,2.7,7.3v12.8
			c0,1.9,0.3,3.2,1,3.9c0.6,0.6,1.9,0.9,3.8,0.9v1.3h-15.1v-1.3c1.9,0,3.2-0.2,3.8-0.7c0.7-0.5,1-1.4,1-2.8v-14.8
			c0-2-0.6-3.5-1.8-4.7c-1.2-1.2-2.7-1.8-4.5-1.8c-2.6,0-5.3,1.8-8,5.5v13.8c0,2.3,0.3,3.8,0.9,4.5c0.6,0.6,1.9,1,3.8,1v1.3h-14.9
			v-1.3c2.2,0,3.5-0.3,4-1s0.7-2.1,0.7-4.4v-15.9c0-1.7-0.3-2.8-0.9-3.3s-1.9-0.8-3.8-0.8v-1.3l8.8-0.9L-509.3,527.5L-509.3,527.5z"
			/>
		<path fill="#231F20" d="M-466.1,527.5v8.7h-1.6c-0.3-2.2-1-3.9-2.3-5.2s-2.9-1.9-4.7-1.9c-1.4,0-2.5,0.4-3.4,1.1s-1.3,1.6-1.3,2.8
			c0,1.1,0.4,2.1,1.2,3c0.8,0.9,2.5,1.9,5.2,3.1c3.4,1.6,5.7,3,6.8,4.5s1.7,3.1,1.7,5.1c0,2.4-0.9,4.4-2.6,6.1
			c-1.8,1.7-3.9,2.6-6.3,2.6c-1.2,0-2.9-0.5-4.9-1.4c-1.1-0.5-1.9-0.7-2.2-0.7c-0.5,0-0.9,0.2-1.2,0.5c-0.3,0.4-0.5,0.8-0.6,1.4
			h-1.4v-9.6h1.4c0.5,2.5,1.6,4.5,3.3,6c1.7,1.5,3.6,2.2,5.8,2.2c1.4,0,2.6-0.5,3.5-1.4c1-0.9,1.4-2.1,1.4-3.5
			c0-1.3-0.4-2.5-1.3-3.5s-2.8-2.1-5.7-3.4c-3.3-1.4-5.4-2.8-6.5-4c-1-1.2-1.6-2.7-1.6-4.5c0-2.2,0.8-4.1,2.5-5.7
			c1.7-1.6,3.7-2.4,6.1-2.4c1.1,0,2.3,0.3,3.5,0.8c0.9,0.4,1.6,0.5,2.2,0.5c0.8,0,1.3-0.4,1.7-1.3h1.3V527.5z"/>
		<path fill="#EB008B" d="M-570,507.9c0.1-2.7,1.3-5,1.3-5c-1.3,8.5,6.5,8.4,11.7,10.2c4,1.4,6.6,2.9,7.8,6.8l0,0l0,0
			c0.5,1.8,0.6,3.8-0.2,5.9c0-4.7-4.6-6.8-9.2-8.2c-0.2-0.1-0.4-0.1-0.5-0.2c-2.6-0.8-5.1-1.4-6.7-2.2c-0.5-0.3-1-0.6-1.4-0.9
			c-0.4-0.3-0.8-0.7-1.1-1.1C-569.8,511.7-570.2,509.7-570,507.9"/>
		<path fill="#EB008B" d="M-568.8,515.6c0.3,0.4,0.6,0.7,1,1c0.4,0.3,0.9,0.6,1.4,0.9c1.6,0.8,4,1.4,6.5,2.1
			c0.2,0.1,0.4,0.1,0.5,0.2c4.1,1.3,8.2,3.1,8.8,7c0.1,1.1-0.1,2.2-0.5,3.4c0-4.1-4-5.8-7.9-7.1c-0.2-0.1-0.3-0.1-0.5-0.1
			c-2.2-0.7-4.4-1.2-5.8-1.9c-0.5-0.2-0.9-0.5-1.2-0.8c-0.4-0.3-0.7-0.6-1-0.9C-568.4,518.1-568.8,516.9-568.8,515.6"/>
		<path fill="#EB008B" d="M-552.2,530.5c-0.3-1.8-1.5-3-3.2-3.9c-1.1-0.6-2.3-1-3.5-1.4c-0.1,0-0.3-0.1-0.4-0.1
			c-0.2-0.1-0.3-0.1-0.5-0.2c-0.3-0.1-0.7-0.2-1-0.3c-1.3-0.4-2.6-0.7-3.4-1.2c-0.4-0.2-0.7-0.4-1.1-0.7c-0.3-0.2-0.6-0.5-0.8-0.8
			c0.1,0.9,0.4,2.1,1.1,2.9c0.1,0.1,0.2,0.2,0.3,0.4c0.1,0.1,0.2,0.2,0.4,0.3c0.3,0.2,0.6,0.4,0.9,0.6c0.6,0.3,1.5,0.6,2.5,0.9
			c0.6,0.2,1.2,0.4,1.9,0.5c0.1,0,0.2,0.1,0.4,0.1c0.2,0.1,0.3,0.1,0.5,0.2c0.1,0,0.1,0,0.2,0.1c0.1,0,0.2,0.1,0.3,0.1
			c0.1,0,0.1,0.1,0.2,0.1c0.1,0,0.2,0.1,0.3,0.1c0.1,0,0.2,0.1,0.2,0.1c0.1,0,0.2,0.1,0.2,0.1c0.1,0,0.2,0.1,0.3,0.1
			c0.1,0,0.1,0.1,0.2,0.1c0.3,0.1,0.5,0.3,0.7,0.4c0.3,0.2,0.5,0.3,0.8,0.5l0,0c0.1,0.1,0.2,0.2,0.3,0.3l0,0
			c0.1,0.1,0.2,0.2,0.3,0.3l0,0c0.5,0.5,0.9,1,1.1,1.7c0.1,0.3,0.2,0.7,0.2,1.1C-552.3,532.2-552.1,531.3-552.2,530.5"/>
		<path fill="#EB008B" d="M-554.2,554.4c-0.7-0.5-1-1.6-1-3.1v-17.8v-1.9c-0.2-0.2-0.4-0.3-0.7-0.4c-0.8-0.4-1.7-0.7-2.5-1
			c-0.1,0-0.2-0.1-0.3-0.1c-0.1,0-0.2-0.1-0.4-0.1c-0.2-0.1-0.5-0.1-0.7-0.2c-0.3-0.1-0.5-0.2-0.8-0.2c-0.7-0.2-1.2-0.4-1.7-0.6
			c-0.3-0.2-0.5-0.3-0.8-0.5c-0.2-0.2-0.4-0.4-0.6-0.5c0,0.7,0.3,1.5,0.8,2.1c0.1,0.1,0.2,0.2,0.2,0.3c0.1,0.1,0.2,0.2,0.3,0.2
			c0.2,0.2,0.4,0.3,0.7,0.4s0.6,0.3,1,0.4v20c0,1.6-0.3,2.6-1,3.1c-0.6,0.5-2.1,0.8-4.4,0.8v1.3h15.4v-1.3
			C-552.3,555.2-553.5,555-554.2,554.4"/>
	</g>
</g>
</svg>
