<?xml version="1.0" encoding="utf-8"?>
<!-- Generator: Adobe Illustrator 13.0.0, SVG Export Plug-In . SVG Version: 6.00 Build 14948)  -->
<!DOCTYPE svg PUBLIC "-//W3C//DTD SVG 1.1//EN" "http://www.w3.org/Graphics/SVG/1.1/DTD/svg11.dtd">
<svg version="1.1" id="Apogee" xmlns="http://www.w3.org/2000/svg" xmlns:xlink="http://www.w3.org/1999/xlink" x="0px" y="0px"
	 width="390px" height="150px" viewBox="0 0 390 150" enable-background="new 0 0 390 150" xml:space="preserve">
<g>
	<rect x="103.4" y="97.9" fill="#929497" width="275" height="3.7"/>
</g>
<path fill="#231F20" d="M62.2,25.5"/>
<path fill="#231F20" d="M61.1,47.7"/>
<path fill="#929497" d="M12.1,125.2l43-99.7l42.8,99.7H78.3L70.7,101l-31.2-0.4l-7.4,24.8L12.1,125.2z M54.6,54.2L43.3,86.3h23.1
	L54.6,54.2z"/>
<path fill="#929497" d="M269.2,27.4h-23.5c0,0-22.7-2-23.2,23.2V65c0,0-0.8,26.9,20.6,26.9c21.4,0,26.1,0,26.1,0V53.4h-25v11.3h13.9
	v15l-12.3-0.2c0,0-11.9,1.3-11.9-20.9c0,0-1.8-19.7,11.9-19.7l23.4,0.1V27.4z"/>
<path fill="#929497" d="M324,27.4V39h-19.6c0,0-8.7-0.1-8.7,14.7H324v11.7h-28.4c0,0,0.4,14.5,9.6,14.7c9.2,0.2,18.8,0,18.8,0v11.6
	h-18.8c0,0-22,1.1-22-30.1v-7.4c0,0-1.1-26.8,19.4-26.8C319.4,27.4,324,27.4,324,27.4z"/>
<path fill="#929497" d="M377.9,27.4V39h-19.6c0,0-8.7-0.1-8.7,14.7h28.3v11.7h-28.4c0,0,0.4,14.5,9.6,14.7c9.2,0.2,18.8,0,18.8,0
	v11.6H359c0,0-22,1.1-22-30.1v-7.4c0,0-1.1-26.8,19.4-26.8C373.3,27.4,377.9,27.4,377.9,27.4z"/>
<g>
	<rect x="103.4" y="121.7" fill="#929497" width="275" height="3.7"/>
</g>
<path fill="#231F20" stroke="#231F20" stroke-width="0.5" d="M172.5,59.5"/>
<g>
	<path fill="#929497" d="M211.2,59.6c0,18-11.2,32.5-25.1,32.5c-13.9,0-25.1-14.6-25.1-32.5c0-18,11.2-32.5,25.1-32.5
		C200,27.1,211.2,41.6,211.2,59.6z M186.1,37.5c-9.1,0-13.6,9.9-13.6,22.1c0,12.2,6.1,22.1,13.6,22.1c7.5,0,13.6-9.9,13.6-22.1
		C199.7,47.4,193.6,37.5,186.1,37.5z"/>
</g>
<path fill="#231F20" stroke="#231F20" stroke-width="0.5" d="M149.1,66.5"/>
<path fill="#929497" d="M136,27.7c10.8,0,12.4,20,12.4,20c0,18.9-12.3,21.6-12.3,21.6h-21.6v22.4h-10.7V27.8L136,27.7z M114.4,39.2
	V58h18.2c0,0,5,0.1,5-9.6c0,0,0.5-9.1-5-9.1C127.2,39.2,114.4,39.2,114.4,39.2z"/>
<g>
	<defs>
		<path id="SVGID_1_" d="M114.4,39.2V58h18.2c0,0,5,0.1,5-9.6c0,0,0.5-9.1-5-9.1C127.2,39.2,114.4,39.2,114.4,39.2z"/>
	</defs>
	<clipPath id="SVGID_2_">
		<use xlink:href="#SVGID_1_"  overflow="visible"/>
	</clipPath>
</g>
<path fill="#929497" d="M116.7,109.7v-0.6c0-1.3-0.5-1.4-2.5-1.4c-2.3,0-2.7,0.4-2.7,2.5v2.5c0,2.2,0.3,2.7,2.7,2.7
	c1.8,0,2.7-0.1,2.7-1.7v-0.6h2.3v0.7c0,3.4-2,3.2-5,3.4c-4.2,0.1-4.9-1.1-5-4.4v-2.6c0-3.6,1.5-4.4,5-4.4c3,0,4.7,0,4.8,3.2v0.6
	H116.7z"/>
<path fill="#929497" d="M140.1,107.7c2,0,2.8,0.1,2.8,2.2v3c0,2.2-0.7,2.4-2.8,2.4c-2.3,0-2.8-0.2-2.8-2.4v-3
	C137.4,108.2,137.7,107.7,140.1,107.7z M140.1,105.9c-3.8,0-5,0.6-5,4.1v3c0,3.7,1.4,4.3,5,4.3c3.6,0,5.1-0.7,5.1-4.3v-3
	C145.2,106.4,143.6,105.9,140.1,105.9z"/>
<path fill="#929497" d="M163.9,111.6v-3.8h3.2c1.6,0,1.9,0.3,1.9,1.9c0,1.6-0.4,1.9-2.1,1.9H163.9z M167.4,113.4
	c1.1,0,1.5,0.7,1.5,1.6v2.1h2.3V115c0-1.6-0.4-2.4-2-2.5v-0.1c2-0.3,2.1-1.5,2.1-3.1c0-2.5-1-3.3-3.6-3.3h-6.1v11.1h2.3v-3.7H167.4z
	"/>
<path fill="#929497" d="M190.1,111.7v-3.9h3c1.7,0,2,0.4,2,2c0,1.6-0.3,1.8-2,1.9H190.1z M187.8,117.1h2.3v-3.6h3
	c3.1,0,4.2-0.5,4.2-3.7c0-3.1-1.1-3.8-4.2-3.8h-5.3V117.1z"/>
<path fill="#929497" d="M218.3,107.7c2,0,2.8,0.1,2.8,2.2v3c0,2.2-0.7,2.4-2.8,2.4c-2.3,0-2.8-0.2-2.8-2.4v-3
	C215.6,108.2,215.8,107.7,218.3,107.7z M218.3,105.9c-3.8,0-5,0.6-5,4.1v3c0,3.7,1.4,4.3,5,4.3c3.6,0,5.1-0.7,5.1-4.3v-3
	C223.4,106.4,221.7,105.9,218.3,105.9z"/>
<path fill="#929497" d="M242,111.6v-3.8h3.2c1.6,0,1.9,0.3,1.9,1.9c0,1.6-0.4,1.9-2.1,1.9H242z M245.6,113.4c1.1,0,1.5,0.7,1.5,1.6
	v2.1h2.3V115c0-1.6-0.4-2.4-2-2.5v-0.1c2-0.3,2.1-1.5,2.1-3.1c0-2.5-1-3.3-3.6-3.3h-6.1v11.1h2.3v-3.7H245.6z"/>
<path fill="#929497" d="M272.8,113.4h-4.1l2-5.8h0L272.8,113.4z M273.3,115l0.8,2.1h2.3l-4-11.1H269l-4,11.1h2.4l0.7-2.1H273.3z"/>
<path fill="#929497" d="M296,117.1h-2.3v-9.3h-3.5V106h9.3v1.8H296V117.1z"/>
<path fill="#929497" d="M317.6,117.1h-2.3V106h2.3V117.1z"/>
<path fill="#929497" d="M339.1,107.7c2,0,2.8,0.1,2.8,2.2v3c0,2.2-0.7,2.4-2.8,2.4c-2.3,0-2.8-0.2-2.8-2.4v-3
	C336.4,108.2,336.6,107.7,339.1,107.7z M339.1,105.9c-3.8,0-5,0.6-5,4.1v3c0,3.7,1.4,4.3,5,4.3c3.6,0,5.1-0.7,5.1-4.3v-3
	C344.2,106.4,342.5,105.9,339.1,105.9z"/>
<path fill="#929497" d="M369.4,106h2.3v11.1h-3.8l-5.1-9.3h-0.1l0.2,9.3h-2.3V106h3.8l5.1,9.3h0.1L369.4,106z"/>
</svg>
